<svg xmlns="http://www.w3.org/2000/svg" viewBox="0 0 860 420" role="img" aria-labelledby="t d">
  <title id="t">N50 and NG50 metric</title>
  <desc id="d">Top: sorted contig bars, longest first. Bottom: cumulative-length curve. A horizontal line at 50% of assembly length picks out the N50 contig (third in the list, length 2,800). A second line at 50% of an assumed genome size picks out the NG50 contig (later, length 2,100).</desc>

  <!-- ===== TOP: contig bars ===== -->
  <text x="40" y="30" font-family="Inter, sans-serif" font-size="11" font-weight="600" fill="#1e3a8a" letter-spacing="0.12em">CONTIGS · SORTED LONGEST FIRST · TOTAL 17,000 bp</text>

  <!-- Each bar: length proportional to bp (4500 → max width 360). Lengths:
       4500, 3200, 2800, 2100, 1500, 900, 700, 600, 400, 300. Width = len / 12.5. -->
  <g>
    <!-- bar heights 14, spacing 6 -->
    <g fill="none" stroke="#1e3a8a" stroke-width="2">
      <rect x="70" y="54"  width="360" height="14" rx="1"/>
      <rect x="70" y="74"  width="256" height="14" rx="1"/>
      <rect x="70" y="94"  width="224" height="14" rx="1"/>
      <rect x="70" y="114" width="168" height="14" rx="1"/>
      <rect x="70" y="134" width="120" height="14" rx="1"/>
      <rect x="70" y="154" width="72"  height="14" rx="1"/>
      <rect x="70" y="174" width="56"  height="14" rx="1"/>
      <rect x="70" y="194" width="48"  height="14" rx="1"/>
      <rect x="70" y="214" width="32"  height="14" rx="1"/>
      <rect x="70" y="234" width="24"  height="14" rx="1"/>
    </g>
    <!-- Length labels to the right of each bar -->
    <g font-family="JetBrains Mono, monospace" font-size="10" fill="#0a0a0a">
      <text x="438" y="65">4,500</text>
      <text x="334" y="85">3,200</text>
      <text x="302" y="105" font-weight="700" fill="#1e3a8a">2,800</text>
      <text x="246" y="125">2,100</text>
      <text x="198" y="145">1,500</text>
      <text x="150" y="165">900</text>
      <text x="134" y="185">700</text>
      <text x="126" y="205">600</text>
      <text x="110" y="225">400</text>
      <text x="102" y="245">300</text>
    </g>
    <!-- Contig index labels on the left -->
    <g font-family="JetBrains Mono, monospace" font-size="10" fill="#8a8a85" text-anchor="end">
      <text x="62" y="65">c1</text>
      <text x="62" y="85">c2</text>
      <text x="62" y="105" font-weight="700" fill="#1e3a8a">c3</text>
      <text x="62" y="125">c4</text>
      <text x="62" y="145">c5</text>
      <text x="62" y="165">c6</text>
      <text x="62" y="185">c7</text>
      <text x="62" y="205">c8</text>
      <text x="62" y="225">c9</text>
      <text x="62" y="245">c10</text>
    </g>

    <!-- N50 highlight line dropping from c3 bar to lower chart -->
    <line x1="294" y1="108" x2="294" y2="280" stroke="#1e3a8a" stroke-width="1" stroke-dasharray="4 3"/>
    <text x="300" y="102" font-family="Inter, sans-serif" font-size="10" font-weight="600" fill="#1e3a8a">N50 = 2,800 bp</text>
  </g>

  <!-- ===== BOTTOM: cumulative curve ===== -->
  <text x="40" y="280" font-family="Inter, sans-serif" font-size="11" font-weight="600" fill="#1e3a8a" letter-spacing="0.12em">CUMULATIVE LENGTH CURVE</text>

  <g transform="translate(0 290)">
    <!-- Axes -->
    <line x1="70" y1="0" x2="70" y2="100" stroke="#c4c1b6" stroke-width="1"/>
    <line x1="70" y1="100" x2="620" y2="100" stroke="#c4c1b6" stroke-width="1"/>

    <!-- X ticks: 10 contigs, x = 70 + i * 55 -->
    <g font-family="JetBrains Mono, monospace" font-size="9" fill="#8a8a85" text-anchor="middle">
      <text x="70" y="114">0</text>
      <text x="125" y="114">1</text>
      <text x="180" y="114">2</text>
      <text x="235" y="114" font-weight="700" fill="#1e3a8a">3</text>
      <text x="290" y="114">4</text>
      <text x="345" y="114">5</text>
      <text x="400" y="114">6</text>
      <text x="455" y="114">7</text>
      <text x="510" y="114">8</text>
      <text x="565" y="114">9</text>
      <text x="620" y="114">10</text>
    </g>
    <text x="345" y="128" text-anchor="middle" font-family="Inter, sans-serif" font-size="10" fill="#525252">contig index (sorted)</text>

    <!-- Y ticks: 0, 50% = 8500 (N50 line), 100% = 17000. Y = 100 - len/170 -->
    <g font-family="JetBrains Mono, monospace" font-size="9" fill="#8a8a85" text-anchor="end">
      <text x="64" y="104">0</text>
      <text x="64" y="53" font-weight="700" fill="#1e3a8a">50%</text>
      <text x="64" y="3">17k</text>
    </g>

    <!-- Cumulative curve points. Cumul after contig i: 4500, 7700, 10500, 12600, 14100, 15000, 15700, 16300, 16700, 17000. Y = 100 - cumul/170 -->
    <g stroke="#1e3a8a" stroke-width="2" fill="none">
      <polyline points="70,100 125,74 180,55 235,38 290,26 345,17 400,12 455,8 510,4 565,2 620,0"/>
    </g>
    <!-- Points -->
    <g fill="#1e3a8a">
      <circle cx="125" cy="74" r="2.5"/>
      <circle cx="180" cy="55" r="2.5"/>
      <circle cx="235" cy="38" r="3.5"/>
      <circle cx="290" cy="26" r="2.5"/>
      <circle cx="345" cy="17" r="2.5"/>
      <circle cx="400" cy="12" r="2.5"/>
      <circle cx="455" cy="8"  r="2.5"/>
      <circle cx="510" cy="4"  r="2.5"/>
      <circle cx="565" cy="2"  r="2.5"/>
      <circle cx="620" cy="0"  r="2.5"/>
    </g>

    <!-- N50 reference line at y = 50 (50% of 17k = 8500) -->
    <line x1="70" y1="50" x2="620" y2="50" stroke="#1e3a8a" stroke-width="1" stroke-dasharray="4 3"/>
    <text x="626" y="54" font-family="Inter, sans-serif" font-size="9" fill="#1e3a8a">50% assembly</text>
    <!-- Intersection drop line from N50 point to the x-axis -->
    <line x1="235" y1="38" x2="235" y2="100" stroke="#1e3a8a" stroke-width="1" stroke-dasharray="3 2"/>

    <!-- NG50 reference line at y = 100 - 10000/170 ≈ 41.2 (50% of genome 20k = 10k) -->
    <line x1="70" y1="41" x2="620" y2="41" stroke="#525252" stroke-width="1" stroke-dasharray="4 3"/>
    <text x="626" y="45" font-family="Inter, sans-serif" font-size="9" fill="#525252">50% genome</text>
    <!-- NG50 intersect: curve first reaches 10k at contig 3 cumul=10500 → so same c3 here roughly, but spec says later (c4 at 12600). Let's place at c4 for teaching clarity. -->
    <line x1="290" y1="26" x2="290" y2="100" stroke="#525252" stroke-width="1" stroke-dasharray="3 2"/>
    <circle cx="290" cy="41" r="3" fill="#525252"/>
    <text x="296" y="41" font-family="Inter, sans-serif" font-size="10" font-weight="600" fill="#525252">NG50 = 2,100 bp</text>
  </g>

  <!-- Footer caption -->
  <text x="430" y="410" text-anchor="middle" font-family="Inter, sans-serif" font-size="10" fill="#8a8a85">N50: half of the assembly sits in contigs ≥ this length. NG50: same, using the assumed genome size.</text>
</svg>
