<svg xmlns="http://www.w3.org/2000/svg" viewBox="0 0 900 480" role="img" aria-labelledby="t d">
  <title id="t">N50 and NG50 metric</title>
  <desc id="d">Top: sorted contig bars, longest first. Bottom: cumulative-length curve. A horizontal line at 50% of assembly length picks out the N50 contig (third in the list, length 2,800). A second line at 50% of an assumed genome size picks out the NG50 contig (later, length 2,100).</desc>

  <!-- ===== TOP: contig bars ===== -->
  <text x="40" y="30" font-family="Inter, sans-serif" font-size="11" font-weight="600" fill="#1e3a8a" letter-spacing="0.12em">CONTIGS · SORTED LONGEST FIRST · TOTAL 17,000 bp</text>

  <g>
    <!-- bar heights 14, row spacing 20. Bars start at y=54 for c1. Width = len / 12.5. -->
    <g fill="none" stroke="#1e3a8a" stroke-width="2">
      <rect x="100" y="54"  width="360" height="14" rx="1"/>
      <rect x="100" y="74"  width="256" height="14" rx="1"/>
      <rect x="100" y="94"  width="224" height="14" rx="1"/>
      <rect x="100" y="114" width="168" height="14" rx="1"/>
      <rect x="100" y="134" width="120" height="14" rx="1"/>
      <rect x="100" y="154" width="72"  height="14" rx="1"/>
      <rect x="100" y="174" width="56"  height="14" rx="1"/>
      <rect x="100" y="194" width="48"  height="14" rx="1"/>
      <rect x="100" y="214" width="32"  height="14" rx="1"/>
      <rect x="100" y="234" width="24"  height="14" rx="1"/>
    </g>

    <!-- Highlight the N50 contig (c3) with a filled background -->
    <rect x="100" y="92" width="224" height="18" fill="#eef2ff" stroke="none"/>
    <g fill="none" stroke="#1e3a8a" stroke-width="2">
      <rect x="100" y="94" width="224" height="14" rx="1"/>
    </g>

    <!-- Length labels to the right of each bar -->
    <g font-family="JetBrains Mono, monospace" font-size="10" fill="#0a0a0a">
      <text x="468" y="65">4,500</text>
      <text x="364" y="85">3,200</text>
      <text x="332" y="105" font-weight="700" fill="#1e3a8a">2,800</text>
      <text x="276" y="125">2,100</text>
      <text x="228" y="145">1,500</text>
      <text x="180" y="165">900</text>
      <text x="164" y="185">700</text>
      <text x="156" y="205">600</text>
      <text x="140" y="225">400</text>
      <text x="132" y="245">300</text>
    </g>

    <!-- Contig index labels on the left -->
    <g font-family="JetBrains Mono, monospace" font-size="10" fill="#8a8a85" text-anchor="end">
      <text x="92" y="65">c1</text>
      <text x="92" y="85">c2</text>
      <text x="92" y="105" font-weight="700" fill="#1e3a8a">c3</text>
      <text x="92" y="125">c4</text>
      <text x="92" y="145">c5</text>
      <text x="92" y="165">c6</text>
      <text x="92" y="185">c7</text>
      <text x="92" y="205">c8</text>
      <text x="92" y="225">c9</text>
      <text x="92" y="245">c10</text>
    </g>

    <!-- N50 callout label (to the right, clear of bars and length labels) -->
    <g>
      <line x1="550" y1="101" x2="620" y2="101" stroke="#1e3a8a" stroke-width="1" stroke-dasharray="3 2"/>
      <text x="628" y="105" font-family="Inter, sans-serif" font-size="11" font-weight="700" fill="#1e3a8a">N50 = 2,800 bp</text>
      <text x="628" y="120" font-family="Inter, sans-serif" font-size="10" fill="#525252">the contig at the 50% mark</text>
    </g>
  </g>

  <!-- ===== BOTTOM: cumulative curve ===== -->
  <text x="40" y="295" font-family="Inter, sans-serif" font-size="11" font-weight="600" fill="#1e3a8a" letter-spacing="0.12em">CUMULATIVE LENGTH CURVE</text>

  <g transform="translate(0 310)">
    <!-- Plot area: x from 100 to 680 (width 580), y from 0 (top) to 110 (bottom). -->
    <!-- Axes -->
    <line x1="100" y1="0"   x2="100" y2="110" stroke="#c4c1b6" stroke-width="1"/>
    <line x1="100" y1="110" x2="680" y2="110" stroke="#c4c1b6" stroke-width="1"/>

    <!-- X ticks: 11 positions (0..10 contigs), spacing = 58. -->
    <g font-family="JetBrains Mono, monospace" font-size="9" fill="#8a8a85" text-anchor="middle">
      <text x="100" y="124">0</text>
      <text x="158" y="124">1</text>
      <text x="216" y="124">2</text>
      <text x="274" y="124" font-weight="700" fill="#1e3a8a">3</text>
      <text x="332" y="124">4</text>
      <text x="390" y="124">5</text>
      <text x="448" y="124">6</text>
      <text x="506" y="124">7</text>
      <text x="564" y="124">8</text>
      <text x="622" y="124">9</text>
      <text x="680" y="124">10</text>
    </g>
    <text x="390" y="142" text-anchor="middle" font-family="Inter, sans-serif" font-size="10" fill="#525252">contig index (sorted longest first)</text>

    <!-- Y ticks: 0 (bottom, y=110), 50% assembly (y = 60), 100% (y = 10). Scale: 17000 bp over 100 px → 1bp=0.00588 px. y = 110 - cumul * (100/17000) -->
    <g font-family="JetBrains Mono, monospace" font-size="9" fill="#8a8a85" text-anchor="end">
      <text x="94" y="114">0</text>
      <text x="94" y="14">17k</text>
    </g>
    <text x="30" y="60" text-anchor="middle" font-family="Inter, sans-serif" font-size="10" fill="#525252" transform="rotate(-90 30 60)">cumulative length (bp)</text>

    <!-- Cumulative points. Cumul after contig i: 4500, 7700, 10500, 12600, 14100, 15000, 15700, 16300, 16700, 17000.
         y = 110 - cumul / 170 -->
    <g stroke="#1e3a8a" stroke-width="2" fill="none">
      <polyline points="100,110 158,83.5 216,64.7 274,48.2 332,35.9 390,27.1 448,21.8 506,17.6 564,14.1 622,11.8 680,10"/>
    </g>
    <g fill="#1e3a8a">
      <circle cx="158" cy="83.5" r="2.5"/>
      <circle cx="216" cy="64.7" r="2.5"/>
      <circle cx="274" cy="48.2" r="4"/>
      <circle cx="332" cy="35.9" r="2.5"/>
      <circle cx="390" cy="27.1" r="2.5"/>
      <circle cx="448" cy="21.8" r="2.5"/>
      <circle cx="506" cy="17.6" r="2.5"/>
      <circle cx="564" cy="14.1" r="2.5"/>
      <circle cx="622" cy="11.8" r="2.5"/>
      <circle cx="680" cy="10" r="2.5"/>
    </g>

    <!-- N50 reference line at 50% of 17k = 8500 → y = 60. -->
    <line x1="100" y1="60" x2="680" y2="60" stroke="#1e3a8a" stroke-width="1" stroke-dasharray="4 3"/>
    <text x="686" y="58" font-family="Inter, sans-serif" font-size="10" font-weight="600" fill="#1e3a8a">50% assembly</text>
    <text x="686" y="72" font-family="Inter, sans-serif" font-size="9" fill="#1e3a8a">(8,500 bp)</text>

    <!-- Drop line from N50 point down to x-axis -->
    <line x1="274" y1="48.2" x2="274" y2="110" stroke="#1e3a8a" stroke-width="1" stroke-dasharray="3 2"/>
    <!-- N50 readout near the point, above so it doesn't collide with the 50% line -->
    <rect x="210" y="34" width="68" height="15" rx="3" fill="#ffffff" stroke="none"/>
    <text x="244" y="45" text-anchor="middle" font-family="Inter, sans-serif" font-size="11" font-weight="700" fill="#1e3a8a">N50 = 2,800</text>

    <!-- NG50 reference line at 50% of genome 20k = 10k → y = 110 - 10000/170 ≈ 51.2 -->
    <line x1="100" y1="51" x2="680" y2="51" stroke="#525252" stroke-width="1" stroke-dasharray="4 3"/>
    <text x="686" y="49" font-family="Inter, sans-serif" font-size="10" fill="#525252" font-weight="600">50% genome</text>
    <text x="686" y="63" font-family="Inter, sans-serif" font-size="9" fill="#525252">(10,000 bp)</text>

    <!-- NG50 drops at contig 4 (cumul=12,600 first ≥ 10,000). Drop line from curve point at c4 (y=35.9). -->
    <line x1="332" y1="35.9" x2="332" y2="110" stroke="#525252" stroke-width="1" stroke-dasharray="3 2"/>
    <circle cx="332" cy="51" r="3" fill="#525252"/>
    <!-- NG50 readout placed below the curve, clear of the 50% genome line -->
    <rect x="358" y="43" width="76" height="15" rx="3" fill="#ffffff" stroke="none"/>
    <text x="396" y="54" text-anchor="middle" font-family="Inter, sans-serif" font-size="11" font-weight="700" fill="#525252">NG50 = 2,100</text>
  </g>

  <!-- Footer caption -->
  <text x="450" y="470" text-anchor="middle" font-family="Inter, sans-serif" font-size="10" fill="#8a8a85">N50: half of the assembly sits in contigs ≥ this length. NG50: same, using the assumed genome size.</text>
</svg>
