<svg xmlns="http://www.w3.org/2000/svg" viewBox="0 0 1200 620" role="img" aria-labelledby="t d">
  <title id="t">Enformer's first convolutional layer as a learned bank of PWM matched filters</title>
  <desc id="d">A two-panel structural correspondence diagram. The left panel shows the classical PWM matched-filter interpretation: a hand-curated 4-by-15 PWM template scanning a 4-channel one-hot DNA signal to produce a single matched-filter response track. The right panel shows the first convolutional layer of Enformer: a bank of 256 learned 4-by-15 convolution kernels operating on the same 4-channel one-hot DNA, producing 256 parallel matched-filter response tracks. The two panels are connected by a wide equivalence arrow and the annotation that the kernels are learned from data instead of being hand-curated, but the underlying operation is identical discrete cross-correlation. Below, three example learned filters are shown with their resemblance to known transcription-factor motifs.</desc>

  <rect x="0" y="0" width="1200" height="620" fill="#fafaf9"/>

  <!-- Header -->
  <g>
    <text x="60" y="40" font-family="Inter, sans-serif" font-size="13" font-weight="700" fill="#1e3a8a" letter-spacing="0.08em">CNN FIRST LAYER  =  LEARNED PWM BANK</text>
    <text x="60" y="58" font-family="Inter, sans-serif" font-size="11" font-style="italic" fill="#525252">Same operation as motif scanning; the kernels are trained instead of hand-curated</text>
  </g>

  <!-- ============= LEFT PANEL: classical PWM ============= -->
  <g transform="translate(60, 100)">
    <text x="0" y="0" font-family="Inter, sans-serif" font-size="11" font-weight="700" fill="#1e3a8a" letter-spacing="0.08em">(A)  CLASSICAL  PWM  SCAN</text>
    <text x="0" y="18" font-family="Inter, sans-serif" font-size="10" fill="#525252" font-style="italic">single hand-curated 4 × L template · one response track</text>

    <!-- Template cube -->
    <g transform="translate(0, 40)">
      <text x="0" y="-6" font-family="Inter, sans-serif" font-size="9" font-weight="700" fill="#1e3a8a" letter-spacing="0.06em">TEMPLATE  (4 × 15  PWM)</text>
      <!-- 4x15 grid -->
      <g>
        <rect x="0" y="0" width="240" height="64" fill="#ffffff" stroke="#e5e3dc" stroke-width="1"/>
        <!-- 15 columns, 4 rows; cell 16x16 -->
        <!-- A row -->
        <g>
          <text x="-12" y="14" font-family="JetBrains Mono, monospace" font-size="11" font-weight="700" fill="#c4342c" text-anchor="middle">A</text>
          <text x="-12" y="30" font-family="JetBrains Mono, monospace" font-size="11" font-weight="700" fill="#2d7a3e" text-anchor="middle">C</text>
          <text x="-12" y="46" font-family="JetBrains Mono, monospace" font-size="11" font-weight="700" fill="#b45309" text-anchor="middle">G</text>
          <text x="-12" y="62" font-family="JetBrains Mono, monospace" font-size="11" font-weight="700" fill="#0d7377" text-anchor="middle">T</text>
        </g>
        <!-- Heatmap-ish cells: highlight a few cells per column to suggest CCCTC pattern -->
        <!-- Column data: encoded as a pattern: weights of 4-row stacks. Just paint highlighted cells. -->
        <!-- col 1..15, cell sizes 16x16 -->
        <!-- consensus  N C C C T C N N C C C T C N N -->
        <g>
          <!-- col 1: weak A -->
          <rect x="0"   y="0"  width="16" height="16" fill="#fde2e2" opacity="0.6"/>
          <!-- col 2: C -->
          <rect x="16"  y="16" width="16" height="16" fill="#2d7a3e" opacity="0.85"/>
          <!-- col 3: C -->
          <rect x="32"  y="16" width="16" height="16" fill="#2d7a3e" opacity="0.85"/>
          <!-- col 4: C -->
          <rect x="48"  y="16" width="16" height="16" fill="#2d7a3e" opacity="0.85"/>
          <!-- col 5: T -->
          <rect x="64"  y="48" width="16" height="16" fill="#0d7377" opacity="0.85"/>
          <!-- col 6: C -->
          <rect x="80"  y="16" width="16" height="16" fill="#2d7a3e" opacity="0.85"/>
          <!-- col 7: weak -->
          <rect x="96"  y="32" width="16" height="16" fill="#fef3c7" opacity="0.6"/>
          <!-- col 8: weak -->
          <rect x="112" y="32" width="16" height="16" fill="#fef3c7" opacity="0.6"/>
          <!-- col 9: C -->
          <rect x="128" y="16" width="16" height="16" fill="#2d7a3e" opacity="0.85"/>
          <!-- col 10: C -->
          <rect x="144" y="16" width="16" height="16" fill="#2d7a3e" opacity="0.85"/>
          <!-- col 11: C -->
          <rect x="160" y="16" width="16" height="16" fill="#2d7a3e" opacity="0.85"/>
          <!-- col 12: T -->
          <rect x="176" y="48" width="16" height="16" fill="#0d7377" opacity="0.85"/>
          <!-- col 13: C -->
          <rect x="192" y="16" width="16" height="16" fill="#2d7a3e" opacity="0.85"/>
          <!-- col 14: weak -->
          <rect x="208" y="0"  width="16" height="16" fill="#fde2e2" opacity="0.5"/>
          <!-- col 15: weak -->
          <rect x="224" y="32" width="16" height="16" fill="#fef3c7" opacity="0.5"/>
        </g>
        <!-- Grid lines -->
        <g stroke="#e5e3dc" stroke-width="0.6">
          <line x1="16"  y1="0" x2="16"  y2="64"/>
          <line x1="32"  y1="0" x2="32"  y2="64"/>
          <line x1="48"  y1="0" x2="48"  y2="64"/>
          <line x1="64"  y1="0" x2="64"  y2="64"/>
          <line x1="80"  y1="0" x2="80"  y2="64"/>
          <line x1="96"  y1="0" x2="96"  y2="64"/>
          <line x1="112" y1="0" x2="112" y2="64"/>
          <line x1="128" y1="0" x2="128" y2="64"/>
          <line x1="144" y1="0" x2="144" y2="64"/>
          <line x1="160" y1="0" x2="160" y2="64"/>
          <line x1="176" y1="0" x2="176" y2="64"/>
          <line x1="192" y1="0" x2="192" y2="64"/>
          <line x1="208" y1="0" x2="208" y2="64"/>
          <line x1="224" y1="0" x2="224" y2="64"/>
          <line x1="0"   y1="16" x2="240" y2="16"/>
          <line x1="0"   y1="32" x2="240" y2="32"/>
          <line x1="0"   y1="48" x2="240" y2="48"/>
        </g>
      </g>
      <text x="120" y="80" font-family="Inter, sans-serif" font-size="9" font-style="italic" fill="#525252" text-anchor="middle">JASPAR / HOCOMOCO entry, log-odds</text>
    </g>

    <!-- Sliding indicator + one-hot DNA -->
    <g transform="translate(0, 160)">
      <text x="0" y="-6" font-family="Inter, sans-serif" font-size="9" font-weight="700" fill="#1e3a8a" letter-spacing="0.06em">4-CHANNEL  ONE-HOT  DNA</text>
      <!-- DNA strip: 4 rows x 30 cols. cell 8x16 -->
      <g>
        <rect x="0" y="0" width="480" height="64" fill="#ffffff" stroke="#e5e3dc" stroke-width="1"/>
        <g>
          <text x="-12" y="14" font-family="JetBrains Mono, monospace" font-size="9" font-weight="700" fill="#c4342c" text-anchor="middle">A</text>
          <text x="-12" y="30" font-family="JetBrains Mono, monospace" font-size="9" font-weight="700" fill="#2d7a3e" text-anchor="middle">C</text>
          <text x="-12" y="46" font-family="JetBrains Mono, monospace" font-size="9" font-weight="700" fill="#b45309" text-anchor="middle">G</text>
          <text x="-12" y="62" font-family="JetBrains Mono, monospace" font-size="9" font-weight="700" fill="#0d7377" text-anchor="middle">T</text>
        </g>
        <!-- Hot cells: define a sequence, mostly random except for a CCCTC-like patch around col 10-24 -->
        <!-- sequence: G T A T G C C C T C A A C C C T C T G A T C G T A C G T T A -->
        <!-- row positions: A=0-16, C=16-32, G=32-48, T=48-64 -->
        <g>
          <!-- col 0 G -->  <rect x="0"   y="32" width="16" height="16" fill="#b45309"/>
          <!-- col 1 T -->  <rect x="16"  y="48" width="16" height="16" fill="#0d7377"/>
          <!-- col 2 A -->  <rect x="32"  y="0"  width="16" height="16" fill="#c4342c"/>
          <!-- col 3 T -->  <rect x="48"  y="48" width="16" height="16" fill="#0d7377"/>
          <!-- col 4 G -->  <rect x="64"  y="32" width="16" height="16" fill="#b45309"/>
          <!-- col 5 C -->  <rect x="80"  y="16" width="16" height="16" fill="#2d7a3e"/>
          <!-- col 6 C -->  <rect x="96"  y="16" width="16" height="16" fill="#2d7a3e"/>
          <!-- col 7 C -->  <rect x="112" y="16" width="16" height="16" fill="#2d7a3e"/>
          <!-- col 8 T -->  <rect x="128" y="48" width="16" height="16" fill="#0d7377"/>
          <!-- col 9 C -->  <rect x="144" y="16" width="16" height="16" fill="#2d7a3e"/>
          <!-- col 10 A --> <rect x="160" y="0"  width="16" height="16" fill="#c4342c"/>
          <!-- col 11 A --> <rect x="176" y="0"  width="16" height="16" fill="#c4342c"/>
          <!-- col 12 C --> <rect x="192" y="16" width="16" height="16" fill="#2d7a3e"/>
          <!-- col 13 C --> <rect x="208" y="16" width="16" height="16" fill="#2d7a3e"/>
          <!-- col 14 C --> <rect x="224" y="16" width="16" height="16" fill="#2d7a3e"/>
          <!-- col 15 T --> <rect x="240" y="48" width="16" height="16" fill="#0d7377"/>
          <!-- col 16 C --> <rect x="256" y="16" width="16" height="16" fill="#2d7a3e"/>
          <!-- col 17 T --> <rect x="272" y="48" width="16" height="16" fill="#0d7377"/>
          <!-- col 18 G --> <rect x="288" y="32" width="16" height="16" fill="#b45309"/>
          <!-- col 19 A --> <rect x="304" y="0"  width="16" height="16" fill="#c4342c"/>
          <!-- col 20 T --> <rect x="320" y="48" width="16" height="16" fill="#0d7377"/>
          <!-- col 21 C --> <rect x="336" y="16" width="16" height="16" fill="#2d7a3e"/>
          <!-- col 22 G --> <rect x="352" y="32" width="16" height="16" fill="#b45309"/>
          <!-- col 23 T --> <rect x="368" y="48" width="16" height="16" fill="#0d7377"/>
          <!-- col 24 A --> <rect x="384" y="0"  width="16" height="16" fill="#c4342c"/>
          <!-- col 25 C --> <rect x="400" y="16" width="16" height="16" fill="#2d7a3e"/>
          <!-- col 26 G --> <rect x="416" y="32" width="16" height="16" fill="#b45309"/>
          <!-- col 27 T --> <rect x="432" y="48" width="16" height="16" fill="#0d7377"/>
          <!-- col 28 T --> <rect x="448" y="48" width="16" height="16" fill="#0d7377"/>
          <!-- col 29 A --> <rect x="464" y="0"  width="16" height="16" fill="#c4342c"/>
        </g>
        <!-- Sliding window outline at col 5-19 (15 cells) -->
        <rect x="80" y="-4" width="240" height="72" fill="none" stroke="#1e3a8a" stroke-width="1.5" stroke-dasharray="4 3"/>
      </g>
    </g>

    <!-- Response track -->
    <g transform="translate(0, 260)">
      <text x="0" y="-6" font-family="Inter, sans-serif" font-size="9" font-weight="700" fill="#1e3a8a" letter-spacing="0.06em">MATCHED-FILTER  RESPONSE</text>
      <rect x="0" y="0" width="480" height="60" fill="#ffffff" stroke="#e5e3dc" stroke-width="1"/>
      <line x1="0" y1="50" x2="480" y2="50" stroke="#374151" stroke-width="0.6"/>
      <!-- Response curve: mostly flat with a clear spike near col 5-19 -->
      <path d="M 4 48
               L 16 47
               L 28 49
               L 40 46
               L 52 48
               L 64 45
               L 76 44
               L 88 40
               L 100 30
               L 112 18
               L 124 12
               L 136 10
               L 148 14
               L 160 22
               L 172 35
               L 184 44
               L 196 47
               L 208 48
               L 220 46
               L 232 49
               L 244 47
               L 256 49
               L 268 47
               L 280 48
               L 292 49
               L 304 47
               L 316 49
               L 328 48
               L 340 47
               L 352 49
               L 364 48
               L 376 49
               L 388 47
               L 400 49
               L 412 48
               L 424 49
               L 436 47
               L 448 49
               L 460 48
               L 472 49"
            fill="none" stroke="#1e3a8a" stroke-width="1.8"/>
      <!-- Spike marker -->
      <line x1="136" y1="10" x2="136" y2="-4" stroke="#c4342c" stroke-width="1"/>
      <text x="136" y="-8" font-family="Inter, sans-serif" font-size="9" font-weight="700" fill="#c4342c" text-anchor="middle">match</text>
    </g>
  </g>

  <!-- ============= EQUIVALENCE ARROW ============= -->
  <g transform="translate(580, 270)">
    <line x1="0" y1="0" x2="60" y2="0" stroke="#1e3a8a" stroke-width="2"/>
    <polygon points="60,0 50,-6 50,6" fill="#1e3a8a"/>
    <text x="30" y="-12" font-family="Inter, sans-serif" font-size="11" font-weight="700" fill="#1e3a8a" letter-spacing="0.06em" text-anchor="middle">SAME OP</text>
    <text x="30" y="20" font-family="Inter, sans-serif" font-size="9" fill="#525252" text-anchor="middle">learn the</text>
    <text x="30" y="32" font-family="Inter, sans-serif" font-size="9" fill="#525252" text-anchor="middle">kernels</text>
  </g>

  <!-- ============= RIGHT PANEL: CNN filter bank ============= -->
  <g transform="translate(660, 100)">
    <text x="0" y="0" font-family="Inter, sans-serif" font-size="11" font-weight="700" fill="#1e3a8a" letter-spacing="0.08em">(B)  ENFORMER  FIRST  CONV  LAYER</text>
    <text x="0" y="18" font-family="Inter, sans-serif" font-size="10" fill="#525252" font-style="italic">256 learned 4 × 15 kernels · 256 parallel response channels</text>

    <!-- Stack of kernel cards -->
    <g transform="translate(0, 40)">
      <text x="0" y="-6" font-family="Inter, sans-serif" font-size="9" font-weight="700" fill="#1e3a8a" letter-spacing="0.06em">256  LEARNED  KERNELS</text>

      <!-- Stack effect: 5 layered cards -->
      <g>
        <!-- bottom-most card -->
        <rect x="20" y="20" width="240" height="64" fill="#ffffff" stroke="#c4c1b6" stroke-width="0.8"/>
        <rect x="14" y="14" width="240" height="64" fill="#ffffff" stroke="#c4c1b6" stroke-width="0.8"/>
        <rect x="8"  y="8"  width="240" height="64" fill="#ffffff" stroke="#c4c1b6" stroke-width="0.8"/>
        <rect x="2"  y="2"  width="240" height="64" fill="#ffffff" stroke="#c4c1b6" stroke-width="0.8"/>
        <!-- top card: actual heat grid -->
        <rect x="0" y="0" width="240" height="64" fill="#ffffff" stroke="#1e3a8a" stroke-width="1.2"/>
        <!-- Row labels -->
        <g>
          <text x="-12" y="14" font-family="JetBrains Mono, monospace" font-size="11" font-weight="700" fill="#c4342c" text-anchor="middle">A</text>
          <text x="-12" y="30" font-family="JetBrains Mono, monospace" font-size="11" font-weight="700" fill="#2d7a3e" text-anchor="middle">C</text>
          <text x="-12" y="46" font-family="JetBrains Mono, monospace" font-size="11" font-weight="700" fill="#b45309" text-anchor="middle">G</text>
          <text x="-12" y="62" font-family="JetBrains Mono, monospace" font-size="11" font-weight="700" fill="#0d7377" text-anchor="middle">T</text>
        </g>
        <!-- Random-ish heatmap on top card -->
        <g>
          <rect x="0"   y="0"  width="16" height="16" fill="#fef3c7" opacity="0.6"/>
          <rect x="16"  y="32" width="16" height="16" fill="#fde2e2" opacity="0.6"/>
          <rect x="32"  y="48" width="16" height="16" fill="#0d7377" opacity="0.8"/>
          <rect x="48"  y="0"  width="16" height="16" fill="#c4342c" opacity="0.8"/>
          <rect x="64"  y="16" width="16" height="16" fill="#2d7a3e" opacity="0.85"/>
          <rect x="80"  y="48" width="16" height="16" fill="#0d7377" opacity="0.7"/>
          <rect x="96"  y="32" width="16" height="16" fill="#b45309" opacity="0.85"/>
          <rect x="112" y="48" width="16" height="16" fill="#0d7377" opacity="0.85"/>
          <rect x="128" y="16" width="16" height="16" fill="#2d7a3e" opacity="0.8"/>
          <rect x="144" y="32" width="16" height="16" fill="#b45309" opacity="0.7"/>
          <rect x="160" y="0"  width="16" height="16" fill="#c4342c" opacity="0.85"/>
          <rect x="176" y="16" width="16" height="16" fill="#2d7a3e" opacity="0.8"/>
          <rect x="192" y="48" width="16" height="16" fill="#0d7377" opacity="0.7"/>
          <rect x="208" y="32" width="16" height="16" fill="#fde2e2" opacity="0.6"/>
          <rect x="224" y="0"  width="16" height="16" fill="#fef3c7" opacity="0.6"/>
        </g>
        <!-- Grid -->
        <g stroke="#e5e3dc" stroke-width="0.5">
          <line x1="16"  y1="0" x2="16"  y2="64"/>
          <line x1="32"  y1="0" x2="32"  y2="64"/>
          <line x1="48"  y1="0" x2="48"  y2="64"/>
          <line x1="64"  y1="0" x2="64"  y2="64"/>
          <line x1="80"  y1="0" x2="80"  y2="64"/>
          <line x1="96"  y1="0" x2="96"  y2="64"/>
          <line x1="112" y1="0" x2="112" y2="64"/>
          <line x1="128" y1="0" x2="128" y2="64"/>
          <line x1="144" y1="0" x2="144" y2="64"/>
          <line x1="160" y1="0" x2="160" y2="64"/>
          <line x1="176" y1="0" x2="176" y2="64"/>
          <line x1="192" y1="0" x2="192" y2="64"/>
          <line x1="208" y1="0" x2="208" y2="64"/>
          <line x1="224" y1="0" x2="224" y2="64"/>
          <line x1="0"   y1="16" x2="240" y2="16"/>
          <line x1="0"   y1="32" x2="240" y2="32"/>
          <line x1="0"   y1="48" x2="240" y2="48"/>
        </g>

        <text x="260" y="14" font-family="JetBrains Mono, monospace" font-size="10" fill="#525252">kernel 1</text>
        <text x="260" y="34" font-family="JetBrains Mono, monospace" font-size="10" fill="#8a8a85">kernel 2</text>
        <text x="260" y="54" font-family="JetBrains Mono, monospace" font-size="10" fill="#8a8a85">kernel 3</text>
        <text x="260" y="74" font-family="JetBrains Mono, monospace" font-size="10" fill="#8a8a85">⋮  256</text>
      </g>
    </g>

    <!-- Same DNA strip below -->
    <g transform="translate(0, 160)">
      <text x="0" y="-6" font-family="Inter, sans-serif" font-size="9" font-weight="700" fill="#1e3a8a" letter-spacing="0.06em">SAME  4-CHANNEL  DNA  INPUT</text>
      <rect x="0" y="0" width="480" height="48" fill="#ffffff" stroke="#e5e3dc" stroke-width="1"/>
      <g>
        <!-- A simple 30 column compressed strip (vertical condensed) -->
        <g>
          <!-- For each column, one solid 16x12 block representing the one-hot base -->
          <rect x="0"   y="20" width="16" height="12" fill="#b45309"/>
          <rect x="16"  y="32" width="16" height="12" fill="#0d7377"/>
          <rect x="32"  y="4"  width="16" height="12" fill="#c4342c"/>
          <rect x="48"  y="32" width="16" height="12" fill="#0d7377"/>
          <rect x="64"  y="20" width="16" height="12" fill="#b45309"/>
          <rect x="80"  y="12" width="16" height="12" fill="#2d7a3e"/>
          <rect x="96"  y="12" width="16" height="12" fill="#2d7a3e"/>
          <rect x="112" y="12" width="16" height="12" fill="#2d7a3e"/>
          <rect x="128" y="32" width="16" height="12" fill="#0d7377"/>
          <rect x="144" y="12" width="16" height="12" fill="#2d7a3e"/>
          <rect x="160" y="4"  width="16" height="12" fill="#c4342c"/>
          <rect x="176" y="4"  width="16" height="12" fill="#c4342c"/>
          <rect x="192" y="12" width="16" height="12" fill="#2d7a3e"/>
          <rect x="208" y="12" width="16" height="12" fill="#2d7a3e"/>
          <rect x="224" y="12" width="16" height="12" fill="#2d7a3e"/>
          <rect x="240" y="32" width="16" height="12" fill="#0d7377"/>
          <rect x="256" y="12" width="16" height="12" fill="#2d7a3e"/>
          <rect x="272" y="32" width="16" height="12" fill="#0d7377"/>
          <rect x="288" y="20" width="16" height="12" fill="#b45309"/>
          <rect x="304" y="4"  width="16" height="12" fill="#c4342c"/>
          <rect x="320" y="32" width="16" height="12" fill="#0d7377"/>
          <rect x="336" y="12" width="16" height="12" fill="#2d7a3e"/>
          <rect x="352" y="20" width="16" height="12" fill="#b45309"/>
          <rect x="368" y="32" width="16" height="12" fill="#0d7377"/>
          <rect x="384" y="4"  width="16" height="12" fill="#c4342c"/>
          <rect x="400" y="12" width="16" height="12" fill="#2d7a3e"/>
          <rect x="416" y="20" width="16" height="12" fill="#b45309"/>
          <rect x="432" y="32" width="16" height="12" fill="#0d7377"/>
          <rect x="448" y="32" width="16" height="12" fill="#0d7377"/>
          <rect x="464" y="4"  width="16" height="12" fill="#c4342c"/>
        </g>
      </g>
    </g>

    <!-- 256 response tracks (stacked, only show first 4) -->
    <g transform="translate(0, 232)">
      <text x="0" y="-6" font-family="Inter, sans-serif" font-size="9" font-weight="700" fill="#1e3a8a" letter-spacing="0.06em">256  PARALLEL  RESPONSE  CHANNELS</text>
      <g transform="translate(0, 0)">
        <rect x="0" y="0" width="480" height="22" fill="#ffffff" stroke="#e5e3dc" stroke-width="0.8"/>
        <line x1="0" y1="18" x2="480" y2="18" stroke="#374151" stroke-width="0.4"/>
        <path d="M 0 18 L 30 17 L 60 16 L 90 12 L 120 6 L 150 16 L 180 17 L 210 18 L 240 17 L 270 18 L 300 17 L 330 18 L 360 17 L 390 18 L 420 17 L 450 18 L 480 17" fill="none" stroke="#1e3a8a" stroke-width="1.4"/>
        <text x="486" y="15" font-family="JetBrains Mono, monospace" font-size="9" fill="#525252">→ kernel 1</text>
      </g>
      <g transform="translate(0, 26)">
        <rect x="0" y="0" width="480" height="22" fill="#ffffff" stroke="#e5e3dc" stroke-width="0.8"/>
        <line x1="0" y1="18" x2="480" y2="18" stroke="#374151" stroke-width="0.4"/>
        <path d="M 0 17 L 30 16 L 60 14 L 90 17 L 120 17 L 150 16 L 180 12 L 210 8 L 240 14 L 270 17 L 300 16 L 330 18 L 360 17 L 390 16 L 420 18 L 450 17 L 480 16" fill="none" stroke="#1e3a8a" stroke-width="1.4"/>
        <text x="486" y="15" font-family="JetBrains Mono, monospace" font-size="9" fill="#8a8a85">→ kernel 2</text>
      </g>
      <g transform="translate(0, 52)">
        <rect x="0" y="0" width="480" height="22" fill="#ffffff" stroke="#e5e3dc" stroke-width="0.8"/>
        <line x1="0" y1="18" x2="480" y2="18" stroke="#374151" stroke-width="0.4"/>
        <path d="M 0 18 L 30 16 L 60 18 L 90 17 L 120 18 L 150 17 L 180 16 L 210 18 L 240 17 L 270 12 L 300 6 L 330 12 L 360 17 L 390 18 L 420 17 L 450 18 L 480 17" fill="none" stroke="#1e3a8a" stroke-width="1.4"/>
        <text x="486" y="15" font-family="JetBrains Mono, monospace" font-size="9" fill="#8a8a85">→ kernel 3</text>
      </g>
      <g transform="translate(0, 78)">
        <text x="240" y="14" font-family="Inter, sans-serif" font-size="9" fill="#8a8a85" font-style="italic" text-anchor="middle">⋮  253 more channels  ⋮</text>
      </g>
    </g>
  </g>

  <!-- Bottom interpretation strip -->
  <g transform="translate(60, 540)">
    <rect x="0" y="0" width="1080" height="68" rx="4" fill="#f4f3ee" stroke="#e5e3dc" stroke-width="1"/>
    <text x="14" y="20" font-family="Inter, sans-serif" font-size="10" font-weight="700" fill="#1e3a8a" letter-spacing="0.08em">WHAT  THE  FILTERS  LEARN</text>
    <text x="14" y="38" font-family="Inter, sans-serif" font-size="10" fill="#525252">Many trained kernels resemble known TF motifs — CTCF, GATA, SP1, FOX-family — rediscovered without supervision. Others compose into higher-order patterns in subsequent</text>
    <text x="14" y="54" font-family="Inter, sans-serif" font-size="10" fill="#525252">convolution layers: motif spacing, motif co-occurrence, cooperative-binding signatures. The architecture is matched-filter banks plus learned representations.</text>
  </g>

</svg>
