<svg xmlns="http://www.w3.org/2000/svg" viewBox="0 0 1200 560" width="1200" height="560" font-family="Inter, sans-serif">
  <defs>
    <style>text { font-family: Inter, sans-serif; } .mono { font-family: 'JetBrains Mono', monospace; font-size: 10px; }</style>
    <marker id="arr" viewBox="0 0 10 10" refX="9" refY="5" markerWidth="6" markerHeight="6" orient="auto-start-reverse">
      <path d="M0,0 L10,5 L0,10 z" fill="#525252"/>
    </marker>
  </defs>
  <rect width="1200" height="560" fill="#fafaf9" rx="6"/>
  <text x="600" y="28" text-anchor="middle" font-size="14" font-weight="600" fill="#111827">Clinical-lab regulatory landscape — three layers, regulated end-to-end</text>

  <!-- Top layer: test output classification -->
  <g transform="translate(60,72)">
    <text x="0" y="0" font-size="11" font-weight="600" fill="#525252">TEST OUTPUT CLASSIFICATION</text>

    <!-- RUO -->
    <g transform="translate(0,16)">
      <rect width="340" height="80" fill="#e5e7eb" stroke="#a8a29e" rx="6"/>
      <rect width="6" height="80" fill="#a8a29e"/>
      <text x="20" y="26" font-size="13" font-weight="700" fill="#525252">RUO</text>
      <text x="74" y="26" font-size="11" fill="#374151">Research Use Only</text>
      <text x="20" y="48" font-size="10" fill="#6b7280">label: "for research use only"</text>
      <text x="20" y="64" font-size="10" fill="#6b7280">no clinical reporting permitted</text>
    </g>

    <!-- LDT -->
    <g transform="translate(370,16)">
      <rect width="340" height="80" fill="#fde68a" stroke="#b45309" rx="6"/>
      <rect width="6" height="80" fill="#b45309"/>
      <text x="20" y="26" font-size="13" font-weight="700" fill="#92400e">LDT</text>
      <text x="74" y="26" font-size="11" fill="#374151">Laboratory-Developed Test</text>
      <text x="20" y="48" font-size="10" fill="#525252">single-lab · in-house validation</text>
      <text x="20" y="64" font-size="10" fill="#525252">FDA enforcement (post-2024)</text>
      <!-- 2024 marker -->
      <g transform="translate(290,8)">
        <rect width="44" height="20" fill="#c4342c" rx="3"/>
        <text x="22" y="14" text-anchor="middle" font-size="9" font-weight="700" fill="#fff">2024</text>
      </g>
    </g>

    <!-- IVD -->
    <g transform="translate(740,16)">
      <rect width="340" height="80" fill="#bfdbfe" stroke="#1e3a8a" rx="6"/>
      <rect width="6" height="80" fill="#1e3a8a"/>
      <text x="20" y="26" font-size="13" font-weight="700" fill="#1e3a8a">IVD</text>
      <text x="74" y="26" font-size="11" fill="#374151">In-Vitro Diagnostic device</text>
      <text x="20" y="48" font-size="10" fill="#1e40af">FDA 510(k) / PMA · IVDR Class C/D</text>
      <text x="20" y="64" font-size="10" fill="#1e40af">commercial kit · highest bar</text>
    </g>
  </g>

  <!-- Middle layer: lab certifications -->
  <g transform="translate(60,200)">
    <text x="0" y="0" font-size="11" font-weight="600" fill="#525252">LAB CERTIFICATION</text>

    <g transform="translate(60,16)">
      <!-- CLIA / CAP / NYS arranged so the three ellipses actually
           3-way overlap (the previous geometry — CLIA 0-360, CAP
           210-550, NYS 470-730 — had no 3-way intersection because
           CLIA's right edge at x=360 sat 110 px short of NYS's left
           edge at x=470). Widened CLIA / CAP and shifted NYS left
           so the 3-way region spans x=420-480, with the
           "Fully-certified clinical genomics lab (CLIA ∩ CAP ∩ NYS)"
           label centred on it at x=450. -->
      <!-- CLIA ring (largest) -->
      <ellipse cx="240" cy="80" rx="240" ry="80" fill="#fef3c7" fill-opacity="0.55" stroke="#b45309" stroke-width="1.5"/>
      <text x="60" y="40" font-size="11" font-weight="700" fill="#92400e">CLIA</text>
      <text x="60" y="54" font-size="9" fill="#92400e">required (US baseline)</text>

      <!-- CAP -->
      <ellipse cx="420" cy="80" rx="200" ry="74" fill="#dbeafe" fill-opacity="0.55" stroke="#1d4ed8" stroke-width="1.5"/>
      <text x="492" y="40" font-size="11" font-weight="700" fill="#1e3a8a">CAP</text>
      <text x="492" y="54" font-size="9" fill="#1e3a8a">voluntary · industry expected</text>

      <!-- NYS CLEP -->
      <ellipse cx="580" cy="80" rx="160" ry="60" fill="#ede9fe" fill-opacity="0.6" stroke="#7c3aed" stroke-width="1.5"/>
      <text x="640" y="40" font-size="11" font-weight="700" fill="#5b21b6">NYS CLEP</text>
      <text x="640" y="54" font-size="9" fill="#5b21b6">strictest US regulator</text>

      <!-- Overlap label centred on the new 3-way region at x=420-480. -->
      <text x="450" y="84" text-anchor="middle" font-size="10" font-weight="600" fill="#374151">Fully-certified clinical</text>
      <text x="450" y="98" text-anchor="middle" font-size="10" font-weight="600" fill="#374151">genomics lab</text>
      <text x="450" y="114" text-anchor="middle" font-size="9" fill="#6b7280">(CLIA ∩ CAP ∩ NYS)</text>

      <!-- ISO callout box -->
      <rect x="800" y="50" width="220" height="70" fill="#fff" stroke="#a8a29e" stroke-dasharray="3 3" rx="4"/>
      <text x="910" y="68" text-anchor="middle" font-size="10" font-weight="600" fill="#374151">Outside the US</text>
      <text x="910" y="84" text-anchor="middle" font-size="10" fill="#525252">ISO 15189 (international)</text>
      <text x="910" y="100" text-anchor="middle" font-size="10" fill="#525252">UKAS (UK) · DAkkS (DE)</text>
    </g>
  </g>

  <!-- Bottom layer: physical infrastructure -->
  <g transform="translate(60,420)">
    <text x="0" y="0" font-size="11" font-weight="600" fill="#525252">PHYSICAL INFRASTRUCTURE</text>

    <g transform="translate(0,16)">
      <rect width="1080" height="80" fill="#f5f5f4" stroke="#a8a29e" rx="6"/>

      <!-- sequencer icon -->
      <g transform="translate(40,16)">
        <rect width="200" height="48" fill="#fff" stroke="#374151" rx="3"/>
        <rect x="6" y="6" width="40" height="36" fill="#1e3a8a"/>
        <rect x="56" y="14" width="20" height="20" fill="#374151"/>
        <text x="100" y="22" font-size="10" font-weight="600" fill="#374151">Sequencer</text>
        <text x="100" y="36" font-size="9" fill="#6b7280" class="mono">Illumina NovaSeq</text>
      </g>

      <!-- reagent kit icon -->
      <g transform="translate(280,16)">
        <rect width="200" height="48" fill="#fff" stroke="#374151" rx="3"/>
        <rect x="14" y="10" width="14" height="28" fill="#0d7377"/>
        <rect x="36" y="10" width="14" height="28" fill="#b45309"/>
        <rect x="58" y="10" width="14" height="28" fill="#7c3aed"/>
        <text x="100" y="22" font-size="10" font-weight="600" fill="#374151">Reagent kits</text>
        <text x="100" y="36" font-size="9" fill="#6b7280" class="mono">IVD-certified</text>
      </g>

      <!-- library prep -->
      <g transform="translate(520,16)">
        <rect width="200" height="48" fill="#fff" stroke="#374151" rx="3"/>
        <circle cx="20" cy="24" r="8" fill="#525252"/>
        <line x1="28" y1="24" x2="60" y2="24" stroke="#525252" stroke-width="2"/>
        <circle cx="64" cy="24" r="8" fill="#525252"/>
        <text x="100" y="22" font-size="10" font-weight="600" fill="#374151">Library prep</text>
        <text x="100" y="36" font-size="9" fill="#6b7280" class="mono">automation + LIMS</text>
      </g>

      <!-- compute -->
      <g transform="translate(760,16)">
        <rect width="280" height="48" fill="#fff" stroke="#374151" rx="3"/>
        <rect x="14" y="10" width="42" height="28" fill="#374151"/>
        <text x="33" y="28" text-anchor="middle" font-size="9" fill="#fff" class="mono">CPU</text>
        <text x="100" y="22" font-size="10" font-weight="600" fill="#374151">Pipeline compute</text>
        <text x="100" y="36" font-size="9" fill="#6b7280" class="mono">version-pinned containers</text>
      </g>
    </g>
  </g>

  <!-- Vertical arrows showing flow -->
  <g stroke="#525252" stroke-width="1.5" fill="none" marker-end="url(#arr)">
    <line x1="180" y1="430" x2="180" y2="396"/>
    <line x1="380" y1="430" x2="380" y2="380"/>
    <line x1="600" y1="430" x2="600" y2="380"/>
    <line x1="180" y1="208" x2="180" y2="174"/>
    <line x1="540" y1="208" x2="540" y2="174"/>
    <line x1="900" y1="208" x2="900" y2="174"/>
  </g>

  <text x="600" y="544" text-anchor="middle" font-size="10" fill="#6b7280">Each layer constrains the next: physical hardware feeds a certified lab, which produces a classified test output. The 2024 FDA rule reaches the LDT tier that used to operate under enforcement discretion.</text>
</svg>
