<svg xmlns="http://www.w3.org/2000/svg" viewBox="0 0 1080 400" role="img" aria-labelledby="t d">
  <title id="t">ADMIXTURE K=4 bar plot</title>
  <desc id="d">Stacked bar chart showing inferred ancestry proportions for 100 individuals under a K=4 model. Each vertical bar sums to 1. Individuals are grouped by continental origin: first 25 African (dominated by red), next 25 European (dominated by cobalt), next 20 East Asian (amber), 10 admixed individuals showing visible mixtures of European and East Asian ancestry, and the final 20 South Asian (green). White vertical divider lines separate each group.</desc>

  <text x="540" y="22" text-anchor="middle" font-family="Inter, sans-serif" font-size="11" font-weight="600" fill="#1e3a8a" letter-spacing="0.12em">ADMIXTURE · K = 4 ANCESTRY COMPONENTS · 100 INDIVIDUALS</text>

  <text x="540" y="52" text-anchor="middle" font-family="Inter, sans-serif" font-size="10" fill="#525252" font-style="italic">K=4 ancestry components fit to a 1000 Genomes subset  ·  each column is one person</text>

  <!-- Y-axis -->
  <line x1="40" y1="80" x2="40" y2="320" stroke="#525252" stroke-width="1"/>
  <g font-family="JetBrains Mono, monospace" font-size="9" fill="#525252" text-anchor="end">
    <text x="34" y="84">1.0</text>
    <text x="34" y="144.0">0.75</text>
    <text x="34" y="204.0">0.50</text>
    <text x="34" y="264.0">0.25</text>
    <text x="34" y="324">0.0</text>
  </g>
  <text x="14" y="200.0" text-anchor="middle" font-family="Inter, sans-serif" font-size="10" fill="#525252" transform="rotate(-90 14 200.0)">ancestry proportion</text>

  <!-- Bars -->
  <g>
    <rect x="40.0" y="80.00" width="9.5" height="228.40" fill="#c4342c"/>
    <rect x="40.0" y="308.40" width="9.5" height="3.90" fill="#1e3a8a"/>
    <rect x="40.0" y="312.30" width="9.5" height="3.56" fill="#b45309"/>
    <rect x="40.0" y="315.86" width="9.5" height="4.14" fill="#2d7a3e"/>
    <rect x="50.0" y="80.00" width="9.5" height="228.62" fill="#c4342c"/>
    <rect x="50.0" y="308.62" width="9.5" height="3.47" fill="#1e3a8a"/>
    <rect x="50.0" y="312.09" width="9.5" height="2.32" fill="#b45309"/>
    <rect x="50.0" y="314.41" width="9.5" height="5.59" fill="#2d7a3e"/>
    <rect x="60.0" y="80.00" width="9.5" height="223.90" fill="#c4342c"/>
    <rect x="60.0" y="303.90" width="9.5" height="4.94" fill="#1e3a8a"/>
    <rect x="60.0" y="308.85" width="9.5" height="3.51" fill="#b45309"/>
    <rect x="60.0" y="312.36" width="9.5" height="7.64" fill="#2d7a3e"/>
    <rect x="70.0" y="80.00" width="9.5" height="234.12" fill="#c4342c"/>
    <rect x="70.0" y="314.12" width="9.5" height="0.33" fill="#1e3a8a"/>
    <rect x="70.0" y="314.45" width="9.5" height="0.84" fill="#b45309"/>
    <rect x="70.0" y="315.30" width="9.5" height="4.70" fill="#2d7a3e"/>
    <rect x="80.0" y="80.00" width="9.5" height="222.32" fill="#c4342c"/>
    <rect x="80.0" y="302.32" width="9.5" height="8.59" fill="#1e3a8a"/>
    <rect x="80.0" y="310.91" width="9.5" height="3.15" fill="#b45309"/>
    <rect x="80.0" y="314.06" width="9.5" height="5.94" fill="#2d7a3e"/>
    <rect x="90.0" y="80.00" width="9.5" height="221.50" fill="#c4342c"/>
    <rect x="90.0" y="301.50" width="9.5" height="10.90" fill="#1e3a8a"/>
    <rect x="90.0" y="312.40" width="9.5" height="3.66" fill="#b45309"/>
    <rect x="90.0" y="316.07" width="9.5" height="3.93" fill="#2d7a3e"/>
    <rect x="100.0" y="80.00" width="9.5" height="231.79" fill="#c4342c"/>
    <rect x="100.0" y="311.79" width="9.5" height="3.03" fill="#1e3a8a"/>
    <rect x="100.0" y="314.82" width="9.5" height="0.41" fill="#b45309"/>
    <rect x="100.0" y="315.23" width="9.5" height="4.77" fill="#2d7a3e"/>
    <rect x="110.0" y="80.00" width="9.5" height="221.05" fill="#c4342c"/>
    <rect x="110.0" y="301.05" width="9.5" height="6.01" fill="#1e3a8a"/>
    <rect x="110.0" y="307.06" width="9.5" height="0.39" fill="#b45309"/>
    <rect x="110.0" y="307.44" width="9.5" height="12.56" fill="#2d7a3e"/>
    <rect x="120.0" y="80.00" width="9.5" height="224.00" fill="#c4342c"/>
    <rect x="120.0" y="304.00" width="9.5" height="2.32" fill="#1e3a8a"/>
    <rect x="120.0" y="306.32" width="9.5" height="0.21" fill="#b45309"/>
    <rect x="120.0" y="306.52" width="9.5" height="13.48" fill="#2d7a3e"/>
    <rect x="130.0" y="80.00" width="9.5" height="228.59" fill="#c4342c"/>
    <rect x="130.0" y="308.59" width="9.5" height="3.01" fill="#1e3a8a"/>
    <rect x="130.0" y="311.61" width="9.5" height="3.53" fill="#b45309"/>
    <rect x="130.0" y="315.14" width="9.5" height="4.86" fill="#2d7a3e"/>
    <rect x="140.0" y="80.00" width="9.5" height="229.52" fill="#c4342c"/>
    <rect x="140.0" y="309.52" width="9.5" height="4.03" fill="#1e3a8a"/>
    <rect x="140.0" y="313.55" width="9.5" height="1.61" fill="#b45309"/>
    <rect x="140.0" y="315.16" width="9.5" height="4.84" fill="#2d7a3e"/>
    <rect x="150.0" y="80.00" width="9.5" height="231.93" fill="#c4342c"/>
    <rect x="150.0" y="311.93" width="9.5" height="2.21" fill="#1e3a8a"/>
    <rect x="150.0" y="314.14" width="9.5" height="0.81" fill="#b45309"/>
    <rect x="150.0" y="314.96" width="9.5" height="5.04" fill="#2d7a3e"/>
    <rect x="160.0" y="80.00" width="9.5" height="237.56" fill="#c4342c"/>
    <rect x="160.0" y="317.56" width="9.5" height="1.46" fill="#1e3a8a"/>
    <rect x="160.0" y="319.02" width="9.5" height="0.41" fill="#b45309"/>
    <rect x="160.0" y="319.43" width="9.5" height="0.57" fill="#2d7a3e"/>
    <rect x="170.0" y="80.00" width="9.5" height="232.69" fill="#c4342c"/>
    <rect x="170.0" y="312.69" width="9.5" height="1.38" fill="#1e3a8a"/>
    <rect x="170.0" y="314.07" width="9.5" height="0.68" fill="#b45309"/>
    <rect x="170.0" y="314.75" width="9.5" height="5.25" fill="#2d7a3e"/>
    <rect x="180.0" y="80.00" width="9.5" height="225.66" fill="#c4342c"/>
    <rect x="180.0" y="305.66" width="9.5" height="0.60" fill="#1e3a8a"/>
    <rect x="180.0" y="306.26" width="9.5" height="5.26" fill="#b45309"/>
    <rect x="180.0" y="311.52" width="9.5" height="8.48" fill="#2d7a3e"/>
    <rect x="190.0" y="80.00" width="9.5" height="227.53" fill="#c4342c"/>
    <rect x="190.0" y="307.53" width="9.5" height="6.34" fill="#1e3a8a"/>
    <rect x="190.0" y="313.86" width="9.5" height="1.19" fill="#b45309"/>
    <rect x="190.0" y="315.05" width="9.5" height="4.95" fill="#2d7a3e"/>
    <rect x="200.0" y="80.00" width="9.5" height="236.90" fill="#c4342c"/>
    <rect x="200.0" y="316.90" width="9.5" height="1.58" fill="#1e3a8a"/>
    <rect x="200.0" y="318.47" width="9.5" height="0.00" fill="#b45309"/>
    <rect x="200.0" y="318.47" width="9.5" height="1.53" fill="#2d7a3e"/>
    <rect x="210.0" y="80.00" width="9.5" height="224.32" fill="#c4342c"/>
    <rect x="210.0" y="304.32" width="9.5" height="8.56" fill="#1e3a8a"/>
    <rect x="210.0" y="312.89" width="9.5" height="1.67" fill="#b45309"/>
    <rect x="210.0" y="314.56" width="9.5" height="5.44" fill="#2d7a3e"/>
    <rect x="220.0" y="80.00" width="9.5" height="237.27" fill="#c4342c"/>
    <rect x="220.0" y="317.27" width="9.5" height="0.65" fill="#1e3a8a"/>
    <rect x="220.0" y="317.92" width="9.5" height="0.08" fill="#b45309"/>
    <rect x="220.0" y="318.00" width="9.5" height="2.00" fill="#2d7a3e"/>
    <rect x="230.0" y="80.00" width="9.5" height="231.37" fill="#c4342c"/>
    <rect x="230.0" y="311.37" width="9.5" height="4.03" fill="#1e3a8a"/>
    <rect x="230.0" y="315.40" width="9.5" height="0.62" fill="#b45309"/>
    <rect x="230.0" y="316.02" width="9.5" height="3.98" fill="#2d7a3e"/>
    <rect x="240.0" y="80.00" width="9.5" height="222.26" fill="#c4342c"/>
    <rect x="240.0" y="302.26" width="9.5" height="3.54" fill="#1e3a8a"/>
    <rect x="240.0" y="305.80" width="9.5" height="6.84" fill="#b45309"/>
    <rect x="240.0" y="312.65" width="9.5" height="7.35" fill="#2d7a3e"/>
    <rect x="250.0" y="80.00" width="9.5" height="233.54" fill="#c4342c"/>
    <rect x="250.0" y="313.54" width="9.5" height="0.46" fill="#1e3a8a"/>
    <rect x="250.0" y="313.99" width="9.5" height="0.74" fill="#b45309"/>
    <rect x="250.0" y="314.73" width="9.5" height="5.27" fill="#2d7a3e"/>
    <rect x="260.0" y="80.00" width="9.5" height="222.50" fill="#c4342c"/>
    <rect x="260.0" y="302.50" width="9.5" height="0.63" fill="#1e3a8a"/>
    <rect x="260.0" y="303.13" width="9.5" height="6.72" fill="#b45309"/>
    <rect x="260.0" y="309.85" width="9.5" height="10.15" fill="#2d7a3e"/>
    <rect x="270.0" y="80.00" width="9.5" height="223.78" fill="#c4342c"/>
    <rect x="270.0" y="303.78" width="9.5" height="5.44" fill="#1e3a8a"/>
    <rect x="270.0" y="309.23" width="9.5" height="2.41" fill="#b45309"/>
    <rect x="270.0" y="311.64" width="9.5" height="8.36" fill="#2d7a3e"/>
    <rect x="280.0" y="80.00" width="9.5" height="224.00" fill="#c4342c"/>
    <rect x="280.0" y="304.00" width="9.5" height="7.02" fill="#1e3a8a"/>
    <rect x="280.0" y="311.03" width="9.5" height="0.59" fill="#b45309"/>
    <rect x="280.0" y="311.62" width="9.5" height="8.38" fill="#2d7a3e"/>
    <rect x="290.0" y="80.00" width="9.5" height="0.39" fill="#c4342c"/>
    <rect x="290.0" y="80.39" width="9.5" height="231.61" fill="#1e3a8a"/>
    <rect x="290.0" y="312.01" width="9.5" height="1.35" fill="#b45309"/>
    <rect x="290.0" y="313.35" width="9.5" height="6.65" fill="#2d7a3e"/>
    <rect x="300.0" y="80.00" width="9.5" height="1.69" fill="#c4342c"/>
    <rect x="300.0" y="81.69" width="9.5" height="224.38" fill="#1e3a8a"/>
    <rect x="300.0" y="306.06" width="9.5" height="5.41" fill="#b45309"/>
    <rect x="300.0" y="311.48" width="9.5" height="8.52" fill="#2d7a3e"/>
    <rect x="310.0" y="80.00" width="9.5" height="0.69" fill="#c4342c"/>
    <rect x="310.0" y="80.69" width="9.5" height="234.30" fill="#1e3a8a"/>
    <rect x="310.0" y="314.99" width="9.5" height="1.77" fill="#b45309"/>
    <rect x="310.0" y="316.76" width="9.5" height="3.24" fill="#2d7a3e"/>
    <rect x="320.0" y="80.00" width="9.5" height="2.47" fill="#c4342c"/>
    <rect x="320.0" y="82.47" width="9.5" height="224.34" fill="#1e3a8a"/>
    <rect x="320.0" y="306.81" width="9.5" height="4.51" fill="#b45309"/>
    <rect x="320.0" y="311.32" width="9.5" height="8.68" fill="#2d7a3e"/>
    <rect x="330.0" y="80.00" width="9.5" height="0.34" fill="#c4342c"/>
    <rect x="330.0" y="80.34" width="9.5" height="231.58" fill="#1e3a8a"/>
    <rect x="330.0" y="311.92" width="9.5" height="3.20" fill="#b45309"/>
    <rect x="330.0" y="315.12" width="9.5" height="4.88" fill="#2d7a3e"/>
    <rect x="340.0" y="80.00" width="9.5" height="1.61" fill="#c4342c"/>
    <rect x="340.0" y="81.61" width="9.5" height="224.38" fill="#1e3a8a"/>
    <rect x="340.0" y="306.00" width="9.5" height="4.33" fill="#b45309"/>
    <rect x="340.0" y="310.32" width="9.5" height="9.68" fill="#2d7a3e"/>
    <rect x="350.0" y="80.00" width="9.5" height="1.62" fill="#c4342c"/>
    <rect x="350.0" y="81.62" width="9.5" height="226.33" fill="#1e3a8a"/>
    <rect x="350.0" y="307.95" width="9.5" height="0.35" fill="#b45309"/>
    <rect x="350.0" y="308.30" width="9.5" height="11.70" fill="#2d7a3e"/>
    <rect x="360.0" y="80.00" width="9.5" height="4.12" fill="#c4342c"/>
    <rect x="360.0" y="84.12" width="9.5" height="222.31" fill="#1e3a8a"/>
    <rect x="360.0" y="306.44" width="9.5" height="1.32" fill="#b45309"/>
    <rect x="360.0" y="307.75" width="9.5" height="12.25" fill="#2d7a3e"/>
    <rect x="370.0" y="80.00" width="9.5" height="1.35" fill="#c4342c"/>
    <rect x="370.0" y="81.35" width="9.5" height="230.90" fill="#1e3a8a"/>
    <rect x="370.0" y="312.25" width="9.5" height="1.40" fill="#b45309"/>
    <rect x="370.0" y="313.66" width="9.5" height="6.34" fill="#2d7a3e"/>
    <rect x="380.0" y="80.00" width="9.5" height="0.60" fill="#c4342c"/>
    <rect x="380.0" y="80.60" width="9.5" height="236.91" fill="#1e3a8a"/>
    <rect x="380.0" y="317.51" width="9.5" height="0.57" fill="#b45309"/>
    <rect x="380.0" y="318.08" width="9.5" height="1.92" fill="#2d7a3e"/>
    <rect x="390.0" y="80.00" width="9.5" height="0.34" fill="#c4342c"/>
    <rect x="390.0" y="80.34" width="9.5" height="235.36" fill="#1e3a8a"/>
    <rect x="390.0" y="315.70" width="9.5" height="0.27" fill="#b45309"/>
    <rect x="390.0" y="315.96" width="9.5" height="4.04" fill="#2d7a3e"/>
    <rect x="400.0" y="80.00" width="9.5" height="1.29" fill="#c4342c"/>
    <rect x="400.0" y="81.29" width="9.5" height="236.06" fill="#1e3a8a"/>
    <rect x="400.0" y="317.35" width="9.5" height="0.26" fill="#b45309"/>
    <rect x="400.0" y="317.61" width="9.5" height="2.39" fill="#2d7a3e"/>
    <rect x="410.0" y="80.00" width="9.5" height="4.74" fill="#c4342c"/>
    <rect x="410.0" y="84.74" width="9.5" height="223.99" fill="#1e3a8a"/>
    <rect x="410.0" y="308.72" width="9.5" height="4.24" fill="#b45309"/>
    <rect x="410.0" y="312.97" width="9.5" height="7.03" fill="#2d7a3e"/>
    <rect x="420.0" y="80.00" width="9.5" height="6.04" fill="#c4342c"/>
    <rect x="420.0" y="86.04" width="9.5" height="224.10" fill="#1e3a8a"/>
    <rect x="420.0" y="310.14" width="9.5" height="3.48" fill="#b45309"/>
    <rect x="420.0" y="313.62" width="9.5" height="6.38" fill="#2d7a3e"/>
    <rect x="430.0" y="80.00" width="9.5" height="1.53" fill="#c4342c"/>
    <rect x="430.0" y="81.53" width="9.5" height="230.94" fill="#1e3a8a"/>
    <rect x="430.0" y="312.47" width="9.5" height="0.31" fill="#b45309"/>
    <rect x="430.0" y="312.78" width="9.5" height="7.22" fill="#2d7a3e"/>
    <rect x="440.0" y="80.00" width="9.5" height="7.14" fill="#c4342c"/>
    <rect x="440.0" y="87.14" width="9.5" height="221.45" fill="#1e3a8a"/>
    <rect x="440.0" y="308.59" width="9.5" height="1.09" fill="#b45309"/>
    <rect x="440.0" y="309.68" width="9.5" height="10.32" fill="#2d7a3e"/>
    <rect x="450.0" y="80.00" width="9.5" height="0.76" fill="#c4342c"/>
    <rect x="450.0" y="80.76" width="9.5" height="232.64" fill="#1e3a8a"/>
    <rect x="450.0" y="313.39" width="9.5" height="2.18" fill="#b45309"/>
    <rect x="450.0" y="315.57" width="9.5" height="4.43" fill="#2d7a3e"/>
    <rect x="460.0" y="80.00" width="9.5" height="1.08" fill="#c4342c"/>
    <rect x="460.0" y="81.08" width="9.5" height="230.82" fill="#1e3a8a"/>
    <rect x="460.0" y="311.90" width="9.5" height="0.57" fill="#b45309"/>
    <rect x="460.0" y="312.47" width="9.5" height="7.53" fill="#2d7a3e"/>
    <rect x="470.0" y="80.00" width="9.5" height="0.20" fill="#c4342c"/>
    <rect x="470.0" y="80.20" width="9.5" height="232.90" fill="#1e3a8a"/>
    <rect x="470.0" y="313.10" width="9.5" height="0.63" fill="#b45309"/>
    <rect x="470.0" y="313.73" width="9.5" height="6.27" fill="#2d7a3e"/>
    <rect x="480.0" y="80.00" width="9.5" height="3.34" fill="#c4342c"/>
    <rect x="480.0" y="83.34" width="9.5" height="230.20" fill="#1e3a8a"/>
    <rect x="480.0" y="313.54" width="9.5" height="1.59" fill="#b45309"/>
    <rect x="480.0" y="315.13" width="9.5" height="4.87" fill="#2d7a3e"/>
    <rect x="490.0" y="80.00" width="9.5" height="5.32" fill="#c4342c"/>
    <rect x="490.0" y="85.32" width="9.5" height="225.51" fill="#1e3a8a"/>
    <rect x="490.0" y="310.83" width="9.5" height="0.75" fill="#b45309"/>
    <rect x="490.0" y="311.57" width="9.5" height="8.43" fill="#2d7a3e"/>
    <rect x="500.0" y="80.00" width="9.5" height="2.04" fill="#c4342c"/>
    <rect x="500.0" y="82.04" width="9.5" height="221.08" fill="#1e3a8a"/>
    <rect x="500.0" y="303.12" width="9.5" height="3.01" fill="#b45309"/>
    <rect x="500.0" y="306.13" width="9.5" height="13.87" fill="#2d7a3e"/>
    <rect x="510.0" y="80.00" width="9.5" height="1.28" fill="#c4342c"/>
    <rect x="510.0" y="81.28" width="9.5" height="221.82" fill="#1e3a8a"/>
    <rect x="510.0" y="303.10" width="9.5" height="2.49" fill="#b45309"/>
    <rect x="510.0" y="305.59" width="9.5" height="14.41" fill="#2d7a3e"/>
    <rect x="520.0" y="80.00" width="9.5" height="0.50" fill="#c4342c"/>
    <rect x="520.0" y="80.50" width="9.5" height="230.41" fill="#1e3a8a"/>
    <rect x="520.0" y="310.92" width="9.5" height="1.32" fill="#b45309"/>
    <rect x="520.0" y="312.23" width="9.5" height="7.77" fill="#2d7a3e"/>
    <rect x="530.0" y="80.00" width="9.5" height="1.66" fill="#c4342c"/>
    <rect x="530.0" y="81.66" width="9.5" height="235.77" fill="#1e3a8a"/>
    <rect x="530.0" y="317.43" width="9.5" height="0.68" fill="#b45309"/>
    <rect x="530.0" y="318.10" width="9.5" height="1.90" fill="#2d7a3e"/>
    <rect x="540.0" y="80.00" width="9.5" height="0.89" fill="#c4342c"/>
    <rect x="540.0" y="80.89" width="9.5" height="0.28" fill="#1e3a8a"/>
    <rect x="540.0" y="81.17" width="9.5" height="232.41" fill="#b45309"/>
    <rect x="540.0" y="313.58" width="9.5" height="6.42" fill="#2d7a3e"/>
    <rect x="550.0" y="80.00" width="9.5" height="0.07" fill="#c4342c"/>
    <rect x="550.0" y="80.07" width="9.5" height="5.06" fill="#1e3a8a"/>
    <rect x="550.0" y="85.13" width="9.5" height="221.39" fill="#b45309"/>
    <rect x="550.0" y="306.52" width="9.5" height="13.48" fill="#2d7a3e"/>
    <rect x="560.0" y="80.00" width="9.5" height="1.43" fill="#c4342c"/>
    <rect x="560.0" y="81.43" width="9.5" height="0.04" fill="#1e3a8a"/>
    <rect x="560.0" y="81.47" width="9.5" height="232.58" fill="#b45309"/>
    <rect x="560.0" y="314.04" width="9.5" height="5.96" fill="#2d7a3e"/>
    <rect x="570.0" y="80.00" width="9.5" height="0.82" fill="#c4342c"/>
    <rect x="570.0" y="80.82" width="9.5" height="1.69" fill="#1e3a8a"/>
    <rect x="570.0" y="82.51" width="9.5" height="231.49" fill="#b45309"/>
    <rect x="570.0" y="313.99" width="9.5" height="6.01" fill="#2d7a3e"/>
    <rect x="580.0" y="80.00" width="9.5" height="2.77" fill="#c4342c"/>
    <rect x="580.0" y="82.77" width="9.5" height="0.25" fill="#1e3a8a"/>
    <rect x="580.0" y="83.02" width="9.5" height="226.16" fill="#b45309"/>
    <rect x="580.0" y="309.17" width="9.5" height="10.83" fill="#2d7a3e"/>
    <rect x="590.0" y="80.00" width="9.5" height="1.48" fill="#c4342c"/>
    <rect x="590.0" y="81.48" width="9.5" height="2.31" fill="#1e3a8a"/>
    <rect x="590.0" y="83.79" width="9.5" height="229.97" fill="#b45309"/>
    <rect x="590.0" y="313.76" width="9.5" height="6.24" fill="#2d7a3e"/>
    <rect x="600.0" y="80.00" width="9.5" height="0.96" fill="#c4342c"/>
    <rect x="600.0" y="80.96" width="9.5" height="1.39" fill="#1e3a8a"/>
    <rect x="600.0" y="82.35" width="9.5" height="233.18" fill="#b45309"/>
    <rect x="600.0" y="315.54" width="9.5" height="4.46" fill="#2d7a3e"/>
    <rect x="610.0" y="80.00" width="9.5" height="0.27" fill="#c4342c"/>
    <rect x="610.0" y="80.27" width="9.5" height="0.73" fill="#1e3a8a"/>
    <rect x="610.0" y="81.00" width="9.5" height="236.17" fill="#b45309"/>
    <rect x="610.0" y="317.17" width="9.5" height="2.83" fill="#2d7a3e"/>
    <rect x="620.0" y="80.00" width="9.5" height="0.71" fill="#c4342c"/>
    <rect x="620.0" y="80.71" width="9.5" height="0.42" fill="#1e3a8a"/>
    <rect x="620.0" y="81.13" width="9.5" height="235.93" fill="#b45309"/>
    <rect x="620.0" y="317.06" width="9.5" height="2.94" fill="#2d7a3e"/>
    <rect x="630.0" y="80.00" width="9.5" height="1.02" fill="#c4342c"/>
    <rect x="630.0" y="81.02" width="9.5" height="0.84" fill="#1e3a8a"/>
    <rect x="630.0" y="81.86" width="9.5" height="234.08" fill="#b45309"/>
    <rect x="630.0" y="315.94" width="9.5" height="4.06" fill="#2d7a3e"/>
    <rect x="640.0" y="80.00" width="9.5" height="0.67" fill="#c4342c"/>
    <rect x="640.0" y="80.67" width="9.5" height="1.40" fill="#1e3a8a"/>
    <rect x="640.0" y="82.07" width="9.5" height="231.30" fill="#b45309"/>
    <rect x="640.0" y="313.37" width="9.5" height="6.63" fill="#2d7a3e"/>
    <rect x="650.0" y="80.00" width="9.5" height="0.14" fill="#c4342c"/>
    <rect x="650.0" y="80.14" width="9.5" height="1.69" fill="#1e3a8a"/>
    <rect x="650.0" y="81.84" width="9.5" height="231.03" fill="#b45309"/>
    <rect x="650.0" y="312.87" width="9.5" height="7.13" fill="#2d7a3e"/>
    <rect x="660.0" y="80.00" width="9.5" height="0.44" fill="#c4342c"/>
    <rect x="660.0" y="80.44" width="9.5" height="0.45" fill="#1e3a8a"/>
    <rect x="660.0" y="80.89" width="9.5" height="237.49" fill="#b45309"/>
    <rect x="660.0" y="318.38" width="9.5" height="1.62" fill="#2d7a3e"/>
    <rect x="670.0" y="80.00" width="9.5" height="1.86" fill="#c4342c"/>
    <rect x="670.0" y="81.86" width="9.5" height="1.88" fill="#1e3a8a"/>
    <rect x="670.0" y="83.75" width="9.5" height="227.33" fill="#b45309"/>
    <rect x="670.0" y="311.07" width="9.5" height="8.93" fill="#2d7a3e"/>
    <rect x="680.0" y="80.00" width="9.5" height="1.98" fill="#c4342c"/>
    <rect x="680.0" y="81.98" width="9.5" height="0.25" fill="#1e3a8a"/>
    <rect x="680.0" y="82.23" width="9.5" height="228.20" fill="#b45309"/>
    <rect x="680.0" y="310.43" width="9.5" height="9.57" fill="#2d7a3e"/>
    <rect x="690.0" y="80.00" width="9.5" height="0.04" fill="#c4342c"/>
    <rect x="690.0" y="80.04" width="9.5" height="1.18" fill="#1e3a8a"/>
    <rect x="690.0" y="81.22" width="9.5" height="233.40" fill="#b45309"/>
    <rect x="690.0" y="314.63" width="9.5" height="5.37" fill="#2d7a3e"/>
    <rect x="700.0" y="80.00" width="9.5" height="0.51" fill="#c4342c"/>
    <rect x="700.0" y="80.51" width="9.5" height="2.22" fill="#1e3a8a"/>
    <rect x="700.0" y="82.73" width="9.5" height="228.88" fill="#b45309"/>
    <rect x="700.0" y="311.61" width="9.5" height="8.39" fill="#2d7a3e"/>
    <rect x="710.0" y="80.00" width="9.5" height="1.33" fill="#c4342c"/>
    <rect x="710.0" y="81.33" width="9.5" height="2.63" fill="#1e3a8a"/>
    <rect x="710.0" y="83.96" width="9.5" height="229.15" fill="#b45309"/>
    <rect x="710.0" y="313.11" width="9.5" height="6.89" fill="#2d7a3e"/>
    <rect x="720.0" y="80.00" width="9.5" height="0.03" fill="#c4342c"/>
    <rect x="720.0" y="80.03" width="9.5" height="1.34" fill="#1e3a8a"/>
    <rect x="720.0" y="81.38" width="9.5" height="225.10" fill="#b45309"/>
    <rect x="720.0" y="306.47" width="9.5" height="13.53" fill="#2d7a3e"/>
    <rect x="730.0" y="80.00" width="9.5" height="0.32" fill="#c4342c"/>
    <rect x="730.0" y="80.32" width="9.5" height="0.38" fill="#1e3a8a"/>
    <rect x="730.0" y="80.70" width="9.5" height="232.19" fill="#b45309"/>
    <rect x="730.0" y="312.89" width="9.5" height="7.11" fill="#2d7a3e"/>
    <rect x="740.0" y="80.00" width="9.5" height="3.16" fill="#c4342c"/>
    <rect x="740.0" y="83.16" width="9.5" height="127.47" fill="#1e3a8a"/>
    <rect x="740.0" y="210.64" width="9.5" height="98.22" fill="#b45309"/>
    <rect x="740.0" y="308.86" width="9.5" height="11.14" fill="#2d7a3e"/>
    <rect x="750.0" y="80.00" width="9.5" height="3.17" fill="#c4342c"/>
    <rect x="750.0" y="83.17" width="9.5" height="126.80" fill="#1e3a8a"/>
    <rect x="750.0" y="209.97" width="9.5" height="103.69" fill="#b45309"/>
    <rect x="750.0" y="313.66" width="9.5" height="6.34" fill="#2d7a3e"/>
    <rect x="760.0" y="80.00" width="9.5" height="4.43" fill="#c4342c"/>
    <rect x="760.0" y="84.43" width="9.5" height="93.53" fill="#1e3a8a"/>
    <rect x="760.0" y="177.96" width="9.5" height="135.47" fill="#b45309"/>
    <rect x="760.0" y="313.43" width="9.5" height="6.57" fill="#2d7a3e"/>
    <rect x="770.0" y="80.00" width="9.5" height="3.36" fill="#c4342c"/>
    <rect x="770.0" y="83.36" width="9.5" height="127.88" fill="#1e3a8a"/>
    <rect x="770.0" y="211.24" width="9.5" height="94.64" fill="#b45309"/>
    <rect x="770.0" y="305.88" width="9.5" height="14.12" fill="#2d7a3e"/>
    <rect x="780.0" y="80.00" width="9.5" height="0.64" fill="#c4342c"/>
    <rect x="780.0" y="80.64" width="9.5" height="111.99" fill="#1e3a8a"/>
    <rect x="780.0" y="192.63" width="9.5" height="118.65" fill="#b45309"/>
    <rect x="780.0" y="311.28" width="9.5" height="8.72" fill="#2d7a3e"/>
    <rect x="790.0" y="80.00" width="9.5" height="7.15" fill="#c4342c"/>
    <rect x="790.0" y="87.15" width="9.5" height="107.83" fill="#1e3a8a"/>
    <rect x="790.0" y="194.98" width="9.5" height="115.32" fill="#b45309"/>
    <rect x="790.0" y="310.30" width="9.5" height="9.70" fill="#2d7a3e"/>
    <rect x="800.0" y="80.00" width="9.5" height="2.56" fill="#c4342c"/>
    <rect x="800.0" y="82.56" width="9.5" height="118.14" fill="#1e3a8a"/>
    <rect x="800.0" y="200.70" width="9.5" height="103.38" fill="#b45309"/>
    <rect x="800.0" y="304.08" width="9.5" height="15.92" fill="#2d7a3e"/>
    <rect x="810.0" y="80.00" width="9.5" height="1.55" fill="#c4342c"/>
    <rect x="810.0" y="81.55" width="9.5" height="92.12" fill="#1e3a8a"/>
    <rect x="810.0" y="173.67" width="9.5" height="136.59" fill="#b45309"/>
    <rect x="810.0" y="310.26" width="9.5" height="9.74" fill="#2d7a3e"/>
    <rect x="820.0" y="80.00" width="9.5" height="3.37" fill="#c4342c"/>
    <rect x="820.0" y="83.37" width="9.5" height="94.28" fill="#1e3a8a"/>
    <rect x="820.0" y="177.64" width="9.5" height="134.96" fill="#b45309"/>
    <rect x="820.0" y="312.61" width="9.5" height="7.39" fill="#2d7a3e"/>
    <rect x="830.0" y="80.00" width="9.5" height="3.92" fill="#c4342c"/>
    <rect x="830.0" y="83.92" width="9.5" height="107.71" fill="#1e3a8a"/>
    <rect x="830.0" y="191.63" width="9.5" height="122.95" fill="#b45309"/>
    <rect x="830.0" y="314.58" width="9.5" height="5.42" fill="#2d7a3e"/>
    <rect x="840.0" y="80.00" width="9.5" height="5.65" fill="#c4342c"/>
    <rect x="840.0" y="85.65" width="9.5" height="1.72" fill="#1e3a8a"/>
    <rect x="840.0" y="87.37" width="9.5" height="0.22" fill="#b45309"/>
    <rect x="840.0" y="87.59" width="9.5" height="232.41" fill="#2d7a3e"/>
    <rect x="850.0" y="80.00" width="9.5" height="15.52" fill="#c4342c"/>
    <rect x="850.0" y="95.52" width="9.5" height="12.27" fill="#1e3a8a"/>
    <rect x="850.0" y="107.79" width="9.5" height="0.33" fill="#b45309"/>
    <rect x="850.0" y="108.12" width="9.5" height="211.88" fill="#2d7a3e"/>
    <rect x="860.0" y="80.00" width="9.5" height="8.15" fill="#c4342c"/>
    <rect x="860.0" y="88.15" width="9.5" height="3.85" fill="#1e3a8a"/>
    <rect x="860.0" y="92.00" width="9.5" height="1.49" fill="#b45309"/>
    <rect x="860.0" y="93.49" width="9.5" height="226.51" fill="#2d7a3e"/>
    <rect x="870.0" y="80.00" width="9.5" height="10.80" fill="#c4342c"/>
    <rect x="870.0" y="90.80" width="9.5" height="0.11" fill="#1e3a8a"/>
    <rect x="870.0" y="90.92" width="9.5" height="0.79" fill="#b45309"/>
    <rect x="870.0" y="91.70" width="9.5" height="228.30" fill="#2d7a3e"/>
    <rect x="880.0" y="80.00" width="9.5" height="10.97" fill="#c4342c"/>
    <rect x="880.0" y="90.97" width="9.5" height="0.23" fill="#1e3a8a"/>
    <rect x="880.0" y="91.20" width="9.5" height="7.77" fill="#b45309"/>
    <rect x="880.0" y="98.98" width="9.5" height="221.02" fill="#2d7a3e"/>
    <rect x="890.0" y="80.00" width="9.5" height="21.49" fill="#c4342c"/>
    <rect x="890.0" y="101.49" width="9.5" height="1.67" fill="#1e3a8a"/>
    <rect x="890.0" y="103.16" width="9.5" height="0.52" fill="#b45309"/>
    <rect x="890.0" y="103.67" width="9.5" height="216.33" fill="#2d7a3e"/>
    <rect x="900.0" y="80.00" width="9.5" height="8.09" fill="#c4342c"/>
    <rect x="900.0" y="88.09" width="9.5" height="3.40" fill="#1e3a8a"/>
    <rect x="900.0" y="91.49" width="9.5" height="3.72" fill="#b45309"/>
    <rect x="900.0" y="95.21" width="9.5" height="224.79" fill="#2d7a3e"/>
    <rect x="910.0" y="80.00" width="9.5" height="4.55" fill="#c4342c"/>
    <rect x="910.0" y="84.55" width="9.5" height="5.91" fill="#1e3a8a"/>
    <rect x="910.0" y="90.46" width="9.5" height="4.19" fill="#b45309"/>
    <rect x="910.0" y="94.65" width="9.5" height="225.35" fill="#2d7a3e"/>
    <rect x="920.0" y="80.00" width="9.5" height="9.62" fill="#c4342c"/>
    <rect x="920.0" y="89.62" width="9.5" height="1.40" fill="#1e3a8a"/>
    <rect x="920.0" y="91.02" width="9.5" height="3.00" fill="#b45309"/>
    <rect x="920.0" y="94.01" width="9.5" height="225.99" fill="#2d7a3e"/>
    <rect x="930.0" y="80.00" width="9.5" height="18.95" fill="#c4342c"/>
    <rect x="930.0" y="98.95" width="9.5" height="0.13" fill="#1e3a8a"/>
    <rect x="930.0" y="99.08" width="9.5" height="5.86" fill="#b45309"/>
    <rect x="930.0" y="104.94" width="9.5" height="215.06" fill="#2d7a3e"/>
    <rect x="940.0" y="80.00" width="9.5" height="10.52" fill="#c4342c"/>
    <rect x="940.0" y="90.52" width="9.5" height="1.20" fill="#1e3a8a"/>
    <rect x="940.0" y="91.72" width="9.5" height="1.66" fill="#b45309"/>
    <rect x="940.0" y="93.37" width="9.5" height="226.63" fill="#2d7a3e"/>
    <rect x="950.0" y="80.00" width="9.5" height="10.28" fill="#c4342c"/>
    <rect x="950.0" y="90.28" width="9.5" height="7.44" fill="#1e3a8a"/>
    <rect x="950.0" y="97.72" width="9.5" height="3.62" fill="#b45309"/>
    <rect x="950.0" y="101.33" width="9.5" height="218.67" fill="#2d7a3e"/>
    <rect x="960.0" y="80.00" width="9.5" height="7.76" fill="#c4342c"/>
    <rect x="960.0" y="87.76" width="9.5" height="5.87" fill="#1e3a8a"/>
    <rect x="960.0" y="93.63" width="9.5" height="1.90" fill="#b45309"/>
    <rect x="960.0" y="95.53" width="9.5" height="224.47" fill="#2d7a3e"/>
    <rect x="970.0" y="80.00" width="9.5" height="6.12" fill="#c4342c"/>
    <rect x="970.0" y="86.12" width="9.5" height="5.30" fill="#1e3a8a"/>
    <rect x="970.0" y="91.42" width="9.5" height="0.28" fill="#b45309"/>
    <rect x="970.0" y="91.69" width="9.5" height="228.31" fill="#2d7a3e"/>
    <rect x="980.0" y="80.00" width="9.5" height="5.17" fill="#c4342c"/>
    <rect x="980.0" y="85.17" width="9.5" height="3.13" fill="#1e3a8a"/>
    <rect x="980.0" y="88.30" width="9.5" height="0.36" fill="#b45309"/>
    <rect x="980.0" y="88.66" width="9.5" height="231.34" fill="#2d7a3e"/>
    <rect x="990.0" y="80.00" width="9.5" height="7.12" fill="#c4342c"/>
    <rect x="990.0" y="87.12" width="9.5" height="5.94" fill="#1e3a8a"/>
    <rect x="990.0" y="93.06" width="9.5" height="5.94" fill="#b45309"/>
    <rect x="990.0" y="99.00" width="9.5" height="221.00" fill="#2d7a3e"/>
    <rect x="1000.0" y="80.00" width="9.5" height="8.28" fill="#c4342c"/>
    <rect x="1000.0" y="88.28" width="9.5" height="5.88" fill="#1e3a8a"/>
    <rect x="1000.0" y="94.16" width="9.5" height="6.50" fill="#b45309"/>
    <rect x="1000.0" y="100.66" width="9.5" height="219.34" fill="#2d7a3e"/>
    <rect x="1010.0" y="80.00" width="9.5" height="4.70" fill="#c4342c"/>
    <rect x="1010.0" y="84.70" width="9.5" height="5.47" fill="#1e3a8a"/>
    <rect x="1010.0" y="90.17" width="9.5" height="1.42" fill="#b45309"/>
    <rect x="1010.0" y="91.59" width="9.5" height="228.41" fill="#2d7a3e"/>
    <rect x="1020.0" y="80.00" width="9.5" height="8.45" fill="#c4342c"/>
    <rect x="1020.0" y="88.45" width="9.5" height="1.51" fill="#1e3a8a"/>
    <rect x="1020.0" y="89.96" width="9.5" height="4.77" fill="#b45309"/>
    <rect x="1020.0" y="94.73" width="9.5" height="225.27" fill="#2d7a3e"/>
    <rect x="1030.0" y="80.00" width="9.5" height="4.84" fill="#c4342c"/>
    <rect x="1030.0" y="84.84" width="9.5" height="3.57" fill="#1e3a8a"/>
    <rect x="1030.0" y="88.41" width="9.5" height="2.71" fill="#b45309"/>
    <rect x="1030.0" y="91.12" width="9.5" height="228.88" fill="#2d7a3e"/>
  </g>

  <!-- Group divider lines -->
  <line x1="290" y1="80" x2="290" y2="320" stroke="#ffffff" stroke-width="1.5"/>
  <line x1="540" y1="80" x2="540" y2="320" stroke="#ffffff" stroke-width="1.5"/>
  <line x1="740" y1="80" x2="740" y2="320" stroke="#ffffff" stroke-width="1.5"/>
  <line x1="840" y1="80" x2="840" y2="320" stroke="#ffffff" stroke-width="1.5"/>

  <!-- Plot border -->
  <rect x="40" y="80" width="1000" height="240" fill="none" stroke="#8a8a85" stroke-width="0.8"/>

  <!-- Group labels -->
  <text x="165.0" y="338" text-anchor="middle" font-family="Inter, sans-serif" font-size="11" font-weight="600" fill="#c4342c">African</text>
  <text x="415.0" y="338" text-anchor="middle" font-family="Inter, sans-serif" font-size="11" font-weight="600" fill="#1e3a8a">European</text>
  <text x="640" y="338" text-anchor="middle" font-family="Inter, sans-serif" font-size="11" font-weight="600" fill="#b45309">East Asian</text>
  <text x="790" y="338" text-anchor="middle" font-family="Inter, sans-serif" font-size="11" font-weight="600" fill="#7c3aed">Admixed</text>
  <text x="940" y="338" text-anchor="middle" font-family="Inter, sans-serif" font-size="11" font-weight="600" fill="#2d7a3e">South Asian</text>

  <!-- Group counts -->
  <text x="165.0" y="352" text-anchor="middle" font-family="JetBrains Mono, monospace" font-size="9" fill="#525252">n=25</text>
  <text x="415.0" y="352" text-anchor="middle" font-family="JetBrains Mono, monospace" font-size="9" fill="#525252">n=25</text>
  <text x="640" y="352" text-anchor="middle" font-family="JetBrains Mono, monospace" font-size="9" fill="#525252">n=20</text>
  <text x="790" y="352" text-anchor="middle" font-family="JetBrains Mono, monospace" font-size="9" fill="#525252">n=10</text>
  <text x="940" y="352" text-anchor="middle" font-family="JetBrains Mono, monospace" font-size="9" fill="#525252">n=20</text>

  <!-- Legend -->
  <g transform="translate(40 366)">
    <text x="0" y="10" font-family="Inter, sans-serif" font-size="10" font-weight="600" fill="#0a0a0a" letter-spacing="0.06em">ANCESTRY:</text>
    <rect x="88"  y="0" width="12" height="12" fill="#c4342c"/>
    <text x="104" y="10" font-family="Inter, sans-serif" font-size="10" fill="#0a0a0a">African</text>
    <rect x="170" y="0" width="12" height="12" fill="#1e3a8a"/>
    <text x="186" y="10" font-family="Inter, sans-serif" font-size="10" fill="#0a0a0a">European</text>
    <rect x="262" y="0" width="12" height="12" fill="#b45309"/>
    <text x="278" y="10" font-family="Inter, sans-serif" font-size="10" fill="#0a0a0a">East Asian</text>
    <rect x="360" y="0" width="12" height="12" fill="#2d7a3e"/>
    <text x="376" y="10" font-family="Inter, sans-serif" font-size="10" fill="#0a0a0a">South Asian</text>
    <text x="700" y="10" font-family="Inter, sans-serif" font-size="10" fill="#525252" font-style="italic">admixed individuals show visible mixtures (columns 71–80)</text>
  </g>
</svg>
