<svg xmlns="http://www.w3.org/2000/svg" viewBox="0 0 1200 720" width="1200" height="720" font-family="Inter, sans-serif">
  <defs>
    <style>text { font-family: Inter, sans-serif; } .mono { font-family: 'JetBrains Mono', monospace; font-size: 10px; }</style>
    <marker id="arrK" viewBox="0 0 10 10" refX="9" refY="5" markerWidth="7" markerHeight="7" orient="auto">
      <path d="M 0 0 L 10 5 L 0 10 z" fill="#065f46"/>
    </marker>
  </defs>
  <rect width="1200" height="720" fill="#fafaf9" rx="6"/>
  <text x="600" y="28" text-anchor="middle" font-size="14" font-weight="600" fill="#111827">KEGG glycolysis (hsa00010) — 10 reactions, glucose → pyruvate</text>

  <!-- Main vertical pathway -->
  <g transform="translate(380,70)">
    <!-- Steps -->
    <g>
      <rect x="0" y="0" width="200" height="40" fill="#fef3c7" stroke="#b45309" rx="4"/>
      <text x="100" y="24" text-anchor="middle" font-size="13" font-weight="700" fill="#92400e">α-D-Glucose</text>
    </g>
    <line x1="100" y1="40" x2="100" y2="64" stroke="#065f46" stroke-width="1.5" marker-end="url(#arrK)"/>
    <text x="110" y="58" font-size="9" font-weight="700" fill="#065f46" class="mono">HK (2.7.1.1)</text>

    <g transform="translate(0,68)">
      <rect x="0" y="0" width="200" height="40" fill="#fef3c7" stroke="#b45309" rx="4"/>
      <text x="100" y="24" text-anchor="middle" font-size="11" font-weight="700" fill="#92400e">Glucose-6-phosphate</text>
    </g>
    <line x1="100" y1="108" x2="100" y2="132" stroke="#065f46" stroke-width="1.5" marker-end="url(#arrK)"/>
    <text x="110" y="126" font-size="9" font-weight="700" fill="#065f46" class="mono">PGI (5.3.1.9)</text>

    <g transform="translate(0,136)">
      <rect x="0" y="0" width="200" height="40" fill="#fef3c7" stroke="#b45309" rx="4"/>
      <text x="100" y="24" text-anchor="middle" font-size="11" font-weight="700" fill="#92400e">Fructose-6-phosphate</text>
    </g>
    <line x1="100" y1="176" x2="100" y2="200" stroke="#065f46" stroke-width="1.5" marker-end="url(#arrK)"/>
    <text x="110" y="194" font-size="9" font-weight="700" fill="#065f46" class="mono">PFK (2.7.1.11)</text>

    <g transform="translate(0,204)">
      <rect x="0" y="0" width="200" height="40" fill="#fef3c7" stroke="#b45309" rx="4"/>
      <text x="100" y="24" text-anchor="middle" font-size="11" font-weight="700" fill="#92400e">Fructose-1,6-BP</text>
    </g>
    <line x1="100" y1="244" x2="100" y2="268" stroke="#065f46" stroke-width="1.5" marker-end="url(#arrK)"/>
    <text x="110" y="262" font-size="9" font-weight="700" fill="#065f46" class="mono">ALDO (4.1.2.13)</text>

    <g transform="translate(0,272)">
      <rect x="0" y="0" width="200" height="40" fill="#fef3c7" stroke="#b45309" rx="4"/>
      <text x="100" y="24" text-anchor="middle" font-size="11" font-weight="700" fill="#92400e">G3P + DHAP</text>
    </g>
    <line x1="100" y1="312" x2="100" y2="336" stroke="#065f46" stroke-width="1.5" marker-end="url(#arrK)"/>
    <text x="110" y="330" font-size="9" font-weight="700" fill="#065f46" class="mono">GAPDH (1.2.1.12)</text>

    <g transform="translate(0,340)">
      <rect x="0" y="0" width="200" height="40" fill="#fef3c7" stroke="#b45309" rx="4"/>
      <text x="100" y="24" text-anchor="middle" font-size="11" font-weight="700" fill="#92400e">1,3-bisphosphoglycerate</text>
    </g>
    <line x1="100" y1="380" x2="100" y2="404" stroke="#065f46" stroke-width="1.5" marker-end="url(#arrK)"/>
    <text x="110" y="398" font-size="9" font-weight="700" fill="#065f46" class="mono">PGK (2.7.2.3)</text>

    <g transform="translate(0,408)">
      <rect x="0" y="0" width="200" height="40" fill="#fef3c7" stroke="#b45309" rx="4"/>
      <text x="100" y="24" text-anchor="middle" font-size="11" font-weight="700" fill="#92400e">3-phosphoglycerate</text>
    </g>
    <line x1="100" y1="448" x2="100" y2="472" stroke="#065f46" stroke-width="1.5" marker-end="url(#arrK)"/>
    <text x="110" y="466" font-size="9" font-weight="700" fill="#065f46" class="mono">PGM (5.4.2.11)</text>

    <g transform="translate(0,476)">
      <rect x="0" y="0" width="200" height="40" fill="#fef3c7" stroke="#b45309" rx="4"/>
      <text x="100" y="24" text-anchor="middle" font-size="11" font-weight="700" fill="#92400e">Phosphoenolpyruvate</text>
    </g>
    <line x1="100" y1="516" x2="100" y2="540" stroke="#065f46" stroke-width="1.5" marker-end="url(#arrK)"/>
    <text x="110" y="534" font-size="9" font-weight="700" fill="#065f46" class="mono">PK (2.7.1.40)</text>

    <g transform="translate(0,544)">
      <rect x="0" y="0" width="200" height="40" fill="#dcfce7" stroke="#065f46" rx="4" stroke-width="1.8"/>
      <text x="100" y="24" text-anchor="middle" font-size="13" font-weight="700" fill="#065f46">Pyruvate</text>
    </g>
  </g>

  <!-- Branch: pentose-phosphate-pathway entry from G6P -->
  <g transform="translate(260,68)">
    <line x1="120" y1="20" x2="80" y2="20" stroke="#7c3aed" stroke-width="1.5" marker-end="url(#arrK)" stroke-dasharray="3 2"/>
    <rect x="0" y="0" width="80" height="40" fill="#ede9fe" stroke="#7c3aed" rx="4"/>
    <text x="40" y="18" text-anchor="middle" font-size="9" font-weight="700" fill="#7c3aed">PPP</text>
    <text x="40" y="32" text-anchor="middle" font-size="8" fill="#525252">→ ribose-5-P</text>
  </g>

  <!-- Branch: lactate output from pyruvate -->
  <g transform="translate(700,544)">
    <line x1="-120" y1="20" x2="-20" y2="20" stroke="#dc2626" stroke-width="1.5" marker-end="url(#arrK)"/>
    <rect x="-20" y="0" width="100" height="40" fill="#fee2e2" stroke="#dc2626" rx="4"/>
    <text x="30" y="18" text-anchor="middle" font-size="11" font-weight="700" fill="#dc2626">Lactate</text>
    <text x="30" y="32" text-anchor="middle" font-size="8" class="mono" fill="#525252">LDH (anaerobic)</text>
  </g>

  <!-- Branch: mitochondrial entry of pyruvate -->
  <g transform="translate(580,640)">
    <line x1="-100" y1="0" x2="-100" y2="-12" stroke="#1e3a8a" stroke-width="1.5"/>
    <line x1="-100" y1="-12" x2="0" y2="-12" stroke="#1e3a8a" stroke-width="1.5"/>
    <line x1="0" y1="-12" x2="0" y2="0" stroke="#1e3a8a" stroke-width="1.5" marker-end="url(#arrK)"/>
    <rect x="-50" y="0" width="100" height="40" fill="#dbeafe" stroke="#1e3a8a" rx="4"/>
    <text x="0" y="18" text-anchor="middle" font-size="11" font-weight="700" fill="#1e3a8a">Acetyl-CoA</text>
    <text x="0" y="32" text-anchor="middle" font-size="8" class="mono" fill="#525252">→ TCA cycle</text>
  </g>

  <!-- Top-left side: pathway info -->
  <g transform="translate(60,80)">
    <rect width="220" height="200" fill="#fff" stroke="#d6d3d1" rx="6"/>
    <text x="110" y="22" text-anchor="middle" font-size="12" font-weight="700" fill="#374151">Pathway info</text>
    <line x1="20" y1="32" x2="200" y2="32" stroke="#e7e5e4"/>
    <g transform="translate(20,46)" font-size="10" fill="#374151">
      <text x="0" y="0" font-weight="700">KEGG ID:</text>
      <text x="60" y="0" class="mono">hsa00010</text>
      <text x="0" y="20" font-weight="700">Reactions:</text>
      <text x="60" y="20" class="mono">10</text>
      <text x="0" y="40" font-weight="700">Enzymes:</text>
      <text x="60" y="40" class="mono">10 (HK..PK)</text>
      <text x="0" y="60" font-weight="700">Net ATP:</text>
      <text x="60" y="60" class="mono">+2 per glucose</text>
      <text x="0" y="80" font-weight="700">Net NADH:</text>
      <text x="60" y="80" class="mono">+2 per glucose</text>
      <text x="0" y="100" font-weight="700">In disease:</text>
      <text x="60" y="100" class="mono">cancer (Warburg)</text>
      <text x="0" y="116" font-size="9" fill="#525252">tumour cells run glycolysis</text>
      <text x="0" y="128" font-size="9" fill="#525252">even with O₂ available</text>
      <text x="0" y="148" font-weight="700">Drug targets:</text>
      <text x="0" y="160" font-size="9" fill="#525252">HK2, PFKFB3, PKM2 in</text>
      <text x="0" y="172" font-size="9" fill="#525252">cancer metabolism</text>
    </g>
  </g>

  <!-- Top-right side: KEGG visual style note -->
  <g transform="translate(880,80)">
    <rect width="280" height="200" fill="#fff" stroke="#d6d3d1" rx="6"/>
    <text x="140" y="22" text-anchor="middle" font-size="12" font-weight="700" fill="#374151">KEGG visual conventions</text>
    <line x1="20" y1="32" x2="260" y2="32" stroke="#e7e5e4"/>
    <g transform="translate(20,46)" font-size="10" fill="#374151">
      <rect x="0" y="-10" width="14" height="14" fill="#fef3c7" stroke="#b45309"/>
      <text x="22" y="0">metabolite (rectangle)</text>
      <line x1="0" y1="20" x2="14" y2="20" stroke="#065f46" stroke-width="1.5" marker-end="url(#arrK)"/>
      <text x="22" y="22">enzyme reaction (arrow + EC#)</text>
      <text x="0" y="46" font-weight="700">Coloured borders:</text>
      <rect x="0" y="56" width="14" height="14" fill="#dcfce7" stroke="#065f46"/>
      <text x="22" y="66">final product</text>
      <rect x="0" y="76" width="14" height="14" fill="#ede9fe" stroke="#7c3aed"/>
      <text x="22" y="86">side branch (PPP)</text>
      <rect x="0" y="96" width="14" height="14" fill="#fee2e2" stroke="#dc2626"/>
      <text x="22" y="106">side branch (lactate)</text>
      <rect x="0" y="116" width="14" height="14" fill="#dbeafe" stroke="#1e3a8a"/>
      <text x="22" y="126">downstream (TCA)</text>
    </g>
  </g>

  <!-- Bottom banner -->
  <g transform="translate(120,660)">
    <rect width="960" height="40" fill="#fef3c7" stroke="#b45309" rx="4"/>
    <text x="480" y="22" text-anchor="middle" font-size="11" font-weight="600" fill="#92400e">KEGG's iconic ball-and-stick diagrams are the standard visual language for metabolic pathways</text>
  </g>
</svg>
