<svg xmlns="http://www.w3.org/2000/svg" viewBox="0 0 1200 760" width="1200" height="760" font-family="Inter, sans-serif">
  <defs>
    <style>text { font-family: Inter, sans-serif; } .mono { font-family: 'JetBrains Mono', monospace; font-size: 10px; }</style>
    <marker id="arrG" viewBox="0 0 10 10" refX="9" refY="5" markerWidth="6" markerHeight="6" orient="auto">
      <path d="M 0 0 L 10 5 L 0 10 z" fill="#065f46"/>
    </marker>
  </defs>
  <rect width="1200" height="760" fill="#fafaf9" rx="6"/>
  <text x="600" y="28" text-anchor="middle" font-size="14" font-weight="600" fill="#111827">GO Biological Process DAG — terms have parent-child relationships, multiple parents allowed</text>

  <!-- Tree (DAG) layout -->
  <!-- Root at top center -->
  <g transform="translate(400,70)">
    <rect x="0" y="0" width="240" height="40" fill="#dcfce7" stroke="#065f46" stroke-width="2" rx="6"/>
    <text x="120" y="18" text-anchor="middle" font-size="12" font-weight="700" fill="#065f46">biological process</text>
    <text x="120" y="32" text-anchor="middle" font-size="9" class="mono" fill="#525252">GO:0008150 (root)</text>
  </g>

  <!-- Level 1: cellular process / metabolic process / response to stimulus -->
  <g transform="translate(120,170)">
    <rect x="0" y="0" width="180" height="36" fill="#dcfce7" stroke="#065f46" rx="5"/>
    <text x="90" y="16" text-anchor="middle" font-size="11" font-weight="700" fill="#065f46">cellular process</text>
    <text x="90" y="30" text-anchor="middle" font-size="9" class="mono" fill="#525252">GO:0009987</text>
  </g>
  <g transform="translate(380,170)">
    <rect x="0" y="0" width="180" height="36" fill="#dcfce7" stroke="#065f46" rx="5"/>
    <text x="90" y="16" text-anchor="middle" font-size="11" font-weight="700" fill="#065f46">metabolic process</text>
    <text x="90" y="30" text-anchor="middle" font-size="9" class="mono" fill="#525252">GO:0008152</text>
  </g>
  <g transform="translate(640,170)">
    <rect x="0" y="0" width="180" height="36" fill="#dcfce7" stroke="#065f46" rx="5"/>
    <text x="90" y="16" text-anchor="middle" font-size="11" font-weight="700" fill="#065f46">response to stimulus</text>
    <text x="90" y="30" text-anchor="middle" font-size="9" class="mono" fill="#525252">GO:0050896</text>
  </g>
  <g transform="translate(900,170)">
    <rect x="0" y="0" width="180" height="36" fill="#dcfce7" stroke="#065f46" rx="5"/>
    <text x="90" y="16" text-anchor="middle" font-size="11" font-weight="700" fill="#065f46">developmental process</text>
    <text x="90" y="30" text-anchor="middle" font-size="9" class="mono" fill="#525252">GO:0032502</text>
  </g>

  <!-- Edges from root -->
  <g stroke="#065f46" stroke-width="1.2" fill="none" marker-end="url(#arrG)">
    <line x1="490" y1="110" x2="210" y2="170"/>
    <line x1="510" y1="110" x2="470" y2="170"/>
    <line x1="540" y1="110" x2="730" y2="170"/>
    <line x1="560" y1="110" x2="990" y2="170"/>
  </g>

  <!-- Level 2 -->
  <g transform="translate(60,260)">
    <rect x="0" y="0" width="160" height="36" fill="#dcfce7" stroke="#065f46" rx="5"/>
    <text x="80" y="16" text-anchor="middle" font-size="11" font-weight="700" fill="#065f46">cell cycle</text>
    <text x="80" y="30" text-anchor="middle" font-size="9" class="mono" fill="#525252">GO:0007049</text>
  </g>
  <g transform="translate(240,260)">
    <rect x="0" y="0" width="160" height="36" fill="#dcfce7" stroke="#065f46" rx="5"/>
    <text x="80" y="16" text-anchor="middle" font-size="11" font-weight="700" fill="#065f46">cell death</text>
    <text x="80" y="30" text-anchor="middle" font-size="9" class="mono" fill="#525252">GO:0008219</text>
  </g>
  <g transform="translate(440,260)">
    <rect x="0" y="0" width="160" height="36" fill="#dcfce7" stroke="#065f46" rx="5"/>
    <text x="80" y="16" text-anchor="middle" font-size="11" font-weight="700" fill="#065f46">carbohydrate metab.</text>
    <text x="80" y="30" text-anchor="middle" font-size="9" class="mono" fill="#525252">GO:0005975</text>
  </g>
  <g transform="translate(620,260)">
    <rect x="0" y="0" width="160" height="36" fill="#dcfce7" stroke="#065f46" rx="5"/>
    <text x="80" y="16" text-anchor="middle" font-size="11" font-weight="700" fill="#065f46">DNA damage response</text>
    <text x="80" y="30" text-anchor="middle" font-size="9" class="mono" fill="#525252">GO:0006974</text>
  </g>
  <g transform="translate(820,260)">
    <rect x="0" y="0" width="160" height="36" fill="#dcfce7" stroke="#065f46" rx="5"/>
    <text x="80" y="16" text-anchor="middle" font-size="11" font-weight="700" fill="#065f46">apoptotic process</text>
    <text x="80" y="30" text-anchor="middle" font-size="9" class="mono" fill="#525252">GO:0006915</text>
  </g>
  <!-- Edges -->
  <g stroke="#065f46" stroke-width="1" fill="none" marker-end="url(#arrG)">
    <line x1="180" y1="206" x2="140" y2="260"/>
    <line x1="220" y1="206" x2="320" y2="260"/>
    <line x1="450" y1="206" x2="520" y2="260"/>
    <line x1="730" y1="206" x2="700" y2="260"/>
    <!-- Multiple parents: apoptotic_process is child of cell_death AND response_to_stimulus -->
    <line x1="320" y1="296" x2="900" y2="296" stroke-dasharray="4 3" stroke="#7c3aed" stroke-width="1"/>
    <line x1="730" y1="206" x2="900" y2="260"/>
  </g>
  <text x="600" y="312" font-size="9" fill="#7c3aed" font-style="italic" class="mono">multi-parent: cell_death → apoptotic_process AND response_to_stimulus → apoptotic_process</text>

  <!-- Level 3 -->
  <g transform="translate(20,360)">
    <rect x="0" y="0" width="180" height="36" fill="#dcfce7" stroke="#065f46" rx="5"/>
    <text x="90" y="16" text-anchor="middle" font-size="10" font-weight="700" fill="#065f46">cell cycle phase trans.</text>
    <text x="90" y="30" text-anchor="middle" font-size="9" class="mono" fill="#525252">GO:0044770</text>
  </g>
  <g transform="translate(220,360)">
    <rect x="0" y="0" width="180" height="36" fill="#dcfce7" stroke="#065f46" rx="5"/>
    <text x="90" y="16" text-anchor="middle" font-size="10" font-weight="700" fill="#065f46">programmed cell death</text>
    <text x="90" y="30" text-anchor="middle" font-size="9" class="mono" fill="#525252">GO:0012501</text>
  </g>
  <g transform="translate(420,360)">
    <rect x="0" y="0" width="180" height="36" fill="#dcfce7" stroke="#065f46" rx="5"/>
    <text x="90" y="16" text-anchor="middle" font-size="10" font-weight="700" fill="#065f46">glycolysis</text>
    <text x="90" y="30" text-anchor="middle" font-size="9" class="mono" fill="#525252">GO:0006096</text>
  </g>
  <g transform="translate(620,360)">
    <rect x="0" y="0" width="200" height="36" fill="#dcfce7" stroke="#065f46" rx="5"/>
    <text x="100" y="16" text-anchor="middle" font-size="10" font-weight="700" fill="#065f46">double-strand break repair</text>
    <text x="100" y="30" text-anchor="middle" font-size="9" class="mono" fill="#525252">GO:0006302</text>
  </g>
  <g transform="translate(840,360)">
    <rect x="0" y="0" width="220" height="36" fill="#dcfce7" stroke="#065f46" rx="5"/>
    <text x="110" y="16" text-anchor="middle" font-size="10" font-weight="700" fill="#065f46">extrinsic apoptotic pathway</text>
    <text x="110" y="30" text-anchor="middle" font-size="9" class="mono" fill="#525252">GO:0097191</text>
  </g>
  <!-- Edges level 2 → 3 -->
  <g stroke="#065f46" stroke-width="1" fill="none" marker-end="url(#arrG)">
    <line x1="140" y1="296" x2="110" y2="360"/>
    <line x1="320" y1="296" x2="320" y2="360"/>
    <line x1="520" y1="296" x2="520" y2="360"/>
    <line x1="700" y1="296" x2="720" y2="360"/>
    <line x1="900" y1="296" x2="950" y2="360"/>
  </g>

  <!-- Level 4 -->
  <g transform="translate(20,460)">
    <rect x="0" y="0" width="180" height="36" fill="#fef3c7" stroke="#b45309" rx="5"/>
    <text x="90" y="16" text-anchor="middle" font-size="10" font-weight="700" fill="#92400e">G1/S transition</text>
    <text x="90" y="30" text-anchor="middle" font-size="9" class="mono" fill="#525252">GO:0000082</text>
  </g>
  <g transform="translate(220,460)">
    <rect x="0" y="0" width="180" height="36" fill="#fef3c7" stroke="#b45309" rx="5"/>
    <text x="90" y="16" text-anchor="middle" font-size="10" font-weight="700" fill="#92400e">apoptotic signaling</text>
    <text x="90" y="30" text-anchor="middle" font-size="9" class="mono" fill="#525252">GO:0097190</text>
  </g>
  <g transform="translate(420,460)">
    <rect x="0" y="0" width="180" height="36" fill="#fef3c7" stroke="#b45309" rx="5"/>
    <text x="90" y="16" text-anchor="middle" font-size="10" font-weight="700" fill="#92400e">canonical glycolysis</text>
    <text x="90" y="30" text-anchor="middle" font-size="9" class="mono" fill="#525252">GO:0061621</text>
  </g>
  <g transform="translate(620,460)">
    <rect x="0" y="0" width="200" height="36" fill="#fef3c7" stroke="#b45309" rx="5"/>
    <text x="100" y="16" text-anchor="middle" font-size="10" font-weight="700" fill="#92400e">homologous recombination</text>
    <text x="100" y="30" text-anchor="middle" font-size="9" class="mono" fill="#525252">GO:0000724</text>
  </g>
  <g transform="translate(840,460)">
    <rect x="0" y="0" width="220" height="36" fill="#fef3c7" stroke="#b45309" rx="5"/>
    <text x="110" y="16" text-anchor="middle" font-size="10" font-weight="700" fill="#92400e">death receptor signaling</text>
    <text x="110" y="30" text-anchor="middle" font-size="9" class="mono" fill="#525252">GO:0008625</text>
  </g>
  <g stroke="#b45309" stroke-width="1" fill="none" marker-end="url(#arrG)">
    <line x1="110" y1="396" x2="110" y2="460"/>
    <line x1="320" y1="396" x2="320" y2="460"/>
    <line x1="520" y1="396" x2="520" y2="460"/>
    <line x1="720" y1="396" x2="720" y2="460"/>
    <line x1="950" y1="396" x2="950" y2="460"/>
  </g>

  <!-- Side panel: depth statistics — height 160→200 because the right-column
       "This is why GO BP enrichment hits hundreds of terms simultaneously..."
       footnote lived at relative y=130 (abs y=722) — outside both the panel
       (which ended at y=700) and the original 720-tall viewBox. Canvas was
       extended 720→760 in tandem. -->
  <g transform="translate(60,540)">
    <rect width="1080" height="200" fill="#fff" stroke="#d6d3d1" rx="6"/>
    <text x="540" y="22" text-anchor="middle" font-size="12" font-weight="700" fill="#374151">Term counts at each level of the BP DAG</text>
    <line x1="20" y1="34" x2="1060" y2="34" stroke="#e7e5e4"/>
    <g transform="translate(40,52)" font-size="10" fill="#374151">
      <text x="0" y="0" font-weight="700" fill="#065f46">Level 0 (root):</text>
      <text x="160" y="0" class="mono">1 term (biological_process)</text>
      <text x="0" y="20" font-weight="700" fill="#065f46">Level 1:</text>
      <text x="160" y="20" class="mono">~30 terms (broad categories)</text>
      <text x="0" y="40" font-weight="700" fill="#065f46">Level 2:</text>
      <text x="160" y="40" class="mono">~300 terms</text>
      <text x="0" y="60" font-weight="700" fill="#b45309">Level 3:</text>
      <text x="160" y="60" class="mono">~3,000 terms</text>
      <text x="0" y="80" font-weight="700" fill="#b45309">Level 4-6:</text>
      <text x="160" y="80" class="mono">~10,000 terms (most usage)</text>
      <text x="0" y="100" font-weight="700" fill="#525252">Level 7+:</text>
      <text x="160" y="100" class="mono">~17,000 terms (deep, specific)</text>
    </g>
    <g transform="translate(540,52)" font-size="10" fill="#374151">
      <text x="0" y="0" font-weight="700">True-path rule:</text>
      <text x="0" y="18">If gene G is annotated to "G1/S transition", it is</text>
      <text x="0" y="32">implicitly annotated to all ancestors:</text>
      <text x="14" y="50" class="mono">→ cell cycle phase transition</text>
      <text x="14" y="64" class="mono">→ cell cycle</text>
      <text x="14" y="78" class="mono">→ cellular process</text>
      <text x="14" y="92" class="mono">→ biological process</text>
      <text x="0" y="116" font-style="italic" fill="#525252">This is why GO BP enrichment hits hundreds of terms</text>
      <text x="0" y="130" font-style="italic" fill="#525252">simultaneously — they're all on the same path.</text>
    </g>
  </g>
</svg>
