<svg xmlns="http://www.w3.org/2000/svg" viewBox="0 0 1200 540" width="1200" height="540" font-family="Inter, sans-serif">
  <defs><style>text { font-family: Inter, sans-serif; } .mono { font-family: 'JetBrains Mono', monospace; font-size: 11px; }</style></defs>
  <rect width="1200" height="540" fill="#fafaf9" rx="6"/>
  <text x="600" y="32" text-anchor="middle" font-size="15" font-weight="700" fill="#111827">Tanimoto similarity — bit-vector intersection over union</text>

  <!-- Two molecules + bit vectors -->
  <g transform="translate(40,80)">
    <rect width="540" height="220" fill="#fff" stroke="#1e3a8a" stroke-width="2" rx="6"/>
    <text x="270" y="22" text-anchor="middle" font-size="13" font-weight="700" fill="#1e3a8a">Two ECFP4 fingerprints</text>

    <!-- Mol A bits -->
    <g transform="translate(20,50)">
      <text x="0" y="0" font-size="11" font-weight="700" fill="#1e3a8a">A — caffeine</text>
      <g class="mono" font-size="10" fill="#374151">
        <text x="0" y="22">[0 1 1 0 0 1 1 0 1 0 0 1 1 0 1 0 0 0 1 0]</text>
      </g>
      <g transform="translate(0,30)">
        <g>
          <rect x="0" y="0" width="20" height="20" fill="#fff" stroke="#9ca3af"/>
          <rect x="22" y="0" width="20" height="20" fill="#1e3a8a"/>
          <rect x="44" y="0" width="20" height="20" fill="#1e3a8a"/>
          <rect x="66" y="0" width="20" height="20" fill="#fff" stroke="#9ca3af"/>
          <rect x="88" y="0" width="20" height="20" fill="#fff" stroke="#9ca3af"/>
          <rect x="110" y="0" width="20" height="20" fill="#1e3a8a"/>
          <rect x="132" y="0" width="20" height="20" fill="#1e3a8a"/>
          <rect x="154" y="0" width="20" height="20" fill="#fff" stroke="#9ca3af"/>
          <rect x="176" y="0" width="20" height="20" fill="#1e3a8a"/>
          <rect x="198" y="0" width="20" height="20" fill="#fff" stroke="#9ca3af"/>
          <rect x="220" y="0" width="20" height="20" fill="#fff" stroke="#9ca3af"/>
          <rect x="242" y="0" width="20" height="20" fill="#1e3a8a"/>
          <rect x="264" y="0" width="20" height="20" fill="#1e3a8a"/>
          <rect x="286" y="0" width="20" height="20" fill="#fff" stroke="#9ca3af"/>
          <rect x="308" y="0" width="20" height="20" fill="#1e3a8a"/>
          <rect x="330" y="0" width="20" height="20" fill="#fff" stroke="#9ca3af"/>
          <rect x="352" y="0" width="20" height="20" fill="#fff" stroke="#9ca3af"/>
          <rect x="374" y="0" width="20" height="20" fill="#fff" stroke="#9ca3af"/>
          <rect x="396" y="0" width="20" height="20" fill="#1e3a8a"/>
          <rect x="418" y="0" width="20" height="20" fill="#fff" stroke="#9ca3af"/>
        </g>
      </g>
      <text x="450" y="42" font-size="11" font-weight="700" fill="#1e3a8a">|A|=9</text>
    </g>

    <!-- Mol B bits -->
    <g transform="translate(20,120)">
      <text x="0" y="0" font-size="11" font-weight="700" fill="#7c3aed">B — theobromine</text>
      <g class="mono" font-size="10" fill="#374151">
        <text x="0" y="22">[0 1 1 0 0 0 1 0 1 0 1 1 0 0 1 0 0 0 1 0]</text>
      </g>
      <g transform="translate(0,30)">
        <g>
          <rect x="0" y="0" width="20" height="20" fill="#fff" stroke="#9ca3af"/>
          <rect x="22" y="0" width="20" height="20" fill="#7c3aed"/>
          <rect x="44" y="0" width="20" height="20" fill="#7c3aed"/>
          <rect x="66" y="0" width="20" height="20" fill="#fff" stroke="#9ca3af"/>
          <rect x="88" y="0" width="20" height="20" fill="#fff" stroke="#9ca3af"/>
          <rect x="110" y="0" width="20" height="20" fill="#fff" stroke="#9ca3af"/>
          <rect x="132" y="0" width="20" height="20" fill="#7c3aed"/>
          <rect x="154" y="0" width="20" height="20" fill="#fff" stroke="#9ca3af"/>
          <rect x="176" y="0" width="20" height="20" fill="#7c3aed"/>
          <rect x="198" y="0" width="20" height="20" fill="#fff" stroke="#9ca3af"/>
          <rect x="220" y="0" width="20" height="20" fill="#7c3aed"/>
          <rect x="242" y="0" width="20" height="20" fill="#7c3aed"/>
          <rect x="264" y="0" width="20" height="20" fill="#fff" stroke="#9ca3af"/>
          <rect x="286" y="0" width="20" height="20" fill="#fff" stroke="#9ca3af"/>
          <rect x="308" y="0" width="20" height="20" fill="#7c3aed"/>
          <rect x="330" y="0" width="20" height="20" fill="#fff" stroke="#9ca3af"/>
          <rect x="352" y="0" width="20" height="20" fill="#fff" stroke="#9ca3af"/>
          <rect x="374" y="0" width="20" height="20" fill="#fff" stroke="#9ca3af"/>
          <rect x="396" y="0" width="20" height="20" fill="#7c3aed"/>
          <rect x="418" y="0" width="20" height="20" fill="#fff" stroke="#9ca3af"/>
        </g>
      </g>
      <text x="450" y="42" font-size="11" font-weight="700" fill="#7c3aed">|B|=8</text>
    </g>
  </g>

  <!-- Venn diagram -->
  <g transform="translate(620,80)">
    <rect width="540" height="220" fill="#fff" stroke="#065f46" stroke-width="2" rx="6"/>
    <text x="270" y="22" text-anchor="middle" font-size="13" font-weight="700" fill="#065f46">Set view</text>

    <g transform="translate(270,130)">
      <circle cx="-50" cy="0" r="80" fill="#1e3a8a" fill-opacity="0.3" stroke="#1e3a8a" stroke-width="2"/>
      <circle cx="50" cy="0" r="80" fill="#7c3aed" fill-opacity="0.3" stroke="#7c3aed" stroke-width="2"/>
      <text x="-110" y="0" text-anchor="middle" font-size="13" font-weight="700" fill="#1e3a8a">A</text>
      <text x="110" y="0" text-anchor="middle" font-size="13" font-weight="700" fill="#7c3aed">B</text>

      <text x="-80" y="6" text-anchor="middle" font-size="11" fill="#1e3a8a" font-weight="700">|A∖B|=2</text>
      <text x="0" y="6" text-anchor="middle" font-size="11" fill="#065f46" font-weight="700">|A∩B|=7</text>
      <text x="80" y="6" text-anchor="middle" font-size="11" fill="#7c3aed" font-weight="700">|B∖A|=1</text>
    </g>
  </g>

  <!-- Equation -->
  <g transform="translate(40,320)">
    <rect width="1120" height="100" fill="#fff" stroke="#dc2626" stroke-width="2" rx="6"/>
    <text x="560" y="30" text-anchor="middle" font-size="15" font-weight="700" fill="#111827">Tanimoto coefficient</text>
    <text x="560" y="64" text-anchor="middle" class="mono" font-size="20" fill="#dc2626">T(A, B) = |A ∩ B| / |A ∪ B| = |A ∩ B| / (|A| + |B| − |A ∩ B|)</text>
    <text x="560" y="86" text-anchor="middle" class="mono" font-size="14" fill="#374151">= 7 / (9 + 8 − 7) = 7 / 10 = 0.70</text>
  </g>

  <!-- Interpretation -->
  <g transform="translate(40,440)">
    <rect width="1120" height="80" fill="#eff6ff" stroke="#1e3a8a" rx="6"/>
    <text x="20" y="22" font-size="11" font-weight="700" fill="#1e3a8a">Rule-of-thumb thresholds (ECFP4 / 1024 bits, drug-like molecules)</text>
    <g font-size="10" fill="#374151">
      <text x="20" y="42">T &lt; 0.3 → essentially unrelated</text>
      <text x="200" y="42">T ∈ [0.3, 0.5] → weak structural overlap</text>
      <text x="450" y="42">T ∈ [0.5, 0.7] → analogue (similar functional groups)</text>
      <text x="780" y="42">T ≥ 0.7 → near-duplicate / SAR series</text>

      <text x="20" y="62" fill="#dc2626" font-style="italic">Caveat: Tanimoto on FPs is symmetric and ignores activity — high T does NOT guarantee similar bioactivity (activity cliffs).</text>
    </g>
  </g>
</svg>
