<svg xmlns="http://www.w3.org/2000/svg" viewBox="0 0 1200 600" width="1200" height="600" font-family="Inter, sans-serif">
  <defs><style>text { font-family: Inter, sans-serif; } .mono { font-family: 'JetBrains Mono', monospace; font-size: 11px; }</style></defs>
  <rect width="1200" height="600" fill="#fafaf9" rx="6"/>
  <text x="600" y="32" text-anchor="middle" font-size="15" font-weight="700" fill="#111827">GNN message passing — atoms aggregate from neighbours over T rounds</text>

  <!-- Step 0: initial graph -->
  <g transform="translate(40,80)">
    <rect width="280" height="220" fill="#fff" stroke="#1e3a8a" stroke-width="2" rx="6"/>
    <text x="140" y="22" text-anchor="middle" font-size="12" font-weight="700" fill="#1e3a8a">t = 0 — atom features</text>
    <text x="140" y="38" text-anchor="middle" font-size="10" fill="#525252">h⁰ = embedding(atom_type, charge, ...)</text>

    <g transform="translate(140,130)" font-size="9" fill="#fff" font-weight="700">
      <circle cx="0" cy="-50" r="14" fill="#1e3a8a"/><text x="0" y="-47" text-anchor="middle">C</text>
      <circle cx="-50" cy="0" r="14" fill="#dc2626"/><text x="-50" y="3" text-anchor="middle">N</text>
      <circle cx="50" cy="0" r="14" fill="#1e3a8a"/><text x="50" y="3" text-anchor="middle">C</text>
      <circle cx="0" cy="50" r="14" fill="#b45309"/><text x="0" y="53" text-anchor="middle">O</text>
    </g>
    <g stroke="#374151" stroke-width="1.5">
      <line x1="140" y1="94" x2="100" y2="130"/>
      <line x1="140" y1="94" x2="180" y2="130"/>
      <line x1="100" y1="130" x2="140" y2="170"/>
      <line x1="180" y1="130" x2="140" y2="170"/>
    </g>

    <text x="140" y="200" text-anchor="middle" class="mono" font-size="10" fill="#525252">h⁰ ∈ R^d for each atom</text>
  </g>

  <!-- Step 1: t=1 -->
  <g transform="translate(340,80)">
    <rect width="280" height="220" fill="#fff" stroke="#7c3aed" stroke-width="2" rx="6"/>
    <text x="140" y="22" text-anchor="middle" font-size="12" font-weight="700" fill="#7c3aed">t = 1 — first hop</text>
    <text x="140" y="38" text-anchor="middle" font-size="10" fill="#525252">each atom sees direct neighbours</text>

    <g transform="translate(140,130)" font-size="9" fill="#fff" font-weight="700">
      <!-- focused atom -->
      <circle cx="0" cy="-50" r="16" fill="#7c3aed" stroke="#fde68a" stroke-width="3"/><text x="0" y="-47" text-anchor="middle">C</text>
      <circle cx="-50" cy="0" r="14" fill="#dc2626"/><text x="-50" y="3" text-anchor="middle">N</text>
      <circle cx="50" cy="0" r="14" fill="#1e3a8a"/><text x="50" y="3" text-anchor="middle">C</text>
      <circle cx="0" cy="50" r="14" fill="#b45309"/><text x="0" y="53" text-anchor="middle">O</text>
    </g>
    <!-- arrows in -->
    <g stroke="#7c3aed" stroke-width="1.5" fill="none">
      <line x1="100" y1="130" x2="130" y2="105" marker-end="url(#a26m)"/>
      <line x1="180" y1="130" x2="150" y2="105" marker-end="url(#a26m)"/>
    </g>
    <defs>
      <marker id="a26m" markerWidth="6" markerHeight="6" refX="5" refY="3" orient="auto">
        <path d="M0,0 L6,3 L0,6 z" fill="#7c3aed"/>
      </marker>
    </defs>

    <text x="140" y="200" text-anchor="middle" class="mono" font-size="10" fill="#525252">h¹ = aggregate(neighbours)</text>
  </g>

  <!-- Step 2: t=2 -->
  <g transform="translate(640,80)">
    <rect width="280" height="220" fill="#fff" stroke="#065f46" stroke-width="2" rx="6"/>
    <text x="140" y="22" text-anchor="middle" font-size="12" font-weight="700" fill="#065f46">t = 2 — two hops</text>
    <text x="140" y="38" text-anchor="middle" font-size="10" fill="#525252">information from atoms 2 bonds away</text>

    <g transform="translate(140,130)" font-size="9" fill="#fff" font-weight="700">
      <circle cx="0" cy="-50" r="16" fill="#065f46" stroke="#fde68a" stroke-width="3"/><text x="0" y="-47" text-anchor="middle">C</text>
      <circle cx="-50" cy="0" r="14" fill="#dc2626"/><text x="-50" y="3" text-anchor="middle">N</text>
      <circle cx="50" cy="0" r="14" fill="#1e3a8a"/><text x="50" y="3" text-anchor="middle">C</text>
      <circle cx="0" cy="50" r="14" fill="#b45309"/><text x="0" y="53" text-anchor="middle">O</text>
    </g>
    <!-- shaded receptive field -->
    <circle cx="780" cy="130" r="0" fill="none"/>
    <g transform="translate(140,130)">
      <ellipse cx="0" cy="0" rx="80" ry="80" fill="#065f46" fill-opacity="0.08" stroke="#065f46" stroke-dasharray="3 3"/>
    </g>

    <text x="140" y="200" text-anchor="middle" class="mono" font-size="10" fill="#525252">h² covers 2-hop neighbourhood</text>
  </g>

  <!-- Step 3: readout -->
  <g transform="translate(940,80)">
    <rect width="220" height="220" fill="#fff" stroke="#dc2626" stroke-width="2" rx="6"/>
    <text x="110" y="22" text-anchor="middle" font-size="12" font-weight="700" fill="#dc2626">read-out</text>
    <text x="110" y="38" text-anchor="middle" font-size="10" fill="#525252">graph-level pooling</text>

    <g transform="translate(110,130)">
      <text x="0" y="-50" text-anchor="middle" class="mono" font-size="10" fill="#374151">h_G = pool({h^T_v})</text>
      <text x="0" y="-30" text-anchor="middle" class="mono" font-size="10" fill="#374151">∈ {sum, mean, max}</text>
      <rect x="-50" y="-12" width="100" height="24" fill="#fee2e2" stroke="#dc2626" rx="4"/>
      <text x="0" y="4" text-anchor="middle" class="mono" font-size="10" fill="#991b1b">h_G</text>
      <text x="0" y="40" text-anchor="middle" font-size="10" fill="#525252">→ MLP → ŷ</text>
      <text x="0" y="58" text-anchor="middle" font-size="10" fill="#525252">(toxicity, solubility, ...)</text>
    </g>
  </g>

  <!-- Equations — rect height 240→260 so the Choices sub-section's
       second row at panel y=241 fits inside after the +25 shift. -->
  <g transform="translate(40,320)">
    <rect width="700" height="260" fill="#eff6ff" stroke="#1e3a8a" rx="6"/>
    <text x="350" y="24" text-anchor="middle" font-size="13" font-weight="700" fill="#1e3a8a">Message passing equations</text>

    <g transform="translate(20,50)" class="mono" font-size="12" fill="#111827">
      <text x="0" y="0">// for round t = 1, ..., T</text>
      <text x="0" y="22">m_v^t   = AGG({M(h_u^{t-1}, h_v^{t-1}, e_uv) : u ∈ N(v)})</text>
      <text x="0" y="44">h_v^t   = U(h_v^{t-1}, m_v^t)</text>
      <text x="0" y="80">// graph-level read-out</text>
      <text x="0" y="102">h_G     = R({h_v^T : v ∈ G})</text>
      <text x="0" y="124">ŷ       = MLP(h_G)</text>
    </g>

    <!-- Choices sub-section — y dropped 180→205 because the previous
         "ŷ = MLP(h_G)" equation at panel y=174 (fs 12 mono glyph
         y=164-176) was overlapping the "Choices" header glyph row
         (y=172-180) by 4 px. -->
    <g transform="translate(20,205)" font-size="10" fill="#374151">
      <text x="0" y="0" font-weight="700" fill="#1e3a8a">Choices</text>
      <text x="0" y="20">M = MLP, attention, edge-conditioned conv</text>
      <text x="350" y="20">U = GRU, MLP residual, simple sum</text>
      <text x="0" y="36">AGG = sum, mean, max, attention pooling</text>
      <text x="350" y="36">R = sum / set2set / virtual node</text>
    </g>
  </g>

  <!-- Common variants — height matched 240→260 with the equations panel. -->
  <g transform="translate(760,320)">
    <rect width="400" height="260" fill="#fef3c7" stroke="#b45309" rx="6"/>
    <text x="200" y="24" text-anchor="middle" font-size="13" font-weight="700" fill="#92400e">Common variants</text>

    <g transform="translate(20,50)" font-size="10" fill="#92400e">
      <text x="0" y="0" font-weight="700">GCN (Kipf 2017)</text>
      <text x="0" y="16">Sum + degree-normalize. Simple, effective baseline.</text>

      <text x="0" y="40" font-weight="700">GIN (Xu 2019)</text>
      <text x="0" y="56">Provably as expressive as Weisfeiler–Lehman.</text>

      <text x="0" y="80" font-weight="700">D-MPNN / Chemprop</text>
      <text x="0" y="96">Message on directed bonds; current SOTA on QSAR.</text>

      <text x="0" y="120" font-weight="700">SchNet / Equivariant nets</text>
      <text x="0" y="136">Use 3D coords; SE(3)-equivariant — for QM tasks.</text>

      <text x="0" y="160" font-weight="700">Graph transformers</text>
      <text x="0" y="176">Attention over all atoms (Graphormer, GROVER).</text>
    </g>
  </g>
</svg>
