<svg xmlns="http://www.w3.org/2000/svg" viewBox="0 0 1200 720" width="1200" height="720" font-family="Inter, sans-serif">
  <defs><style>text { font-family: Inter, sans-serif; } .mono { font-family: 'JetBrains Mono', monospace; font-size: 10px; }</style></defs>
  <rect width="1200" height="720" fill="#fafaf9" rx="6"/>
  <text x="600" y="28" text-anchor="middle" font-size="14" font-weight="600" fill="#111827">DepMap dependency landscape — 30 cell lines × 30 genes (subset of ~21k × ~1k)</text>

  <!-- Heat map -->
  <g transform="translate(220,80)">
    <text x="450" y="-12" text-anchor="middle" font-size="12" font-weight="700" fill="#374151">Chronos gene effect score (Blue = essential, white = non-essential)</text>

    <!-- Column headers (genes) -->
    <g class="mono" font-size="9" fill="#525252" font-weight="600" transform="translate(20,0)">
      <text x="14" y="-2" text-anchor="end" transform="rotate(-60 14 -2)">RAN</text>
      <text x="42" y="-2" text-anchor="end" transform="rotate(-60 42 -2)">POLR2A</text>
      <text x="70" y="-2" text-anchor="end" transform="rotate(-60 70 -2)">RPL11</text>
      <text x="98" y="-2" text-anchor="end" transform="rotate(-60 98 -2)">PCNA</text>
      <text x="126" y="-2" text-anchor="end" transform="rotate(-60 126 -2)">EIF3D</text>
      <text x="154" y="-2" text-anchor="end" transform="rotate(-60 154 -2)">SF3B1</text>
      <text x="182" y="-2" text-anchor="end" transform="rotate(-60 182 -2)" fill="#dc2626">MCL1</text>
      <text x="210" y="-2" text-anchor="end" transform="rotate(-60 210 -2)" fill="#dc2626">BCL2</text>
      <text x="238" y="-2" text-anchor="end" transform="rotate(-60 238 -2)" fill="#1e3a8a">PRMT5</text>
      <text x="266" y="-2" text-anchor="end" transform="rotate(-60 266 -2)" fill="#1e3a8a">MAT2A</text>
      <text x="294" y="-2" text-anchor="end" transform="rotate(-60 294 -2)" fill="#065f46">EZH2</text>
      <text x="322" y="-2" text-anchor="end" transform="rotate(-60 322 -2)" fill="#065f46">CARM1</text>
      <text x="350" y="-2" text-anchor="end" transform="rotate(-60 350 -2)" fill="#7c3aed">WRN</text>
      <text x="378" y="-2" text-anchor="end" transform="rotate(-60 378 -2)" fill="#7c3aed">MLH1</text>
      <text x="406" y="-2" text-anchor="end" transform="rotate(-60 406 -2)" fill="#b45309">KRAS</text>
      <text x="434" y="-2" text-anchor="end" transform="rotate(-60 434 -2)" fill="#b45309">EGFR</text>
      <text x="462" y="-2" text-anchor="end" transform="rotate(-60 462 -2)" fill="#b45309">PIK3CA</text>
      <text x="490" y="-2" text-anchor="end" transform="rotate(-60 490 -2)">TP53</text>
      <text x="518" y="-2" text-anchor="end" transform="rotate(-60 518 -2)">PTEN</text>
      <text x="546" y="-2" text-anchor="end" transform="rotate(-60 546 -2)">RB1</text>
      <text x="574" y="-2" text-anchor="end" transform="rotate(-60 574 -2)" fill="#525252">olfact1</text>
      <text x="602" y="-2" text-anchor="end" transform="rotate(-60 602 -2)" fill="#525252">olfact2</text>
      <text x="630" y="-2" text-anchor="end" transform="rotate(-60 630 -2)" fill="#525252">testis1</text>
      <text x="658" y="-2" text-anchor="end" transform="rotate(-60 658 -2)" fill="#525252">testis2</text>
      <text x="686" y="-2" text-anchor="end" transform="rotate(-60 686 -2)" fill="#525252">olfact3</text>
    </g>

    <!-- Row labels (cell lines) - grouped by lineage -->
    <g font-size="9" font-weight="600">
      <text x="-8" y="20" text-anchor="end" fill="#dc2626">AML-1</text>
      <text x="-8" y="36" text-anchor="end" fill="#dc2626">AML-2</text>
      <text x="-8" y="52" text-anchor="end" fill="#dc2626">AML-3</text>
      <text x="-8" y="68" text-anchor="end" fill="#dc2626">AML-4</text>
      <text x="-8" y="84" text-anchor="end" fill="#dc2626">CLL-1</text>
      <text x="-8" y="100" text-anchor="end" fill="#dc2626">CLL-2</text>
      <text x="-8" y="116" text-anchor="end" fill="#1e3a8a">PDAC-1</text>
      <text x="-8" y="132" text-anchor="end" fill="#1e3a8a">PDAC-2</text>
      <text x="-8" y="148" text-anchor="end" fill="#1e3a8a">PDAC-3</text>
      <text x="-8" y="164" text-anchor="end" fill="#1e3a8a">LUAD-1</text>
      <text x="-8" y="180" text-anchor="end" fill="#1e3a8a">LUAD-2</text>
      <text x="-8" y="196" text-anchor="end" fill="#065f46">DLBCL-1</text>
      <text x="-8" y="212" text-anchor="end" fill="#065f46">DLBCL-2</text>
      <text x="-8" y="228" text-anchor="end" fill="#065f46">FL-1</text>
      <text x="-8" y="244" text-anchor="end" fill="#7c3aed">CRC-MSI-1</text>
      <text x="-8" y="260" text-anchor="end" fill="#7c3aed">CRC-MSI-2</text>
      <text x="-8" y="276" text-anchor="end" fill="#525252">CRC-MSS-1</text>
      <text x="-8" y="292" text-anchor="end" fill="#525252">CRC-MSS-2</text>
      <text x="-8" y="308" text-anchor="end" fill="#b45309">BREAST-1</text>
      <text x="-8" y="324" text-anchor="end" fill="#b45309">BREAST-2</text>
      <text x="-8" y="340" text-anchor="end" fill="#b45309">OVCA-1</text>
      <text x="-8" y="356" text-anchor="end" fill="#b45309">PROST-1</text>
      <text x="-8" y="372" text-anchor="end" fill="#525252">GLIO-1</text>
      <text x="-8" y="388" text-anchor="end" fill="#525252">MELA-1</text>
    </g>

    <!-- Heat map cells: 24 rows × 25 cols, cell size 28×16. Each row begins
         with 6 dark blue pan-essential cells (RAN..SF3B1), then 14 columns
         that encode the row's lineage selectivity, then 5 white non-
         essential cells (olfactory / testis). -->
    <g transform="translate(20,12)">
      <!-- AML-1 -->
      <rect x="0" y="0" width="28" height="16" fill="#1e3a8a"/>
      <rect x="28" y="0" width="28" height="16" fill="#1e3a8a"/>
      <rect x="56" y="0" width="28" height="16" fill="#1e3a8a"/>
      <rect x="84" y="0" width="28" height="16" fill="#1e3a8a"/>
      <rect x="112" y="0" width="28" height="16" fill="#1e3a8a"/>
      <rect x="140" y="0" width="28" height="16" fill="#1e3a8a"/>
      <rect x="168" y="0" width="28" height="16" fill="#1e3a8a" opacity="0.95"/>
      <rect x="196" y="0" width="28" height="16" fill="#1e3a8a" opacity="0.55"/>
      <rect x="224" y="0" width="28" height="16" fill="#fff" stroke="#d6d3d1"/>
      <rect x="252" y="0" width="28" height="16" fill="#fff" stroke="#d6d3d1"/>
      <rect x="280" y="0" width="28" height="16" fill="#fff" stroke="#d6d3d1"/>
      <rect x="308" y="0" width="28" height="16" fill="#fff" stroke="#d6d3d1"/>
      <rect x="336" y="0" width="28" height="16" fill="#fff" stroke="#d6d3d1"/>
      <rect x="364" y="0" width="28" height="16" fill="#fff" stroke="#d6d3d1"/>
      <rect x="392" y="0" width="28" height="16" fill="#fff" stroke="#d6d3d1"/>
      <rect x="420" y="0" width="28" height="16" fill="#fff" stroke="#d6d3d1"/>
      <rect x="448" y="0" width="28" height="16" fill="#fff" stroke="#d6d3d1"/>
      <rect x="476" y="0" width="28" height="16" fill="#fff" stroke="#d6d3d1"/>
      <rect x="504" y="0" width="28" height="16" fill="#fff" stroke="#d6d3d1"/>
      <rect x="532" y="0" width="28" height="16" fill="#fff" stroke="#d6d3d1"/>
      <rect x="560" y="0" width="28" height="16" fill="#fff" stroke="#d6d3d1"/>
      <!-- AML-2 -->
      <rect x="0" y="16" width="28" height="16" fill="#1e3a8a"/>
      <rect x="28" y="16" width="28" height="16" fill="#1e3a8a"/>
      <rect x="56" y="16" width="28" height="16" fill="#1e3a8a"/>
      <rect x="84" y="16" width="28" height="16" fill="#1e3a8a"/>
      <rect x="112" y="16" width="28" height="16" fill="#1e3a8a"/>
      <rect x="140" y="16" width="28" height="16" fill="#1e3a8a"/>
      <rect x="168" y="16" width="28" height="16" fill="#1e3a8a" opacity="0.95"/>
      <rect x="196" y="16" width="28" height="16" fill="#1e3a8a" opacity="0.55"/>
      <rect x="224" y="16" width="28" height="16" fill="#fff" stroke="#d6d3d1"/>
      <rect x="252" y="16" width="28" height="16" fill="#fff" stroke="#d6d3d1"/>
      <rect x="280" y="16" width="28" height="16" fill="#fff" stroke="#d6d3d1"/>
      <rect x="308" y="16" width="28" height="16" fill="#fff" stroke="#d6d3d1"/>
      <rect x="336" y="16" width="28" height="16" fill="#fff" stroke="#d6d3d1"/>
      <rect x="364" y="16" width="28" height="16" fill="#fff" stroke="#d6d3d1"/>
      <rect x="392" y="16" width="28" height="16" fill="#fff" stroke="#d6d3d1"/>
      <rect x="420" y="16" width="28" height="16" fill="#fff" stroke="#d6d3d1"/>
      <rect x="448" y="16" width="28" height="16" fill="#fff" stroke="#d6d3d1"/>
      <rect x="476" y="16" width="28" height="16" fill="#fff" stroke="#d6d3d1"/>
      <rect x="504" y="16" width="28" height="16" fill="#fff" stroke="#d6d3d1"/>
      <rect x="532" y="16" width="28" height="16" fill="#fff" stroke="#d6d3d1"/>
      <rect x="560" y="16" width="28" height="16" fill="#fff" stroke="#d6d3d1"/>
      <!-- AML-3 -->
      <rect x="0" y="32" width="28" height="16" fill="#1e3a8a"/>
      <rect x="28" y="32" width="28" height="16" fill="#1e3a8a"/>
      <rect x="56" y="32" width="28" height="16" fill="#1e3a8a"/>
      <rect x="84" y="32" width="28" height="16" fill="#1e3a8a"/>
      <rect x="112" y="32" width="28" height="16" fill="#1e3a8a"/>
      <rect x="140" y="32" width="28" height="16" fill="#1e3a8a"/>
      <rect x="168" y="32" width="28" height="16" fill="#1e3a8a" opacity="0.95"/>
      <rect x="196" y="32" width="28" height="16" fill="#1e3a8a" opacity="0.55"/>
      <rect x="224" y="32" width="28" height="16" fill="#fff" stroke="#d6d3d1"/>
      <rect x="252" y="32" width="28" height="16" fill="#fff" stroke="#d6d3d1"/>
      <rect x="280" y="32" width="28" height="16" fill="#fff" stroke="#d6d3d1"/>
      <rect x="308" y="32" width="28" height="16" fill="#fff" stroke="#d6d3d1"/>
      <rect x="336" y="32" width="28" height="16" fill="#fff" stroke="#d6d3d1"/>
      <rect x="364" y="32" width="28" height="16" fill="#fff" stroke="#d6d3d1"/>
      <rect x="392" y="32" width="28" height="16" fill="#fff" stroke="#d6d3d1"/>
      <rect x="420" y="32" width="28" height="16" fill="#fff" stroke="#d6d3d1"/>
      <rect x="448" y="32" width="28" height="16" fill="#fff" stroke="#d6d3d1"/>
      <rect x="476" y="32" width="28" height="16" fill="#fff" stroke="#d6d3d1"/>
      <rect x="504" y="32" width="28" height="16" fill="#fff" stroke="#d6d3d1"/>
      <rect x="532" y="32" width="28" height="16" fill="#fff" stroke="#d6d3d1"/>
      <rect x="560" y="32" width="28" height="16" fill="#fff" stroke="#d6d3d1"/>
      <!-- AML-4 -->
      <rect x="0" y="48" width="28" height="16" fill="#1e3a8a"/>
      <rect x="28" y="48" width="28" height="16" fill="#1e3a8a"/>
      <rect x="56" y="48" width="28" height="16" fill="#1e3a8a"/>
      <rect x="84" y="48" width="28" height="16" fill="#1e3a8a"/>
      <rect x="112" y="48" width="28" height="16" fill="#1e3a8a"/>
      <rect x="140" y="48" width="28" height="16" fill="#1e3a8a"/>
      <rect x="168" y="48" width="28" height="16" fill="#1e3a8a" opacity="0.95"/>
      <rect x="196" y="48" width="28" height="16" fill="#1e3a8a" opacity="0.55"/>
      <rect x="224" y="48" width="28" height="16" fill="#fff" stroke="#d6d3d1"/>
      <rect x="252" y="48" width="28" height="16" fill="#fff" stroke="#d6d3d1"/>
      <rect x="280" y="48" width="28" height="16" fill="#fff" stroke="#d6d3d1"/>
      <rect x="308" y="48" width="28" height="16" fill="#fff" stroke="#d6d3d1"/>
      <rect x="336" y="48" width="28" height="16" fill="#fff" stroke="#d6d3d1"/>
      <rect x="364" y="48" width="28" height="16" fill="#fff" stroke="#d6d3d1"/>
      <rect x="392" y="48" width="28" height="16" fill="#fff" stroke="#d6d3d1"/>
      <rect x="420" y="48" width="28" height="16" fill="#fff" stroke="#d6d3d1"/>
      <rect x="448" y="48" width="28" height="16" fill="#fff" stroke="#d6d3d1"/>
      <rect x="476" y="48" width="28" height="16" fill="#fff" stroke="#d6d3d1"/>
      <rect x="504" y="48" width="28" height="16" fill="#fff" stroke="#d6d3d1"/>
      <rect x="532" y="48" width="28" height="16" fill="#fff" stroke="#d6d3d1"/>
      <rect x="560" y="48" width="28" height="16" fill="#fff" stroke="#d6d3d1"/>
      <!-- CLL-1 -->
      <rect x="0" y="64" width="28" height="16" fill="#1e3a8a"/>
      <rect x="28" y="64" width="28" height="16" fill="#1e3a8a"/>
      <rect x="56" y="64" width="28" height="16" fill="#1e3a8a"/>
      <rect x="84" y="64" width="28" height="16" fill="#1e3a8a"/>
      <rect x="112" y="64" width="28" height="16" fill="#1e3a8a"/>
      <rect x="140" y="64" width="28" height="16" fill="#1e3a8a"/>
      <rect x="168" y="64" width="28" height="16" fill="#1e3a8a" opacity="0.55"/>
      <rect x="196" y="64" width="28" height="16" fill="#1e3a8a" opacity="0.95"/>
      <rect x="224" y="64" width="28" height="16" fill="#fff" stroke="#d6d3d1"/>
      <rect x="252" y="64" width="28" height="16" fill="#fff" stroke="#d6d3d1"/>
      <rect x="280" y="64" width="28" height="16" fill="#fff" stroke="#d6d3d1"/>
      <rect x="308" y="64" width="28" height="16" fill="#fff" stroke="#d6d3d1"/>
      <rect x="336" y="64" width="28" height="16" fill="#fff" stroke="#d6d3d1"/>
      <rect x="364" y="64" width="28" height="16" fill="#fff" stroke="#d6d3d1"/>
      <rect x="392" y="64" width="28" height="16" fill="#fff" stroke="#d6d3d1"/>
      <rect x="420" y="64" width="28" height="16" fill="#fff" stroke="#d6d3d1"/>
      <rect x="448" y="64" width="28" height="16" fill="#fff" stroke="#d6d3d1"/>
      <rect x="476" y="64" width="28" height="16" fill="#fff" stroke="#d6d3d1"/>
      <rect x="504" y="64" width="28" height="16" fill="#fff" stroke="#d6d3d1"/>
      <rect x="532" y="64" width="28" height="16" fill="#fff" stroke="#d6d3d1"/>
      <rect x="560" y="64" width="28" height="16" fill="#fff" stroke="#d6d3d1"/>
      <!-- CLL-2 -->
      <rect x="0" y="80" width="28" height="16" fill="#1e3a8a"/>
      <rect x="28" y="80" width="28" height="16" fill="#1e3a8a"/>
      <rect x="56" y="80" width="28" height="16" fill="#1e3a8a"/>
      <rect x="84" y="80" width="28" height="16" fill="#1e3a8a"/>
      <rect x="112" y="80" width="28" height="16" fill="#1e3a8a"/>
      <rect x="140" y="80" width="28" height="16" fill="#1e3a8a"/>
      <rect x="168" y="80" width="28" height="16" fill="#1e3a8a" opacity="0.55"/>
      <rect x="196" y="80" width="28" height="16" fill="#1e3a8a" opacity="0.95"/>
      <rect x="224" y="80" width="28" height="16" fill="#fff" stroke="#d6d3d1"/>
      <rect x="252" y="80" width="28" height="16" fill="#fff" stroke="#d6d3d1"/>
      <rect x="280" y="80" width="28" height="16" fill="#fff" stroke="#d6d3d1"/>
      <rect x="308" y="80" width="28" height="16" fill="#fff" stroke="#d6d3d1"/>
      <rect x="336" y="80" width="28" height="16" fill="#fff" stroke="#d6d3d1"/>
      <rect x="364" y="80" width="28" height="16" fill="#fff" stroke="#d6d3d1"/>
      <rect x="392" y="80" width="28" height="16" fill="#fff" stroke="#d6d3d1"/>
      <rect x="420" y="80" width="28" height="16" fill="#fff" stroke="#d6d3d1"/>
      <rect x="448" y="80" width="28" height="16" fill="#fff" stroke="#d6d3d1"/>
      <rect x="476" y="80" width="28" height="16" fill="#fff" stroke="#d6d3d1"/>
      <rect x="504" y="80" width="28" height="16" fill="#fff" stroke="#d6d3d1"/>
      <rect x="532" y="80" width="28" height="16" fill="#fff" stroke="#d6d3d1"/>
      <rect x="560" y="80" width="28" height="16" fill="#fff" stroke="#d6d3d1"/>
      <!-- PDAC-1 -->
      <rect x="0" y="96" width="28" height="16" fill="#1e3a8a"/>
      <rect x="28" y="96" width="28" height="16" fill="#1e3a8a"/>
      <rect x="56" y="96" width="28" height="16" fill="#1e3a8a"/>
      <rect x="84" y="96" width="28" height="16" fill="#1e3a8a"/>
      <rect x="112" y="96" width="28" height="16" fill="#1e3a8a"/>
      <rect x="140" y="96" width="28" height="16" fill="#1e3a8a"/>
      <rect x="168" y="96" width="28" height="16" fill="#fff" stroke="#d6d3d1"/>
      <rect x="196" y="96" width="28" height="16" fill="#fff" stroke="#d6d3d1"/>
      <rect x="224" y="96" width="28" height="16" fill="#1e3a8a" opacity="0.95"/>
      <rect x="252" y="96" width="28" height="16" fill="#1e3a8a" opacity="0.55"/>
      <rect x="280" y="96" width="28" height="16" fill="#fff" stroke="#d6d3d1"/>
      <rect x="308" y="96" width="28" height="16" fill="#fff" stroke="#d6d3d1"/>
      <rect x="336" y="96" width="28" height="16" fill="#fff" stroke="#d6d3d1"/>
      <rect x="364" y="96" width="28" height="16" fill="#fff" stroke="#d6d3d1"/>
      <rect x="392" y="96" width="28" height="16" fill="#1e3a8a" opacity="0.25"/>
      <rect x="420" y="96" width="28" height="16" fill="#fff" stroke="#d6d3d1"/>
      <rect x="448" y="96" width="28" height="16" fill="#fff" stroke="#d6d3d1"/>
      <rect x="476" y="96" width="28" height="16" fill="#fff" stroke="#d6d3d1"/>
      <rect x="504" y="96" width="28" height="16" fill="#fff" stroke="#d6d3d1"/>
      <rect x="532" y="96" width="28" height="16" fill="#fff" stroke="#d6d3d1"/>
      <rect x="560" y="96" width="28" height="16" fill="#fff" stroke="#d6d3d1"/>
      <!-- PDAC-2 -->
      <rect x="0" y="112" width="28" height="16" fill="#1e3a8a"/>
      <rect x="28" y="112" width="28" height="16" fill="#1e3a8a"/>
      <rect x="56" y="112" width="28" height="16" fill="#1e3a8a"/>
      <rect x="84" y="112" width="28" height="16" fill="#1e3a8a"/>
      <rect x="112" y="112" width="28" height="16" fill="#1e3a8a"/>
      <rect x="140" y="112" width="28" height="16" fill="#1e3a8a"/>
      <rect x="168" y="112" width="28" height="16" fill="#fff" stroke="#d6d3d1"/>
      <rect x="196" y="112" width="28" height="16" fill="#fff" stroke="#d6d3d1"/>
      <rect x="224" y="112" width="28" height="16" fill="#1e3a8a" opacity="0.95"/>
      <rect x="252" y="112" width="28" height="16" fill="#1e3a8a" opacity="0.55"/>
      <rect x="280" y="112" width="28" height="16" fill="#fff" stroke="#d6d3d1"/>
      <rect x="308" y="112" width="28" height="16" fill="#fff" stroke="#d6d3d1"/>
      <rect x="336" y="112" width="28" height="16" fill="#fff" stroke="#d6d3d1"/>
      <rect x="364" y="112" width="28" height="16" fill="#fff" stroke="#d6d3d1"/>
      <rect x="392" y="112" width="28" height="16" fill="#1e3a8a" opacity="0.25"/>
      <rect x="420" y="112" width="28" height="16" fill="#fff" stroke="#d6d3d1"/>
      <rect x="448" y="112" width="28" height="16" fill="#fff" stroke="#d6d3d1"/>
      <rect x="476" y="112" width="28" height="16" fill="#fff" stroke="#d6d3d1"/>
      <rect x="504" y="112" width="28" height="16" fill="#fff" stroke="#d6d3d1"/>
      <rect x="532" y="112" width="28" height="16" fill="#fff" stroke="#d6d3d1"/>
      <rect x="560" y="112" width="28" height="16" fill="#fff" stroke="#d6d3d1"/>
      <!-- PDAC-3 -->
      <rect x="0" y="128" width="28" height="16" fill="#1e3a8a"/>
      <rect x="28" y="128" width="28" height="16" fill="#1e3a8a"/>
      <rect x="56" y="128" width="28" height="16" fill="#1e3a8a"/>
      <rect x="84" y="128" width="28" height="16" fill="#1e3a8a"/>
      <rect x="112" y="128" width="28" height="16" fill="#1e3a8a"/>
      <rect x="140" y="128" width="28" height="16" fill="#1e3a8a"/>
      <rect x="168" y="128" width="28" height="16" fill="#fff" stroke="#d6d3d1"/>
      <rect x="196" y="128" width="28" height="16" fill="#fff" stroke="#d6d3d1"/>
      <rect x="224" y="128" width="28" height="16" fill="#1e3a8a" opacity="0.95"/>
      <rect x="252" y="128" width="28" height="16" fill="#1e3a8a" opacity="0.55"/>
      <rect x="280" y="128" width="28" height="16" fill="#fff" stroke="#d6d3d1"/>
      <rect x="308" y="128" width="28" height="16" fill="#fff" stroke="#d6d3d1"/>
      <rect x="336" y="128" width="28" height="16" fill="#fff" stroke="#d6d3d1"/>
      <rect x="364" y="128" width="28" height="16" fill="#fff" stroke="#d6d3d1"/>
      <rect x="392" y="128" width="28" height="16" fill="#1e3a8a" opacity="0.25"/>
      <rect x="420" y="128" width="28" height="16" fill="#fff" stroke="#d6d3d1"/>
      <rect x="448" y="128" width="28" height="16" fill="#fff" stroke="#d6d3d1"/>
      <rect x="476" y="128" width="28" height="16" fill="#fff" stroke="#d6d3d1"/>
      <rect x="504" y="128" width="28" height="16" fill="#fff" stroke="#d6d3d1"/>
      <rect x="532" y="128" width="28" height="16" fill="#fff" stroke="#d6d3d1"/>
      <rect x="560" y="128" width="28" height="16" fill="#fff" stroke="#d6d3d1"/>
      <!-- LUAD-1 -->
      <rect x="0" y="144" width="28" height="16" fill="#1e3a8a"/>
      <rect x="28" y="144" width="28" height="16" fill="#1e3a8a"/>
      <rect x="56" y="144" width="28" height="16" fill="#1e3a8a"/>
      <rect x="84" y="144" width="28" height="16" fill="#1e3a8a"/>
      <rect x="112" y="144" width="28" height="16" fill="#1e3a8a"/>
      <rect x="140" y="144" width="28" height="16" fill="#1e3a8a"/>
      <rect x="168" y="144" width="28" height="16" fill="#fff" stroke="#d6d3d1"/>
      <rect x="196" y="144" width="28" height="16" fill="#fff" stroke="#d6d3d1"/>
      <rect x="224" y="144" width="28" height="16" fill="#1e3a8a" opacity="0.55"/>
      <rect x="252" y="144" width="28" height="16" fill="#1e3a8a" opacity="0.25"/>
      <rect x="280" y="144" width="28" height="16" fill="#fff" stroke="#d6d3d1"/>
      <rect x="308" y="144" width="28" height="16" fill="#fff" stroke="#d6d3d1"/>
      <rect x="336" y="144" width="28" height="16" fill="#fff" stroke="#d6d3d1"/>
      <rect x="364" y="144" width="28" height="16" fill="#fff" stroke="#d6d3d1"/>
      <rect x="392" y="144" width="28" height="16" fill="#1e3a8a" opacity="0.25"/>
      <rect x="420" y="144" width="28" height="16" fill="#1e3a8a" opacity="0.25"/>
      <rect x="448" y="144" width="28" height="16" fill="#1e3a8a" opacity="0.25"/>
      <rect x="476" y="144" width="28" height="16" fill="#fff" stroke="#d6d3d1"/>
      <rect x="504" y="144" width="28" height="16" fill="#fff" stroke="#d6d3d1"/>
      <rect x="532" y="144" width="28" height="16" fill="#fff" stroke="#d6d3d1"/>
      <rect x="560" y="144" width="28" height="16" fill="#fff" stroke="#d6d3d1"/>
      <!-- LUAD-2 -->
      <rect x="0" y="160" width="28" height="16" fill="#1e3a8a"/>
      <rect x="28" y="160" width="28" height="16" fill="#1e3a8a"/>
      <rect x="56" y="160" width="28" height="16" fill="#1e3a8a"/>
      <rect x="84" y="160" width="28" height="16" fill="#1e3a8a"/>
      <rect x="112" y="160" width="28" height="16" fill="#1e3a8a"/>
      <rect x="140" y="160" width="28" height="16" fill="#1e3a8a"/>
      <rect x="168" y="160" width="28" height="16" fill="#fff" stroke="#d6d3d1"/>
      <rect x="196" y="160" width="28" height="16" fill="#fff" stroke="#d6d3d1"/>
      <rect x="224" y="160" width="28" height="16" fill="#1e3a8a" opacity="0.55"/>
      <rect x="252" y="160" width="28" height="16" fill="#1e3a8a" opacity="0.25"/>
      <rect x="280" y="160" width="28" height="16" fill="#fff" stroke="#d6d3d1"/>
      <rect x="308" y="160" width="28" height="16" fill="#fff" stroke="#d6d3d1"/>
      <rect x="336" y="160" width="28" height="16" fill="#fff" stroke="#d6d3d1"/>
      <rect x="364" y="160" width="28" height="16" fill="#fff" stroke="#d6d3d1"/>
      <rect x="392" y="160" width="28" height="16" fill="#1e3a8a" opacity="0.25"/>
      <rect x="420" y="160" width="28" height="16" fill="#1e3a8a" opacity="0.25"/>
      <rect x="448" y="160" width="28" height="16" fill="#1e3a8a" opacity="0.25"/>
      <rect x="476" y="160" width="28" height="16" fill="#fff" stroke="#d6d3d1"/>
      <rect x="504" y="160" width="28" height="16" fill="#fff" stroke="#d6d3d1"/>
      <rect x="532" y="160" width="28" height="16" fill="#fff" stroke="#d6d3d1"/>
      <rect x="560" y="160" width="28" height="16" fill="#fff" stroke="#d6d3d1"/>
      <!-- DLBCL-1 -->
      <rect x="0" y="176" width="28" height="16" fill="#1e3a8a"/>
      <rect x="28" y="176" width="28" height="16" fill="#1e3a8a"/>
      <rect x="56" y="176" width="28" height="16" fill="#1e3a8a"/>
      <rect x="84" y="176" width="28" height="16" fill="#1e3a8a"/>
      <rect x="112" y="176" width="28" height="16" fill="#1e3a8a"/>
      <rect x="140" y="176" width="28" height="16" fill="#1e3a8a"/>
      <rect x="168" y="176" width="28" height="16" fill="#fff" stroke="#d6d3d1"/>
      <rect x="196" y="176" width="28" height="16" fill="#fff" stroke="#d6d3d1"/>
      <rect x="224" y="176" width="28" height="16" fill="#fff" stroke="#d6d3d1"/>
      <rect x="252" y="176" width="28" height="16" fill="#fff" stroke="#d6d3d1"/>
      <rect x="280" y="176" width="28" height="16" fill="#1e3a8a" opacity="0.95"/>
      <rect x="308" y="176" width="28" height="16" fill="#1e3a8a" opacity="0.55"/>
      <rect x="336" y="176" width="28" height="16" fill="#fff" stroke="#d6d3d1"/>
      <rect x="364" y="176" width="28" height="16" fill="#fff" stroke="#d6d3d1"/>
      <rect x="392" y="176" width="28" height="16" fill="#fff" stroke="#d6d3d1"/>
      <rect x="420" y="176" width="28" height="16" fill="#fff" stroke="#d6d3d1"/>
      <rect x="448" y="176" width="28" height="16" fill="#fff" stroke="#d6d3d1"/>
      <rect x="476" y="176" width="28" height="16" fill="#fff" stroke="#d6d3d1"/>
      <rect x="504" y="176" width="28" height="16" fill="#fff" stroke="#d6d3d1"/>
      <rect x="532" y="176" width="28" height="16" fill="#fff" stroke="#d6d3d1"/>
      <rect x="560" y="176" width="28" height="16" fill="#fff" stroke="#d6d3d1"/>
      <!-- DLBCL-2 -->
      <rect x="0" y="192" width="28" height="16" fill="#1e3a8a"/>
      <rect x="28" y="192" width="28" height="16" fill="#1e3a8a"/>
      <rect x="56" y="192" width="28" height="16" fill="#1e3a8a"/>
      <rect x="84" y="192" width="28" height="16" fill="#1e3a8a"/>
      <rect x="112" y="192" width="28" height="16" fill="#1e3a8a"/>
      <rect x="140" y="192" width="28" height="16" fill="#1e3a8a"/>
      <rect x="168" y="192" width="28" height="16" fill="#fff" stroke="#d6d3d1"/>
      <rect x="196" y="192" width="28" height="16" fill="#fff" stroke="#d6d3d1"/>
      <rect x="224" y="192" width="28" height="16" fill="#fff" stroke="#d6d3d1"/>
      <rect x="252" y="192" width="28" height="16" fill="#fff" stroke="#d6d3d1"/>
      <rect x="280" y="192" width="28" height="16" fill="#1e3a8a" opacity="0.95"/>
      <rect x="308" y="192" width="28" height="16" fill="#1e3a8a" opacity="0.55"/>
      <rect x="336" y="192" width="28" height="16" fill="#fff" stroke="#d6d3d1"/>
      <rect x="364" y="192" width="28" height="16" fill="#fff" stroke="#d6d3d1"/>
      <rect x="392" y="192" width="28" height="16" fill="#fff" stroke="#d6d3d1"/>
      <rect x="420" y="192" width="28" height="16" fill="#fff" stroke="#d6d3d1"/>
      <rect x="448" y="192" width="28" height="16" fill="#fff" stroke="#d6d3d1"/>
      <rect x="476" y="192" width="28" height="16" fill="#fff" stroke="#d6d3d1"/>
      <rect x="504" y="192" width="28" height="16" fill="#fff" stroke="#d6d3d1"/>
      <rect x="532" y="192" width="28" height="16" fill="#fff" stroke="#d6d3d1"/>
      <rect x="560" y="192" width="28" height="16" fill="#fff" stroke="#d6d3d1"/>
      <!-- FL-1 -->
      <rect x="0" y="208" width="28" height="16" fill="#1e3a8a"/>
      <rect x="28" y="208" width="28" height="16" fill="#1e3a8a"/>
      <rect x="56" y="208" width="28" height="16" fill="#1e3a8a"/>
      <rect x="84" y="208" width="28" height="16" fill="#1e3a8a"/>
      <rect x="112" y="208" width="28" height="16" fill="#1e3a8a"/>
      <rect x="140" y="208" width="28" height="16" fill="#1e3a8a"/>
      <rect x="168" y="208" width="28" height="16" fill="#fff" stroke="#d6d3d1"/>
      <rect x="196" y="208" width="28" height="16" fill="#fff" stroke="#d6d3d1"/>
      <rect x="224" y="208" width="28" height="16" fill="#fff" stroke="#d6d3d1"/>
      <rect x="252" y="208" width="28" height="16" fill="#fff" stroke="#d6d3d1"/>
      <rect x="280" y="208" width="28" height="16" fill="#1e3a8a" opacity="0.95"/>
      <rect x="308" y="208" width="28" height="16" fill="#1e3a8a" opacity="0.55"/>
      <rect x="336" y="208" width="28" height="16" fill="#fff" stroke="#d6d3d1"/>
      <rect x="364" y="208" width="28" height="16" fill="#fff" stroke="#d6d3d1"/>
      <rect x="392" y="208" width="28" height="16" fill="#fff" stroke="#d6d3d1"/>
      <rect x="420" y="208" width="28" height="16" fill="#fff" stroke="#d6d3d1"/>
      <rect x="448" y="208" width="28" height="16" fill="#fff" stroke="#d6d3d1"/>
      <rect x="476" y="208" width="28" height="16" fill="#fff" stroke="#d6d3d1"/>
      <rect x="504" y="208" width="28" height="16" fill="#fff" stroke="#d6d3d1"/>
      <rect x="532" y="208" width="28" height="16" fill="#fff" stroke="#d6d3d1"/>
      <rect x="560" y="208" width="28" height="16" fill="#fff" stroke="#d6d3d1"/>
      <!-- CRC-MSI-1 -->
      <rect x="0" y="224" width="28" height="16" fill="#1e3a8a"/>
      <rect x="28" y="224" width="28" height="16" fill="#1e3a8a"/>
      <rect x="56" y="224" width="28" height="16" fill="#1e3a8a"/>
      <rect x="84" y="224" width="28" height="16" fill="#1e3a8a"/>
      <rect x="112" y="224" width="28" height="16" fill="#1e3a8a"/>
      <rect x="140" y="224" width="28" height="16" fill="#1e3a8a"/>
      <rect x="168" y="224" width="28" height="16" fill="#fff" stroke="#d6d3d1"/>
      <rect x="196" y="224" width="28" height="16" fill="#fff" stroke="#d6d3d1"/>
      <rect x="224" y="224" width="28" height="16" fill="#fff" stroke="#d6d3d1"/>
      <rect x="252" y="224" width="28" height="16" fill="#fff" stroke="#d6d3d1"/>
      <rect x="280" y="224" width="28" height="16" fill="#fff" stroke="#d6d3d1"/>
      <rect x="308" y="224" width="28" height="16" fill="#fff" stroke="#d6d3d1"/>
      <rect x="336" y="224" width="28" height="16" fill="#1e3a8a" opacity="0.95"/>
      <rect x="364" y="224" width="28" height="16" fill="#1e3a8a" opacity="0.55"/>
      <rect x="392" y="224" width="28" height="16" fill="#fff" stroke="#d6d3d1"/>
      <rect x="420" y="224" width="28" height="16" fill="#fff" stroke="#d6d3d1"/>
      <rect x="448" y="224" width="28" height="16" fill="#fff" stroke="#d6d3d1"/>
      <rect x="476" y="224" width="28" height="16" fill="#fff" stroke="#d6d3d1"/>
      <rect x="504" y="224" width="28" height="16" fill="#fff" stroke="#d6d3d1"/>
      <rect x="532" y="224" width="28" height="16" fill="#fff" stroke="#d6d3d1"/>
      <rect x="560" y="224" width="28" height="16" fill="#fff" stroke="#d6d3d1"/>
      <!-- CRC-MSI-2 -->
      <rect x="0" y="240" width="28" height="16" fill="#1e3a8a"/>
      <rect x="28" y="240" width="28" height="16" fill="#1e3a8a"/>
      <rect x="56" y="240" width="28" height="16" fill="#1e3a8a"/>
      <rect x="84" y="240" width="28" height="16" fill="#1e3a8a"/>
      <rect x="112" y="240" width="28" height="16" fill="#1e3a8a"/>
      <rect x="140" y="240" width="28" height="16" fill="#1e3a8a"/>
      <rect x="168" y="240" width="28" height="16" fill="#fff" stroke="#d6d3d1"/>
      <rect x="196" y="240" width="28" height="16" fill="#fff" stroke="#d6d3d1"/>
      <rect x="224" y="240" width="28" height="16" fill="#fff" stroke="#d6d3d1"/>
      <rect x="252" y="240" width="28" height="16" fill="#fff" stroke="#d6d3d1"/>
      <rect x="280" y="240" width="28" height="16" fill="#fff" stroke="#d6d3d1"/>
      <rect x="308" y="240" width="28" height="16" fill="#fff" stroke="#d6d3d1"/>
      <rect x="336" y="240" width="28" height="16" fill="#1e3a8a" opacity="0.95"/>
      <rect x="364" y="240" width="28" height="16" fill="#1e3a8a" opacity="0.55"/>
      <rect x="392" y="240" width="28" height="16" fill="#fff" stroke="#d6d3d1"/>
      <rect x="420" y="240" width="28" height="16" fill="#fff" stroke="#d6d3d1"/>
      <rect x="448" y="240" width="28" height="16" fill="#fff" stroke="#d6d3d1"/>
      <rect x="476" y="240" width="28" height="16" fill="#fff" stroke="#d6d3d1"/>
      <rect x="504" y="240" width="28" height="16" fill="#fff" stroke="#d6d3d1"/>
      <rect x="532" y="240" width="28" height="16" fill="#fff" stroke="#d6d3d1"/>
      <rect x="560" y="240" width="28" height="16" fill="#fff" stroke="#d6d3d1"/>
      <!-- CRC-MSS-1 -->
      <rect x="0" y="256" width="28" height="16" fill="#1e3a8a"/>
      <rect x="28" y="256" width="28" height="16" fill="#1e3a8a"/>
      <rect x="56" y="256" width="28" height="16" fill="#1e3a8a"/>
      <rect x="84" y="256" width="28" height="16" fill="#1e3a8a"/>
      <rect x="112" y="256" width="28" height="16" fill="#1e3a8a"/>
      <rect x="140" y="256" width="28" height="16" fill="#1e3a8a"/>
      <rect x="168" y="256" width="28" height="16" fill="#fff" stroke="#d6d3d1"/>
      <rect x="196" y="256" width="28" height="16" fill="#fff" stroke="#d6d3d1"/>
      <rect x="224" y="256" width="28" height="16" fill="#fff" stroke="#d6d3d1"/>
      <rect x="252" y="256" width="28" height="16" fill="#fff" stroke="#d6d3d1"/>
      <rect x="280" y="256" width="28" height="16" fill="#fff" stroke="#d6d3d1"/>
      <rect x="308" y="256" width="28" height="16" fill="#fff" stroke="#d6d3d1"/>
      <rect x="336" y="256" width="28" height="16" fill="#fff" stroke="#d6d3d1"/>
      <rect x="364" y="256" width="28" height="16" fill="#fff" stroke="#d6d3d1"/>
      <rect x="392" y="256" width="28" height="16" fill="#1e3a8a" opacity="0.25"/>
      <rect x="420" y="256" width="28" height="16" fill="#1e3a8a" opacity="0.25"/>
      <rect x="448" y="256" width="28" height="16" fill="#fff" stroke="#d6d3d1"/>
      <rect x="476" y="256" width="28" height="16" fill="#fff" stroke="#d6d3d1"/>
      <rect x="504" y="256" width="28" height="16" fill="#fff" stroke="#d6d3d1"/>
      <rect x="532" y="256" width="28" height="16" fill="#fff" stroke="#d6d3d1"/>
      <rect x="560" y="256" width="28" height="16" fill="#fff" stroke="#d6d3d1"/>
      <!-- CRC-MSS-2 -->
      <rect x="0" y="272" width="28" height="16" fill="#1e3a8a"/>
      <rect x="28" y="272" width="28" height="16" fill="#1e3a8a"/>
      <rect x="56" y="272" width="28" height="16" fill="#1e3a8a"/>
      <rect x="84" y="272" width="28" height="16" fill="#1e3a8a"/>
      <rect x="112" y="272" width="28" height="16" fill="#1e3a8a"/>
      <rect x="140" y="272" width="28" height="16" fill="#1e3a8a"/>
      <rect x="168" y="272" width="28" height="16" fill="#fff" stroke="#d6d3d1"/>
      <rect x="196" y="272" width="28" height="16" fill="#fff" stroke="#d6d3d1"/>
      <rect x="224" y="272" width="28" height="16" fill="#fff" stroke="#d6d3d1"/>
      <rect x="252" y="272" width="28" height="16" fill="#fff" stroke="#d6d3d1"/>
      <rect x="280" y="272" width="28" height="16" fill="#fff" stroke="#d6d3d1"/>
      <rect x="308" y="272" width="28" height="16" fill="#fff" stroke="#d6d3d1"/>
      <rect x="336" y="272" width="28" height="16" fill="#fff" stroke="#d6d3d1"/>
      <rect x="364" y="272" width="28" height="16" fill="#fff" stroke="#d6d3d1"/>
      <rect x="392" y="272" width="28" height="16" fill="#1e3a8a" opacity="0.25"/>
      <rect x="420" y="272" width="28" height="16" fill="#1e3a8a" opacity="0.25"/>
      <rect x="448" y="272" width="28" height="16" fill="#fff" stroke="#d6d3d1"/>
      <rect x="476" y="272" width="28" height="16" fill="#fff" stroke="#d6d3d1"/>
      <rect x="504" y="272" width="28" height="16" fill="#fff" stroke="#d6d3d1"/>
      <rect x="532" y="272" width="28" height="16" fill="#fff" stroke="#d6d3d1"/>
      <rect x="560" y="272" width="28" height="16" fill="#fff" stroke="#d6d3d1"/>
      <!-- BREAST-1 -->
      <rect x="0" y="288" width="28" height="16" fill="#1e3a8a"/>
      <rect x="28" y="288" width="28" height="16" fill="#1e3a8a"/>
      <rect x="56" y="288" width="28" height="16" fill="#1e3a8a"/>
      <rect x="84" y="288" width="28" height="16" fill="#1e3a8a"/>
      <rect x="112" y="288" width="28" height="16" fill="#1e3a8a"/>
      <rect x="140" y="288" width="28" height="16" fill="#1e3a8a"/>
      <rect x="168" y="288" width="28" height="16" fill="#fff" stroke="#d6d3d1"/>
      <rect x="196" y="288" width="28" height="16" fill="#fff" stroke="#d6d3d1"/>
      <rect x="224" y="288" width="28" height="16" fill="#fff" stroke="#d6d3d1"/>
      <rect x="252" y="288" width="28" height="16" fill="#fff" stroke="#d6d3d1"/>
      <rect x="280" y="288" width="28" height="16" fill="#fff" stroke="#d6d3d1"/>
      <rect x="308" y="288" width="28" height="16" fill="#fff" stroke="#d6d3d1"/>
      <rect x="336" y="288" width="28" height="16" fill="#fff" stroke="#d6d3d1"/>
      <rect x="364" y="288" width="28" height="16" fill="#fff" stroke="#d6d3d1"/>
      <rect x="392" y="288" width="28" height="16" fill="#fff" stroke="#d6d3d1"/>
      <rect x="420" y="288" width="28" height="16" fill="#1e3a8a" opacity="0.25"/>
      <rect x="448" y="288" width="28" height="16" fill="#1e3a8a" opacity="0.55"/>
      <rect x="476" y="288" width="28" height="16" fill="#fff" stroke="#d6d3d1"/>
      <rect x="504" y="288" width="28" height="16" fill="#fff" stroke="#d6d3d1"/>
      <rect x="532" y="288" width="28" height="16" fill="#fff" stroke="#d6d3d1"/>
      <rect x="560" y="288" width="28" height="16" fill="#fff" stroke="#d6d3d1"/>
      <!-- BREAST-2 -->
      <rect x="0" y="304" width="28" height="16" fill="#1e3a8a"/>
      <rect x="28" y="304" width="28" height="16" fill="#1e3a8a"/>
      <rect x="56" y="304" width="28" height="16" fill="#1e3a8a"/>
      <rect x="84" y="304" width="28" height="16" fill="#1e3a8a"/>
      <rect x="112" y="304" width="28" height="16" fill="#1e3a8a"/>
      <rect x="140" y="304" width="28" height="16" fill="#1e3a8a"/>
      <rect x="168" y="304" width="28" height="16" fill="#fff" stroke="#d6d3d1"/>
      <rect x="196" y="304" width="28" height="16" fill="#fff" stroke="#d6d3d1"/>
      <rect x="224" y="304" width="28" height="16" fill="#fff" stroke="#d6d3d1"/>
      <rect x="252" y="304" width="28" height="16" fill="#fff" stroke="#d6d3d1"/>
      <rect x="280" y="304" width="28" height="16" fill="#fff" stroke="#d6d3d1"/>
      <rect x="308" y="304" width="28" height="16" fill="#fff" stroke="#d6d3d1"/>
      <rect x="336" y="304" width="28" height="16" fill="#fff" stroke="#d6d3d1"/>
      <rect x="364" y="304" width="28" height="16" fill="#fff" stroke="#d6d3d1"/>
      <rect x="392" y="304" width="28" height="16" fill="#fff" stroke="#d6d3d1"/>
      <rect x="420" y="304" width="28" height="16" fill="#1e3a8a" opacity="0.25"/>
      <rect x="448" y="304" width="28" height="16" fill="#1e3a8a" opacity="0.55"/>
      <rect x="476" y="304" width="28" height="16" fill="#fff" stroke="#d6d3d1"/>
      <rect x="504" y="304" width="28" height="16" fill="#fff" stroke="#d6d3d1"/>
      <rect x="532" y="304" width="28" height="16" fill="#fff" stroke="#d6d3d1"/>
      <rect x="560" y="304" width="28" height="16" fill="#fff" stroke="#d6d3d1"/>
      <!-- OVCA-1 -->
      <rect x="0" y="320" width="28" height="16" fill="#1e3a8a"/>
      <rect x="28" y="320" width="28" height="16" fill="#1e3a8a"/>
      <rect x="56" y="320" width="28" height="16" fill="#1e3a8a"/>
      <rect x="84" y="320" width="28" height="16" fill="#1e3a8a"/>
      <rect x="112" y="320" width="28" height="16" fill="#1e3a8a"/>
      <rect x="140" y="320" width="28" height="16" fill="#1e3a8a"/>
      <rect x="168" y="320" width="28" height="16" fill="#fff" stroke="#d6d3d1"/>
      <rect x="196" y="320" width="28" height="16" fill="#fff" stroke="#d6d3d1"/>
      <rect x="224" y="320" width="28" height="16" fill="#fff" stroke="#d6d3d1"/>
      <rect x="252" y="320" width="28" height="16" fill="#fff" stroke="#d6d3d1"/>
      <rect x="280" y="320" width="28" height="16" fill="#fff" stroke="#d6d3d1"/>
      <rect x="308" y="320" width="28" height="16" fill="#fff" stroke="#d6d3d1"/>
      <rect x="336" y="320" width="28" height="16" fill="#fff" stroke="#d6d3d1"/>
      <rect x="364" y="320" width="28" height="16" fill="#fff" stroke="#d6d3d1"/>
      <rect x="392" y="320" width="28" height="16" fill="#fff" stroke="#d6d3d1"/>
      <rect x="420" y="320" width="28" height="16" fill="#fff" stroke="#d6d3d1"/>
      <rect x="448" y="320" width="28" height="16" fill="#1e3a8a" opacity="0.55"/>
      <rect x="476" y="320" width="28" height="16" fill="#fff" stroke="#d6d3d1"/>
      <rect x="504" y="320" width="28" height="16" fill="#fff" stroke="#d6d3d1"/>
      <rect x="532" y="320" width="28" height="16" fill="#fff" stroke="#d6d3d1"/>
      <rect x="560" y="320" width="28" height="16" fill="#fff" stroke="#d6d3d1"/>
      <!-- PROST-1 -->
      <rect x="0" y="336" width="28" height="16" fill="#1e3a8a"/>
      <rect x="28" y="336" width="28" height="16" fill="#1e3a8a"/>
      <rect x="56" y="336" width="28" height="16" fill="#1e3a8a"/>
      <rect x="84" y="336" width="28" height="16" fill="#1e3a8a"/>
      <rect x="112" y="336" width="28" height="16" fill="#1e3a8a"/>
      <rect x="140" y="336" width="28" height="16" fill="#1e3a8a"/>
      <rect x="168" y="336" width="28" height="16" fill="#fff" stroke="#d6d3d1"/>
      <rect x="196" y="336" width="28" height="16" fill="#fff" stroke="#d6d3d1"/>
      <rect x="224" y="336" width="28" height="16" fill="#fff" stroke="#d6d3d1"/>
      <rect x="252" y="336" width="28" height="16" fill="#fff" stroke="#d6d3d1"/>
      <rect x="280" y="336" width="28" height="16" fill="#fff" stroke="#d6d3d1"/>
      <rect x="308" y="336" width="28" height="16" fill="#fff" stroke="#d6d3d1"/>
      <rect x="336" y="336" width="28" height="16" fill="#fff" stroke="#d6d3d1"/>
      <rect x="364" y="336" width="28" height="16" fill="#fff" stroke="#d6d3d1"/>
      <rect x="392" y="336" width="28" height="16" fill="#fff" stroke="#d6d3d1"/>
      <rect x="420" y="336" width="28" height="16" fill="#fff" stroke="#d6d3d1"/>
      <rect x="448" y="336" width="28" height="16" fill="#fff" stroke="#d6d3d1"/>
      <rect x="476" y="336" width="28" height="16" fill="#fff" stroke="#d6d3d1"/>
      <rect x="504" y="336" width="28" height="16" fill="#fff" stroke="#d6d3d1"/>
      <rect x="532" y="336" width="28" height="16" fill="#fff" stroke="#d6d3d1"/>
      <rect x="560" y="336" width="28" height="16" fill="#fff" stroke="#d6d3d1"/>
      <!-- GLIO-1 -->
      <rect x="0" y="352" width="28" height="16" fill="#1e3a8a"/>
      <rect x="28" y="352" width="28" height="16" fill="#1e3a8a"/>
      <rect x="56" y="352" width="28" height="16" fill="#1e3a8a"/>
      <rect x="84" y="352" width="28" height="16" fill="#1e3a8a"/>
      <rect x="112" y="352" width="28" height="16" fill="#1e3a8a"/>
      <rect x="140" y="352" width="28" height="16" fill="#1e3a8a"/>
      <rect x="168" y="352" width="28" height="16" fill="#fff" stroke="#d6d3d1"/>
      <rect x="196" y="352" width="28" height="16" fill="#fff" stroke="#d6d3d1"/>
      <rect x="224" y="352" width="28" height="16" fill="#fff" stroke="#d6d3d1"/>
      <rect x="252" y="352" width="28" height="16" fill="#fff" stroke="#d6d3d1"/>
      <rect x="280" y="352" width="28" height="16" fill="#fff" stroke="#d6d3d1"/>
      <rect x="308" y="352" width="28" height="16" fill="#fff" stroke="#d6d3d1"/>
      <rect x="336" y="352" width="28" height="16" fill="#fff" stroke="#d6d3d1"/>
      <rect x="364" y="352" width="28" height="16" fill="#fff" stroke="#d6d3d1"/>
      <rect x="392" y="352" width="28" height="16" fill="#fff" stroke="#d6d3d1"/>
      <rect x="420" y="352" width="28" height="16" fill="#fff" stroke="#d6d3d1"/>
      <rect x="448" y="352" width="28" height="16" fill="#fff" stroke="#d6d3d1"/>
      <rect x="476" y="352" width="28" height="16" fill="#fff" stroke="#d6d3d1"/>
      <rect x="504" y="352" width="28" height="16" fill="#fff" stroke="#d6d3d1"/>
      <rect x="532" y="352" width="28" height="16" fill="#fff" stroke="#d6d3d1"/>
      <rect x="560" y="352" width="28" height="16" fill="#fff" stroke="#d6d3d1"/>
      <!-- MELA-1 -->
      <rect x="0" y="368" width="28" height="16" fill="#1e3a8a"/>
      <rect x="28" y="368" width="28" height="16" fill="#1e3a8a"/>
      <rect x="56" y="368" width="28" height="16" fill="#1e3a8a"/>
      <rect x="84" y="368" width="28" height="16" fill="#1e3a8a"/>
      <rect x="112" y="368" width="28" height="16" fill="#1e3a8a"/>
      <rect x="140" y="368" width="28" height="16" fill="#1e3a8a"/>
      <rect x="168" y="368" width="28" height="16" fill="#fff" stroke="#d6d3d1"/>
      <rect x="196" y="368" width="28" height="16" fill="#fff" stroke="#d6d3d1"/>
      <rect x="224" y="368" width="28" height="16" fill="#fff" stroke="#d6d3d1"/>
      <rect x="252" y="368" width="28" height="16" fill="#fff" stroke="#d6d3d1"/>
      <rect x="280" y="368" width="28" height="16" fill="#fff" stroke="#d6d3d1"/>
      <rect x="308" y="368" width="28" height="16" fill="#fff" stroke="#d6d3d1"/>
      <rect x="336" y="368" width="28" height="16" fill="#fff" stroke="#d6d3d1"/>
      <rect x="364" y="368" width="28" height="16" fill="#fff" stroke="#d6d3d1"/>
      <rect x="392" y="368" width="28" height="16" fill="#1e3a8a" opacity="0.25"/>
      <rect x="420" y="368" width="28" height="16" fill="#fff" stroke="#d6d3d1"/>
      <rect x="448" y="368" width="28" height="16" fill="#fff" stroke="#d6d3d1"/>
      <rect x="476" y="368" width="28" height="16" fill="#fff" stroke="#d6d3d1"/>
      <rect x="504" y="368" width="28" height="16" fill="#fff" stroke="#d6d3d1"/>
      <rect x="532" y="368" width="28" height="16" fill="#fff" stroke="#d6d3d1"/>
      <rect x="560" y="368" width="28" height="16" fill="#fff" stroke="#d6d3d1"/>
    </g>



  </g>

  <!-- Side: legend + key insights -->
  <g transform="translate(940,80)">
    <rect width="220" height="540" fill="#fff" stroke="#d6d3d1" rx="6"/>
    <text x="110" y="22" text-anchor="middle" font-size="12" font-weight="700" fill="#374151">Score legend</text>
    <line x1="20" y1="32" x2="200" y2="32" stroke="#e7e5e4"/>

    <g transform="translate(20,52)">
      <rect x="0" y="0" width="20" height="14" fill="#1e3a8a"/>
      <text x="28" y="11" font-size="10" fill="#374151">strong essential (&lt; -1)</text>
      <rect x="0" y="20" width="20" height="14" fill="#1e3a8a" opacity="0.55"/>
      <text x="28" y="31" font-size="10" fill="#374151">moderate</text>
      <rect x="0" y="40" width="20" height="14" fill="#fff" stroke="#d6d3d1"/>
      <text x="28" y="51" font-size="10" fill="#374151">non-essential (≈ 0)</text>
    </g>

    <g transform="translate(20,130)">
      <text x="0" y="0" font-size="11" font-weight="700" fill="#374151">Lineage colours</text>
      <text x="0" y="20" font-size="10" fill="#dc2626" font-weight="700">red</text>
      <text x="40" y="20" font-size="10" fill="#374151">heme (AML / CLL)</text>
      <text x="0" y="36" font-size="10" fill="#1e3a8a" font-weight="700">blue</text>
      <text x="40" y="36" font-size="10" fill="#374151">solid (PDAC / LUAD)</text>
      <text x="0" y="52" font-size="10" fill="#065f46" font-weight="700">green</text>
      <text x="40" y="52" font-size="10" fill="#374151">lymphoma</text>
      <text x="0" y="68" font-size="10" fill="#7c3aed" font-weight="700">violet</text>
      <text x="40" y="68" font-size="10" fill="#374151">CRC-MSI (HM)</text>
      <text x="0" y="84" font-size="10" fill="#b45309" font-weight="700">amber</text>
      <text x="40" y="84" font-size="10" fill="#374151">RTK-driven (BR/OV)</text>
    </g>

    <g transform="translate(20,260)">
      <rect width="180" height="260" fill="#fef3c7" stroke="#b45309" rx="4"/>
      <text x="90" y="22" text-anchor="middle" font-size="11" font-weight="700" fill="#92400e">Patterns to spot</text>
      <line x1="14" y1="32" x2="166" y2="32" stroke="#92400e" opacity="0.4"/>
      <g transform="translate(14,52)" font-size="10" fill="#374151">
        <text x="0" y="0" font-weight="700">Pan-essential (cols 1-6)</text>
        <text x="0" y="14" font-style="italic" fill="#525252">RAN, POLR2A, etc.</text>
        <text x="0" y="28" font-style="italic" fill="#525252">→ avoid as drug targets</text>
        <text x="0" y="56" font-weight="700">Lineage-selective</text>
        <text x="0" y="70" font-style="italic" fill="#525252">MCL1 in heme</text>
        <text x="0" y="84" font-style="italic" fill="#525252">PRMT5 in MTAP-del</text>
        <text x="0" y="98" font-style="italic" fill="#525252">EZH2 in lymphoma</text>
        <text x="0" y="112" font-style="italic" fill="#525252">WRN in CRC-MSI</text>
        <text x="0" y="126" font-style="italic" fill="#525252">→ drug-target candidates</text>
        <text x="0" y="160" font-weight="700">Non-essential (cols 21-25)</text>
        <text x="0" y="174" font-style="italic" fill="#525252">olfactory, testis-only</text>
        <text x="0" y="188" font-style="italic" fill="#525252">→ used as null background</text>
      </g>
    </g>
  </g>

  <!-- Bottom: explanation -->
  <g transform="translate(60,650)">
    <rect width="1080" height="50" fill="#fef3c7" stroke="#b45309" rx="4"/>
    <text x="540" y="22" text-anchor="middle" font-size="12" font-weight="600" fill="#92400e">Lineage-selective dependencies = drug targets. Pan-essential = avoid (would kill normal cells too).</text>
    <text x="540" y="40" text-anchor="middle" font-size="10" fill="#374151">DepMap public release: ~21,000 genes × ~1,000 cell lines via Chronos algorithm. Browse at depmap.org.</text>
  </g>
</svg>
