<svg xmlns="http://www.w3.org/2000/svg" viewBox="0 0 1200 720" width="1200" height="720" font-family="Inter, sans-serif">
  <defs><style>text { font-family: Inter, sans-serif; } .mono { font-family: 'JetBrains Mono', monospace; font-size: 10px; }</style></defs>
  <rect width="1200" height="720" fill="#fafaf9" rx="6"/>
  <text x="600" y="28" text-anchor="middle" font-size="14" font-weight="600" fill="#111827">MAVE — saturation mutagenesis: every position × every amino acid (illustrative subset)</text>

  <!-- Heat map: 60 positions × 20 AAs -->
  <g transform="translate(120,90)">
    <text x="450" y="-12" text-anchor="middle" font-size="12" font-weight="700" fill="#374151">BRCA1 RING domain — 60 positions × 20 amino acid changes</text>

    <!-- Y axis: 20 AAs -->
    <g class="mono" font-size="9" fill="#525252">
      <text x="-8" y="14" text-anchor="end">A</text>
      <text x="-8" y="28" text-anchor="end">C</text>
      <text x="-8" y="42" text-anchor="end">D</text>
      <text x="-8" y="56" text-anchor="end">E</text>
      <text x="-8" y="70" text-anchor="end">F</text>
      <text x="-8" y="84" text-anchor="end">G</text>
      <text x="-8" y="98" text-anchor="end">H</text>
      <text x="-8" y="112" text-anchor="end">I</text>
      <text x="-8" y="126" text-anchor="end">K</text>
      <text x="-8" y="140" text-anchor="end">L</text>
      <text x="-8" y="154" text-anchor="end">M</text>
      <text x="-8" y="168" text-anchor="end">N</text>
      <text x="-8" y="182" text-anchor="end">P</text>
      <text x="-8" y="196" text-anchor="end">Q</text>
      <text x="-8" y="210" text-anchor="end">R</text>
      <text x="-8" y="224" text-anchor="end">S</text>
      <text x="-8" y="238" text-anchor="end">T</text>
      <text x="-8" y="252" text-anchor="end">V</text>
      <text x="-8" y="266" text-anchor="end">W</text>
      <text x="-8" y="280" text-anchor="end">Y</text>
    </g>
    <text x="-30" y="150" text-anchor="middle" font-size="10" fill="#525252" transform="rotate(-90 -30 150)">substitution AA</text>

    <!-- Generate cells: 60 cols × 20 rows, cell 14×14 -->
    <g>
      <!-- Pattern: most cells light blue (neutral); critical positions (cols 8, 15, 22, 30, 38, 45) are mostly red (damaging); some positions (cols 50-58) tolerate any change -->
      <!-- Use a script-style: render a grid -->
    </g>

    <!-- Use a different approach: draw a 60×20 grid via for-loops in SVG isn't possible, so I'll draw a representative subset -->
    <!-- Use rect coordinates for each cell -->
    <!-- Set up stripes / patterns -->

    <!-- Background light blue for all -->
    <rect x="0" y="0" width="840" height="280" fill="#dbeafe" stroke="none"/>

    <!-- Critical positions: vertical columns of red (positions 8, 15, 22, 30, 38, 45) -->
    <rect x="98" y="0" width="14" height="280" fill="#dc2626" opacity="0.85"/>
    <rect x="196" y="0" width="14" height="280" fill="#dc2626" opacity="0.85"/>
    <rect x="294" y="0" width="14" height="280" fill="#dc2626" opacity="0.85"/>
    <rect x="406" y="0" width="14" height="280" fill="#dc2626" opacity="0.85"/>
    <rect x="518" y="0" width="14" height="280" fill="#dc2626" opacity="0.85"/>
    <rect x="616" y="0" width="14" height="280" fill="#dc2626" opacity="0.85"/>

    <!-- Tolerant positions: green at end -->
    <rect x="700" y="0" width="14" height="280" fill="#86efac" opacity="0.5"/>
    <rect x="714" y="0" width="14" height="280" fill="#86efac" opacity="0.5"/>
    <rect x="728" y="0" width="14" height="280" fill="#86efac" opacity="0.5"/>
    <rect x="742" y="0" width="14" height="280" fill="#86efac" opacity="0.5"/>
    <rect x="756" y="0" width="14" height="280" fill="#86efac" opacity="0.5"/>

    <!-- Some specific intolerance patterns: e.g., cysteines in zinc-finger positions -->
    <!-- Position 12: only C → C tolerated; all others red -->
    <rect x="154" y="14" width="14" height="14" fill="#dc2626" opacity="0.95"/>
    <rect x="154" y="0" width="14" height="14" fill="#dbeafe"/>
    <rect x="154" y="42" width="14" height="14" fill="#dc2626" opacity="0.95"/>

    <!-- Add a sprinkle of intermediate-effect cells -->
    <g fill="#f97316" opacity="0.7">
      <rect x="42" y="56" width="14" height="14"/>
      <rect x="56" y="98" width="14" height="14"/>
      <rect x="252" y="140" width="14" height="14"/>
      <rect x="350" y="56" width="14" height="14"/>
      <rect x="476" y="196" width="14" height="14"/>
      <rect x="546" y="140" width="14" height="14"/>
      <rect x="252" y="84" width="14" height="14"/>
      <rect x="364" y="168" width="14" height="14"/>
    </g>

    <!-- Wild-type residues: dot on diagonal of each column -->
    <g fill="#000">
      <circle cx="7" cy="84" r="2"/> <!-- pos 1 = G -->
      <circle cx="21" cy="140" r="2"/> <!-- pos 2 = L -->
      <circle cx="35" cy="42" r="2"/> <!-- pos 3 = D -->
      <circle cx="49" cy="0" r="2"/> <!-- pos 4 = A -->
      <circle cx="63" cy="56" r="2"/> <!-- pos 5 = E -->
      <circle cx="77" cy="210" r="2"/> <!-- pos 6 = R -->
      <circle cx="91" cy="252" r="2"/> <!-- pos 7 = V -->
      <circle cx="105" cy="28" r="2"/> <!-- pos 8 = C (catalytic) -->
      <circle cx="119" cy="98" r="2"/>
      <circle cx="133" cy="42" r="2"/>
      <circle cx="147" cy="56" r="2"/>
      <circle cx="161" cy="28" r="2"/>
      <circle cx="175" cy="252" r="2"/>
      <circle cx="189" cy="98" r="2"/>
      <circle cx="203" cy="28" r="2"/>
      <circle cx="217" cy="140" r="2"/>
    </g>

    <!-- X axis: positions -->
    <g class="mono" font-size="8" fill="#525252">
      <text x="0" y="296" text-anchor="middle">1</text>
      <text x="140" y="296" text-anchor="middle">10</text>
      <text x="280" y="296" text-anchor="middle">20</text>
      <text x="420" y="296" text-anchor="middle">30</text>
      <text x="560" y="296" text-anchor="middle">40</text>
      <text x="700" y="296" text-anchor="middle">50</text>
      <text x="840" y="296" text-anchor="end">60</text>
    </g>
    <text x="420" y="318" text-anchor="middle" font-size="11" fill="#525252">amino-acid position</text>

    <!-- Annotations of functional sites -->
    <g>
      <line x1="105" y1="-26" x2="105" y2="-6" stroke="#dc2626" stroke-width="1.5"/>
      <text x="105" y="-30" text-anchor="middle" font-size="9" fill="#dc2626" font-weight="700" class="mono">Cys-1</text>
      <line x1="203" y1="-26" x2="203" y2="-6" stroke="#dc2626" stroke-width="1.5"/>
      <text x="203" y="-30" text-anchor="middle" font-size="9" fill="#dc2626" font-weight="700" class="mono">Cys-2</text>
      <line x1="301" y1="-26" x2="301" y2="-6" stroke="#dc2626" stroke-width="1.5"/>
      <text x="301" y="-30" text-anchor="middle" font-size="9" fill="#dc2626" font-weight="700" class="mono">RING-Zn-binding</text>
      <line x1="525" y1="-26" x2="525" y2="-6" stroke="#dc2626" stroke-width="1.5"/>
      <text x="525" y="-30" text-anchor="middle" font-size="9" fill="#dc2626" font-weight="700" class="mono">BARD1 interface</text>
    </g>
  </g>

  <!-- Side panel: legend + ClinVar overlay -->
  <g transform="translate(990,90)">
    <rect width="180" height="540" fill="#fff" stroke="#d6d3d1" rx="6"/>
    <text x="90" y="22" text-anchor="middle" font-size="12" font-weight="700" fill="#374151">Effect score</text>
    <line x1="20" y1="32" x2="160" y2="32" stroke="#e7e5e4"/>
    <g transform="translate(20,52)">
      <rect x="0" y="0" width="20" height="14" fill="#dc2626" opacity="0.85"/>
      <text x="28" y="11" font-size="10" fill="#374151">damaging (PS3)</text>
      <rect x="0" y="20" width="20" height="14" fill="#f97316" opacity="0.7"/>
      <text x="28" y="31" font-size="10" fill="#374151">intermediate</text>
      <rect x="0" y="40" width="20" height="14" fill="#dbeafe"/>
      <text x="28" y="51" font-size="10" fill="#374151">neutral</text>
      <rect x="0" y="60" width="20" height="14" fill="#86efac" opacity="0.5"/>
      <text x="28" y="71" font-size="10" fill="#374151">tolerant</text>
      <circle cx="10" cy="86" r="3" fill="#000"/>
      <text x="28" y="91" font-size="10" fill="#374151">wild-type</text>
    </g>

    <g transform="translate(20,200)">
      <rect width="140" height="320" fill="#fef3c7" stroke="#b45309" rx="4"/>
      <text x="70" y="22" text-anchor="middle" font-size="11" font-weight="700" fill="#92400e">Clinical use</text>
      <line x1="14" y1="32" x2="126" y2="32" stroke="#92400e" opacity="0.4"/>
      <g transform="translate(14,52)" font-size="10" fill="#374151">
        <text x="0" y="0" font-weight="700">PS3 evidence</text>
        <text x="0" y="14" font-style="italic" fill="#525252">"functional study</text>
        <text x="0" y="28" font-style="italic" fill="#525252">shows damaging"</text>
        <text x="0" y="48" font-weight="700">Findlay 2018</text>
        <text x="0" y="62" font-style="italic" fill="#525252">~4,000 BRCA1</text>
        <text x="0" y="76" font-style="italic" fill="#525252">single-base variants</text>
        <text x="0" y="100" font-weight="700">MAVEdb</text>
        <text x="0" y="114" font-style="italic" fill="#525252">~50 genes covered</text>
        <text x="0" y="128" font-style="italic" fill="#525252">growing each year</text>
        <text x="0" y="152" font-weight="700">ClinVar concord</text>
        <text x="0" y="166" font-style="italic" fill="#525252">88% on Pathogenic</text>
        <text x="0" y="180" font-style="italic" fill="#525252">95% on Benign</text>
        <text x="0" y="200" font-style="italic" fill="#525252">VUS resolution rate</text>
        <text x="0" y="214" font-style="italic" fill="#525252">~50% with MAVE</text>
        <text x="0" y="240" font-weight="700" fill="#dc2626">Computational</text>
        <text x="0" y="254" font-style="italic" fill="#525252">complement:</text>
        <text x="0" y="268" font-style="italic" fill="#525252">AlphaMissense</text>
        <text x="0" y="282" font-style="italic" fill="#525252">EVE</text>
      </g>
    </g>
  </g>

  <!-- Bottom banner -->
  <g transform="translate(120,640)">
    <rect width="850" height="40" fill="#dcfce7" stroke="#065f46" rx="4"/>
    <text x="425" y="22" text-anchor="middle" font-size="11" font-weight="600" fill="#065f46">Saturation mutagenesis maps every variant systematically — directly informs PS3 in ACMG/AMP variant classification</text>
  </g>
</svg>
