<svg xmlns="http://www.w3.org/2000/svg" viewBox="0 0 1200 600" width="1200" height="600" font-family="Inter, sans-serif">
  <defs>
    <style>text { font-family: Inter, sans-serif; } .mono { font-family: 'JetBrains Mono', monospace; font-size: 10px; }</style>
    <marker id="arr1" viewBox="0 0 10 10" refX="9" refY="5" markerWidth="7" markerHeight="7" orient="auto">
      <path d="M 0 0 L 10 5 L 0 10 z" fill="#525252"/>
    </marker>
  </defs>
  <rect width="1200" height="600" fill="#fafaf9" rx="6"/>
  <text x="600" y="28" text-anchor="middle" font-size="14" font-weight="600" fill="#111827">16S amplicon vs shotgun metagenomics — picking the assay for the question</text>

  <!-- 16S panel -->
  <g transform="translate(60,80)">
    <rect width="500" height="280" fill="#fff" stroke="#b45309" stroke-width="2" rx="8"/>
    <text x="250" y="30" text-anchor="middle" font-size="14" font-weight="700" fill="#b45309">16S amplicon sequencing</text>
    <text x="250" y="48" text-anchor="middle" font-size="10" class="mono" fill="#525252">PCR-amplified V3–V4 region</text>
    <line x1="20" y1="64" x2="480" y2="64" stroke="#fed7aa"/>

    <g transform="translate(40,90)" font-size="11" fill="#374151">
      <text x="0" y="0" font-weight="700">Cost</text>
      <text x="160" y="0" class="mono" fill="#b45309">~$30 / sample</text>
      <text x="0" y="22" font-weight="700">Resolution</text>
      <text x="160" y="22" class="mono" fill="#525252">genus-level</text>
      <text x="0" y="44" font-weight="700">Taxa covered</text>
      <text x="160" y="44" class="mono" fill="#525252">bacteria + archaea</text>
      <text x="0" y="66" font-weight="700">Functional content</text>
      <text x="160" y="66" class="mono" fill="#dc2626">no</text>
      <text x="0" y="88" font-weight="700">Bioinformatics</text>
      <text x="160" y="88" class="mono" fill="#065f46">simple (DADA2)</text>
      <text x="0" y="110" font-weight="700">Sequencing depth</text>
      <text x="160" y="110" class="mono" fill="#525252">10k reads / sample</text>
      <text x="0" y="132" font-weight="700">Best for</text>
      <text x="160" y="132" class="mono" fill="#525252">screening many samples</text>
    </g>

    <g transform="translate(40,250)">
      <rect width="420" height="20" fill="#fef3c7" stroke="#b45309" rx="3"/>
      <text x="210" y="14" text-anchor="middle" font-size="10" font-weight="700" fill="#92400e">tools: QIIME2, DADA2 in R, mothur</text>
    </g>
  </g>

  <!-- shotgun panel -->
  <g transform="translate(640,80)">
    <rect width="500" height="280" fill="#fff" stroke="#1e3a8a" stroke-width="2" rx="8"/>
    <text x="250" y="30" text-anchor="middle" font-size="14" font-weight="700" fill="#1e3a8a">Shotgun metagenomics</text>
    <text x="250" y="48" text-anchor="middle" font-size="10" class="mono" fill="#525252">random sequencing of total DNA</text>
    <line x1="20" y1="64" x2="480" y2="64" stroke="#bfdbfe"/>

    <g transform="translate(40,90)" font-size="11" fill="#374151">
      <text x="0" y="0" font-weight="700">Cost</text>
      <text x="160" y="0" class="mono" fill="#1e3a8a">~$300 / sample (10×)</text>
      <text x="0" y="22" font-weight="700">Resolution</text>
      <text x="160" y="22" class="mono" fill="#065f46">species / strain</text>
      <text x="0" y="44" font-weight="700">Taxa covered</text>
      <text x="160" y="44" class="mono" fill="#065f46">all (incl. fungi, viruses)</text>
      <text x="0" y="66" font-weight="700">Functional content</text>
      <text x="160" y="66" class="mono" fill="#065f46">yes (HUMAnN)</text>
      <text x="0" y="88" font-weight="700">Bioinformatics</text>
      <text x="160" y="88" class="mono" fill="#dc2626">complex (multi-step)</text>
      <text x="0" y="110" font-weight="700">Sequencing depth</text>
      <text x="160" y="110" class="mono" fill="#525252">5 Gb / sample</text>
      <text x="0" y="132" font-weight="700">Best for</text>
      <text x="160" y="132" class="mono" fill="#525252">deep characterisation</text>
    </g>

    <g transform="translate(40,250)">
      <rect width="420" height="20" fill="#dbeafe" stroke="#1e3a8a" rx="3"/>
      <text x="210" y="14" text-anchor="middle" font-size="10" font-weight="700" fill="#1e3a8a">tools: bioBakery (MetaPhlAn + HUMAnN), nf-core/mag</text>
    </g>
  </g>

  <!-- Decision tree at bottom -->
  <g transform="translate(60,400)">
    <rect width="1080" height="180" fill="#fff" stroke="#d6d3d1" rx="6"/>
    <text x="540" y="24" text-anchor="middle" font-size="12" font-weight="700" fill="#374151">Decision tree</text>
    <line x1="40" y1="36" x2="1040" y2="36" stroke="#e7e5e4"/>

    <!-- Q1 -->
    <g transform="translate(60,60)">
      <rect width="200" height="44" fill="#fef3c7" stroke="#b45309" rx="4"/>
      <text x="100" y="22" text-anchor="middle" font-size="11" font-weight="700" fill="#92400e">Q1. Need functions?</text>
      <text x="100" y="36" text-anchor="middle" font-size="10" fill="#525252">(metabolism, ARGs)</text>
    </g>
    <line x1="160" y1="104" x2="160" y2="120" stroke="#525252"/>

    <g transform="translate(60,120)" stroke="#525252" stroke-width="1.5" fill="none" marker-end="url(#arr1)">
      <line x1="100" y1="0" x2="40" y2="20"/>
      <line x1="100" y1="0" x2="160" y2="20"/>
    </g>
    <text x="80" y="138" font-size="10" font-weight="700" fill="#065f46">YES</text>
    <text x="220" y="138" font-size="10" font-weight="700" fill="#525252">no</text>

    <!-- Q2 (right path) -->
    <g transform="translate(280,60)">
      <rect width="200" height="44" fill="#dbeafe" stroke="#1e3a8a" rx="4"/>
      <text x="100" y="22" text-anchor="middle" font-size="11" font-weight="700" fill="#1e3a8a">Q2. Strain resolution?</text>
      <text x="100" y="36" text-anchor="middle" font-size="10" fill="#525252">(speciesID critical)</text>
    </g>
    <g transform="translate(280,120)" stroke="#525252" stroke-width="1.5" fill="none" marker-end="url(#arr1)">
      <line x1="100" y1="0" x2="40" y2="20"/>
      <line x1="100" y1="0" x2="160" y2="20"/>
    </g>

    <!-- Q3 -->
    <g transform="translate(500,60)">
      <rect width="200" height="44" fill="#dcfce7" stroke="#065f46" rx="4"/>
      <text x="100" y="22" text-anchor="middle" font-size="11" font-weight="700" fill="#065f46">Q3. Budget tight?</text>
      <text x="100" y="36" text-anchor="middle" font-size="10" fill="#525252">(many samples)</text>
    </g>
    <g transform="translate(500,120)" stroke="#525252" stroke-width="1.5" fill="none" marker-end="url(#arr1)">
      <line x1="100" y1="0" x2="40" y2="20"/>
      <line x1="100" y1="0" x2="160" y2="20"/>
    </g>

    <!-- Q4 -->
    <g transform="translate(720,60)">
      <rect width="200" height="44" fill="#fee2e2" stroke="#7f1d1d" rx="4"/>
      <text x="100" y="22" text-anchor="middle" font-size="11" font-weight="700" fill="#7f1d1d">Q4. Low biomass?</text>
      <text x="100" y="36" text-anchor="middle" font-size="10" fill="#525252">(skin, dilute)</text>
    </g>
    <g transform="translate(720,120)" stroke="#525252" stroke-width="1.5" fill="none" marker-end="url(#arr1)">
      <line x1="100" y1="0" x2="40" y2="20"/>
      <line x1="100" y1="0" x2="160" y2="20"/>
    </g>

    <!-- Verdict -->
    <g transform="translate(940,60)">
      <rect width="120" height="80" fill="#1e3a8a" stroke="#1e3a8a" rx="4"/>
      <text x="60" y="32" text-anchor="middle" font-size="12" font-weight="700" fill="#fff">SHOTGUN</text>
      <text x="60" y="56" text-anchor="middle" font-size="10" fill="#bfdbfe">deep characterisation</text>
    </g>

    <!-- Verdict labels — label 2 shortened from 40 chars to 21 because
         "→ shotgun (long-read or strain-resolved)" ended at abs x=580 and
         label 3 starts at abs x=560 (20-px collision on the same baseline). -->
    <text x="60" y="160" font-size="10" font-weight="700" fill="#1e3a8a" class="mono">→ shotgun (functions, MAGs, ARGs)</text>
    <text x="280" y="160" font-size="10" font-weight="700" fill="#1e3a8a" class="mono">→ shotgun (long-read)</text>
    <text x="500" y="160" font-size="10" font-weight="700" fill="#b45309" class="mono">→ 16S V3–V4 (cheap, scalable)</text>
    <text x="720" y="160" font-size="10" font-weight="700" fill="#b45309" class="mono">→ 16S to avoid host-DNA contamination</text>
  </g>
</svg>
