<svg xmlns="http://www.w3.org/2000/svg" viewBox="0 0 1200 600" width="1200" height="600" font-family="Inter, sans-serif">
  <defs><style>text { font-family: Inter, sans-serif; } .mono { font-family: 'JetBrains Mono', monospace; font-size: 11px; }</style></defs>
  <rect width="1200" height="600" fill="#fafaf9" rx="6"/>
  <text x="600" y="32" text-anchor="middle" font-size="15" font-weight="700" fill="#111827">DDA vs DIA — what gets fragmented and how reproducibly</text>

  <!-- DDA panel -->
  <g transform="translate(40,70)">
    <rect width="800" height="200" fill="#fff" stroke="#b45309" stroke-width="2" rx="6"/>
    <text x="400" y="22" text-anchor="middle" font-size="13" font-weight="700" fill="#92400e">DDA — top-N selection (here N=5)</text>

    <g transform="translate(40,50)">
      <line x1="0" y1="120" x2="720" y2="120" stroke="#374151"/>
      <line x1="0" y1="0" x2="0" y2="120" stroke="#374151"/>
      <text x="360" y="148" text-anchor="middle" font-size="10" fill="#525252">retention time → m/z window</text>
      <text x="-14" y="60" text-anchor="middle" font-size="10" fill="#525252" transform="rotate(-90 -14 60)">MS1 intensity</text>

      <!-- MS1 peaks (small dots, many) -->
      <g fill="#dbeafe" stroke="#1e3a8a">
        <circle cx="40" cy="92" r="3"/><circle cx="60" cy="80" r="3"/><circle cx="78" cy="105" r="3"/>
        <circle cx="100" cy="65" r="3"/><circle cx="125" cy="100" r="3"/><circle cx="150" cy="85" r="3"/>
        <circle cx="180" cy="50" r="3"/><circle cx="210" cy="95" r="3"/><circle cx="235" cy="110" r="3"/>
        <circle cx="270" cy="35" r="3"/><circle cx="300" cy="70" r="3"/><circle cx="320" cy="100" r="3"/>
        <circle cx="350" cy="60" r="3"/><circle cx="380" cy="85" r="3"/><circle cx="410" cy="40" r="3"/>
        <circle cx="440" cy="100" r="3"/><circle cx="470" cy="75" r="3"/><circle cx="500" cy="55" r="3"/>
        <circle cx="530" cy="95" r="3"/><circle cx="560" cy="65" r="3"/><circle cx="590" cy="105" r="3"/>
        <circle cx="620" cy="80" r="3"/><circle cx="650" cy="50" r="3"/><circle cx="680" cy="100" r="3"/>
        <circle cx="710" cy="70" r="3"/>
      </g>

      <!-- DDA selections: only 5 brightest -->
      <g fill="#fef3c7" stroke="#b45309" stroke-width="2">
        <line x1="180" y1="120" x2="180" y2="50"/>
        <line x1="270" y1="120" x2="270" y2="35"/>
        <line x1="410" y1="120" x2="410" y2="40"/>
        <line x1="500" y1="120" x2="500" y2="55"/>
        <line x1="650" y1="120" x2="650" y2="50"/>
        <circle cx="180" cy="50" r="6"/>
        <circle cx="270" cy="35" r="6"/>
        <circle cx="410" cy="40" r="6"/>
        <circle cx="500" cy="55" r="6"/>
        <circle cx="650" cy="50" r="6"/>
      </g>

      <text x="180" y="40" text-anchor="middle" font-size="9" fill="#b45309" font-weight="700">picked</text>
    </g>

    <text x="400" y="190" text-anchor="middle" font-size="10" fill="#525252" font-style="italic">If a peptide isn't in the top-N at this moment, it's missed entirely</text>
  </g>

  <!-- DIA panel -->
  <g transform="translate(40,290)">
    <rect width="800" height="200" fill="#fff" stroke="#1e3a8a" stroke-width="2" rx="6"/>
    <text x="400" y="22" text-anchor="middle" font-size="13" font-weight="700" fill="#1e3a8a">DIA — sequential m/z windows (here 12 × 60 m/z)</text>

    <g transform="translate(40,50)">
      <line x1="0" y1="120" x2="720" y2="120" stroke="#374151"/>
      <line x1="0" y1="0" x2="0" y2="120" stroke="#374151"/>
      <text x="360" y="148" text-anchor="middle" font-size="10" fill="#525252">retention time → m/z window</text>

      <!-- Windows -->
      <g fill="#dbeafe" stroke="#1e3a8a">
        <rect x="0" y="0" width="60" height="120" fill-opacity="0.55"/>
        <rect x="60" y="0" width="60" height="120" fill-opacity="0.35"/>
        <rect x="120" y="0" width="60" height="120" fill-opacity="0.55"/>
        <rect x="180" y="0" width="60" height="120" fill-opacity="0.35"/>
        <rect x="240" y="0" width="60" height="120" fill-opacity="0.55"/>
        <rect x="300" y="0" width="60" height="120" fill-opacity="0.35"/>
        <rect x="360" y="0" width="60" height="120" fill-opacity="0.55"/>
        <rect x="420" y="0" width="60" height="120" fill-opacity="0.35"/>
        <rect x="480" y="0" width="60" height="120" fill-opacity="0.55"/>
        <rect x="540" y="0" width="60" height="120" fill-opacity="0.35"/>
        <rect x="600" y="0" width="60" height="120" fill-opacity="0.55"/>
        <rect x="660" y="0" width="60" height="120" fill-opacity="0.35"/>
      </g>

      <!-- All MS1 peaks visible -->
      <g fill="#1e3a8a">
        <circle cx="40" cy="92" r="3"/><circle cx="60" cy="80" r="3"/><circle cx="78" cy="105" r="3"/>
        <circle cx="100" cy="65" r="3"/><circle cx="125" cy="100" r="3"/><circle cx="150" cy="85" r="3"/>
        <circle cx="180" cy="50" r="3"/><circle cx="210" cy="95" r="3"/><circle cx="235" cy="110" r="3"/>
        <circle cx="270" cy="35" r="3"/><circle cx="300" cy="70" r="3"/><circle cx="320" cy="100" r="3"/>
        <circle cx="350" cy="60" r="3"/><circle cx="380" cy="85" r="3"/><circle cx="410" cy="40" r="3"/>
        <circle cx="440" cy="100" r="3"/><circle cx="470" cy="75" r="3"/><circle cx="500" cy="55" r="3"/>
        <circle cx="530" cy="95" r="3"/><circle cx="560" cy="65" r="3"/><circle cx="590" cy="105" r="3"/>
        <circle cx="620" cy="80" r="3"/><circle cx="650" cy="50" r="3"/><circle cx="680" cy="100" r="3"/>
        <circle cx="710" cy="70" r="3"/>
      </g>

      <!-- annotation: chimeric -->
      <text x="60" y="14" font-size="9" fill="#1e3a8a" font-weight="700" text-anchor="middle">chimeric MS2</text>
    </g>

    <text x="400" y="190" text-anchor="middle" font-size="10" fill="#525252" font-style="italic">Every peptide in every window gets fragmented — chimeric spectra deconvolved by spectral library</text>
  </g>

  <!-- Replicate concordance bar -->
  <g transform="translate(870,70)">
    <rect width="290" height="420" fill="#fff" stroke="#374151" stroke-width="1.5" rx="6"/>
    <text x="145" y="22" text-anchor="middle" font-size="13" font-weight="700" fill="#374151">Replicate concordance</text>
    <text x="145" y="38" text-anchor="middle" font-size="10" fill="#525252">peptide IDs shared across 3 reps</text>

    <g transform="translate(20,70)">
      <!-- Percentage labels — anchor=end at x=250 (end of bar track) so the
           4-char "~70%" / "~88%" labels stay inside the 290-px replicate
           panel. The original x=260 anchor=start put the labels at panel
           x=280-308, overrunning the 290-px panel right edge by 18 px. -->
      <text x="0" y="0" font-size="10" font-weight="700" fill="#92400e">DDA top-15</text>
      <rect x="0" y="10" width="250" height="22" fill="#fef3c7" stroke="#b45309"/>
      <rect x="0" y="10" width="175" height="22" fill="#b45309"/>
      <text x="244" y="26" text-anchor="end" font-size="11" font-weight="700" fill="#fff">~70%</text>

      <text x="0" y="60" font-size="10" font-weight="700" fill="#1e3a8a">DIA 40 windows</text>
      <rect x="0" y="70" width="250" height="22" fill="#dbeafe" stroke="#1e3a8a"/>
      <rect x="0" y="70" width="220" height="22" fill="#1e3a8a"/>
      <text x="244" y="86" text-anchor="end" font-size="11" font-weight="700" fill="#fff">~88%</text>

      <text x="0" y="120" font-size="10" font-weight="700" fill="#525252">Total IDs (peptides):</text>
      <text x="0" y="140" font-size="10" fill="#374151">DDA top-15: ~600</text>
      <text x="0" y="156" font-size="10" fill="#374151">DIA 40-window: ~850</text>
    </g>

    <g transform="translate(20,250)">
      <rect width="250" height="150" fill="#eff6ff" stroke="#1e3a8a" rx="4"/>
      <text x="10" y="20" font-size="11" font-weight="700" fill="#1e3a8a">EE framing</text>
      <text x="10" y="40" font-size="10" fill="#1e3a8a">DIA = compressed sensing</text>
      <text x="10" y="58" font-size="10" fill="#374151">under-determined acquisition</text>
      <text x="10" y="74" font-size="10" fill="#374151">recovered by sparse-coding</text>
      <text x="10" y="90" font-size="10" fill="#374151">over a spectral library.</text>
      <text x="10" y="115" font-size="10" fill="#374151" font-style="italic">DIA-NN, Spectronaut,</text>
      <text x="10" y="131" font-size="10" fill="#374151" font-style="italic">OpenSWATH implement this.</text>
    </g>
  </g>
</svg>
