<svg xmlns="http://www.w3.org/2000/svg" viewBox="0 0 1200 540" width="1200" height="540" font-family="Inter, sans-serif">
  <defs><style>text { font-family: Inter, sans-serif; } .mono { font-family: 'JetBrains Mono', monospace; font-size: 11px; }</style></defs>
  <rect width="1200" height="540" fill="#fafaf9" rx="6"/>
  <text x="600" y="32" text-anchor="middle" font-size="15" font-weight="700" fill="#111827">PTM mass shifts — common modifications and their fixed offsets to peptide mass</text>

  <!-- PTM table -->
  <g transform="translate(40,70)">
    <rect width="700" height="440" fill="#fff" stroke="#374151" stroke-width="1.5" rx="6"/>
    <text x="350" y="24" text-anchor="middle" font-size="13" font-weight="700" fill="#374151">Common PTMs (residue-level mass shifts)</text>

    <g transform="translate(20,50)">
      <line x1="0" y1="0" x2="660" y2="0" stroke="#374151"/>
      <g font-size="11" font-weight="700" fill="#111827">
        <text x="0" y="20">PTM</text>
        <text x="200" y="20">Residue</text>
        <text x="320" y="20">Δm (Da)</text>
        <text x="440" y="20">Notes</text>
      </g>
      <line x1="0" y1="32" x2="660" y2="32" stroke="#374151"/>

      <g font-size="11" fill="#374151">
        <text x="0" y="56" font-weight="700" fill="#dc2626">Phosphorylation</text>
        <text x="200" y="56" class="mono">S, T, Y</text>
        <text x="320" y="56" class="mono" fill="#dc2626" font-weight="700">+79.97</text>
        <text x="440" y="56">kinase signalling readout</text>

        <text x="0" y="84" font-weight="700" fill="#7c3aed">Acetylation</text>
        <text x="200" y="84" class="mono">K, N-term</text>
        <text x="320" y="84" class="mono" fill="#7c3aed" font-weight="700">+42.01</text>
        <text x="440" y="84">histone marks, N-terminal</text>

        <text x="0" y="112" font-weight="700" fill="#1e3a8a">Methylation</text>
        <text x="200" y="112" class="mono">K, R</text>
        <text x="320" y="112" class="mono" fill="#1e3a8a" font-weight="700">+14.02 / methyl</text>
        <text x="440" y="112">mono / di / tri (×1, ×2, ×3)</text>

        <text x="0" y="140" font-weight="700" fill="#b45309">Ubiquitination (GG)</text>
        <text x="200" y="140" class="mono">K</text>
        <text x="320" y="140" class="mono" fill="#b45309" font-weight="700">+114.04</text>
        <text x="440" y="140">tryptic remnant after digest</text>

        <text x="0" y="168" font-weight="700" fill="#065f46">Methionine oxidation</text>
        <text x="200" y="168" class="mono">M</text>
        <text x="320" y="168" class="mono" fill="#065f46" font-weight="700">+15.99</text>
        <text x="440" y="168">storage artefact, common</text>

        <text x="0" y="196" font-weight="700" fill="#525252">Carbamidomethyl</text>
        <text x="200" y="196" class="mono">C</text>
        <text x="320" y="196" class="mono" fill="#525252" font-weight="700">+57.02</text>
        <text x="440" y="196">fixed mod (iodoacetamide)</text>

        <text x="0" y="224" font-weight="700" fill="#dc2626">Glycosylation (Hex)</text>
        <text x="200" y="224" class="mono">N (NXS/T)</text>
        <text x="320" y="224" class="mono" fill="#dc2626" font-weight="700">+162.05 (×n)</text>
        <text x="440" y="224">glycoform-dependent; complex</text>

        <text x="0" y="252" font-weight="700" fill="#7c3aed">Sumoylation (KGG)</text>
        <text x="200" y="252" class="mono">K</text>
        <text x="320" y="252" class="mono" fill="#7c3aed" font-weight="700">+114.04 (≈Ub)</text>
        <text x="440" y="252">distinguish by anchor</text>

        <text x="0" y="280" font-weight="700" fill="#1e3a8a">Citrullination</text>
        <text x="200" y="280" class="mono">R</text>
        <text x="320" y="280" class="mono" fill="#1e3a8a" font-weight="700">+0.98</text>
        <text x="440" y="280">small shift — easy to miss</text>

        <text x="0" y="308" font-weight="700" fill="#b45309">SUMO remnant</text>
        <text x="200" y="308" class="mono">K</text>
        <text x="320" y="308" class="mono" fill="#b45309" font-weight="700">+1701 (full SUMO)</text>
        <text x="440" y="308">cleaves to QTGG remnant</text>

        <text x="0" y="336" font-weight="700" fill="#065f46">Pyroglutamate</text>
        <text x="200" y="336" class="mono">N-term Q/E</text>
        <text x="320" y="336" class="mono" fill="#065f46" font-weight="700">−17.03 / −18.01</text>
        <text x="440" y="336">cyclisation; loss of NH₃ / H₂O</text>

        <text x="0" y="364" font-weight="700" fill="#dc2626">Deamidation</text>
        <text x="200" y="364" class="mono">N, Q</text>
        <text x="320" y="364" class="mono" fill="#dc2626" font-weight="700">+0.98</text>
        <text x="440" y="364">storage / aging artefact</text>

        <text x="0" y="392" font-weight="700" fill="#7c3aed">Mono-methyl K vs acetyl K</text>
        <text x="200" y="392" class="mono">K</text>
        <text x="320" y="392" class="mono" fill="#7c3aed" font-weight="700">+14.02 vs +42.01</text>
        <text x="440" y="392">distinguishable in MS1</text>
      </g>
    </g>
  </g>

  <!-- Search-space expansion panel -->
  <g transform="translate(760,70)">
    <rect width="400" height="440" fill="#fff" stroke="#dc2626" stroke-width="2" rx="6"/>
    <text x="200" y="24" text-anchor="middle" font-size="13" font-weight="700" fill="#dc2626">Search-space expansion</text>
    <text x="200" y="40" text-anchor="middle" font-size="10" fill="#525252">candidates per peptide as variable mods grow</text>

    <g transform="translate(40,70)">
      <line x1="0" y1="280" x2="320" y2="280" stroke="#374151"/>
      <line x1="0" y1="0" x2="0" y2="280" stroke="#374151"/>
      <text x="160" y="304" text-anchor="middle" font-size="11" fill="#525252">number of variable mods</text>
      <text x="-22" y="140" text-anchor="middle" font-size="11" fill="#525252" transform="rotate(-90 -22 140)">candidates per peptide (log)</text>

      <g class="mono" font-size="9" fill="#525252">
        <text x="0" y="294" text-anchor="middle">0</text>
        <text x="80" y="294" text-anchor="middle">2</text>
        <text x="160" y="294" text-anchor="middle">5</text>
        <text x="240" y="294" text-anchor="middle">8</text>
        <text x="320" y="294" text-anchor="middle">10</text>

        <text x="-6" y="284" text-anchor="end">1</text>
        <text x="-6" y="220" text-anchor="end">10</text>
        <text x="-6" y="156" text-anchor="end">100</text>
        <text x="-6" y="92" text-anchor="end">1k</text>
        <text x="-6" y="28" text-anchor="end">10k</text>
      </g>

      <!-- exponential growth curve -->
      <path d="M 0 268 Q 60 252, 80 230 Q 120 196, 160 152 Q 200 110, 240 64 Q 280 22, 320 8" fill="none" stroke="#dc2626" stroke-width="2.5"/>

      <g fill="#dc2626">
        <circle cx="0" cy="268" r="4"/>
        <circle cx="80" cy="230" r="4"/>
        <circle cx="160" cy="152" r="4"/>
        <circle cx="240" cy="64" r="4"/>
        <circle cx="320" cy="8" r="4"/>
      </g>
    </g>

    <g transform="translate(40,380)">
      <text x="0" y="0" font-size="10" fill="#92400e" font-weight="700">Practical default</text>
      <text x="0" y="18" font-size="10" fill="#92400e">turn on 2–3 variable mods (M-ox, N-acetyl, deamidation)</text>
      <text x="0" y="34" font-size="10" fill="#92400e">+ 1 fixed mod (Cys carbamidomethyl)</text>
    </g>
  </g>
</svg>
