<svg xmlns="http://www.w3.org/2000/svg" viewBox="0 0 1200 620" role="img" aria-labelledby="t d">
  <title id="t">Three pileup columns — heterozygous SNV, homozygous alternate, noise</title>
  <desc id="d">Three side-by-side panels at 20-fold coverage, each showing 20 reads stacked at a single reference position. Panel A is a clean heterozygous SNV with balanced REF and ALT counts at uniformly high quality. Panel B is a homozygous alternate site where every read carries the alternate base at high quality. Panel C is a noise column with two non-reference bases that are both at the end of low-quality reads on the same strand. Below each panel a summary table reports REF count, ALT count, mean quality, strand balance, and the inferred genotype with its PHRED-scaled genotype quality.</desc>

  <rect x="0" y="0" width="1200" height="620" fill="#fafaf9"/>

  <!-- Title strip -->
  <g>
    <text x="60" y="36" font-family="Inter, sans-serif" font-size="13" font-weight="700" fill="#1e3a8a" letter-spacing="0.08em">THREE PILEUP COLUMNS, ONE REFERENCE POSITION</text>
    <text x="60" y="54" font-family="Inter, sans-serif" font-size="11" font-style="italic" fill="#525252">20-fold coverage. Same column shape, three different inferences.</text>
  </g>

  <!-- ============= PANEL A: het ============= -->
  <g transform="translate(40, 90)">
    <text x="0" y="0" font-family="Inter, sans-serif" font-size="11" font-weight="700" fill="#1e3a8a" letter-spacing="0.08em">(A)  HETEROZYGOUS  SNV</text>
    <text x="0" y="18" font-family="Inter, sans-serif" font-size="10" fill="#525252" font-style="italic">balanced REF / ALT  ·  high Q</text>

    <!-- Reference -->
    <rect x="0" y="34" width="360" height="22" rx="3" fill="#eef2ff" stroke="#1e3a8a" stroke-width="0.7"/>
    <text x="8" y="49" font-family="Inter, sans-serif" font-size="9" font-weight="700" fill="#1e3a8a" letter-spacing="0.06em">REF</text>
    <g font-family="JetBrains Mono, monospace" font-size="13" fill="#0a0a0a">
      <text x="48"  y="50" text-anchor="middle">T</text>
      <text x="84"  y="50" text-anchor="middle">A</text>
      <text x="120" y="50" text-anchor="middle">C</text>
      <text x="156" y="50" text-anchor="middle">G</text>
      <text x="192" y="50" text-anchor="middle" font-weight="700" fill="#1e3a8a">A</text>
      <text x="228" y="50" text-anchor="middle">T</text>
      <text x="264" y="50" text-anchor="middle">G</text>
      <text x="300" y="50" text-anchor="middle">C</text>
      <text x="336" y="50" text-anchor="middle">A</text>
    </g>
    <line x1="180" y1="60" x2="204" y2="60" stroke="#1e3a8a" stroke-width="2"/>
    <text x="192" y="74" font-family="Inter, sans-serif" font-size="9" font-weight="700" fill="#1e3a8a" text-anchor="middle">position</text>

    <!-- Reads (20). Centered on column x=192. -->
    <!-- 10 REF (A green), 10 ALT (G amber), mixed strand. row height 14, start y=92 -->
    <g font-family="JetBrains Mono, monospace" font-size="11">
      <!-- READ rows -->
      <g>
        <!-- read 1: REF, fwd -->
        <line x1="20" y1="92" x2="364" y2="92" stroke="#c4c1b6" stroke-width="0.6"/>
        <rect x="184" y="84" width="16" height="14" fill="#2d7a3e" opacity="0.9"/>
        <text x="192" y="95" text-anchor="middle" fill="#ffffff" font-weight="700">A</text>
        <text x="370" y="95" font-family="Inter, sans-serif" font-size="9" fill="#525252">▶</text>
        <text x="-2"  y="95" font-family="Inter, sans-serif" font-size="9" fill="#525252">1</text>

        <line x1="20" y1="106" x2="364" y2="106" stroke="#c4c1b6" stroke-width="0.6"/>
        <rect x="184" y="98" width="16" height="14" fill="#2d7a3e"/>
        <text x="192" y="109" text-anchor="middle" fill="#ffffff" font-weight="700">A</text>
        <text x="370" y="109" font-family="Inter, sans-serif" font-size="9" fill="#525252">▶</text>

        <line x1="20" y1="120" x2="364" y2="120" stroke="#c4c1b6" stroke-width="0.6"/>
        <rect x="184" y="112" width="16" height="14" fill="#2d7a3e"/>
        <text x="192" y="123" text-anchor="middle" fill="#ffffff" font-weight="700">A</text>
        <text x="-2"  y="123" font-family="Inter, sans-serif" font-size="9" fill="#525252">◀</text>

        <line x1="20" y1="134" x2="364" y2="134" stroke="#c4c1b6" stroke-width="0.6"/>
        <rect x="184" y="126" width="16" height="14" fill="#2d7a3e"/>
        <text x="192" y="137" text-anchor="middle" fill="#ffffff" font-weight="700">A</text>
        <text x="370" y="137" font-family="Inter, sans-serif" font-size="9" fill="#525252">▶</text>

        <line x1="20" y1="148" x2="364" y2="148" stroke="#c4c1b6" stroke-width="0.6"/>
        <rect x="184" y="140" width="16" height="14" fill="#2d7a3e"/>
        <text x="192" y="151" text-anchor="middle" fill="#ffffff" font-weight="700">A</text>
        <text x="-2"  y="151" font-family="Inter, sans-serif" font-size="9" fill="#525252">◀</text>

        <!-- ALT begins -->
        <line x1="20" y1="162" x2="364" y2="162" stroke="#c4c1b6" stroke-width="0.6"/>
        <rect x="184" y="154" width="16" height="14" fill="#b45309"/>
        <text x="192" y="165" text-anchor="middle" fill="#ffffff" font-weight="700">G</text>
        <text x="370" y="165" font-family="Inter, sans-serif" font-size="9" fill="#525252">▶</text>

        <line x1="20" y1="176" x2="364" y2="176" stroke="#c4c1b6" stroke-width="0.6"/>
        <rect x="184" y="168" width="16" height="14" fill="#b45309"/>
        <text x="192" y="179" text-anchor="middle" fill="#ffffff" font-weight="700">G</text>
        <text x="-2"  y="179" font-family="Inter, sans-serif" font-size="9" fill="#525252">◀</text>

        <line x1="20" y1="190" x2="364" y2="190" stroke="#c4c1b6" stroke-width="0.6"/>
        <rect x="184" y="182" width="16" height="14" fill="#b45309"/>
        <text x="192" y="193" text-anchor="middle" fill="#ffffff" font-weight="700">G</text>
        <text x="370" y="193" font-family="Inter, sans-serif" font-size="9" fill="#525252">▶</text>

        <line x1="20" y1="204" x2="364" y2="204" stroke="#c4c1b6" stroke-width="0.6"/>
        <rect x="184" y="196" width="16" height="14" fill="#b45309"/>
        <text x="192" y="207" text-anchor="middle" fill="#ffffff" font-weight="700">G</text>
        <text x="-2"  y="207" font-family="Inter, sans-serif" font-size="9" fill="#525252">◀</text>

        <!-- abbreviate the rest with ... -->
        <line x1="20" y1="218" x2="364" y2="218" stroke="#c4c1b6" stroke-width="0.6"/>
        <text x="192" y="222" text-anchor="middle" font-family="Inter, sans-serif" font-size="9" fill="#8a8a85" font-style="italic">… 10 more reads, 5 REF + 5 ALT, mixed strand …</text>
      </g>
    </g>

    <!-- Pileup token -->
    <g transform="translate(0, 244)">
      <rect x="0" y="0" width="360" height="38" rx="4" fill="#f4f3ee" stroke="#e5e3dc" stroke-width="1"/>
      <text x="8" y="14" font-family="Inter, sans-serif" font-size="9" font-weight="700" fill="#1e3a8a" letter-spacing="0.06em">PILEUP</text>
      <text x="180" y="29" font-family="JetBrains Mono, monospace" font-size="11" fill="#0a0a0a" text-anchor="middle">.,.,.GgGg.,.,GgGg.,</text>
    </g>

    <!-- Summary card -->
    <g transform="translate(0, 296)">
      <rect x="0" y="0" width="360" height="180" rx="4" fill="#ffffff" stroke="#1e3a8a" stroke-width="1.5"/>
      <text x="12" y="20" font-family="Inter, sans-serif" font-size="10" font-weight="700" fill="#1e3a8a" letter-spacing="0.08em">SUMMARY</text>

      <g font-family="JetBrains Mono, monospace" font-size="11" fill="#0a0a0a">
        <text x="12" y="44">DP    =  20</text>
        <text x="12" y="62">AD    =  10, 10  (REF, ALT)</text>
        <text x="12" y="80">VAF   =  0.50</text>
        <text x="12" y="98">⟨Q⟩   =  34   (uniform)</text>
        <text x="12" y="116">strand =  5/5 REF · 5/5 ALT</text>
      </g>

      <line x1="12" y1="128" x2="348" y2="128" stroke="#e5e3dc" stroke-width="1"/>
      <text x="12" y="146" font-family="Inter, sans-serif" font-size="10" fill="#525252">Inferred genotype</text>
      <text x="240" y="146" font-family="JetBrains Mono, monospace" font-size="14" font-weight="700" fill="#065f46">0/1</text>
      <text x="12" y="166" font-family="Inter, sans-serif" font-size="10" fill="#525252">GQ</text>
      <text x="240" y="166" font-family="JetBrains Mono, monospace" font-size="14" font-weight="700" fill="#065f46">99</text>
    </g>
  </g>

  <!-- ============= PANEL B: hom-alt ============= -->
  <g transform="translate(420, 90)">
    <text x="0" y="0" font-family="Inter, sans-serif" font-size="11" font-weight="700" fill="#1e3a8a" letter-spacing="0.08em">(B)  HOMOZYGOUS  ALTERNATE</text>
    <text x="0" y="18" font-family="Inter, sans-serif" font-size="10" fill="#525252" font-style="italic">every read shows ALT  ·  high Q</text>

    <rect x="0" y="34" width="360" height="22" rx="3" fill="#eef2ff" stroke="#1e3a8a" stroke-width="0.7"/>
    <text x="8" y="49" font-family="Inter, sans-serif" font-size="9" font-weight="700" fill="#1e3a8a" letter-spacing="0.06em">REF</text>
    <g font-family="JetBrains Mono, monospace" font-size="13" fill="#0a0a0a">
      <text x="48"  y="50" text-anchor="middle">T</text>
      <text x="84"  y="50" text-anchor="middle">A</text>
      <text x="120" y="50" text-anchor="middle">C</text>
      <text x="156" y="50" text-anchor="middle">G</text>
      <text x="192" y="50" text-anchor="middle" font-weight="700" fill="#1e3a8a">C</text>
      <text x="228" y="50" text-anchor="middle">T</text>
      <text x="264" y="50" text-anchor="middle">G</text>
      <text x="300" y="50" text-anchor="middle">C</text>
      <text x="336" y="50" text-anchor="middle">A</text>
    </g>
    <line x1="180" y1="60" x2="204" y2="60" stroke="#1e3a8a" stroke-width="2"/>
    <text x="192" y="74" font-family="Inter, sans-serif" font-size="9" font-weight="700" fill="#1e3a8a" text-anchor="middle">position</text>

    <g>
      <!-- 10 ALT reads explicit, then abbreviate -->
      <line x1="20" y1="92" x2="364" y2="92" stroke="#c4c1b6" stroke-width="0.6"/>
      <rect x="184" y="84" width="16" height="14" fill="#c4342c"/>
      <text x="192" y="95" text-anchor="middle" fill="#ffffff" font-weight="700">A</text>
      <text x="370" y="95" font-family="Inter, sans-serif" font-size="9" fill="#525252">▶</text>

      <line x1="20" y1="106" x2="364" y2="106" stroke="#c4c1b6" stroke-width="0.6"/>
      <rect x="184" y="98" width="16" height="14" fill="#c4342c"/>
      <text x="192" y="109" text-anchor="middle" fill="#ffffff" font-weight="700">A</text>
      <text x="-2"  y="109" font-family="Inter, sans-serif" font-size="9" fill="#525252">◀</text>

      <line x1="20" y1="120" x2="364" y2="120" stroke="#c4c1b6" stroke-width="0.6"/>
      <rect x="184" y="112" width="16" height="14" fill="#c4342c"/>
      <text x="192" y="123" text-anchor="middle" fill="#ffffff" font-weight="700">A</text>
      <text x="370" y="123" font-family="Inter, sans-serif" font-size="9" fill="#525252">▶</text>

      <line x1="20" y1="134" x2="364" y2="134" stroke="#c4c1b6" stroke-width="0.6"/>
      <rect x="184" y="126" width="16" height="14" fill="#c4342c"/>
      <text x="192" y="137" text-anchor="middle" fill="#ffffff" font-weight="700">A</text>
      <text x="-2"  y="137" font-family="Inter, sans-serif" font-size="9" fill="#525252">◀</text>

      <line x1="20" y1="148" x2="364" y2="148" stroke="#c4c1b6" stroke-width="0.6"/>
      <rect x="184" y="140" width="16" height="14" fill="#c4342c"/>
      <text x="192" y="151" text-anchor="middle" fill="#ffffff" font-weight="700">A</text>
      <text x="370" y="151" font-family="Inter, sans-serif" font-size="9" fill="#525252">▶</text>

      <line x1="20" y1="162" x2="364" y2="162" stroke="#c4c1b6" stroke-width="0.6"/>
      <rect x="184" y="154" width="16" height="14" fill="#c4342c"/>
      <text x="192" y="165" text-anchor="middle" fill="#ffffff" font-weight="700">A</text>
      <text x="-2"  y="165" font-family="Inter, sans-serif" font-size="9" fill="#525252">◀</text>

      <line x1="20" y1="176" x2="364" y2="176" stroke="#c4c1b6" stroke-width="0.6"/>
      <rect x="184" y="168" width="16" height="14" fill="#c4342c"/>
      <text x="192" y="179" text-anchor="middle" fill="#ffffff" font-weight="700">A</text>
      <text x="370" y="179" font-family="Inter, sans-serif" font-size="9" fill="#525252">▶</text>

      <line x1="20" y1="190" x2="364" y2="190" stroke="#c4c1b6" stroke-width="0.6"/>
      <rect x="184" y="182" width="16" height="14" fill="#c4342c"/>
      <text x="192" y="193" text-anchor="middle" fill="#ffffff" font-weight="700">A</text>
      <text x="-2"  y="193" font-family="Inter, sans-serif" font-size="9" fill="#525252">◀</text>

      <line x1="20" y1="204" x2="364" y2="204" stroke="#c4c1b6" stroke-width="0.6"/>
      <rect x="184" y="196" width="16" height="14" fill="#c4342c"/>
      <text x="192" y="207" text-anchor="middle" fill="#ffffff" font-weight="700">A</text>
      <text x="370" y="207" font-family="Inter, sans-serif" font-size="9" fill="#525252">▶</text>

      <line x1="20" y1="218" x2="364" y2="218" stroke="#c4c1b6" stroke-width="0.6"/>
      <text x="192" y="222" text-anchor="middle" font-family="Inter, sans-serif" font-size="9" fill="#8a8a85" font-style="italic">… 10 more reads, all ALT, mixed strand …</text>
    </g>

    <g transform="translate(0, 244)">
      <rect x="0" y="0" width="360" height="38" rx="4" fill="#f4f3ee" stroke="#e5e3dc" stroke-width="1"/>
      <text x="8" y="14" font-family="Inter, sans-serif" font-size="9" font-weight="700" fill="#1e3a8a" letter-spacing="0.06em">PILEUP</text>
      <text x="180" y="29" font-family="JetBrains Mono, monospace" font-size="11" fill="#0a0a0a" text-anchor="middle">AaAaAaAaAaAaAaAaAaAa</text>
    </g>

    <g transform="translate(0, 296)">
      <rect x="0" y="0" width="360" height="180" rx="4" fill="#ffffff" stroke="#1e3a8a" stroke-width="1.5"/>
      <text x="12" y="20" font-family="Inter, sans-serif" font-size="10" font-weight="700" fill="#1e3a8a" letter-spacing="0.08em">SUMMARY</text>
      <g font-family="JetBrains Mono, monospace" font-size="11" fill="#0a0a0a">
        <text x="12" y="44">DP    =  20</text>
        <text x="12" y="62">AD    =  0, 20  (REF, ALT)</text>
        <text x="12" y="80">VAF   =  1.00</text>
        <text x="12" y="98">⟨Q⟩   =  35   (uniform)</text>
        <text x="12" y="116">strand =  10/10 ALT</text>
      </g>
      <line x1="12" y1="128" x2="348" y2="128" stroke="#e5e3dc" stroke-width="1"/>
      <text x="12" y="146" font-family="Inter, sans-serif" font-size="10" fill="#525252">Inferred genotype</text>
      <text x="240" y="146" font-family="JetBrains Mono, monospace" font-size="14" font-weight="700" fill="#065f46">1/1</text>
      <text x="12" y="166" font-family="Inter, sans-serif" font-size="10" fill="#525252">GQ</text>
      <text x="240" y="166" font-family="JetBrains Mono, monospace" font-size="14" font-weight="700" fill="#065f46">99</text>
    </g>
  </g>

  <!-- ============= PANEL C: noise ============= -->
  <g transform="translate(800, 90)">
    <text x="0" y="0" font-family="Inter, sans-serif" font-size="11" font-weight="700" fill="#1e3a8a" letter-spacing="0.08em">(C)  NOISE  (NOT  A  VARIANT)</text>
    <text x="0" y="18" font-family="Inter, sans-serif" font-size="10" fill="#525252" font-style="italic">2 ALT bases — both at low Q, same strand, read ends</text>

    <rect x="0" y="34" width="360" height="22" rx="3" fill="#eef2ff" stroke="#1e3a8a" stroke-width="0.7"/>
    <text x="8" y="49" font-family="Inter, sans-serif" font-size="9" font-weight="700" fill="#1e3a8a" letter-spacing="0.06em">REF</text>
    <g font-family="JetBrains Mono, monospace" font-size="13" fill="#0a0a0a">
      <text x="48"  y="50" text-anchor="middle">A</text>
      <text x="84"  y="50" text-anchor="middle">A</text>
      <text x="120" y="50" text-anchor="middle">C</text>
      <text x="156" y="50" text-anchor="middle">G</text>
      <text x="192" y="50" text-anchor="middle" font-weight="700" fill="#1e3a8a">G</text>
      <text x="228" y="50" text-anchor="middle">T</text>
      <text x="264" y="50" text-anchor="middle">G</text>
      <text x="300" y="50" text-anchor="middle">C</text>
      <text x="336" y="50" text-anchor="middle">A</text>
    </g>
    <line x1="180" y1="60" x2="204" y2="60" stroke="#1e3a8a" stroke-width="2"/>
    <text x="192" y="74" font-family="Inter, sans-serif" font-size="9" font-weight="700" fill="#1e3a8a" text-anchor="middle">position</text>

    <g>
      <!-- 18 REF reads compact display + 2 ALT at the position with low quality, on the same strand, near read ends -->
      <line x1="20" y1="92" x2="364" y2="92" stroke="#c4c1b6" stroke-width="0.6"/>
      <rect x="184" y="84" width="16" height="14" fill="#2d7a3e"/>
      <text x="192" y="95" text-anchor="middle" fill="#ffffff" font-weight="700">G</text>
      <text x="370" y="95" font-family="Inter, sans-serif" font-size="9" fill="#525252">▶</text>

      <line x1="20" y1="106" x2="364" y2="106" stroke="#c4c1b6" stroke-width="0.6"/>
      <rect x="184" y="98" width="16" height="14" fill="#2d7a3e"/>
      <text x="192" y="109" text-anchor="middle" fill="#ffffff" font-weight="700">G</text>
      <text x="-2"  y="109" font-family="Inter, sans-serif" font-size="9" fill="#525252">◀</text>

      <line x1="20" y1="120" x2="364" y2="120" stroke="#c4c1b6" stroke-width="0.6"/>
      <rect x="184" y="112" width="16" height="14" fill="#2d7a3e"/>
      <text x="192" y="123" text-anchor="middle" fill="#ffffff" font-weight="700">G</text>
      <text x="370" y="123" font-family="Inter, sans-serif" font-size="9" fill="#525252">▶</text>

      <line x1="20" y1="134" x2="364" y2="134" stroke="#c4c1b6" stroke-width="0.6"/>
      <rect x="184" y="126" width="16" height="14" fill="#2d7a3e"/>
      <text x="192" y="137" text-anchor="middle" fill="#ffffff" font-weight="700">G</text>
      <text x="-2"  y="137" font-family="Inter, sans-serif" font-size="9" fill="#525252">◀</text>

      <!-- A "noise" alt read at low quality and read END -->
      <line x1="20" y1="148" x2="208" y2="148" stroke="#dc2626" stroke-width="0.8" stroke-dasharray="2 1"/>
      <rect x="184" y="140" width="16" height="14" fill="#dc2626" opacity="0.95"/>
      <text x="192" y="151" text-anchor="middle" fill="#ffffff" font-weight="700">A</text>
      <text x="214" y="151" font-family="JetBrains Mono, monospace" font-size="9" fill="#dc2626" font-weight="700">end · Q12</text>
      <text x="370" y="151" font-family="Inter, sans-serif" font-size="9" fill="#525252">▶</text>

      <line x1="20" y1="162" x2="364" y2="162" stroke="#c4c1b6" stroke-width="0.6"/>
      <rect x="184" y="154" width="16" height="14" fill="#2d7a3e"/>
      <text x="192" y="165" text-anchor="middle" fill="#ffffff" font-weight="700">G</text>
      <text x="370" y="165" font-family="Inter, sans-serif" font-size="9" fill="#525252">▶</text>

      <!-- another "noise" alt read at low quality and same strand -->
      <line x1="20" y1="176" x2="208" y2="176" stroke="#dc2626" stroke-width="0.8" stroke-dasharray="2 1"/>
      <rect x="184" y="168" width="16" height="14" fill="#dc2626" opacity="0.95"/>
      <text x="192" y="179" text-anchor="middle" fill="#ffffff" font-weight="700">A</text>
      <text x="214" y="179" font-family="JetBrains Mono, monospace" font-size="9" fill="#dc2626" font-weight="700">end · Q9</text>
      <text x="370" y="179" font-family="Inter, sans-serif" font-size="9" fill="#525252">▶</text>

      <line x1="20" y1="190" x2="364" y2="190" stroke="#c4c1b6" stroke-width="0.6"/>
      <rect x="184" y="182" width="16" height="14" fill="#2d7a3e"/>
      <text x="192" y="193" text-anchor="middle" fill="#ffffff" font-weight="700">G</text>
      <text x="370" y="193" font-family="Inter, sans-serif" font-size="9" fill="#525252">▶</text>

      <line x1="20" y1="204" x2="364" y2="204" stroke="#c4c1b6" stroke-width="0.6"/>
      <rect x="184" y="196" width="16" height="14" fill="#2d7a3e"/>
      <text x="192" y="207" text-anchor="middle" fill="#ffffff" font-weight="700">G</text>
      <text x="-2"  y="207" font-family="Inter, sans-serif" font-size="9" fill="#525252">◀</text>

      <line x1="20" y1="218" x2="364" y2="218" stroke="#c4c1b6" stroke-width="0.6"/>
      <text x="192" y="222" text-anchor="middle" font-family="Inter, sans-serif" font-size="9" fill="#8a8a85" font-style="italic">… 10 more reads, all REF, mixed strand …</text>
    </g>

    <g transform="translate(0, 244)">
      <rect x="0" y="0" width="360" height="38" rx="4" fill="#f4f3ee" stroke="#e5e3dc" stroke-width="1"/>
      <text x="8" y="14" font-family="Inter, sans-serif" font-size="9" font-weight="700" fill="#1e3a8a" letter-spacing="0.06em">PILEUP</text>
      <text x="180" y="29" font-family="JetBrains Mono, monospace" font-size="11" fill="#0a0a0a" text-anchor="middle">.,.,A.,A.,.,.,.,.,.</text>
    </g>

    <g transform="translate(0, 296)">
      <rect x="0" y="0" width="360" height="180" rx="4" fill="#ffffff" stroke="#b45309" stroke-width="1.5"/>
      <text x="12" y="20" font-family="Inter, sans-serif" font-size="10" font-weight="700" fill="#b45309" letter-spacing="0.08em">SUMMARY</text>
      <g font-family="JetBrains Mono, monospace" font-size="11" fill="#0a0a0a">
        <text x="12" y="44">DP    =  20</text>
        <text x="12" y="62">AD    =  18, 2  (REF, ALT)</text>
        <text x="12" y="80">VAF   =  0.10</text>
        <text x="12" y="98">⟨Q_alt⟩ = 10  (very low)</text>
        <text x="12" y="116" fill="#dc2626">strand: 0/2 ALT (fwd only)</text>
      </g>
      <line x1="12" y1="128" x2="348" y2="128" stroke="#e5e3dc" stroke-width="1"/>
      <text x="12" y="146" font-family="Inter, sans-serif" font-size="10" fill="#525252">Inferred genotype</text>
      <text x="240" y="146" font-family="JetBrains Mono, monospace" font-size="14" font-weight="700" fill="#dc2626">0/0</text>
      <text x="12" y="166" font-family="Inter, sans-serif" font-size="10" fill="#525252">FILTER  StrandBias · LowQualAlt</text>
    </g>
  </g>

  <!-- Bottom legend -->
  <g transform="translate(60, 580)">
    <text x="0" y="0" font-family="Inter, sans-serif" font-size="10" font-weight="700" fill="#1e3a8a" letter-spacing="0.06em">LEGEND</text>
    <rect x="62" y="-10" width="14" height="12" fill="#2d7a3e"/>
    <text x="82" y="0" font-family="Inter, sans-serif" font-size="10" fill="#525252">REF base</text>
    <rect x="152" y="-10" width="14" height="12" fill="#b45309"/>
    <text x="172" y="0" font-family="Inter, sans-serif" font-size="10" fill="#525252">true ALT (Q ≥ 30)</text>
    <rect x="282" y="-10" width="14" height="12" fill="#c4342c"/>
    <text x="302" y="0" font-family="Inter, sans-serif" font-size="10" fill="#525252">hom-alt support</text>
    <rect x="412" y="-10" width="14" height="12" fill="#dc2626" opacity="0.95"/>
    <text x="432" y="0" font-family="Inter, sans-serif" font-size="10" fill="#525252">low-Q ALT (suspect)</text>
    <text x="612" y="0" font-family="Inter, sans-serif" font-size="10" fill="#525252">▶ fwd strand  ·  ◀ rev strand</text>
  </g>
</svg>
