<svg xmlns="http://www.w3.org/2000/svg" viewBox="0 0 720 480" role="img" aria-labelledby="t d">
  <title id="t">Eukaryotic cell — organelles that matter for information flow</title>
  <desc id="d">Schematic of a eukaryotic cell. Labeled organelles: plasma membrane (double line), nucleus with nuclear pores, several mitochondria with cristae, rough endoplasmic reticulum with ribosomes, Golgi apparatus as stacked curves, and free ribosomes in the cytoplasm.</desc>

  <defs>
    <marker id="arrow-muted" viewBox="0 0 10 10" refX="9" refY="5" markerWidth="5" markerHeight="5" orient="auto-start-reverse">
      <path d="M 0 0 L 10 5 L 0 10 z" fill="#525252"/>
    </marker>
  </defs>

  <!-- Plasma membrane: outer double line, rounded-blob shape -->
  <g fill="#f4f3ee" stroke="#0a0a0a">
    <path d="M 64 240
             C 64 130, 180 62, 360 56
             C 540 50, 656 138, 656 246
             C 656 346, 540 424, 360 424
             C 190 424, 64 352, 64 240 Z"
          stroke-width="2.5"/>
  </g>
  <g fill="none" stroke="#525252" stroke-width="1">
    <!-- inner membrane offset -->
    <path d="M 72 240
             C 72 136, 186 70, 360 64
             C 536 58, 648 142, 648 246
             C 648 342, 536 416, 360 416
             C 194 416, 72 348, 72 240 Z"/>
  </g>

  <!-- Nucleus -->
  <g>
    <ellipse cx="290" cy="220" rx="110" ry="85" fill="#ffffff" stroke="#0a0a0a" stroke-width="2.5"/>
    <!-- Nuclear envelope inner line -->
    <ellipse cx="290" cy="220" rx="104" ry="79" fill="none" stroke="#525252" stroke-width="1"/>
    <!-- Nuclear pores: small gaps as tiny notches -->
    <g fill="#fcfcfa" stroke="#0a0a0a" stroke-width="1">
      <rect x="286" y="131" width="8" height="4" rx="1"/>
      <rect x="363" y="156" width="4" height="8" rx="1"/>
      <rect x="395" y="215" width="4" height="8" rx="1"/>
      <rect x="363" y="275" width="4" height="8" rx="1"/>
      <rect x="286" y="302" width="8" height="4" rx="1"/>
      <rect x="216" y="275" width="4" height="8" rx="1"/>
      <rect x="183" y="215" width="4" height="8" rx="1"/>
      <rect x="216" y="156" width="4" height="8" rx="1"/>
    </g>
    <!-- Nucleolus hint -->
    <ellipse cx="302" cy="232" rx="24" ry="16" fill="#ebeae3" stroke="#c4c1b6" stroke-width="1"/>
  </g>

  <!-- Mitochondria (4 scattered) -->
  <g>
    <g transform="translate(156 118) rotate(-12)">
      <ellipse cx="0" cy="0" rx="34" ry="14" fill="#ffffff" stroke="#0a0a0a" stroke-width="2"/>
      <g stroke="#525252" stroke-width="1" fill="none">
        <path d="M -26 -4 Q -20 4 -14 -4 Q -8 4 -2 -4 Q 4 4 10 -4 Q 16 4 22 -4"/>
        <path d="M -26 4 Q -20 -4 -14 4 Q -8 -4 -2 4 Q 4 -4 10 4 Q 16 -4 22 4"/>
      </g>
    </g>

    <g transform="translate(540 148) rotate(18)">
      <ellipse cx="0" cy="0" rx="40" ry="16" fill="#ffffff" stroke="#0a0a0a" stroke-width="2"/>
      <g stroke="#525252" stroke-width="1" fill="none">
        <path d="M -32 -5 Q -24 5 -16 -5 Q -8 5 0 -5 Q 8 5 16 -5 Q 24 5 32 -5"/>
        <path d="M -32 5 Q -24 -5 -16 5 Q -8 -5 0 5 Q 8 -5 16 5 Q 24 -5 32 5"/>
      </g>
    </g>

    <g transform="translate(170 368) rotate(8)">
      <ellipse cx="0" cy="0" rx="36" ry="14" fill="#ffffff" stroke="#0a0a0a" stroke-width="2"/>
      <g stroke="#525252" stroke-width="1" fill="none">
        <path d="M -28 -4 Q -22 4 -16 -4 Q -10 4 -4 -4 Q 2 4 8 -4 Q 14 4 20 -4"/>
        <path d="M -28 4 Q -22 -4 -16 4 Q -10 -4 -4 4 Q 2 -4 8 4 Q 14 -4 20 4"/>
      </g>
    </g>

    <g transform="translate(562 348) rotate(-10)">
      <ellipse cx="0" cy="0" rx="32" ry="13" fill="#ffffff" stroke="#0a0a0a" stroke-width="2"/>
      <g stroke="#525252" stroke-width="1" fill="none">
        <path d="M -24 -4 Q -18 4 -12 -4 Q -6 4 0 -4 Q 6 4 12 -4 Q 18 4 24 -4"/>
        <path d="M -24 4 Q -18 -4 -12 4 Q -6 -4 0 4 Q 6 -4 12 4 Q 18 -4 24 4"/>
      </g>
    </g>

    <g transform="translate(400 98) rotate(25)">
      <ellipse cx="0" cy="0" rx="28" ry="11" fill="#ffffff" stroke="#0a0a0a" stroke-width="2"/>
      <g stroke="#525252" stroke-width="1" fill="none">
        <path d="M -22 -3 Q -16 3 -10 -3 Q -4 3 2 -3 Q 8 3 14 -3 Q 20 3 26 -3"/>
      </g>
    </g>
  </g>

  <!-- Rough ER: folded ribbon to the right of the nucleus -->
  <g>
    <path d="M 430 196
             C 470 184, 512 206, 488 232
             C 472 248, 508 272, 544 260
             C 568 252, 576 226, 556 212"
          fill="none" stroke="#0a0a0a" stroke-width="1.5"/>
    <path d="M 430 210
             C 470 200, 506 218, 484 240
             C 468 256, 506 282, 540 272
             C 560 266, 568 246, 552 234"
          fill="none" stroke="#0a0a0a" stroke-width="1.5"/>
    <!-- Ribosomes on ER (small filled circles) -->
    <g fill="#0a0a0a">
      <circle cx="446" cy="194" r="2.5"/>
      <circle cx="470" cy="188" r="2.5"/>
      <circle cx="492" cy="198" r="2.5"/>
      <circle cx="510" cy="222" r="2.5"/>
      <circle cx="480" cy="246" r="2.5"/>
      <circle cx="516" cy="268" r="2.5"/>
      <circle cx="542" cy="260" r="2.5"/>
      <circle cx="556" cy="218" r="2.5"/>
    </g>
  </g>

  <!-- Golgi apparatus: stacked parallel curves, lower right -->
  <g transform="translate(420 340)">
    <g fill="none" stroke="#0a0a0a" stroke-width="1.5">
      <path d="M -40 -18 C -24 -28, 24 -28, 40 -18"/>
      <path d="M -44 -8  C -26 -18, 26 -18, 44 -8"/>
      <path d="M -46 2   C -26 -8,  26 -8,  46 2"/>
      <path d="M -44 12  C -26 2,   26 2,   44 12"/>
      <path d="M -40 22  C -24 12,  24 12,  40 22"/>
    </g>
  </g>

  <!-- Free ribosomes scattered in cytoplasm -->
  <g fill="#0a0a0a">
    <circle cx="240" cy="100" r="2.5"/>
    <circle cx="116" cy="220" r="2.5"/>
    <circle cx="108" cy="290" r="2.5"/>
    <circle cx="240" cy="400" r="2.5"/>
    <circle cx="340" cy="380" r="2.5"/>
    <circle cx="600" cy="290" r="2.5"/>
    <circle cx="616" cy="226" r="2.5"/>
    <circle cx="360" cy="100" r="2.5"/>
  </g>

  <!-- Labels with leader lines -->
  <g font-family="Inter, sans-serif" font-size="12" fill="#0a0a0a">
    <!-- Nucleus label -->
    <line x1="340" y1="220" x2="386" y2="220" stroke="#525252" stroke-width="0.75"/>
    <text x="300" y="222" font-weight="600" text-anchor="middle">Nucleus</text>

    <!-- Plasma membrane label -->
    <line x1="55" y1="240" x2="84" y2="240" stroke="#525252" stroke-width="0.75"/>
    <text x="50" y="236" font-weight="600" text-anchor="end">Plasma</text>
    <text x="50" y="250" font-weight="600" text-anchor="end">membrane</text>

    <!-- Mitochondrion label -->
    <line x1="190" y1="112" x2="208" y2="98" stroke="#525252" stroke-width="0.75"/>
    <text x="212" y="96" font-weight="600">Mitochondrion</text>
    <text x="212" y="110" font-size="10" fill="#525252">(own genome, ~16.5 kb)</text>

    <!-- Rough ER label -->
    <line x1="564" y1="220" x2="596" y2="212" stroke="#525252" stroke-width="0.75"/>
    <text x="600" y="210" font-weight="600">Rough ER</text>
    <text x="600" y="224" font-size="10" fill="#525252">protein folding</text>

    <!-- Golgi label -->
    <line x1="468" y1="340" x2="504" y2="340" stroke="#525252" stroke-width="0.75"/>
    <text x="512" y="338" font-weight="600">Golgi</text>
    <text x="512" y="352" font-size="10" fill="#525252">modification, trafficking</text>

    <!-- Free ribosomes label -->
    <line x1="120" y1="290" x2="148" y2="296" stroke="#525252" stroke-width="0.75"/>
    <text x="24" y="300" font-weight="600">Ribosomes</text>
    <text x="24" y="314" font-size="10" fill="#525252">(CPU: mRNA → protein)</text>
  </g>
</svg>
