<svg xmlns="http://www.w3.org/2000/svg" viewBox="0 0 860 470" role="img" aria-labelledby="t d">
  <title id="t">DNA double helix — schematic and flat ladder</title>
  <desc id="d">Left: a schematic double helix with two antiparallel sugar-phosphate backbones wound around each other and horizontal base pairs as rungs. Right: the same eight base pairs drawn as a flat ladder, with base letters explicit and hydrogen-bond dots showing two bonds for A–T and three for G–C.</desc>

  <defs>
    <marker id="arrow-accent" viewBox="0 0 10 10" refX="9" refY="5" markerWidth="6" markerHeight="6" orient="auto-start-reverse">
      <path d="M 0 0 L 10 5 L 0 10 z" fill="#1e3a8a"/>
    </marker>
  </defs>

  <!-- Panel titles -->
  <g font-family="Inter, sans-serif" font-size="11" font-weight="600" fill="#8a8a85" letter-spacing="0.12em">
    <text x="60" y="34">HELIX (SCHEMATIC)</text>
    <text x="500" y="34">FLAT LADDER</text>
  </g>

  <!-- ───────── Left panel: helix ───────── -->
  <!-- Centerline at x=200; helical radius 40; vertical from y=60 to y=380 -->
  <!-- Two backbones: sine-ish curves, opposite phases -->

  <!-- Backbone 1: starts at top-left, winds down. -->
  <path d="M 200 60
           Q 240 80 240 100
           Q 240 120 160 140
           Q 160 160 200 180
           Q 240 200 240 220
           Q 240 240 160 260
           Q 160 280 200 300
           Q 240 320 240 340
           L 240 360"
        fill="none" stroke="#1e3a8a" stroke-width="2.75" stroke-linecap="round"/>

  <!-- Backbone 2: opposite phase -->
  <path d="M 200 60
           Q 160 80 160 100
           Q 160 120 240 140
           Q 240 160 200 180
           Q 160 200 160 220
           Q 160 240 240 260
           Q 240 280 200 300
           Q 160 320 160 340
           L 160 360"
        fill="none" stroke="#1e3a8a" stroke-width="2.75" stroke-linecap="round" opacity="0.55"/>

  <!-- Base pair rungs (horizontal lines at regular intervals) -->
  <g stroke="#525252" stroke-width="1.5">
    <line x1="175" y1="100" x2="225" y2="100"/>
    <line x1="180" y1="140" x2="220" y2="140"/>
    <line x1="175" y1="180" x2="225" y2="180"/>
    <line x1="180" y1="220" x2="220" y2="220"/>
    <line x1="175" y1="260" x2="225" y2="260"/>
    <line x1="180" y1="300" x2="220" y2="300"/>
    <line x1="175" y1="340" x2="225" y2="340"/>
  </g>

  <!-- Directional end labels on helix -->
  <g font-family="Inter, sans-serif" font-size="11" fill="#525252" text-anchor="middle">
    <text x="200" y="52">5'</text>
    <text x="240" y="376">3'</text>
    <text x="160" y="376">5'</text>
  </g>

  <text x="200" y="400" font-family="Inter, sans-serif" font-size="10" fill="#8a8a85" text-anchor="middle">~10.5 bp per turn · 3.4 Å rise per base</text>

  <!-- ───────── Right panel: flat ladder ───────── -->
  <!-- x=500 to x=820, with backbones at x=560 and x=760 -->
  <!-- 8 rungs vertically spaced 34 px apart, starting y=80 -->

  <g>
    <!-- Backbones (vertical) -->
    <line x1="560" y1="60" x2="560" y2="368" stroke="#1e3a8a" stroke-width="2.75"/>
    <line x1="760" y1="60" x2="760" y2="368" stroke="#1e3a8a" stroke-width="2.75" opacity="0.55"/>

    <!-- 5'/3' markers + directional arrows -->
    <g font-family="Inter, sans-serif" font-size="11" font-weight="600" fill="#525252">
      <text x="560" y="54" text-anchor="middle">5'</text>
      <text x="560" y="384" text-anchor="middle">3'</text>
      <text x="760" y="54" text-anchor="middle">3'</text>
      <text x="760" y="384" text-anchor="middle">5'</text>
    </g>

    <!-- tiny directional arrows on each backbone -->
    <g stroke="#1e3a8a" stroke-width="1.25" fill="none">
      <line x1="560" y1="72" x2="560" y2="82" marker-end="url(#arrow-accent)"/>
      <line x1="760" y1="354" x2="760" y2="344" marker-end="url(#arrow-accent)"/>
    </g>
  </g>

  <!-- Base pair rungs -->
  <!-- Sequence (top to bottom on left strand, 5'→3'): G A T T A C A G -->
  <!-- Complement (right strand, 3'→5', which is what we read top-to-bottom on the right): C T A A T G T C -->

  <g font-family="JetBrains Mono, monospace" font-size="16" font-weight="500" text-anchor="middle">
    <!-- Row helper: one rung per row -->
    <!-- y positions: 96, 130, 164, 198, 232, 266, 300, 334 -->

    <!-- Row 1: G–C (3 bonds) -->
    <g>
      <text x="572" y="100" fill="#b45309">G</text>
      <text x="748" y="100" fill="#2d7a3e">C</text>
      <g fill="#525252">
        <circle cx="640" cy="96" r="2"/>
        <circle cx="660" cy="96" r="2"/>
        <circle cx="680" cy="96" r="2"/>
      </g>
    </g>
    <!-- Row 2: A–T (2 bonds) -->
    <g>
      <text x="572" y="134" fill="#c4342c">A</text>
      <text x="748" y="134" fill="#0d7377">T</text>
      <g fill="#525252">
        <circle cx="650" cy="130" r="2"/>
        <circle cx="670" cy="130" r="2"/>
      </g>
    </g>
    <!-- Row 3: T–A (2) -->
    <g>
      <text x="572" y="168" fill="#0d7377">T</text>
      <text x="748" y="168" fill="#c4342c">A</text>
      <g fill="#525252">
        <circle cx="650" cy="164" r="2"/>
        <circle cx="670" cy="164" r="2"/>
      </g>
    </g>
    <!-- Row 4: T–A (2) -->
    <g>
      <text x="572" y="202" fill="#0d7377">T</text>
      <text x="748" y="202" fill="#c4342c">A</text>
      <g fill="#525252">
        <circle cx="650" cy="198" r="2"/>
        <circle cx="670" cy="198" r="2"/>
      </g>
    </g>
    <!-- Row 5: A–T (2) -->
    <g>
      <text x="572" y="236" fill="#c4342c">A</text>
      <text x="748" y="236" fill="#0d7377">T</text>
      <g fill="#525252">
        <circle cx="650" cy="232" r="2"/>
        <circle cx="670" cy="232" r="2"/>
      </g>
    </g>
    <!-- Row 6: C–G (3) -->
    <g>
      <text x="572" y="270" fill="#2d7a3e">C</text>
      <text x="748" y="270" fill="#b45309">G</text>
      <g fill="#525252">
        <circle cx="640" cy="266" r="2"/>
        <circle cx="660" cy="266" r="2"/>
        <circle cx="680" cy="266" r="2"/>
      </g>
    </g>
    <!-- Row 7: A–T (2) -->
    <g>
      <text x="572" y="304" fill="#c4342c">A</text>
      <text x="748" y="304" fill="#0d7377">T</text>
      <g fill="#525252">
        <circle cx="650" cy="300" r="2"/>
        <circle cx="670" cy="300" r="2"/>
      </g>
    </g>
    <!-- Row 8: G–C (3) -->
    <g>
      <text x="572" y="338" fill="#b45309">G</text>
      <text x="748" y="338" fill="#2d7a3e">C</text>
      <g fill="#525252">
        <circle cx="640" cy="334" r="2"/>
        <circle cx="660" cy="334" r="2"/>
        <circle cx="680" cy="334" r="2"/>
      </g>
    </g>
  </g>

  <!-- Caption strip below both panels. Extra vertical space keeps the
       legend clear of the bottom 5'/3' labels at y=384. -->
  <g font-family="Inter, sans-serif" font-size="10" fill="#525252">
    <g fill="#525252">
      <circle cx="510" cy="434" r="2"/>
      <circle cx="518" cy="434" r="2"/>
    </g>
    <text x="526" y="438">A–T: 2 H-bonds</text>

    <g fill="#525252">
      <circle cx="636" cy="434" r="2"/>
      <circle cx="644" cy="434" r="2"/>
      <circle cx="652" cy="434" r="2"/>
    </g>
    <text x="660" y="438">G–C: 3 H-bonds</text>
  </g>

  <text x="430" y="458" font-family="Inter, sans-serif" font-size="10" fill="#8a8a85" text-anchor="middle">antiparallel strands: one 5'→3', the other 3'→5'</text>
</svg>
