<svg xmlns="http://www.w3.org/2000/svg" viewBox="0 0 860 520" role="img" aria-labelledby="t d">
  <title id="t">Sanger chain-termination sequencing</title>
  <desc id="d">Top: DNA polymerase extends a primer along a template using normal dNTPs. A fluorescently labeled ddNTP (lacking a 3'-OH) incorporates and terminates the chain. Bottom: the reaction produces a ladder of fragments of every possible length. Capillary electrophoresis separates them by size and a laser reads each fluorescently labeled terminal base, giving the sequence from shortest fragment upward.</desc>

  <defs>
    <marker id="arrow-accent" viewBox="0 0 10 10" refX="9" refY="5" markerWidth="7" markerHeight="7" orient="auto-start-reverse">
      <path d="M 0 0 L 10 5 L 0 10 z" fill="#1e3a8a"/>
    </marker>
    <marker id="arrow-muted" viewBox="0 0 10 10" refX="9" refY="5" markerWidth="5" markerHeight="5" orient="auto-start-reverse">
      <path d="M 0 0 L 10 5 L 0 10 z" fill="#525252"/>
    </marker>
  </defs>

  <!-- ═════ TOP PANEL: biochemistry ═════ -->
  <text x="40" y="30" font-family="Inter, sans-serif" font-size="11" font-weight="600" fill="#8a8a85" letter-spacing="0.12em">STEP 1 — CHAIN TERMINATION</text>

  <!-- Template strand (top) — reads 3' to 5' left to right -->
  <g font-family="JetBrains Mono, monospace" font-size="14" fill="#0a0a0a">
    <text x="40" y="72" font-family="Inter, sans-serif" font-size="11" fill="#525252" font-weight="600">Template</text>
    <text x="110" y="72" font-family="Inter, sans-serif" font-size="11" fill="#8a8a85">3'</text>
    <line x1="120" y1="68" x2="640" y2="68" stroke="#525252" stroke-width="1"/>
    <text x="650" y="72" font-family="Inter, sans-serif" font-size="11" fill="#8a8a85">5'</text>

    <text x="132" y="90">T</text>
    <text x="152" y="90">A</text>
    <text x="172" y="90">C</text>
    <text x="192" y="90">G</text>
    <text x="212" y="90">T</text>
    <text x="232" y="90">C</text>
    <text x="252" y="90">A</text>
    <text x="272" y="90">G</text>
    <text x="292" y="90">A</text>
    <text x="312" y="90">T</text>
    <text x="332" y="90">C</text>
    <text x="352" y="90">G</text>
    <text x="372" y="90">A</text>
    <text x="392" y="90">T</text>
    <text x="412" y="90">C</text>
    <text x="432" y="90">G</text>
    <text x="452" y="90" fill="#8a8a85">.</text>
    <text x="472" y="90" fill="#8a8a85">.</text>
    <text x="492" y="90" fill="#8a8a85">.</text>
  </g>

  <!-- Hydrogen-bond hint lines between template and nascent strand -->
  <g stroke="#8a8a85" stroke-width="0.75" stroke-dasharray="1.5 2">
    <line x1="136" y1="98" x2="136" y2="114"/>
    <line x1="156" y1="98" x2="156" y2="114"/>
    <line x1="176" y1="98" x2="176" y2="114"/>
    <line x1="196" y1="98" x2="196" y2="114"/>
    <line x1="216" y1="98" x2="216" y2="114"/>
    <line x1="236" y1="98" x2="236" y2="114"/>
    <line x1="256" y1="98" x2="256" y2="114"/>
    <line x1="276" y1="98" x2="276" y2="114"/>
  </g>

  <!-- Primer + nascent strand (bottom) — reads 5' to 3' left to right -->
  <g font-family="JetBrains Mono, monospace" font-size="14">
    <text x="40" y="132" font-family="Inter, sans-serif" font-size="11" fill="#525252" font-weight="600">Nascent</text>
    <text x="110" y="132" font-family="Inter, sans-serif" font-size="11" fill="#8a8a85">5'</text>

    <!-- primer is bases 1-4 (muted); synthesised bases are 5-8 -->
    <g fill="#525252">
      <text x="132" y="128">A</text>
      <text x="152" y="128">T</text>
      <text x="172" y="128">G</text>
      <text x="192" y="128">C</text>
    </g>
    <g>
      <text x="212" y="128" fill="#c4342c">A</text>
      <text x="232" y="128" fill="#b45309">G</text>
      <text x="252" y="128" fill="#0d7377">T</text>
      <text x="272" y="128" fill="#2d7a3e">C</text>
    </g>

    <!-- ddNTP (incorporated, terminal) — highlighted box around it -->
    <rect x="266" y="116" width="18" height="18" fill="none" stroke="#1e3a8a" stroke-width="1.5" rx="2"/>
    <text x="275" y="148" font-family="Inter, sans-serif" font-size="9" fill="#1e3a8a" font-weight="600" text-anchor="middle">ddC ★</text>

    <line x1="120" y1="122" x2="298" y2="122" stroke="#525252" stroke-width="1"/>
  </g>

  <!-- Labels for primer region -->
  <g stroke="#525252" stroke-width="0.75" fill="none">
    <path d="M 132 156 L 132 164 L 200 164 L 200 156"/>
  </g>
  <text x="166" y="178" font-family="Inter, sans-serif" font-size="10" fill="#525252" text-anchor="middle">primer</text>

  <g stroke="#525252" stroke-width="0.75" fill="none">
    <path d="M 212 156 L 212 164 L 284 164 L 284 156"/>
  </g>
  <text x="248" y="178" font-family="Inter, sans-serif" font-size="10" fill="#525252" text-anchor="middle">synthesised (dNTPs)</text>

  <!-- Polymerase pill sitting on the growing end -->
  <g>
    <rect x="316" y="104" width="44" height="36" rx="8" fill="#1e3a8a" opacity="0.9"/>
    <text x="338" y="118" font-family="Inter, sans-serif" font-size="10" font-weight="600" fill="#ffffff" text-anchor="middle">DNA</text>
    <text x="338" y="132" font-family="Inter, sans-serif" font-size="10" font-weight="600" fill="#ffffff" text-anchor="middle">pol</text>
  </g>

  <!-- Incoming dNTPs floating above -->
  <g font-family="Inter, sans-serif" font-size="10" fill="#0a0a0a">
    <rect x="440" y="114" width="22" height="14" fill="#c4342c" opacity="0.2" stroke="#c4342c" stroke-width="1"/>
    <text x="451" y="125" text-anchor="middle" fill="#c4342c" font-weight="600">dA</text>
    <rect x="470" y="106" width="22" height="14" fill="#0d7377" opacity="0.2" stroke="#0d7377" stroke-width="1"/>
    <text x="481" y="117" text-anchor="middle" fill="#0d7377" font-weight="600">dT</text>
    <rect x="500" y="118" width="22" height="14" fill="#b45309" opacity="0.2" stroke="#b45309" stroke-width="1"/>
    <text x="511" y="129" text-anchor="middle" fill="#b45309" font-weight="600">dG</text>
    <rect x="530" y="108" width="22" height="14" fill="#2d7a3e" opacity="0.2" stroke="#2d7a3e" stroke-width="1"/>
    <text x="541" y="119" text-anchor="middle" fill="#2d7a3e" font-weight="600">dC</text>
  </g>

  <!-- Small amount of ddNTPs (starred) -->
  <g font-family="Inter, sans-serif" font-size="10" fill="#0a0a0a">
    <rect x="580" y="114" width="26" height="14" fill="#1e3a8a" opacity="0.2" stroke="#1e3a8a" stroke-width="1.5"/>
    <text x="593" y="125" text-anchor="middle" fill="#1e3a8a" font-weight="600">ddC★</text>
  </g>
  <text x="593" y="146" font-family="Inter, sans-serif" font-size="9" fill="#8a8a85" text-anchor="middle">small fraction</text>

  <!-- Callout: no 3'-OH -->
  <g transform="translate(620 100)">
    <rect x="0" y="0" width="210" height="78" rx="6" fill="#eef2ff" stroke="#1e3a8a" stroke-width="1"/>
    <text x="12" y="18" font-family="Inter, sans-serif" font-size="10" font-weight="600" fill="#1e3a8a" letter-spacing="0.08em">WHY TERMINATION</text>
    <text x="12" y="38" font-family="Inter, sans-serif" font-size="11" fill="#0a0a0a">ddNTP lacks the 3'-OH that</text>
    <text x="12" y="52" font-family="Inter, sans-serif" font-size="11" fill="#0a0a0a">the next nucleotide would</text>
    <text x="12" y="66" font-family="Inter, sans-serif" font-size="11" fill="#0a0a0a">attach to — chain cannot extend.</text>
  </g>

  <!-- Arrow from terminated strand to callout -->
  <line x1="296" y1="140" x2="620" y2="116" stroke="#1e3a8a" stroke-width="1" fill="none" marker-end="url(#arrow-accent)"/>

  <!-- Divider -->
  <line x1="40" y1="220" x2="820" y2="220" stroke="#e5e3dc" stroke-width="1"/>

  <!-- Down arrow between panels -->
  <text x="430" y="252" font-family="Inter, sans-serif" font-size="11" font-weight="600" fill="#1e3a8a" text-anchor="middle">Many fragments → capillary electrophoresis → fluorescent ladder</text>
  <line x1="430" y1="258" x2="430" y2="280" stroke="#1e3a8a" stroke-width="1.5" fill="none" marker-end="url(#arrow-accent)"/>

  <!-- ═════ BOTTOM PANEL: gel / capillary ladder ═════ -->
  <text x="40" y="312" font-family="Inter, sans-serif" font-size="11" font-weight="600" fill="#8a8a85" letter-spacing="0.12em">STEP 2 — READ THE LADDER</text>

  <!-- Capillary track (a gray column on the left) -->
  <g>
    <rect x="80" y="332" width="60" height="180" fill="#f4f3ee" stroke="#c4c1b6" stroke-width="1"/>
    <text x="110" y="326" font-family="Inter, sans-serif" font-size="10" fill="#8a8a85" text-anchor="middle">capillary</text>
    <text x="110" y="324" font-family="Inter, sans-serif" font-size="10" fill="#8a8a85" text-anchor="middle"></text>
    <!-- Arrow at bottom: shorter fragments migrate faster -->
    <line x1="110" y1="528" x2="110" y2="540" stroke="#525252" stroke-width="1" marker-end="url(#arrow-muted)"/>
    <text x="110" y="554" font-family="Inter, sans-serif" font-size="9" fill="#525252" text-anchor="middle">+ current (shorter first)</text>
  </g>

  <!-- Fragment bands inside capillary, from short (bottom) to long (top). Each is a colored bar. -->
  <!-- y positions from bottom up: 494, 472, 450, 428, 406, 384, 362, 340 -->
  <g stroke-width="0" rx="1">
    <rect x="82" y="492" width="56" height="7" fill="#c4342c"/>   <!-- A -->
    <rect x="82" y="472" width="56" height="7" fill="#b45309"/>   <!-- G -->
    <rect x="82" y="452" width="56" height="7" fill="#0d7377"/>   <!-- T -->
    <rect x="82" y="432" width="56" height="7" fill="#2d7a3e"/>   <!-- C -->
    <rect x="82" y="412" width="56" height="7" fill="#c4342c"/>   <!-- A -->
    <rect x="82" y="392" width="56" height="7" fill="#b45309"/>   <!-- G -->
    <rect x="82" y="372" width="56" height="7" fill="#0d7377"/>   <!-- T -->
    <rect x="82" y="352" width="56" height="7" fill="#2d7a3e"/>   <!-- C -->
  </g>

  <!-- Laser detector at bottom -->
  <g>
    <rect x="60" y="514" width="100" height="14" rx="2" fill="#1e3a8a" opacity="0.8"/>
    <text x="110" y="524" font-family="Inter, sans-serif" font-size="10" font-weight="600" fill="#ffffff" text-anchor="middle">laser + detector</text>
  </g>

  <!-- Electropherogram on the right -->
  <g transform="translate(200 332)">
    <text x="0" y="-6" font-family="Inter, sans-serif" font-size="11" font-weight="600" fill="#8a8a85" letter-spacing="0.08em">ELECTROPHEROGRAM (4 CHANNELS)</text>

    <!-- Axes -->
    <g stroke="#c4c1b6" stroke-width="1" fill="none">
      <line x1="0" y1="10" x2="0" y2="180"/>
      <line x1="0" y1="180" x2="540" y2="180"/>
    </g>
    <text x="-6" y="184" font-family="Inter, sans-serif" font-size="9" fill="#8a8a85" text-anchor="end">0</text>
    <text x="-6" y="18" font-family="Inter, sans-serif" font-size="9" fill="#8a8a85" text-anchor="end">intensity</text>
    <text x="540" y="198" font-family="Inter, sans-serif" font-size="9" fill="#8a8a85" text-anchor="end">→ time (fragment length)</text>

    <!-- Bases called across the bottom -->
    <g font-family="JetBrains Mono, monospace" font-size="13" font-weight="500" text-anchor="middle">
      <text x="30"  y="200" fill="#c4342c">A</text>
      <text x="90"  y="200" fill="#b45309">G</text>
      <text x="150" y="200" fill="#0d7377">T</text>
      <text x="210" y="200" fill="#2d7a3e">C</text>
      <text x="270" y="200" fill="#c4342c">A</text>
      <text x="330" y="200" fill="#b45309">G</text>
      <text x="390" y="200" fill="#0d7377">T</text>
      <text x="450" y="200" fill="#2d7a3e">C</text>
    </g>

    <!-- Peaks (Gaussian-ish bumps) — each its own color, one per position -->
    <g fill="none" stroke-width="1.5" stroke-linejoin="round">
      <path d="M 0 180 Q 10 180 15 150 Q 25 110 30 100 Q 35 110 45 150 Q 50 180 60 180" stroke="#c4342c"/>
      <path d="M 60 180 Q 70 180 75 148 Q 85 106 90 96 Q 95 106 105 148 Q 110 180 120 180" stroke="#b45309"/>
      <path d="M 120 180 Q 130 180 135 150 Q 145 112 150 100 Q 155 112 165 150 Q 170 180 180 180" stroke="#0d7377"/>
      <path d="M 180 180 Q 190 180 195 148 Q 205 108 210 96 Q 215 108 225 148 Q 230 180 240 180" stroke="#2d7a3e"/>
      <path d="M 240 180 Q 250 180 255 150 Q 265 112 270 100 Q 275 112 285 150 Q 290 180 300 180" stroke="#c4342c"/>
      <path d="M 300 180 Q 310 180 315 152 Q 325 110 330 98  Q 335 110 345 152 Q 350 180 360 180" stroke="#b45309"/>
      <path d="M 360 180 Q 370 180 375 154 Q 385 120 390 108 Q 395 120 405 154 Q 410 180 420 180" stroke="#0d7377"/>
      <path d="M 420 180 Q 430 180 435 160 Q 445 132 450 122 Q 455 132 465 160 Q 470 180 480 180" stroke="#2d7a3e"/>
    </g>
  </g>

  <text x="430" y="506" font-family="Inter, sans-serif" font-size="10" fill="#525252" font-style="italic" text-anchor="middle">Read: 5' — A G T C A G T C — 3'</text>
</svg>
