<svg xmlns="http://www.w3.org/2000/svg" viewBox="0 0 720 520" role="img" aria-labelledby="t d">
  <title id="t">PacBio zero-mode waveguide</title>
  <desc id="d">Cross-section of a zero-mode waveguide (ZMW). A sub-wavelength hole (~70 nm) is drilled through a thin metal film deposited on a glass substrate. Laser illumination from below cannot propagate through the hole, but an evanescent field leaks ~20–30 nm upward, illuminating only the bottom of the hole where a single DNA polymerase is fixed. Nucleotides in the bulk solution above are invisible; only the nucleotide being incorporated by the polymerase enters the illuminated zone and fluoresces.</desc>

  <defs>
    <marker id="arrow-accent" viewBox="0 0 10 10" refX="9" refY="5" markerWidth="6" markerHeight="6" orient="auto-start-reverse">
      <path d="M 0 0 L 10 5 L 0 10 z" fill="#1e3a8a"/>
    </marker>
    <pattern id="glass-hatch" patternUnits="userSpaceOnUse" width="6" height="6" patternTransform="rotate(45)">
      <line x1="0" y1="0" x2="0" y2="6" stroke="#c4c1b6" stroke-width="0.75"/>
    </pattern>
    <pattern id="metal-hatch" patternUnits="userSpaceOnUse" width="4" height="4" patternTransform="rotate(90)">
      <line x1="0" y1="0" x2="0" y2="4" stroke="#0a0a0a" stroke-width="0.5"/>
    </pattern>
  </defs>

  <!-- ═════ Bulk solution (top) — "dark zone" ═════ -->
  <rect x="40" y="40" width="520" height="140" fill="#fcfcfa"/>
  <text x="48" y="60" font-family="Inter, sans-serif" font-size="11" font-weight="600" fill="#8a8a85" letter-spacing="0.12em">BULK SOLUTION — DARK ZONE</text>
  <text x="48" y="74" font-family="Inter, sans-serif" font-size="10" fill="#525252">Nucleotides here never enter the illuminated zone, so their fluorescence is not detected.</text>

  <!-- Scattered nucleotides in bulk (faded) -->
  <g opacity="0.45">
    <g fill="#c4342c"><circle cx="100" cy="120" r="4"/><circle cx="150" cy="90" r="4"/><circle cx="420" cy="110" r="4"/></g>
    <g fill="#0d7377"><circle cx="200" cy="140" r="4"/><circle cx="480" cy="140" r="4"/></g>
    <g fill="#b45309"><circle cx="240" cy="100" r="4"/><circle cx="370" cy="160" r="4"/></g>
    <g fill="#2d7a3e"><circle cx="130" cy="160" r="4"/><circle cx="320" cy="130" r="4"/><circle cx="510" cy="100" r="4"/></g>
  </g>

  <!-- ═════ Metal film with ZMW hole ═════ -->
  <!-- Metal film: y=180 to y=440, with hole at x=280-360 -->
  <g>
    <!-- Left block of metal -->
    <rect x="40" y="180" width="240" height="260" fill="url(#metal-hatch)"/>
    <rect x="40" y="180" width="240" height="260" fill="#0a0a0a" opacity="0.7"/>
    <!-- Right block of metal -->
    <rect x="360" y="180" width="200" height="260" fill="url(#metal-hatch)"/>
    <rect x="360" y="180" width="200" height="260" fill="#0a0a0a" opacity="0.7"/>
  </g>
  <!-- Metal film top edge -->
  <g stroke="#525252" stroke-width="1.25" fill="none">
    <line x1="40" y1="180" x2="280" y2="180"/>
    <line x1="360" y1="180" x2="560" y2="180"/>
  </g>
  <!-- Hole walls -->
  <g stroke="#8a8a85" stroke-width="1" fill="none">
    <line x1="280" y1="180" x2="280" y2="440"/>
    <line x1="360" y1="180" x2="360" y2="440"/>
  </g>

  <!-- ═════ Evanescent field (stepped rectangles, decreasing opacity upward) ═════ -->
  <!-- Inside the hole, from y=440 going up to y=350 (illuminated zone ~30 nm) -->
  <g>
    <rect x="280" y="420" width="80" height="20" fill="#eef2ff" opacity="1.0"/>
    <rect x="280" y="404" width="80" height="16" fill="#eef2ff" opacity="0.7"/>
    <rect x="280" y="390" width="80" height="14" fill="#eef2ff" opacity="0.45"/>
    <rect x="280" y="376" width="80" height="14" fill="#eef2ff" opacity="0.25"/>
    <rect x="280" y="360" width="80" height="16" fill="#eef2ff" opacity="0.1"/>
  </g>

  <!-- ZMW hole label inside dim zone (upper part of hole) -->
  <text x="320" y="270" font-family="Inter, sans-serif" font-size="10" fill="#8a8a85" text-anchor="middle" font-style="italic">~70 nm Ø</text>
  <text x="320" y="300" font-family="Inter, sans-serif" font-size="9" fill="#8a8a85" text-anchor="middle">(dark above this)</text>

  <!-- ═════ Polymerase at the bottom of the hole ═════ -->
  <g>
    <rect x="292" y="416" width="56" height="20" rx="5" fill="#1e3a8a" opacity="0.95"/>
    <text x="320" y="430" font-family="Inter, sans-serif" font-size="10" font-weight="600" fill="#ffffff" text-anchor="middle">pol</text>
  </g>

  <!-- Fluorescent nucleotide being incorporated (glowing in illuminated zone) -->
  <g>
    <circle cx="320" cy="400" r="6" fill="#b45309"/>
    <circle cx="320" cy="400" r="10" fill="#b45309" opacity="0.25"/>
    <!-- Label sits inside the right metal block, so use white fill to stay readable. -->
    <text x="360" y="402" font-family="Inter, sans-serif" font-size="10" fill="#ffffff" font-weight="600">dG ★ incorporating</text>
  </g>

  <!-- DNA threading through polymerase (short segment) -->
  <g stroke="#0a0a0a" stroke-width="1.25" fill="none">
    <line x1="320" y1="436" x2="320" y2="460"/>
  </g>
  <g font-family="JetBrains Mono, monospace" font-size="10" fill="#0a0a0a" text-anchor="middle">
    <text x="320" y="472">…DNA…</text>
  </g>

  <!-- ═════ Glass substrate at bottom ═════ -->
  <rect x="40" y="440" width="520" height="60" fill="url(#glass-hatch)"/>
  <rect x="40" y="440" width="520" height="60" fill="#f4f3ee" opacity="0.6"/>
  <line x1="40" y1="440" x2="560" y2="440" stroke="#525252" stroke-width="1.25"/>
  <text x="48" y="490" font-family="Inter, sans-serif" font-size="10" fill="#525252">glass substrate</text>

  <!-- Laser arrow from below -->
  <g stroke="#1e3a8a" stroke-width="1.5" fill="none">
    <line x1="320" y1="510" x2="320" y2="455" marker-end="url(#arrow-accent)"/>
  </g>
  <!-- wavy line representing wavelength of light to the left of arrow -->
  <g stroke="#1e3a8a" stroke-width="1" fill="none">
    <path d="M 296 510 Q 290 504 284 510 Q 290 498 296 504 Q 290 494 284 498 Q 290 486 296 492"/>
  </g>
  <text x="276" y="496" font-family="Inter, sans-serif" font-size="10" fill="#1e3a8a" font-weight="600" text-anchor="end">λ ≈ 500 nm</text>
  <text x="276" y="510" font-family="Inter, sans-serif" font-size="10" fill="#8a8a85" text-anchor="end">laser</text>

  <!-- ═════ Labels with leader lines ═════ -->
  <!-- Labels that land over the dark metal film use light fills so they
       stay readable against the dark background. -->
  <g font-family="Inter, sans-serif" font-size="12">

    <!-- ZMW label (sits inside right metal — white fill) -->
    <line x1="362" y1="260" x2="400" y2="260" stroke="#c4c1b6" stroke-width="0.75"/>
    <text x="406" y="254" font-weight="600" fill="#ffffff">Zero-mode</text>
    <text x="406" y="268" font-weight="600" fill="#ffffff">waveguide (ZMW)</text>
    <text x="406" y="284" font-size="10" fill="#c4c1b6">~70 nm hole through the metal</text>

    <!-- Metal film label (already inside metal — white) -->
    <line x1="200" y1="240" x2="180" y2="260" stroke="#ffffff" stroke-width="0.75"/>
    <text x="170" y="264" font-weight="600" fill="#ffffff">Metal film</text>
    <text x="170" y="278" font-size="10" fill="#c4c1b6">(~100 nm aluminium)</text>

    <!-- Evanescent field label (inside right metal — light text) -->
    <line x1="362" y1="388" x2="400" y2="388" stroke="#c4c1b6" stroke-width="0.75"/>
    <text x="406" y="382" font-weight="600" fill="#eef2ff">Evanescent field</text>
    <text x="406" y="398" font-size="10" fill="#c4c1b6">decays ~20–30 nm into the hole</text>

    <!-- Polymerase label (inside right metal — white) -->
    <line x1="350" y1="428" x2="400" y2="428" stroke="#c4c1b6" stroke-width="0.75"/>
    <text x="406" y="424" font-weight="600" fill="#ffffff">Polymerase</text>
    <text x="406" y="438" font-size="10" fill="#c4c1b6">one per ZMW, fixed</text>
  </g>

  <!-- ═════ Small inset: cutoff wavelength physics ═════ -->
  <g transform="translate(580 40)">
    <rect x="0" y="0" width="130" height="150" rx="6" fill="#eef2ff" stroke="#1e3a8a" stroke-width="1"/>
    <text x="10" y="18" font-family="Inter, sans-serif" font-size="10" font-weight="600" fill="#1e3a8a" letter-spacing="0.08em">CUTOFF PHYSICS</text>

    <text x="10" y="40" font-family="Inter, sans-serif" font-size="11" fill="#0a0a0a">Light at λ ≈ 500 nm</text>
    <text x="10" y="54" font-family="Inter, sans-serif" font-size="11" fill="#0a0a0a">cannot propagate</text>
    <text x="10" y="68" font-family="Inter, sans-serif" font-size="11" fill="#0a0a0a">through a ~70 nm hole.</text>

    <text x="10" y="96" font-family="Inter, sans-serif" font-size="11" fill="#0a0a0a">The field leaks in only</text>
    <text x="10" y="110" font-family="Inter, sans-serif" font-size="11" fill="#0a0a0a">as an evanescent wave,</text>
    <text x="10" y="124" font-family="Inter, sans-serif" font-size="11" fill="#0a0a0a">decaying exponentially</text>
    <text x="10" y="138" font-family="Inter, sans-serif" font-size="11" fill="#0a0a0a">with depth.</text>
  </g>

  <!-- Zoom indicator between inset and main diagram -->
  <text x="440" y="146" font-family="Inter, sans-serif" font-size="10" fill="#8a8a85" font-style="italic" text-anchor="middle">Only dNTPs in the evanescent zone are "seen" by the detector.</text>
</svg>
