<svg xmlns="http://www.w3.org/2000/svg" viewBox="0 0 980 400" role="img" aria-labelledby="t d">
  <title id="t">Nanopore sequencing — pore and squiggle</title>
  <desc id="d">Left: cross-section of a protein nanopore embedded in a lipid bilayer. A motor protein at the top ratchets single-stranded DNA through the pore. Five bases sit in the narrow constriction at once. A voltage is applied across the membrane, driving ions through the pore. Right: the ionic current trace (squiggle) in picoamps versus time. Each stepped level corresponds to a different 5-mer in the constriction. A vertical marker connects the current 5-mer inside the pore to its level on the trace.</desc>

  <defs>
    <marker id="arrow-accent" viewBox="0 0 10 10" refX="9" refY="5" markerWidth="6" markerHeight="6" orient="auto-start-reverse">
      <path d="M 0 0 L 10 5 L 0 10 z" fill="#1e3a8a"/>
    </marker>
    <marker id="arrow-muted" viewBox="0 0 10 10" refX="9" refY="5" markerWidth="5" markerHeight="5" orient="auto-start-reverse">
      <path d="M 0 0 L 10 5 L 0 10 z" fill="#525252"/>
    </marker>
  </defs>

  <!-- ═════ LEFT PANEL: pore cross-section ═════ -->
  <text x="30" y="32" font-family="Inter, sans-serif" font-size="11" font-weight="600" fill="#8a8a85" letter-spacing="0.12em">NANOPORE + DNA</text>

  <!-- Voltage labels -->
  <g font-family="Inter, sans-serif" font-size="10" fill="#525252">
    <text x="30" y="94">+V</text>
    <text x="30" y="280">0 V</text>
  </g>

  <!-- Membrane bilayer (lipid): two parallel lines with a notch for the pore -->
  <g stroke="#c4c1b6" stroke-width="1.5" fill="#ebeae3">
    <path d="M 40 184
             L 150 184
             L 160 174
             L 160 142
             L 220 142
             L 220 174
             L 230 184
             L 340 184
             L 340 206
             L 230 206
             L 220 216
             L 220 246
             L 160 246
             L 160 216
             L 150 206
             L 40 206 Z"/>
  </g>
  <!-- Membrane inner line -->
  <g stroke="#8a8a85" stroke-width="0.75" fill="none">
    <line x1="40" y1="193" x2="150" y2="193"/>
    <line x1="230" y1="193" x2="340" y2="193"/>
    <line x1="40" y1="197" x2="150" y2="197"/>
    <line x1="230" y1="197" x2="340" y2="197"/>
  </g>

  <!-- Pore throat (inner walls, narrow constriction at middle) -->
  <g stroke="#525252" stroke-width="1.25" fill="none">
    <path d="M 160 142 L 178 180 L 178 210 L 160 246"/>
    <path d="M 220 142 L 202 180 L 202 210 L 220 246"/>
  </g>

  <!-- Motor protein sitting on top of the pore -->
  <g>
    <rect x="164" y="116" width="52" height="24" rx="4" fill="#1e3a8a" opacity="0.9"/>
    <text x="190" y="132" font-family="Inter, sans-serif" font-size="10" font-weight="600" fill="#ffffff" text-anchor="middle">motor protein</text>
  </g>

  <!-- DNA strand threading through -->
  <g stroke="#0a0a0a" stroke-width="1.25" fill="none">
    <!-- upstream segment (above pore) -->
    <line x1="190" y1="66" x2="190" y2="116"/>
    <!-- inside pore -->
    <line x1="190" y1="140" x2="190" y2="246"/>
    <!-- downstream (below) -->
    <line x1="190" y1="246" x2="190" y2="340"/>
  </g>

  <!-- Upstream bases (queue entering) -->
  <g font-family="JetBrains Mono, monospace" font-size="11" font-weight="500" text-anchor="middle">
    <text x="190" y="54" fill="#b45309">G</text>
    <text x="190" y="68" fill="#c4342c">A</text>
    <text x="190" y="82" fill="#0d7377">T</text>
    <text x="190" y="96" fill="#0d7377">T</text>
    <text x="190" y="110" fill="#c4342c">A</text>
  </g>

  <!-- 5 bases in the constriction — highlighted -->
  <rect x="172" y="160" width="36" height="72" rx="4" fill="#eef2ff" stroke="#1e3a8a" stroke-width="1"/>
  <g font-family="JetBrains Mono, monospace" font-size="14" font-weight="600" text-anchor="middle">
    <text x="190" y="174" fill="#2d7a3e">C</text>
    <text x="190" y="188" fill="#c4342c">A</text>
    <text x="190" y="202" fill="#b45309">G</text>
    <text x="190" y="216" fill="#c4342c">A</text>
    <text x="190" y="230" fill="#0d7377">T</text>
  </g>
  <!-- constriction callout -->
  <text x="260" y="188" font-family="Inter, sans-serif" font-size="11" font-weight="600" fill="#1e3a8a">constriction</text>
  <text x="260" y="202" font-family="Inter, sans-serif" font-size="10" fill="#525252">5 bases block ions</text>
  <text x="260" y="216" font-family="Inter, sans-serif" font-size="10" fill="#525252">→ characteristic level</text>

  <!-- Downstream bases (exiting) -->
  <g font-family="JetBrains Mono, monospace" font-size="11" font-weight="500" text-anchor="middle">
    <text x="190" y="268" fill="#c4342c">A</text>
    <text x="190" y="282" fill="#2d7a3e">C</text>
    <text x="190" y="296" fill="#c4342c">A</text>
    <text x="190" y="310" fill="#b45309">G</text>
    <text x="190" y="324" fill="#0d7377">T</text>
  </g>

  <!-- Ion flow arrow (parallel to DNA, offset to the side, indicating ions squeezing past bases) -->
  <g stroke="#525252" stroke-width="1" fill="none" stroke-dasharray="2 3">
    <line x1="148" y1="150" x2="148" y2="240" marker-end="url(#arrow-muted)"/>
  </g>
  <text x="142" y="200" font-family="Inter, sans-serif" font-size="9" fill="#525252" text-anchor="end" transform="rotate(-90 142 200)">ion flow</text>

  <!-- DNA direction arrow (entering the pore from top) -->
  <g stroke="#0a0a0a" stroke-width="1" fill="none">
    <line x1="190" y1="46" x2="190" y2="56" marker-end="url(#arrow-muted)"/>
  </g>

  <!-- Base colour legend (bottom-left) -->
  <g font-family="JetBrains Mono, monospace" font-size="11" font-weight="600" text-anchor="middle">
    <text x="60" y="360" fill="#c4342c">A</text>
    <text x="86" y="360" fill="#0d7377">T</text>
    <text x="112" y="360" fill="#b45309">G</text>
    <text x="138" y="360" fill="#2d7a3e">C</text>
  </g>
  <text x="168" y="360" font-family="Inter, sans-serif" font-size="10" fill="#8a8a85">base colours</text>

  <!-- Divider between panels -->
  <line x1="380" y1="20" x2="380" y2="380" stroke="#e5e3dc" stroke-width="1"/>

  <!-- ═════ RIGHT PANEL: squiggle ═════ -->
  <text x="400" y="32" font-family="Inter, sans-serif" font-size="11" font-weight="600" fill="#8a8a85" letter-spacing="0.12em">IONIC CURRENT — SQUIGGLE</text>

  <!-- Plot area: x=440..940, y=60..300 -->
  <!-- y-axis: 60–120 pA; so 60pA at y=300, 120pA at y=60 (60 pA span over 240px, 4 px/pA) -->

  <g stroke="#c4c1b6" stroke-width="1" fill="none">
    <line x1="440" y1="60" x2="440" y2="300"/>
    <line x1="440" y1="300" x2="940" y2="300"/>
  </g>

  <!-- Gridlines at 60, 80, 100, 120 pA -->
  <g stroke="#e5e3dc" stroke-width="1" stroke-dasharray="2 3">
    <line x1="440" y1="60"  x2="940" y2="60"/>
    <line x1="440" y1="140" x2="940" y2="140"/>
    <line x1="440" y1="220" x2="940" y2="220"/>
  </g>

  <g font-family="JetBrains Mono, monospace" font-size="10" fill="#8a8a85" text-anchor="end">
    <text x="436" y="64">120</text>
    <text x="436" y="144">100</text>
    <text x="436" y="224">80</text>
    <text x="436" y="304">60</text>
  </g>
  <text x="424" y="40" font-family="Inter, sans-serif" font-size="10" fill="#525252" transform="rotate(-90 424 40)">current (pA)</text>
  <text x="940" y="322" font-family="Inter, sans-serif" font-size="10" fill="#525252" text-anchor="end">→ time</text>

  <!-- Stepped squiggle line: 8 levels, each 60 px wide -->
  <!-- k-mers and currents (arbitrary illustrative values):
       1. GATTA → 102 pA, y=132
       2. ATTAC → 88  pA, y=188
       3. TTACA → 72  pA, y=252
       4. TACAG → 110 pA, y=100
       5. ACAGA → 96  pA, y=156  (current position of pore ←)
       6. CAGAT → 82  pA, y=212
       7. AGATT →  ... future
       8. GATTA → ... future
  -->
  <path d="M 440 132
           L 500 132
           L 500 188
           L 560 188
           L 560 252
           L 620 252
           L 620 100
           L 680 100
           L 680 156
           L 740 156
           L 740 212
           L 800 212
           L 800 176
           L 860 176
           L 860 144
           L 920 144"
        fill="none" stroke="#1e3a8a" stroke-width="2" stroke-linejoin="round"/>

  <!-- k-mer labels under each step -->
  <g font-family="JetBrains Mono, monospace" font-size="10" fill="#525252" text-anchor="middle">
    <text x="470" y="316">GATTA</text>
    <text x="530" y="316">ATTAC</text>
    <text x="590" y="316">TTACA</text>
    <text x="650" y="316">TACAG</text>
    <text x="710" y="316" fill="#1e3a8a" font-weight="600">ACAGA</text>
    <text x="770" y="316">CAGAT</text>
    <text x="830" y="316">AGATT</text>
    <text x="890" y="316">GATTA</text>
  </g>

  <!-- Current-position marker connecting pore → squiggle -->
  <g stroke="#1e3a8a" stroke-width="1" stroke-dasharray="4 3" fill="none">
    <line x1="710" y1="60" x2="710" y2="300"/>
  </g>
  <!-- Little dot at current level -->
  <circle cx="710" cy="156" r="4" fill="#1e3a8a"/>
  <text x="716" y="148" font-family="Inter, sans-serif" font-size="10" font-weight="600" fill="#1e3a8a">now = 96 pA</text>

  <!-- Connecting arrow from pore constriction to marker start -->
  <g stroke="#1e3a8a" stroke-width="1" fill="none" stroke-dasharray="4 3">
    <path d="M 212 196 Q 450 196 680 156" marker-end="url(#arrow-accent)"/>
  </g>
  <text x="420" y="178" font-family="Inter, sans-serif" font-size="10" fill="#1e3a8a" font-weight="500">these 5 bases</text>
  <text x="420" y="192" font-family="Inter, sans-serif" font-size="10" fill="#1e3a8a" font-weight="500">produce this level</text>

  <!-- Teaching caption at bottom-right -->
  <text x="940" y="370" font-family="Inter, sans-serif" font-size="10" fill="#525252" font-style="italic" text-anchor="end">Each level ≈ one 5-mer. A homopolymer (AAAAA…) would make this trace flat.</text>
</svg>
