<svg xmlns="http://www.w3.org/2000/svg" viewBox="0 0 1200 720" width="1200" height="720" font-family="Inter, sans-serif">
  <defs>
    <style>text { font-family: Inter, sans-serif; } .mono { font-family: 'JetBrains Mono', monospace; font-size: 10px; }</style>
    <marker id="arr" viewBox="0 0 10 10" refX="9" refY="5" markerWidth="6" markerHeight="6" orient="auto-start-reverse">
      <path d="M0,0 L10,5 L0,10 z" fill="#525252"/>
    </marker>
  </defs>
  <rect width="1200" height="720" fill="#fafaf9" rx="6"/>
  <text x="600" y="28" text-anchor="middle" font-size="14" font-weight="600" fill="#111827">RNA-seq variants — multi-channel signal acquisition for transcription, translation, and binding</text>

  <!-- Left column: RNA-seq -->
  <g transform="translate(40,72)">
    <text x="0" y="0" font-size="11" font-weight="600" fill="#1d4ed8">CHANNEL 1 · BULK RNA-SEQ</text>

    <!-- Cell -->
    <g transform="translate(0,18)">
      <ellipse cx="80" cy="60" rx="80" ry="50" fill="#dbeafe" stroke="#1d4ed8"/>
      <text x="80" y="60" text-anchor="middle" font-size="11" fill="#1e3a8a">total RNA</text>
      <text x="80" y="76" text-anchor="middle" font-size="9" fill="#525252">all transcripts</text>
    </g>

    <!-- Library prep -->
    <g transform="translate(0,140)">
      <rect width="160" height="34" fill="#f5f5f4" stroke="#374151" rx="3"/>
      <text x="80" y="14" text-anchor="middle" font-size="10" font-weight="600" fill="#374151">poly(A) selection</text>
      <text x="80" y="26" text-anchor="middle" font-size="9" fill="#525252">~250-bp fragments</text>
    </g>

    <!-- Output mRNA -->
    <g transform="translate(0,196)">
      <text x="0" y="14" font-size="10" font-weight="600" fill="#525252">READS COVER WHOLE TRANSCRIPT</text>
    </g>

    <g transform="translate(0,216)">
      <!-- Transcript -->
      <rect x="0" y="20" width="160" height="10" fill="#bfdbfe" stroke="#1e3a8a"/>
      <text x="-2" y="28" text-anchor="end" font-size="8" class="mono" fill="#525252">5'</text>
      <text x="164" y="28" font-size="8" class="mono" fill="#525252">3'</text>
      <!-- Reads scattered -->
      <rect x="4"  y="6" width="20" height="6" fill="#1e3a8a" fill-opacity="0.6"/>
      <rect x="22" y="6" width="22" height="6" fill="#1e3a8a" fill-opacity="0.6"/>
      <rect x="48" y="6" width="20" height="6" fill="#1e3a8a" fill-opacity="0.6"/>
      <rect x="40" y="-4" width="22" height="6" fill="#1e3a8a" fill-opacity="0.6"/>
      <rect x="74" y="6" width="20" height="6" fill="#1e3a8a" fill-opacity="0.6"/>
      <rect x="98" y="-4" width="20" height="6" fill="#1e3a8a" fill-opacity="0.6"/>
      <rect x="118" y="6" width="22" height="6" fill="#1e3a8a" fill-opacity="0.6"/>
      <rect x="140" y="6" width="20" height="6" fill="#1e3a8a" fill-opacity="0.6"/>
    </g>

    <text x="80" y="282" text-anchor="middle" font-size="10" fill="#525252">→ transcript abundance</text>
    <text x="80" y="298" text-anchor="middle" font-size="9" class="mono" fill="#1e3a8a">TPM_g · counts_g</text>

    <!-- Tools -->
    <g transform="translate(0,318)">
      <rect width="160" height="40" fill="#fff" stroke="#a8a29e" rx="3"/>
      <text x="80" y="16" text-anchor="middle" font-size="9" font-weight="600" fill="#374151">Tools</text>
      <text x="80" y="30" text-anchor="middle" class="mono" fill="#525252">STAR, HISAT2, salmon</text>
    </g>
  </g>

  <!-- Middle column: Ribo-seq -->
  <g transform="translate(420,72)">
    <text x="0" y="0" font-size="11" font-weight="600" fill="#b45309">CHANNEL 2 · RIBO-SEQ</text>

    <!-- Cell + ribosomes -->
    <g transform="translate(0,18)">
      <ellipse cx="80" cy="60" rx="80" ry="50" fill="#fef3c7" stroke="#b45309"/>
      <text x="80" y="46" text-anchor="middle" font-size="11" fill="#92400e">translating</text>
      <text x="80" y="60" text-anchor="middle" font-size="11" fill="#92400e">ribosomes</text>
      <!-- ribosome dots on hypothetical mRNA line -->
      <line x1="20" y1="80" x2="140" y2="80" stroke="#525252" stroke-width="1"/>
      <circle cx="40" cy="80" r="6" fill="#b45309"/>
      <circle cx="70" cy="80" r="6" fill="#b45309"/>
      <circle cx="100" cy="80" r="6" fill="#b45309"/>
      <circle cx="130" cy="80" r="6" fill="#b45309"/>
    </g>

    <!-- Library prep -->
    <g transform="translate(0,140)">
      <rect width="160" height="34" fill="#f5f5f4" stroke="#374151" rx="3"/>
      <text x="80" y="14" text-anchor="middle" font-size="10" font-weight="600" fill="#374151">RNase digest</text>
      <text x="80" y="26" text-anchor="middle" font-size="9" fill="#525252">~28-nt footprints</text>
    </g>

    <!-- Output: ribo footprints -->
    <g transform="translate(0,196)">
      <text x="0" y="14" font-size="10" font-weight="600" fill="#525252">READS ENRICHED ON CDS ONLY</text>
    </g>

    <g transform="translate(0,216)">
      <!-- Transcript with CDS marked -->
      <rect x="0" y="20" width="20" height="10" fill="#fed7aa" stroke="#b45309"/>
      <rect x="20" y="20" width="120" height="10" fill="#fcd34d" stroke="#b45309"/>
      <rect x="140" y="20" width="20" height="10" fill="#fed7aa" stroke="#b45309"/>
      <text x="10" y="42" text-anchor="middle" font-size="8" fill="#525252">5'UTR</text>
      <text x="80" y="42" text-anchor="middle" font-size="8" font-weight="600" fill="#92400e">CDS</text>
      <text x="150" y="42" text-anchor="middle" font-size="8" fill="#525252">3'UTR</text>

      <!-- Footprints concentrated on CDS -->
      <rect x="22" y="6" width="14" height="6" fill="#b45309"/>
      <rect x="36" y="6" width="14" height="6" fill="#b45309"/>
      <rect x="58" y="6" width="14" height="6" fill="#b45309"/>
      <rect x="74" y="-4" width="14" height="6" fill="#b45309"/>
      <rect x="90" y="6" width="14" height="6" fill="#b45309"/>
      <rect x="108" y="-4" width="14" height="6" fill="#b45309"/>
      <rect x="124" y="6" width="14" height="6" fill="#b45309"/>
    </g>

    <text x="80" y="282" text-anchor="middle" font-size="10" fill="#525252">→ ribosome occupancy</text>
    <text x="80" y="298" text-anchor="middle" font-size="9" class="mono" fill="#92400e">TE_g = ribo / RNA</text>

    <!-- Tools -->
    <g transform="translate(0,318)">
      <rect width="160" height="40" fill="#fff" stroke="#a8a29e" rx="3"/>
      <text x="80" y="16" text-anchor="middle" font-size="9" font-weight="600" fill="#374151">Tools</text>
      <text x="80" y="30" text-anchor="middle" class="mono" fill="#525252">Plastid · RiboCode · xtail</text>
    </g>
  </g>

  <!-- Right column: CLIP-seq -->
  <g transform="translate(800,72)">
    <text x="0" y="0" font-size="11" font-weight="600" fill="#7c3aed">CHANNEL 3 · CLIP-SEQ</text>

    <!-- Cell + RBP -->
    <g transform="translate(0,18)">
      <ellipse cx="80" cy="60" rx="80" ry="50" fill="#ede9fe" stroke="#7c3aed"/>
      <text x="80" y="40" text-anchor="middle" font-size="11" fill="#5b21b6">RBP-mRNA</text>
      <text x="80" y="56" text-anchor="middle" font-size="11" fill="#5b21b6">complex</text>
      <!-- mRNA line + RBP -->
      <line x1="20" y1="80" x2="140" y2="80" stroke="#525252" stroke-width="1"/>
      <rect x="60" y="74" width="14" height="12" fill="#7c3aed"/>
      <rect x="100" y="74" width="14" height="12" fill="#7c3aed"/>
      <text x="80" y="100" text-anchor="middle" font-size="8" fill="#5b21b6">UV crosslink</text>
    </g>

    <!-- Library prep -->
    <g transform="translate(0,140)">
      <rect width="160" height="34" fill="#f5f5f4" stroke="#374151" rx="3"/>
      <text x="80" y="14" text-anchor="middle" font-size="10" font-weight="600" fill="#374151">IP for RBP</text>
      <text x="80" y="26" text-anchor="middle" font-size="9" fill="#525252">protected fragments</text>
    </g>

    <!-- Output: peaks at binding sites -->
    <g transform="translate(0,196)">
      <text x="0" y="14" font-size="10" font-weight="600" fill="#525252">READS PEAK AT RBP BINDING SITES</text>
    </g>

    <g transform="translate(0,216)">
      <rect x="0" y="20" width="160" height="10" fill="#ede9fe" stroke="#7c3aed"/>
      <text x="-2" y="28" text-anchor="end" font-size="8" class="mono" fill="#525252">5'</text>
      <text x="164" y="28" font-size="8" class="mono" fill="#525252">3'</text>
      <!-- Two clear peaks -->
      <rect x="50" y="-4" width="6" height="20" fill="#7c3aed"/>
      <rect x="56" y="-4" width="6" height="20" fill="#7c3aed"/>
      <rect x="62" y="-4" width="6" height="20" fill="#7c3aed"/>
      <rect x="100" y="-4" width="6" height="20" fill="#7c3aed"/>
      <rect x="106" y="-4" width="6" height="20" fill="#7c3aed"/>
      <rect x="112" y="-4" width="6" height="20" fill="#7c3aed"/>
    </g>

    <text x="80" y="282" text-anchor="middle" font-size="10" fill="#525252">→ binding site map</text>
    <text x="80" y="298" text-anchor="middle" font-size="9" class="mono" fill="#5b21b6">peaks per RBP</text>

    <!-- Tools -->
    <g transform="translate(0,318)">
      <rect width="160" height="40" fill="#fff" stroke="#a8a29e" rx="3"/>
      <text x="80" y="16" text-anchor="middle" font-size="9" font-weight="600" fill="#374151">Tools</text>
      <text x="80" y="30" text-anchor="middle" class="mono" fill="#525252">PureCLIP · omniCLIP</text>
    </g>
  </g>

  <!-- Bottom: Joint analysis = Translational Efficiency -->
  <g transform="translate(80,440)">
    <rect width="1040" height="170" fill="#fff" stroke="#374151" rx="6"/>
    <text x="20" y="26" font-size="12" font-weight="700" fill="#374151">JOINT ANALYSIS — derived quantities not visible from any single channel</text>

    <!-- TE computation -->
    <g transform="translate(40,50)">
      <rect width="280" height="100" fill="#fef3c7" stroke="#b45309" rx="4"/>
      <text x="140" y="20" text-anchor="middle" font-size="11" font-weight="600" fill="#92400e">Translational Efficiency</text>
      <text x="140" y="46" text-anchor="middle" font-size="14" class="mono" fill="#374151">TE_g = ribo_g / RNA_g</text>
      <text x="140" y="68" text-anchor="middle" font-size="9" fill="#525252">low TE = transcribed but poorly translated</text>
      <text x="140" y="82" text-anchor="middle" font-size="9" fill="#525252">e.g. uORF-regulated, secondary-structure</text>
      <text x="140" y="94" text-anchor="middle" font-size="9" fill="#525252">stalls, stress-response 5'-UTRs</text>
    </g>

    <!-- Multi-modal -->
    <g transform="translate(380,50)">
      <rect width="280" height="100" fill="#dbeafe" stroke="#1e3a8a" rx="4"/>
      <text x="140" y="20" text-anchor="middle" font-size="11" font-weight="600" fill="#1e3a8a">Multi-modal regulation map</text>
      <text x="140" y="40" text-anchor="middle" font-size="10" fill="#374151">RNA + ribo + CLIP per gene</text>
      <text x="140" y="56" text-anchor="middle" font-size="9" fill="#525252">→ which RBPs change TE?</text>
      <text x="140" y="70" text-anchor="middle" font-size="9" fill="#525252">→ which sites correlate with stalls?</text>
      <text x="140" y="84" text-anchor="middle" font-size="9" fill="#525252">→ which transcripts are translationally</text>
      <text x="140" y="96" text-anchor="middle" font-size="9" fill="#525252">silenced post-transcriptionally?</text>
    </g>

    <!-- Other variants -->
    <g transform="translate(720,50)">
      <rect width="280" height="100" fill="#dcfce7" stroke="#059669" rx="4"/>
      <text x="140" y="20" text-anchor="middle" font-size="11" font-weight="600" fill="#065f46">Related variants</text>
      <text x="140" y="38" text-anchor="middle" font-size="10" class="mono" fill="#374151">m⁶A-seq · MeRIP-seq</text>
      <text x="140" y="52" text-anchor="middle" font-size="10" class="mono" fill="#374151">CAGE · 5'-RACE (TSS map)</text>
      <text x="140" y="66" text-anchor="middle" font-size="10" class="mono" fill="#374151">QuantSeq · 3'-end seq</text>
      <text x="140" y="80" text-anchor="middle" font-size="10" class="mono" fill="#374151">NET-seq · GRO-seq · PRO-seq</text>
      <text x="140" y="94" text-anchor="middle" font-size="10" class="mono" fill="#374151">SLAM-seq · TimeLapse-seq</text>
    </g>
  </g>

  <text x="600" y="660" text-anchor="middle" font-size="10" fill="#525252">All variants share the bulk-RNA-seq downstream stack (alignment → counting → NB-DE) — what changes is the upstream library prep + biological interpretation.</text>
  <text x="600" y="680" text-anchor="middle" font-size="10" fill="#525252">Pattern: each new channel adds an independent measurement axis — the signal-processing analog of multi-sensor acquisition.</text>
  <text x="600" y="700" text-anchor="middle" font-size="9" font-style="italic" fill="#92400e">→ joint inference (TE, peak-correlation) extracts derived quantities not observable from any single channel alone.</text>
</svg>
