<svg xmlns="http://www.w3.org/2000/svg" viewBox="0 0 1200 500" role="img" aria-labelledby="t d">
  <title id="t">Illumina cluster — four-color intensity trace across 20 cycles</title>
  <desc id="d">Four overlaid line plots showing normalized fluorescence intensity (0 to 1.0) for the A, C, G, and T channels across 20 sequencing cycles for a single Illumina cluster. At each cycle one channel is dominant (~0.85-0.97); the other three sit at background levels (~0.05-0.25). On the right-hand cycles the background channels drift upward — the start of phasing / dephasing that degrades quality at the end of a read. The base call at each cycle is printed below the x-axis in the channel's colour. An annotation calls out the base call at cycle 13.</desc>

  <defs>
    <marker id="arrow-accent" viewBox="0 0 10 10" refX="9" refY="5" markerWidth="6" markerHeight="6" orient="auto-start-reverse">
      <path d="M 0 0 L 10 5 L 0 10 z" fill="#1e3a8a"/>
    </marker>
  </defs>

  <!-- Page background -->
  <rect x="0" y="0" width="1200" height="500" fill="#fafaf9"/>

  <!-- Section eyebrow -->
  <text x="80" y="42" font-family="Inter, sans-serif" font-size="11" font-weight="600" fill="#8a8a85" letter-spacing="0.12em">ILLUMINA CLUSTER — INTENSITY TRACE</text>
  <text x="80" y="62" font-family="Inter, sans-serif" font-size="13" font-weight="600" fill="#374151">Four fluorescence channels across 20 sequencing cycles</text>

  <!-- ═════ Plot frame ═════
       Plot area: x = 100 .. 1140 (width 1040), y = 100 .. 360 (height 260)
       20 cycles, step = 1040 / 19 ≈ 54.7368 px per cycle
       Intensity 0 at y=360, 1.0 at y=100 (260 px per unit)
  -->

  <!-- Gridlines (horizontal at 0.0, 0.25, 0.5, 0.75, 1.0) -->
  <g stroke="#e5e3dc" stroke-width="0.5" stroke-dasharray="2 3" fill="none">
    <line x1="100" y1="100" x2="1140" y2="100"/>
    <line x1="100" y1="165" x2="1140" y2="165"/>
    <line x1="100" y1="230" x2="1140" y2="230"/>
    <line x1="100" y1="295" x2="1140" y2="295"/>
  </g>

  <!-- Faint vertical cycle gridlines -->
  <g stroke="#eeece4" stroke-width="0.5" fill="none">
    <line x1="100"     y1="100" x2="100"     y2="360"/>
    <line x1="154.737" y1="100" x2="154.737" y2="360"/>
    <line x1="209.474" y1="100" x2="209.474" y2="360"/>
    <line x1="264.211" y1="100" x2="264.211" y2="360"/>
    <line x1="318.947" y1="100" x2="318.947" y2="360"/>
    <line x1="373.684" y1="100" x2="373.684" y2="360"/>
    <line x1="428.421" y1="100" x2="428.421" y2="360"/>
    <line x1="483.158" y1="100" x2="483.158" y2="360"/>
    <line x1="537.895" y1="100" x2="537.895" y2="360"/>
    <line x1="592.632" y1="100" x2="592.632" y2="360"/>
    <line x1="647.368" y1="100" x2="647.368" y2="360"/>
    <line x1="702.105" y1="100" x2="702.105" y2="360"/>
    <line x1="756.842" y1="100" x2="756.842" y2="360"/>
    <line x1="811.579" y1="100" x2="811.579" y2="360"/>
    <line x1="866.316" y1="100" x2="866.316" y2="360"/>
    <line x1="921.053" y1="100" x2="921.053" y2="360"/>
    <line x1="975.789" y1="100" x2="975.789" y2="360"/>
    <line x1="1030.526" y1="100" x2="1030.526" y2="360"/>
    <line x1="1085.263" y1="100" x2="1085.263" y2="360"/>
    <line x1="1140"    y1="100" x2="1140"    y2="360"/>
  </g>

  <!-- Axes -->
  <g stroke="#374151" stroke-width="1" fill="none">
    <line x1="100" y1="360" x2="1140" y2="360"/>
    <line x1="100" y1="100" x2="100"  y2="360"/>
  </g>

  <!-- Y-axis tick labels -->
  <g font-family="JetBrains Mono, monospace" font-size="10" fill="#525252" text-anchor="end">
    <text x="94" y="104">1.00</text>
    <text x="94" y="169">0.75</text>
    <text x="94" y="234">0.50</text>
    <text x="94" y="299">0.25</text>
    <text x="94" y="364">0.00</text>
  </g>

  <!-- Y-axis title -->
  <text transform="translate(48 230) rotate(-90)" font-family="Inter, sans-serif" font-size="11" fill="#374151" text-anchor="middle">normalized fluorescence intensity</text>

  <!-- X-axis tick labels (cycle numbers) -->
  <g font-family="JetBrains Mono, monospace" font-size="10" fill="#525252" text-anchor="middle">
    <text x="100"     y="378">1</text>
    <text x="154.737" y="378">2</text>
    <text x="209.474" y="378">3</text>
    <text x="264.211" y="378">4</text>
    <text x="318.947" y="378">5</text>
    <text x="373.684" y="378">6</text>
    <text x="428.421" y="378">7</text>
    <text x="483.158" y="378">8</text>
    <text x="537.895" y="378">9</text>
    <text x="592.632" y="378">10</text>
    <text x="647.368" y="378">11</text>
    <text x="702.105" y="378">12</text>
    <text x="756.842" y="378">13</text>
    <text x="811.579" y="378">14</text>
    <text x="866.316" y="378">15</text>
    <text x="921.053" y="378">16</text>
    <text x="975.789" y="378">17</text>
    <text x="1030.526" y="378">18</text>
    <text x="1085.263" y="378">19</text>
    <text x="1140"    y="378">20</text>
  </g>

  <!-- X-axis title -->
  <text x="620" y="478" font-family="Inter, sans-serif" font-size="11" fill="#374151" text-anchor="middle">sequencing cycle</text>

  <!-- ═════ Intensity traces ═════
       Sequence (calls): G A T C A G T C A T G C A G T C A T G A
       Cycle: 1 2 3 4 5 6 7 8 9 10 11 12 13 14 15 16 17 18 19 20
       For each cycle the dominant channel value is high (~0.85-0.97);
       the three background channels sit at ~0.05-0.22 with a small upward
       drift across the read (phasing).  Values picked deterministically
       so the trace looks irregular but plausible.

       Y mapping: y = 360 - intensity * 260
       Cycle X positions are the 20 gridline X values above.
  -->

  <!-- A channel (red, #c4342c)
       Calls at cycles: 2, 5, 9, 13, 17, 20 → dominant
       Intensities by cycle (1..20):
         0.18, 0.92, 0.10, 0.16, 0.95, 0.14, 0.09, 0.12, 0.90, 0.13,
         0.11, 0.15, 0.88, 0.18, 0.16, 0.20, 0.87, 0.22, 0.21, 0.93
       y = 360 - I*260
         313.2, 120.8, 334.0, 318.4, 113.0, 323.6, 336.6, 328.8, 126.0, 326.2,
         331.4, 321.0, 131.2, 313.2, 318.4, 308.0, 133.8, 302.8, 305.4, 118.2
  -->
  <path d="M 100,313.2
           L 154.737,120.8
           L 209.474,334.0
           L 264.211,318.4
           L 318.947,113.0
           L 373.684,323.6
           L 428.421,336.6
           L 483.158,328.8
           L 537.895,126.0
           L 592.632,326.2
           L 647.368,331.4
           L 702.105,321.0
           L 756.842,131.2
           L 811.579,313.2
           L 866.316,318.4
           L 921.053,308.0
           L 975.789,133.8
           L 1030.526,302.8
           L 1085.263,305.4
           L 1140,118.2"
        fill="none" stroke="#c4342c" stroke-width="2" stroke-linejoin="round" stroke-linecap="round"/>

  <!-- C channel (green, #2d7a3e)
       Calls at cycles: 4, 8, 12, 16 → dominant
       Intensities (1..20):
         0.12, 0.14, 0.09, 0.89, 0.11, 0.16, 0.13, 0.93, 0.15, 0.12,
         0.17, 0.91, 0.14, 0.16, 0.19, 0.86, 0.18, 0.21, 0.20, 0.22
       y = 360 - I*260
         328.8, 323.6, 336.6, 128.6, 331.4, 318.4, 326.2, 118.2, 321.0, 328.8,
         315.8, 123.4, 323.6, 318.4, 310.6, 136.4, 313.2, 305.4, 308.0, 302.8
  -->
  <path d="M 100,328.8
           L 154.737,323.6
           L 209.474,336.6
           L 264.211,128.6
           L 318.947,331.4
           L 373.684,318.4
           L 428.421,326.2
           L 483.158,118.2
           L 537.895,321.0
           L 592.632,328.8
           L 647.368,315.8
           L 702.105,123.4
           L 756.842,323.6
           L 811.579,318.4
           L 866.316,310.6
           L 921.053,136.4
           L 975.789,313.2
           L 1030.526,305.4
           L 1085.263,308.0
           L 1140,302.8"
        fill="none" stroke="#2d7a3e" stroke-width="2" stroke-linejoin="round" stroke-linecap="round"/>

  <!-- G channel (amber, #b45309)
       Calls at cycles: 1, 6, 11, 14, 19 → dominant
       Intensities (1..20):
         0.94, 0.16, 0.13, 0.10, 0.12, 0.91, 0.14, 0.11, 0.17, 0.15,
         0.93, 0.16, 0.19, 0.86, 0.18, 0.21, 0.20, 0.22, 0.89, 0.24
       y = 360 - I*260
         115.6, 318.4, 326.2, 334.0, 328.8, 123.4, 323.6, 331.4, 315.8, 321.0,
         118.2, 318.4, 310.6, 136.4, 313.2, 305.4, 308.0, 302.8, 128.6, 297.6
  -->
  <path d="M 100,115.6
           L 154.737,318.4
           L 209.474,326.2
           L 264.211,334.0
           L 318.947,328.8
           L 373.684,123.4
           L 428.421,323.6
           L 483.158,331.4
           L 537.895,315.8
           L 592.632,321.0
           L 647.368,118.2
           L 702.105,318.4
           L 756.842,310.6
           L 811.579,136.4
           L 866.316,313.2
           L 921.053,305.4
           L 975.789,308.0
           L 1030.526,302.8
           L 1085.263,128.6
           L 1140,297.6"
        fill="none" stroke="#b45309" stroke-width="2" stroke-linejoin="round" stroke-linecap="round"/>

  <!-- T channel (teal, #0d7377)
       Calls at cycles: 3, 7, 10, 15, 18 → dominant
       Intensities (1..20):
         0.15, 0.11, 0.92, 0.13, 0.10, 0.18, 0.90, 0.15, 0.14, 0.88,
         0.16, 0.13, 0.21, 0.19, 0.85, 0.22, 0.20, 0.84, 0.23, 0.25
       y = 360 - I*260
         321.0, 331.4, 120.8, 326.2, 334.0, 313.2, 126.0, 321.0, 323.6, 131.2,
         318.4, 326.2, 305.4, 310.6, 139.0, 302.8, 308.0, 141.6, 300.2, 295.0
  -->
  <path d="M 100,321.0
           L 154.737,331.4
           L 209.474,120.8
           L 264.211,326.2
           L 318.947,334.0
           L 373.684,313.2
           L 428.421,126.0
           L 483.158,321.0
           L 537.895,323.6
           L 592.632,131.2
           L 647.368,318.4
           L 702.105,326.2
           L 756.842,305.4
           L 811.579,310.6
           L 866.316,139.0
           L 921.053,302.8
           L 975.789,308.0
           L 1030.526,141.6
           L 1085.263,300.2
           L 1140,295.0"
        fill="none" stroke="#0d7377" stroke-width="2" stroke-linejoin="round" stroke-linecap="round"/>

  <!-- ═════ Base sequence row below x-axis ═════ -->
  <!-- Faint band background to anchor the row -->
  <rect x="100" y="392" width="1040" height="22" fill="#f4f3ee" stroke="#e5e3dc" stroke-width="0.5"/>
  <text x="80" y="407" font-family="Inter, sans-serif" font-size="10" fill="#525252" text-anchor="end">call</text>
  <g font-family="JetBrains Mono, monospace" font-size="14" font-weight="600" text-anchor="middle">
    <text x="100"     y="408" fill="#b45309">G</text>
    <text x="154.737" y="408" fill="#c4342c">A</text>
    <text x="209.474" y="408" fill="#0d7377">T</text>
    <text x="264.211" y="408" fill="#2d7a3e">C</text>
    <text x="318.947" y="408" fill="#c4342c">A</text>
    <text x="373.684" y="408" fill="#b45309">G</text>
    <text x="428.421" y="408" fill="#0d7377">T</text>
    <text x="483.158" y="408" fill="#2d7a3e">C</text>
    <text x="537.895" y="408" fill="#c4342c">A</text>
    <text x="592.632" y="408" fill="#0d7377">T</text>
    <text x="647.368" y="408" fill="#b45309">G</text>
    <text x="702.105" y="408" fill="#2d7a3e">C</text>
    <text x="756.842" y="408" fill="#c4342c">A</text>
    <text x="811.579" y="408" fill="#b45309">G</text>
    <text x="866.316" y="408" fill="#0d7377">T</text>
    <text x="921.053" y="408" fill="#2d7a3e">C</text>
    <text x="975.789" y="408" fill="#c4342c">A</text>
    <text x="1030.526" y="408" fill="#0d7377">T</text>
    <text x="1085.263" y="408" fill="#b45309">G</text>
    <text x="1140"    y="408" fill="#c4342c">A</text>
  </g>

  <!-- ═════ Channel legend (top-right of plot, inside frame) ═════ -->
  <g transform="translate(880 108)">
    <rect x="-8" y="-14" width="252" height="44" rx="4" fill="#ffffff" stroke="#e5e3dc" stroke-width="0.75"/>
    <g font-family="Inter, sans-serif" font-size="11" fill="#374151">
      <!-- A -->
      <line x1="0"   y1="0" x2="18" y2="0" stroke="#c4342c" stroke-width="2"/>
      <text x="24"  y="3" font-family="JetBrains Mono, monospace" font-weight="600" fill="#c4342c">A</text>
      <!-- C -->
      <line x1="60"  y1="0" x2="78" y2="0" stroke="#2d7a3e" stroke-width="2"/>
      <text x="84"  y="3" font-family="JetBrains Mono, monospace" font-weight="600" fill="#2d7a3e">C</text>
      <!-- G -->
      <line x1="120" y1="0" x2="138" y2="0" stroke="#b45309" stroke-width="2"/>
      <text x="144" y="3" font-family="JetBrains Mono, monospace" font-weight="600" fill="#b45309">G</text>
      <!-- T -->
      <line x1="180" y1="0" x2="198" y2="0" stroke="#0d7377" stroke-width="2"/>
      <text x="204" y="3" font-family="JetBrains Mono, monospace" font-weight="600" fill="#0d7377">T</text>
      <text x="0" y="20" font-size="9" fill="#8a8a85">channel = fluor on incorporated base</text>
    </g>
  </g>

  <!-- ═════ Callout for cycle 13 (base call = A) ═════
       Cycle 13 x = 756.842, A intensity at cycle 13 = 0.88 → y = 131.2
  -->
  <!-- highlight ring on the dominant point -->
  <circle cx="756.842" cy="131.2" r="6" fill="none" stroke="#1e3a8a" stroke-width="1.25"/>
  <circle cx="756.842" cy="131.2" r="2.5" fill="#1e3a8a"/>

  <!-- Callout box -->
  <g transform="translate(580 60)">
    <rect x="0" y="0" width="170" height="40" rx="4" fill="#eef2ff" stroke="#1e3a8a" stroke-width="1"/>
    <text x="10" y="16" font-family="Inter, sans-serif" font-size="11" font-weight="600" fill="#1e3a8a">Call: A (this cycle)</text>
    <text x="10" y="31" font-family="Inter, sans-serif" font-size="10" fill="#374151">dominant channel = A, I ≈ 0.88</text>
  </g>
  <!-- Leader from callout to the marked point -->
  <g stroke="#1e3a8a" stroke-width="1" fill="none" stroke-dasharray="3 3">
    <path d="M 750 100 C 754 110 754 118 754.6 126" marker-end="url(#arrow-accent)"/>
  </g>

  <!-- ═════ Phasing annotation on the right tail ═════ -->
  <!-- Bracket spanning cycles 16-20 (x = 921.053 .. 1140) below intensity 0.30 region -->
  <g stroke="#8a8a85" stroke-width="0.75" fill="none">
    <path d="M 921.053 286 L 921.053 282 L 1140 282 L 1140 286"/>
  </g>
  <text x="1030.526" y="276" font-family="Inter, sans-serif" font-size="10" font-style="italic" fill="#525252" text-anchor="middle">background channels drift up</text>

  <!-- Side note for phasing -->
  <g transform="translate(960 200)">
    <rect x="0" y="0" width="172" height="42" rx="4" fill="#fff8e6" stroke="#b45309" stroke-width="0.75" opacity="0.9"/>
    <text x="10" y="16" font-family="Inter, sans-serif" font-size="11" font-weight="600" fill="#b45309">phasing / dephasing</text>
    <text x="10" y="30" font-family="Inter, sans-serif" font-size="9" fill="#525252">cluster molecules fall out of</text>
    <text x="10" y="40" font-family="Inter, sans-serif" font-size="9" fill="#525252">sync — background rises, Q drops</text>
  </g>

  <!-- Footer note -->
  <text x="80" y="498" font-family="Inter, sans-serif" font-size="9" font-style="italic" fill="#8a8a85">One cluster. Each cycle = one incorporation step; the dominant channel is the base call. Phasing accumulates as cycles progress, eroding the signal-to-background ratio.</text>
</svg>
