<svg xmlns="http://www.w3.org/2000/svg" viewBox="0 0 1200 600" role="img" aria-labelledby="title desc">
  <title id="title">Phred score encoding</title>
  <desc id="desc">Two-panel figure. Top: a conversion table mapping Phred Q-score to error probability, ASCII value, and character with cells coloured red to green. Bottom: a 25-base example read with each base in a colour-coded box, its ASCII quality character underneath, and a per-position Q-score bar chart.</desc>

  <rect x="0" y="0" width="1200" height="600" fill="#fafaf9"/>

  <!-- ============================================================ -->
  <!-- PANEL A: Q-score conversion table                              -->
  <!-- ============================================================ -->
  <g>
    <text x="60" y="40" font-family="Inter, sans-serif" font-size="13" font-weight="700" fill="#1e3a8a" letter-spacing="0.08em">(A)  PHRED SCORE CONVERSION</text>
    <text x="60" y="60" font-family="Inter, sans-serif" font-size="12" fill="#525252" font-style="italic">Q-score, error probability, ASCII encoding (Phred+33)</text>

    <!-- formula card -->
    <g transform="translate(60, 80)">
      <rect x="0" y="0" width="500" height="44" rx="6" fill="#eef2ff" stroke="#1e3a8a" stroke-width="1"/>
      <text x="16" y="20" font-family="Inter, sans-serif" font-size="11" font-weight="600" fill="#1e3a8a" letter-spacing="0.06em">FORMULA</text>
      <text x="16" y="36" font-family="JetBrains Mono, monospace" font-size="13" fill="#0a0a0a">Q = −10 · log</text>
      <text x="116" y="40" font-family="JetBrains Mono, monospace" font-size="9" fill="#0a0a0a">10</text>
      <text x="130" y="36" font-family="JetBrains Mono, monospace" font-size="13" fill="#0a0a0a">(P</text>
      <text x="150" y="40" font-family="JetBrains Mono, monospace" font-size="9" fill="#0a0a0a">err</text>
      <text x="164" y="36" font-family="JetBrains Mono, monospace" font-size="13" fill="#0a0a0a">)</text>
      <text x="200" y="36" font-family="Inter, sans-serif" font-size="11" fill="#525252">·</text>
      <text x="212" y="36" font-family="JetBrains Mono, monospace" font-size="13" fill="#0a0a0a">ASCII = Q + 33</text>
    </g>

    <!-- table -->
    <g transform="translate(60, 144)">
      <!-- table outer card -->
      <rect x="0" y="0" width="500" height="216" rx="6" fill="#f4f3ee" stroke="#e5e3dc" stroke-width="1.5"/>

      <!-- column headers -->
      <g font-family="Inter, sans-serif" font-size="11" font-weight="700" fill="#1e3a8a" letter-spacing="0.06em">
        <text x="60"  y="24" text-anchor="middle">Q-SCORE</text>
        <text x="170" y="24" text-anchor="middle">P_ERR</text>
        <text x="280" y="24" text-anchor="middle">ASCII</text>
        <text x="400" y="24" text-anchor="middle">CHAR</text>
      </g>
      <line x1="16" y1="34" x2="484" y2="34" stroke="#1e3a8a" stroke-width="1"/>

      <!-- row guide lines -->
      <g stroke="#e5e3dc" stroke-width="1">
        <line x1="16" y1="68"  x2="484" y2="68"/>
        <line x1="16" y1="102" x2="484" y2="102"/>
        <line x1="16" y1="136" x2="484" y2="136"/>
        <line x1="16" y1="170" x2="484" y2="170"/>
      </g>

      <!-- vertical separators -->
      <g stroke="#e5e3dc" stroke-width="1">
        <line x1="120" y1="10" x2="120" y2="206"/>
        <line x1="220" y1="10" x2="220" y2="206"/>
        <line x1="340" y1="10" x2="340" y2="206"/>
      </g>

      <!-- char cells (coloured) -->
      <!-- Q0  red    -->
      <rect x="372" y="46" width="56" height="20" rx="3" fill="#dc2626"/>
      <!-- Q10 amber  -->
      <rect x="372" y="80" width="56" height="20" rx="3" fill="#b45309"/>
      <!-- Q20 mid amber -->
      <rect x="372" y="114" width="56" height="20" rx="3" fill="#ca8a04"/>
      <!-- Q30 green -->
      <rect x="372" y="148" width="56" height="20" rx="3" fill="#065f46"/>
      <!-- Q40 deep green -->
      <rect x="372" y="182" width="56" height="20" rx="3" fill="#064e3b"/>

      <!-- row values -->
      <g font-family="JetBrains Mono, monospace" font-size="14" fill="#0a0a0a">
        <!-- Q 0 -->
        <text x="60"  y="61" text-anchor="middle">0</text>
        <text x="170" y="61" text-anchor="middle">1.0</text>
        <text x="280" y="61" text-anchor="middle">33</text>
        <text x="400" y="61" text-anchor="middle" font-weight="700" fill="#ffffff">!</text>

        <!-- Q 10 -->
        <text x="60"  y="95" text-anchor="middle">10</text>
        <text x="170" y="95" text-anchor="middle">0.1</text>
        <text x="280" y="95" text-anchor="middle">43</text>
        <text x="400" y="95" text-anchor="middle" font-weight="700" fill="#ffffff">+</text>

        <!-- Q 20 -->
        <text x="60"  y="129" text-anchor="middle">20</text>
        <text x="170" y="129" text-anchor="middle">0.01</text>
        <text x="280" y="129" text-anchor="middle">53</text>
        <text x="400" y="129" text-anchor="middle" font-weight="700" fill="#ffffff">5</text>

        <!-- Q 30 -->
        <text x="60"  y="163" text-anchor="middle">30</text>
        <text x="170" y="163" text-anchor="middle">0.001</text>
        <text x="280" y="163" text-anchor="middle">63</text>
        <text x="400" y="163" text-anchor="middle" font-weight="700" fill="#ffffff">?</text>

        <!-- Q 40 -->
        <text x="60"  y="197" text-anchor="middle">40</text>
        <text x="170" y="197" text-anchor="middle">0.0001</text>
        <text x="280" y="197" text-anchor="middle">73</text>
        <text x="400" y="197" text-anchor="middle" font-weight="700" fill="#ffffff">I</text>
      </g>

      <!-- accuracy annotations on the right -->
      <g font-family="Inter, sans-serif" font-size="10" fill="#525252" font-style="italic">
        <text x="448" y="61"  text-anchor="start">0% acc.</text>
        <text x="448" y="95"  text-anchor="start">90%</text>
        <text x="448" y="129" text-anchor="start">99%</text>
        <text x="448" y="163" text-anchor="start">99.9%</text>
        <text x="448" y="197" text-anchor="start">99.99%</text>
      </g>
    </g>

    <!-- Quality bin legend (right side of panel A) -->
    <g transform="translate(620, 80)">
      <rect x="0" y="0" width="520" height="280" rx="6" fill="#f4f3ee" stroke="#e5e3dc" stroke-width="1.5"/>
      <text x="16" y="22" font-family="Inter, sans-serif" font-size="11" font-weight="600" fill="#1e3a8a" letter-spacing="0.06em">QUALITY BINS USED IN PANEL B</text>

      <!-- bin rows -->
      <g font-family="Inter, sans-serif" font-size="12" fill="#0a0a0a">
        <!-- Q30+ -->
        <rect x="20" y="48"  width="32" height="22" rx="3" fill="#065f46"/>
        <text x="64" y="64" font-weight="600">Q ≥ 30</text>
        <text x="170" y="64" fill="#525252">good — ≥ 99.9% base-call accuracy</text>

        <!-- Q20-29 -->
        <rect x="20" y="88"  width="32" height="22" rx="3" fill="#ca8a04"/>
        <text x="64" y="104" font-weight="600">Q 20–29</text>
        <text x="170" y="104" fill="#525252">medium — 99% to 99.9% accurate</text>

        <!-- Q10-19 -->
        <rect x="20" y="128" width="32" height="22" rx="3" fill="#b45309"/>
        <text x="64" y="144" font-weight="600">Q 10–19</text>
        <text x="170" y="144" fill="#525252">low — 90% to 99% accurate</text>

        <!-- Q0-9 -->
        <rect x="20" y="168" width="32" height="22" rx="3" fill="#dc2626"/>
        <text x="64" y="184" font-weight="600">Q 0–9</text>
        <text x="170" y="184" fill="#525252">very low — &lt; 90%, often masked / trimmed</text>
      </g>

      <!-- mini gradient bar showing continuous mapping -->
      <defs>
        <linearGradient id="qgrad" x1="0%" y1="0%" x2="100%" y2="0%">
          <stop offset="0%"   stop-color="#dc2626"/>
          <stop offset="25%"  stop-color="#b45309"/>
          <stop offset="50%"  stop-color="#ca8a04"/>
          <stop offset="75%"  stop-color="#065f46"/>
          <stop offset="100%" stop-color="#064e3b"/>
        </linearGradient>
      </defs>
      <text x="20" y="220" font-family="Inter, sans-serif" font-size="11" font-weight="600" fill="#1e3a8a" letter-spacing="0.06em">CONTINUOUS Q-SCALE</text>
      <rect x="20" y="230" width="480" height="14" rx="3" fill="url(#qgrad)" stroke="#525252" stroke-width="0.5"/>
      <g font-family="JetBrains Mono, monospace" font-size="10" fill="#374151">
        <text x="20"  y="260" text-anchor="start">0</text>
        <text x="140" y="260" text-anchor="middle">10</text>
        <text x="260" y="260" text-anchor="middle">20</text>
        <text x="380" y="260" text-anchor="middle">30</text>
        <text x="500" y="260" text-anchor="end">40</text>
      </g>
    </g>
  </g>

  <!-- ============================================================ -->
  <!-- PANEL B: example 25-base read with per-base quality            -->
  <!-- ============================================================ -->
  <g transform="translate(0, 390)">
    <text x="60" y="0" font-family="Inter, sans-serif" font-size="13" font-weight="700" fill="#1e3a8a" letter-spacing="0.08em">(B)  EXAMPLE READ — PER-BASE QUALITY</text>
    <text x="60" y="20" font-family="Inter, sans-serif" font-size="12" fill="#525252" font-style="italic">25 bp Illumina-style read; quality declines toward the 3′ end</text>

    <!-- card -->
    <rect x="60" y="36" width="1080" height="160" rx="6" fill="#f4f3ee" stroke="#e5e3dc" stroke-width="1.5"/>

    <!-- row labels -->
    <g font-family="Inter, sans-serif" font-size="10" font-weight="600" fill="#525252" letter-spacing="0.05em">
      <text x="76" y="66"  text-anchor="start">BASE</text>
      <text x="76" y="106" text-anchor="start">QUAL</text>
      <text x="76" y="146" text-anchor="start">Q</text>
    </g>

    <!-- 25 bases. Each cell 36 wide, gap implicit via box width. -->
    <!-- start x = 130, cell width 38, gap 2 -->
    <!--
      Bases:    G A T T T G G G G T T C A A A G C A G T A T C G A
      Q-scores: 36 37 38 37 36 35 36 35 34 33 32 30 29 28 26 25 24 22 20 19 17 16 14 12 10
      ASCII:    E  F  G  F  E  D  E  D  C  B  A  ?  >  =  ;  :  9  7  5  4  2  1  /  -  +
      Colours:  green×12, ca8a04×7, b45309×6
    -->

    <!-- BASE row: coloured boxes + base letter -->
    <g>
      <!-- pos 1  G Q36 green -->
      <rect x="130" y="50" width="36" height="32" rx="3" fill="#065f46"/>
      <text x="148" y="73" font-family="JetBrains Mono, monospace" font-size="16" font-weight="700" fill="#ffffff" text-anchor="middle">G</text>
      <!-- pos 2  A Q37 -->
      <rect x="170" y="50" width="36" height="32" rx="3" fill="#065f46"/>
      <text x="188" y="73" font-family="JetBrains Mono, monospace" font-size="16" font-weight="700" fill="#ffffff" text-anchor="middle">A</text>
      <!-- pos 3  T Q38 -->
      <rect x="210" y="50" width="36" height="32" rx="3" fill="#065f46"/>
      <text x="228" y="73" font-family="JetBrains Mono, monospace" font-size="16" font-weight="700" fill="#ffffff" text-anchor="middle">T</text>
      <!-- pos 4  T Q37 -->
      <rect x="250" y="50" width="36" height="32" rx="3" fill="#065f46"/>
      <text x="268" y="73" font-family="JetBrains Mono, monospace" font-size="16" font-weight="700" fill="#ffffff" text-anchor="middle">T</text>
      <!-- pos 5  T Q36 -->
      <rect x="290" y="50" width="36" height="32" rx="3" fill="#065f46"/>
      <text x="308" y="73" font-family="JetBrains Mono, monospace" font-size="16" font-weight="700" fill="#ffffff" text-anchor="middle">T</text>
      <!-- pos 6  G Q35 -->
      <rect x="330" y="50" width="36" height="32" rx="3" fill="#065f46"/>
      <text x="348" y="73" font-family="JetBrains Mono, monospace" font-size="16" font-weight="700" fill="#ffffff" text-anchor="middle">G</text>
      <!-- pos 7  G Q36 -->
      <rect x="370" y="50" width="36" height="32" rx="3" fill="#065f46"/>
      <text x="388" y="73" font-family="JetBrains Mono, monospace" font-size="16" font-weight="700" fill="#ffffff" text-anchor="middle">G</text>
      <!-- pos 8  G Q35 -->
      <rect x="410" y="50" width="36" height="32" rx="3" fill="#065f46"/>
      <text x="428" y="73" font-family="JetBrains Mono, monospace" font-size="16" font-weight="700" fill="#ffffff" text-anchor="middle">G</text>
      <!-- pos 9  G Q34 -->
      <rect x="450" y="50" width="36" height="32" rx="3" fill="#065f46"/>
      <text x="468" y="73" font-family="JetBrains Mono, monospace" font-size="16" font-weight="700" fill="#ffffff" text-anchor="middle">G</text>
      <!-- pos 10 T Q33 -->
      <rect x="490" y="50" width="36" height="32" rx="3" fill="#065f46"/>
      <text x="508" y="73" font-family="JetBrains Mono, monospace" font-size="16" font-weight="700" fill="#ffffff" text-anchor="middle">T</text>
      <!-- pos 11 T Q32 -->
      <rect x="530" y="50" width="36" height="32" rx="3" fill="#065f46"/>
      <text x="548" y="73" font-family="JetBrains Mono, monospace" font-size="16" font-weight="700" fill="#ffffff" text-anchor="middle">T</text>
      <!-- pos 12 C Q30 -->
      <rect x="570" y="50" width="36" height="32" rx="3" fill="#065f46"/>
      <text x="588" y="73" font-family="JetBrains Mono, monospace" font-size="16" font-weight="700" fill="#ffffff" text-anchor="middle">C</text>
      <!-- pos 13 A Q29 ca8a04 -->
      <rect x="610" y="50" width="36" height="32" rx="3" fill="#ca8a04"/>
      <text x="628" y="73" font-family="JetBrains Mono, monospace" font-size="16" font-weight="700" fill="#ffffff" text-anchor="middle">A</text>
      <!-- pos 14 A Q28 -->
      <rect x="650" y="50" width="36" height="32" rx="3" fill="#ca8a04"/>
      <text x="668" y="73" font-family="JetBrains Mono, monospace" font-size="16" font-weight="700" fill="#ffffff" text-anchor="middle">A</text>
      <!-- pos 15 A Q26 -->
      <rect x="690" y="50" width="36" height="32" rx="3" fill="#ca8a04"/>
      <text x="708" y="73" font-family="JetBrains Mono, monospace" font-size="16" font-weight="700" fill="#ffffff" text-anchor="middle">A</text>
      <!-- pos 16 G Q25 -->
      <rect x="730" y="50" width="36" height="32" rx="3" fill="#ca8a04"/>
      <text x="748" y="73" font-family="JetBrains Mono, monospace" font-size="16" font-weight="700" fill="#ffffff" text-anchor="middle">G</text>
      <!-- pos 17 C Q24 -->
      <rect x="770" y="50" width="36" height="32" rx="3" fill="#ca8a04"/>
      <text x="788" y="73" font-family="JetBrains Mono, monospace" font-size="16" font-weight="700" fill="#ffffff" text-anchor="middle">C</text>
      <!-- pos 18 A Q22 -->
      <rect x="810" y="50" width="36" height="32" rx="3" fill="#ca8a04"/>
      <text x="828" y="73" font-family="JetBrains Mono, monospace" font-size="16" font-weight="700" fill="#ffffff" text-anchor="middle">A</text>
      <!-- pos 19 G Q20 -->
      <rect x="850" y="50" width="36" height="32" rx="3" fill="#ca8a04"/>
      <text x="868" y="73" font-family="JetBrains Mono, monospace" font-size="16" font-weight="700" fill="#ffffff" text-anchor="middle">G</text>
      <!-- pos 20 T Q19 b45309 -->
      <rect x="890" y="50" width="36" height="32" rx="3" fill="#b45309"/>
      <text x="908" y="73" font-family="JetBrains Mono, monospace" font-size="16" font-weight="700" fill="#ffffff" text-anchor="middle">T</text>
      <!-- pos 21 A Q17 -->
      <rect x="930" y="50" width="36" height="32" rx="3" fill="#b45309"/>
      <text x="948" y="73" font-family="JetBrains Mono, monospace" font-size="16" font-weight="700" fill="#ffffff" text-anchor="middle">A</text>
      <!-- pos 22 T Q16 -->
      <rect x="970" y="50" width="36" height="32" rx="3" fill="#b45309"/>
      <text x="988" y="73" font-family="JetBrains Mono, monospace" font-size="16" font-weight="700" fill="#ffffff" text-anchor="middle">T</text>
      <!-- pos 23 C Q14 -->
      <rect x="1010" y="50" width="36" height="32" rx="3" fill="#b45309"/>
      <text x="1028" y="73" font-family="JetBrains Mono, monospace" font-size="16" font-weight="700" fill="#ffffff" text-anchor="middle">C</text>
      <!-- pos 24 G Q12 -->
      <rect x="1050" y="50" width="36" height="32" rx="3" fill="#b45309"/>
      <text x="1068" y="73" font-family="JetBrains Mono, monospace" font-size="16" font-weight="700" fill="#ffffff" text-anchor="middle">G</text>
      <!-- pos 25 A Q10 -->
      <rect x="1090" y="50" width="36" height="32" rx="3" fill="#b45309"/>
      <text x="1108" y="73" font-family="JetBrains Mono, monospace" font-size="16" font-weight="700" fill="#ffffff" text-anchor="middle">A</text>
    </g>

    <!-- QUAL row: ASCII characters (centred under each base box) -->
    <g font-family="JetBrains Mono, monospace" font-size="16" fill="#0a0a0a">
      <text x="148"  y="110" text-anchor="middle">E</text>
      <text x="188"  y="110" text-anchor="middle">F</text>
      <text x="228"  y="110" text-anchor="middle">G</text>
      <text x="268"  y="110" text-anchor="middle">F</text>
      <text x="308"  y="110" text-anchor="middle">E</text>
      <text x="348"  y="110" text-anchor="middle">D</text>
      <text x="388"  y="110" text-anchor="middle">E</text>
      <text x="428"  y="110" text-anchor="middle">D</text>
      <text x="468"  y="110" text-anchor="middle">C</text>
      <text x="508"  y="110" text-anchor="middle">B</text>
      <text x="548"  y="110" text-anchor="middle">A</text>
      <text x="588"  y="110" text-anchor="middle">?</text>
      <text x="628"  y="110" text-anchor="middle">&gt;</text>
      <text x="668"  y="110" text-anchor="middle">=</text>
      <text x="708"  y="110" text-anchor="middle">;</text>
      <text x="748"  y="110" text-anchor="middle">:</text>
      <text x="788"  y="110" text-anchor="middle">9</text>
      <text x="828"  y="110" text-anchor="middle">7</text>
      <text x="868"  y="110" text-anchor="middle">5</text>
      <text x="908"  y="110" text-anchor="middle">4</text>
      <text x="948"  y="110" text-anchor="middle">2</text>
      <text x="988"  y="110" text-anchor="middle">1</text>
      <text x="1028" y="110" text-anchor="middle">/</text>
      <text x="1068" y="110" text-anchor="middle">−</text>
      <text x="1108" y="110" text-anchor="middle">+</text>
    </g>

    <!-- Q-score numeric row + mini bars below                          -->
    <!-- Bars live in a 50px-tall band y=120..170; max Q=40 maps to 50  -->
    <!-- bar_h = Q * 1.25 ; baseline y = 170                            -->
    <g>
      <!-- baseline -->
      <line x1="130" y1="170" x2="1126" y2="170" stroke="#c4c1b6" stroke-width="0.75"/>

      <!-- bars (x = box_x+8, width=20). bar_h = Q*1.25 -->
      <!-- pos 1 Q36 -> 45  -->
      <rect x="138"  y="125" width="20" height="45" fill="#065f46"/>
      <!-- pos 2 Q37 -> 46.25 -->
      <rect x="178"  y="123.75" width="20" height="46.25" fill="#065f46"/>
      <!-- pos 3 Q38 -> 47.5 -->
      <rect x="218"  y="122.5" width="20" height="47.5" fill="#065f46"/>
      <!-- pos 4 Q37 -->
      <rect x="258"  y="123.75" width="20" height="46.25" fill="#065f46"/>
      <!-- pos 5 Q36 -->
      <rect x="298"  y="125" width="20" height="45" fill="#065f46"/>
      <!-- pos 6 Q35 -> 43.75 -->
      <rect x="338"  y="126.25" width="20" height="43.75" fill="#065f46"/>
      <!-- pos 7 Q36 -->
      <rect x="378"  y="125" width="20" height="45" fill="#065f46"/>
      <!-- pos 8 Q35 -->
      <rect x="418"  y="126.25" width="20" height="43.75" fill="#065f46"/>
      <!-- pos 9 Q34 -> 42.5 -->
      <rect x="458"  y="127.5" width="20" height="42.5" fill="#065f46"/>
      <!-- pos 10 Q33 -> 41.25 -->
      <rect x="498"  y="128.75" width="20" height="41.25" fill="#065f46"/>
      <!-- pos 11 Q32 -> 40 -->
      <rect x="538"  y="130" width="20" height="40" fill="#065f46"/>
      <!-- pos 12 Q30 -> 37.5 -->
      <rect x="578"  y="132.5" width="20" height="37.5" fill="#065f46"/>
      <!-- pos 13 Q29 -> 36.25 -->
      <rect x="618"  y="133.75" width="20" height="36.25" fill="#ca8a04"/>
      <!-- pos 14 Q28 -> 35 -->
      <rect x="658"  y="135" width="20" height="35" fill="#ca8a04"/>
      <!-- pos 15 Q26 -> 32.5 -->
      <rect x="698"  y="137.5" width="20" height="32.5" fill="#ca8a04"/>
      <!-- pos 16 Q25 -> 31.25 -->
      <rect x="738"  y="138.75" width="20" height="31.25" fill="#ca8a04"/>
      <!-- pos 17 Q24 -> 30 -->
      <rect x="778"  y="140" width="20" height="30" fill="#ca8a04"/>
      <!-- pos 18 Q22 -> 27.5 -->
      <rect x="818"  y="142.5" width="20" height="27.5" fill="#ca8a04"/>
      <!-- pos 19 Q20 -> 25 -->
      <rect x="858"  y="145" width="20" height="25" fill="#ca8a04"/>
      <!-- pos 20 Q19 -> 23.75 -->
      <rect x="898"  y="146.25" width="20" height="23.75" fill="#b45309"/>
      <!-- pos 21 Q17 -> 21.25 -->
      <rect x="938"  y="148.75" width="20" height="21.25" fill="#b45309"/>
      <!-- pos 22 Q16 -> 20 -->
      <rect x="978"  y="150" width="20" height="20" fill="#b45309"/>
      <!-- pos 23 Q14 -> 17.5 -->
      <rect x="1018" y="152.5" width="20" height="17.5" fill="#b45309"/>
      <!-- pos 24 Q12 -> 15 -->
      <rect x="1058" y="155" width="20" height="15" fill="#b45309"/>
      <!-- pos 25 Q10 -> 12.5 -->
      <rect x="1098" y="157.5" width="20" height="12.5" fill="#b45309"/>
    </g>

    <!-- Position index ticks every 5 bp -->
    <g font-family="JetBrains Mono, monospace" font-size="9" fill="#8a8a85">
      <text x="148"  y="190" text-anchor="middle">1</text>
      <text x="348"  y="190" text-anchor="middle">5</text>
      <text x="548"  y="190" text-anchor="middle">10</text>
      <text x="748"  y="190" text-anchor="middle">15</text>
      <text x="948"  y="190" text-anchor="middle">20</text>
      <text x="1108" y="190" text-anchor="middle">25</text>
    </g>

    <!-- bar-graph axis label on right -->
    <g font-family="Inter, sans-serif" font-size="10" fill="#525252">
      <text x="1132" y="125" text-anchor="start">Q40</text>
      <text x="1132" y="172" text-anchor="start">Q0</text>
    </g>
  </g>
</svg>
