<svg xmlns="http://www.w3.org/2000/svg" viewBox="0 0 900 440" role="img" aria-labelledby="t d">
  <title id="t">Per-gene dispersion MLE on few samples</title>
  <desc id="d">Two panels. Left: 3 replicates per condition with a broad, flat NB log-likelihood curve for dispersion — huge confidence interval. Right: 20 replicates per condition with a tight peak and narrow CI. Side-by-side comparison.</desc>

  <text x="450" y="28" text-anchor="middle" font-family="Inter, sans-serif" font-size="11" font-weight="600" fill="#1e3a8a" letter-spacing="0.12em">PER-GENE DISPERSION MLE · n=3 vs n=20</text>

  <!-- LEFT panel: n=3 per condition -->
  <g>
    <text x="200" y="60" text-anchor="middle" font-family="Inter, sans-serif" font-size="11" font-weight="600" fill="#0a0a0a">n = 3 per condition · 6 total observations</text>

    <!-- Strip plot: 3 control, 3 treated -->
    <text x="50" y="95" font-family="Inter, sans-serif" font-size="9" fill="#525252">counts:</text>
    <g fill="#1e3a8a">
      <circle cx="110" cy="95" r="4"/>
      <circle cx="130" cy="95" r="4"/>
      <circle cx="150" cy="95" r="4"/>
    </g>
    <text x="130" y="113" text-anchor="middle" font-family="Inter, sans-serif" font-size="9" fill="#525252">control</text>

    <g fill="#b45309">
      <circle cx="240" cy="95" r="4"/>
      <circle cx="260" cy="95" r="4"/>
      <circle cx="285" cy="95" r="4"/>
    </g>
    <text x="262" y="113" text-anchor="middle" font-family="Inter, sans-serif" font-size="9" fill="#525252">treated</text>

    <!-- Log-likelihood plot: broad, flat curve from α=10^-3 to 10^1 -->
    <text x="50" y="145" font-family="Inter, sans-serif" font-size="10" fill="#525252">log-likelihood ℓ(α):</text>

    <!-- Axes -->
    <line x1="55" y1="330" x2="375" y2="330" stroke="#c4c1b6" stroke-width="1"/>
    <line x1="55" y1="160" x2="55" y2="330" stroke="#c4c1b6" stroke-width="1"/>

    <g font-family="JetBrains Mono, monospace" font-size="9" fill="#8a8a85" text-anchor="middle">
      <text x="55" y="344">10⁻³</text>
      <text x="135" y="344">10⁻²</text>
      <text x="215" y="344">10⁻¹</text>
      <text x="295" y="344">10⁰</text>
      <text x="375" y="344">10¹</text>
    </g>
    <text x="215" y="360" text-anchor="middle" font-family="Inter, sans-serif" font-size="10" fill="#525252">α (log scale)</text>

    <!-- Broad flat curve peaking weakly around α = 0.1 -->
    <path d="M 60 295 Q 100 285 140 270 Q 180 245 220 240 Q 260 245 300 265 Q 340 290 375 320"
          fill="none" stroke="#1e3a8a" stroke-width="2"/>

    <!-- MLE marker with broad CI bracket -->
    <circle cx="220" cy="240" r="5" fill="#1e3a8a"/>
    <text x="220" y="220" text-anchor="middle" font-family="Inter, sans-serif" font-size="10" font-weight="600" fill="#1e3a8a">MLE</text>

    <!-- CI bracket -->
    <line x1="120" y1="255" x2="320" y2="255" stroke="#b91c1c" stroke-width="1.5"/>
    <line x1="120" y1="248" x2="120" y2="262" stroke="#b91c1c" stroke-width="1.5"/>
    <line x1="320" y1="248" x2="320" y2="262" stroke="#b91c1c" stroke-width="1.5"/>
    <text x="220" y="275" text-anchor="middle" font-family="Inter, sans-serif" font-size="9" fill="#b91c1c" font-style="italic">95% CI spans 2+ decades</text>
  </g>

  <!-- Divider -->
  <line x1="410" y1="50" x2="410" y2="350" stroke="#e5e3dc" stroke-width="1"/>

  <!-- RIGHT panel: n=20 per condition -->
  <g>
    <text x="660" y="60" text-anchor="middle" font-family="Inter, sans-serif" font-size="11" font-weight="600" fill="#0a0a0a">n = 20 per condition · 40 total observations</text>

    <!-- Strip plot: 20 control, 20 treated -->
    <text x="430" y="95" font-family="Inter, sans-serif" font-size="9" fill="#525252">counts:</text>
    <g fill="#1e3a8a">
      <!-- 20 control dots -->
      <circle cx="475" cy="95" r="2.5"/><circle cx="485" cy="95" r="2.5"/><circle cx="495" cy="95" r="2.5"/>
      <circle cx="505" cy="95" r="2.5"/><circle cx="515" cy="95" r="2.5"/><circle cx="525" cy="95" r="2.5"/>
      <circle cx="535" cy="95" r="2.5"/><circle cx="545" cy="95" r="2.5"/><circle cx="555" cy="95" r="2.5"/>
      <circle cx="565" cy="95" r="2.5"/><circle cx="575" cy="95" r="2.5"/><circle cx="585" cy="95" r="2.5"/>
      <circle cx="478" cy="99" r="2.5"/><circle cx="490" cy="99" r="2.5"/><circle cx="510" cy="99" r="2.5"/>
      <circle cx="520" cy="99" r="2.5"/><circle cx="540" cy="99" r="2.5"/><circle cx="560" cy="99" r="2.5"/>
      <circle cx="570" cy="99" r="2.5"/><circle cx="580" cy="99" r="2.5"/>
    </g>
    <text x="525" y="115" text-anchor="middle" font-family="Inter, sans-serif" font-size="9" fill="#525252">control (n=20)</text>

    <g fill="#b45309">
      <circle cx="650" cy="95" r="2.5"/><circle cx="660" cy="95" r="2.5"/><circle cx="670" cy="95" r="2.5"/>
      <circle cx="680" cy="95" r="2.5"/><circle cx="690" cy="95" r="2.5"/><circle cx="700" cy="95" r="2.5"/>
      <circle cx="710" cy="95" r="2.5"/><circle cx="720" cy="95" r="2.5"/><circle cx="730" cy="95" r="2.5"/>
      <circle cx="740" cy="95" r="2.5"/><circle cx="750" cy="95" r="2.5"/><circle cx="760" cy="95" r="2.5"/>
      <circle cx="652" cy="99" r="2.5"/><circle cx="668" cy="99" r="2.5"/><circle cx="685" cy="99" r="2.5"/>
      <circle cx="702" cy="99" r="2.5"/><circle cx="720" cy="99" r="2.5"/><circle cx="738" cy="99" r="2.5"/>
      <circle cx="755" cy="99" r="2.5"/><circle cx="762" cy="99" r="2.5"/>
    </g>
    <text x="705" y="115" text-anchor="middle" font-family="Inter, sans-serif" font-size="9" fill="#525252">treated (n=20)</text>

    <!-- Log-likelihood plot: tight peak around α = 0.1 -->
    <text x="430" y="145" font-family="Inter, sans-serif" font-size="10" fill="#525252">log-likelihood ℓ(α):</text>

    <line x1="435" y1="330" x2="775" y2="330" stroke="#c4c1b6" stroke-width="1"/>
    <line x1="435" y1="160" x2="435" y2="330" stroke="#c4c1b6" stroke-width="1"/>

    <g font-family="JetBrains Mono, monospace" font-size="9" fill="#8a8a85" text-anchor="middle">
      <text x="435" y="344">10⁻³</text>
      <text x="520" y="344">10⁻²</text>
      <text x="605" y="344">10⁻¹</text>
      <text x="690" y="344">10⁰</text>
      <text x="775" y="344">10¹</text>
    </g>
    <text x="605" y="360" text-anchor="middle" font-family="Inter, sans-serif" font-size="10" fill="#525252">α (log scale)</text>

    <!-- Tight peaked curve at α = 0.1 (x = 605) -->
    <path d="M 440 325 Q 490 320 540 300 Q 575 260 605 180 Q 635 260 670 300 Q 720 320 770 325"
          fill="none" stroke="#1e3a8a" stroke-width="2"/>

    <circle cx="605" cy="180" r="5" fill="#1e3a8a"/>
    <text x="605" y="165" text-anchor="middle" font-family="Inter, sans-serif" font-size="10" font-weight="600" fill="#1e3a8a">MLE</text>

    <!-- Narrow CI bracket. Caption anchored to the right of the bracket so the
         steep curve (which dives through y=235 at x≈582 and x≈629) doesn't slice the text. -->
    <line x1="580" y1="210" x2="630" y2="210" stroke="#15803d" stroke-width="1.5"/>
    <line x1="580" y1="203" x2="580" y2="217" stroke="#15803d" stroke-width="1.5"/>
    <line x1="630" y1="203" x2="630" y2="217" stroke="#15803d" stroke-width="1.5"/>
    <text x="640" y="214" font-family="Inter, sans-serif" font-size="9" fill="#15803d" font-style="italic">95% CI ~30% of MLE</text>
  </g>

  <!-- Bottom caption -->
  <text x="450" y="405" text-anchor="middle" font-family="Inter, sans-serif" font-size="10" fill="#8a8a85" font-style="italic">Per-gene MLE dispersion from 3 replicates is unreliable.</text>
  <text x="450" y="420" text-anchor="middle" font-family="Inter, sans-serif" font-size="10" fill="#8a8a85" font-style="italic">Empirical-Bayes shrinkage (§3.3) fixes this by sharing information across the other 19,999 genes.</text>
</svg>
