<svg xmlns="http://www.w3.org/2000/svg" viewBox="0 0 900 440" role="img" aria-labelledby="t d">
  <title id="t">Empirical-Bayes dispersion shrinkage</title>
  <desc id="d">Mean-vs-dispersion scatter with raw MLE values as outlined circles and shrunk estimates as filled dots. Arrows connect each raw to its shrunk counterpart. A fitted trend line passes through the cloud. Three example genes labeled showing variable shrinkage magnitudes.</desc>

  <text x="450" y="28" text-anchor="middle" font-family="Inter, sans-serif" font-size="11" font-weight="600" fill="#1e3a8a" letter-spacing="0.12em">EMPIRICAL-BAYES SHRINKAGE · RAW MLE → SHRUNK ESTIMATE</text>

  <!-- Axes -->
  <line x1="80" y1="360" x2="830" y2="360" stroke="#c4c1b6" stroke-width="1"/>
  <line x1="80" y1="60" x2="80" y2="360" stroke="#c4c1b6" stroke-width="1"/>

  <g font-family="JetBrains Mono, monospace" font-size="9" fill="#8a8a85" text-anchor="middle">
    <text x="80" y="378">10⁰</text>
    <text x="268" y="378">10¹</text>
    <text x="455" y="378">10²</text>
    <text x="642" y="378">10³</text>
    <text x="830" y="378">10⁴</text>
  </g>
  <text x="455" y="398" text-anchor="middle" font-family="Inter, sans-serif" font-size="11" fill="#525252">mean count per gene</text>

  <g font-family="JetBrains Mono, monospace" font-size="9" fill="#8a8a85" text-anchor="end">
    <text x="72" y="364">10⁻³</text>
    <text x="72" y="289">10⁻²</text>
    <text x="72" y="214">10⁻¹</text>
    <text x="72" y="139">10⁰</text>
    <text x="72" y="64">10¹</text>
  </g>
  <text x="30" y="210" text-anchor="middle" font-family="Inter, sans-serif" font-size="11" fill="#525252" transform="rotate(-90 30 210)">dispersion α</text>

  <!-- Fitted trend curve (same as Fig 3) -->
  <path d="M 85 130 Q 250 200 450 250 Q 650 300 820 325" fill="none" stroke="#1e3a8a" stroke-width="2"/>

  <!-- ~40 example gene pairs: raw MLE (outlined circle) and shrunk (filled dot), connected by arrow -->
  <!-- Helper: for points near trend, small shrinkage. For points far from trend, larger shrinkage but with resistance. -->

  <g stroke="#8a8a85" stroke-width="0.8" fill="none">
    <!-- Arrows showing shrinkage trajectories -->
    <line x1="130" y1="100" x2="145" y2="145"/>
    <line x1="170" y1="80"  x2="185" y2="165"/>
    <line x1="220" y1="200" x2="230" y2="210"/>
    <line x1="280" y1="110" x2="300" y2="215"/>
    <line x1="320" y1="260" x2="335" y2="245"/>
    <line x1="380" y1="195" x2="395" y2="240"/>
    <line x1="440" y1="305" x2="452" y2="252"/>
    <line x1="500" y1="180" x2="515" y2="258"/>
    <line x1="560" y1="320" x2="575" y2="272"/>
    <line x1="620" y1="245" x2="635" y2="290"/>
    <line x1="680" y1="335" x2="695" y2="305"/>
    <line x1="740" y1="270" x2="755" y2="315"/>
  </g>

  <!-- Raw MLE circles (unfilled, grey) -->
  <g fill="none" stroke="#c4c1b6" stroke-width="1.5">
    <circle cx="130" cy="100" r="3.5"/>
    <circle cx="170" cy="80" r="3.5"/>
    <circle cx="220" cy="200" r="3.5"/>
    <circle cx="280" cy="110" r="3.5"/>
    <circle cx="320" cy="260" r="3.5"/>
    <circle cx="380" cy="195" r="3.5"/>
    <circle cx="440" cy="305" r="3.5"/>
    <circle cx="500" cy="180" r="3.5"/>
    <circle cx="560" cy="320" r="3.5"/>
    <circle cx="620" cy="245" r="3.5"/>
    <circle cx="680" cy="335" r="3.5"/>
    <circle cx="740" cy="270" r="3.5"/>
  </g>

  <!-- Shrunk estimates (filled, accent) -->
  <g fill="#1e3a8a">
    <circle cx="145" cy="145" r="3"/>
    <circle cx="185" cy="165" r="3"/>
    <circle cx="230" cy="210" r="3"/>
    <circle cx="300" cy="215" r="3"/>
    <circle cx="335" cy="245" r="3"/>
    <circle cx="395" cy="240" r="3"/>
    <circle cx="452" cy="252" r="3"/>
    <circle cx="515" cy="258" r="3"/>
    <circle cx="575" cy="272" r="3"/>
    <circle cx="635" cy="290" r="3"/>
    <circle cx="695" cy="305" r="3"/>
    <circle cx="755" cy="315" r="3"/>
  </g>

  <!-- Highlight 3 example genes -->
  <!-- Gene A: near the trend, short arrow -->
  <g>
    <circle cx="385" cy="248" r="6" fill="none" stroke="#15803d" stroke-width="2"/>
    <text x="395" y="225" font-family="Inter, sans-serif" font-size="10" font-weight="600" fill="#15803d">Gene A</text>
    <text x="395" y="240" font-family="Inter, sans-serif" font-size="9" fill="#15803d">near trend · strongly shrunk</text>
  </g>

  <!-- Gene B: far above trend, medium arrow -->
  <g>
    <circle cx="280" cy="110" r="6" fill="none" stroke="#b45309" stroke-width="2"/>
    <text x="300" y="88" font-family="Inter, sans-serif" font-size="10" font-weight="600" fill="#b45309">Gene B</text>
    <text x="300" y="102" font-family="Inter, sans-serif" font-size="9" fill="#b45309">far from trend · partly shrunk</text>
  </g>

  <!-- Gene C: very far, with short arrow showing resistance -->
  <g stroke="#b91c1c" stroke-width="1.5" fill="none">
    <line x1="500" y1="70" x2="505" y2="78"/>
  </g>
  <g fill="none" stroke="#b91c1c" stroke-width="2">
    <circle cx="500" cy="70" r="6"/>
  </g>
  <g fill="#b91c1c">
    <circle cx="505" cy="78" r="3"/>
  </g>
  <g>
    <text x="515" y="60" font-family="Inter, sans-serif" font-size="10" font-weight="600" fill="#b91c1c">Gene C</text>
    <text x="515" y="74" font-family="Inter, sans-serif" font-size="9" fill="#b91c1c">real outlier · resists shrinkage</text>
  </g>

  <text x="745" y="290" font-family="Inter, sans-serif" font-size="10" fill="#1e3a8a" font-weight="600">fitted trend</text>

  <!-- Legend -->
  <g transform="translate(80 410)">
    <circle cx="5" cy="0" r="3.5" fill="none" stroke="#c4c1b6" stroke-width="1.5"/>
    <text x="14" y="4" font-family="Inter, sans-serif" font-size="10" fill="#0a0a0a">raw MLE (from 3 replicates)</text>

    <circle cx="235" cy="0" r="3" fill="#1e3a8a"/>
    <text x="244" y="4" font-family="Inter, sans-serif" font-size="10" fill="#0a0a0a">shrunk estimate (EB)</text>

    <line x1="440" y1="0" x2="480" y2="0" stroke="#8a8a85" stroke-width="0.8"/>
    <text x="486" y="4" font-family="Inter, sans-serif" font-size="10" fill="#0a0a0a">shrinkage trajectory</text>

    <line x1="660" y1="0" x2="680" y2="0" stroke="#1e3a8a" stroke-width="2"/>
    <text x="686" y="4" font-family="Inter, sans-serif" font-size="10" fill="#0a0a0a">fitted mean–dispersion trend</text>
  </g>
</svg>
