<svg xmlns="http://www.w3.org/2000/svg" viewBox="0 0 1080 420" role="img" aria-labelledby="t d">
  <title id="t">TF motif as PWM and sequence logo</title>
  <desc id="d">Left: a CTCF PWM rendered as a 4-by-19 numerical grid; rows labelled A, C, G, T in base-palette colours, columns numbered 1 to 19, cell contents show log-odds weights coloured by sign. Right: the same motif rendered as a sequence logo with IC-height stacks of A/C/G/T letters; tall core 'CCCTC' pattern in the middle; variable flanks. Arrow between the two panels with the note 'PWM rendered as a logo — same information, two views'.</desc>

  <defs>
    <marker id="arr-c" markerWidth="10" markerHeight="10" refX="9" refY="5" orient="auto">
      <path d="M 0 0 L 10 5 L 0 10 z" fill="#1e3a8a"/>
    </marker>
  </defs>

  <text x="540" y="24" text-anchor="middle" font-family="Inter, sans-serif" font-size="11" font-weight="600" fill="#1e3a8a" letter-spacing="0.12em">CTCF MOTIF · PWM NUMERICAL MATRIX vs SEQUENCE LOGO</text>

  <!-- ── LEFT: PWM matrix ── -->
  <g transform="translate(30 60)">
    <rect x="0" y="0" width="480" height="320" rx="6" fill="#ffffff" stroke="#c4c1b6"/>
    <text x="240" y="22" text-anchor="middle" font-family="Inter, sans-serif" font-size="12" font-weight="600" fill="#0a0a0a">Position Weight Matrix · 4 × 19</text>

    <!-- Column headers -->
    <g font-family="JetBrains Mono, monospace" font-size="8" fill="#525252" text-anchor="middle">
      <text x="63" y="56">1</text><text x="85" y="56">2</text><text x="107" y="56">3</text>
      <text x="129" y="56">4</text><text x="151" y="56">5</text><text x="173" y="56">6</text>
      <text x="195" y="56">7</text><text x="217" y="56">8</text><text x="239" y="56">9</text>
      <text x="261" y="56">10</text><text x="283" y="56">11</text><text x="305" y="56">12</text>
      <text x="327" y="56">13</text><text x="349" y="56">14</text><text x="371" y="56">15</text>
      <text x="393" y="56">16</text><text x="415" y="56">17</text><text x="437" y="56">18</text>
      <text x="459" y="56">19</text>
    </g>

    <!-- Row labels (base letters) + matrix cells -->
    <!--
      Approximate CTCF PWM log-odds, pattern: NN(C|T)C(C|T)CCTCCTAGTGGNN
      Weights rough: +2.5 strong, +1 moderate, 0 background, -1.5 disfavoured
    -->
    <g font-family="JetBrains Mono, monospace" font-size="9" text-anchor="middle">
      <!-- Row A -->
      <text x="48" y="80" fill="#c4342c" font-weight="700">A</text>
      <g>
        <rect x="54" y="68" width="22" height="16" fill="#eef2ff"/><text x="65" y="80">0.1</text>
        <rect x="76" y="68" width="22" height="16" fill="#eef2ff"/><text x="87" y="80">0.0</text>
        <rect x="98" y="68" width="22" height="16" fill="#f6f4ee"/><text x="109" y="80">-0.8</text>
        <rect x="120" y="68" width="22" height="16" fill="#f6f4ee"/><text x="131" y="80">-1.5</text>
        <rect x="142" y="68" width="22" height="16" fill="#f6f4ee"/><text x="153" y="80">-1.2</text>
        <rect x="164" y="68" width="22" height="16" fill="#f6f4ee"/><text x="175" y="80">-0.9</text>
        <rect x="186" y="68" width="22" height="16" fill="#f6f4ee"/><text x="197" y="80">-1.8</text>
        <rect x="208" y="68" width="22" height="16" fill="#f6f4ee"/><text x="219" y="80">-0.5</text>
        <rect x="230" y="68" width="22" height="16" fill="#f6f4ee"/><text x="241" y="80">-1.4</text>
        <rect x="252" y="68" width="22" height="16" fill="#f6f4ee"/><text x="263" y="80">-0.6</text>
        <rect x="274" y="68" width="22" height="16" fill="#f6f4ee"/><text x="285" y="80">-1.2</text>
        <rect x="296" y="68" width="22" height="16" fill="#d9ddf2"/><text x="307" y="80">0.8</text>
        <rect x="318" y="68" width="22" height="16" fill="#bfcbf6"/><text x="329" y="80">1.7</text>
        <rect x="340" y="68" width="22" height="16" fill="#f6f4ee"/><text x="351" y="80">-0.4</text>
        <rect x="362" y="68" width="22" height="16" fill="#f6f4ee"/><text x="373" y="80">-0.3</text>
        <rect x="384" y="68" width="22" height="16" fill="#f6f4ee"/><text x="395" y="80">-0.1</text>
        <rect x="406" y="68" width="22" height="16" fill="#eef2ff"/><text x="417" y="80">0.2</text>
        <rect x="428" y="68" width="22" height="16" fill="#eef2ff"/><text x="439" y="80">0.1</text>
        <rect x="450" y="68" width="22" height="16" fill="#eef2ff"/><text x="461" y="80">0.0</text>
      </g>
      <!-- Row C -->
      <text x="48" y="102" fill="#1e3a8a" font-weight="700">C</text>
      <g>
        <rect x="54" y="90" width="22" height="16" fill="#eef2ff"/><text x="65" y="102">0.0</text>
        <rect x="76" y="90" width="22" height="16" fill="#eef2ff"/><text x="87" y="102">0.1</text>
        <rect x="98" y="90" width="22" height="16" fill="#d9ddf2"/><text x="109" y="102">1.2</text>
        <rect x="120" y="90" width="22" height="16" fill="#6a84d8"/><text x="131" y="102" fill="#ffffff">2.5</text>
        <rect x="142" y="90" width="22" height="16" fill="#d9ddf2"/><text x="153" y="102">1.0</text>
        <rect x="164" y="90" width="22" height="16" fill="#6a84d8"/><text x="175" y="102" fill="#ffffff">2.4</text>
        <rect x="186" y="90" width="22" height="16" fill="#6a84d8"/><text x="197" y="102" fill="#ffffff">2.6</text>
        <rect x="208" y="90" width="22" height="16" fill="#bfcbf6"/><text x="219" y="102">1.8</text>
        <rect x="230" y="90" width="22" height="16" fill="#f6f4ee"/><text x="241" y="102">-0.6</text>
        <rect x="252" y="90" width="22" height="16" fill="#6a84d8"/><text x="263" y="102" fill="#ffffff">2.5</text>
        <rect x="274" y="90" width="22" height="16" fill="#6a84d8"/><text x="285" y="102" fill="#ffffff">2.3</text>
        <rect x="296" y="90" width="22" height="16" fill="#f6f4ee"/><text x="307" y="102">-0.3</text>
        <rect x="318" y="90" width="22" height="16" fill="#f6f4ee"/><text x="329" y="102">-0.8</text>
        <rect x="340" y="90" width="22" height="16" fill="#f6f4ee"/><text x="351" y="102">-1.0</text>
        <rect x="362" y="90" width="22" height="16" fill="#f6f4ee"/><text x="373" y="102">-0.3</text>
        <rect x="384" y="90" width="22" height="16" fill="#f6f4ee"/><text x="395" y="102">-0.4</text>
        <rect x="406" y="90" width="22" height="16" fill="#eef2ff"/><text x="417" y="102">0.0</text>
        <rect x="428" y="90" width="22" height="16" fill="#eef2ff"/><text x="439" y="102">0.1</text>
        <rect x="450" y="90" width="22" height="16" fill="#eef2ff"/><text x="461" y="102">0.1</text>
      </g>
      <!-- Row G -->
      <text x="48" y="124" fill="#b45309" font-weight="700">G</text>
      <g>
        <rect x="54" y="112" width="22" height="16" fill="#eef2ff"/><text x="65" y="124">0.1</text>
        <rect x="76" y="112" width="22" height="16" fill="#eef2ff"/><text x="87" y="124">0.0</text>
        <rect x="98" y="112" width="22" height="16" fill="#f6f4ee"/><text x="109" y="124">-0.6</text>
        <rect x="120" y="112" width="22" height="16" fill="#f6f4ee"/><text x="131" y="124">-1.0</text>
        <rect x="142" y="112" width="22" height="16" fill="#f6f4ee"/><text x="153" y="124">-0.8</text>
        <rect x="164" y="112" width="22" height="16" fill="#f6f4ee"/><text x="175" y="124">-0.7</text>
        <rect x="186" y="112" width="22" height="16" fill="#f6f4ee"/><text x="197" y="124">-1.5</text>
        <rect x="208" y="112" width="22" height="16" fill="#f6f4ee"/><text x="219" y="124">-0.4</text>
        <rect x="230" y="112" width="22" height="16" fill="#6a84d8"/><text x="241" y="124" fill="#ffffff">2.4</text>
        <rect x="252" y="112" width="22" height="16" fill="#f6f4ee"/><text x="263" y="124">-0.8</text>
        <rect x="274" y="112" width="22" height="16" fill="#f6f4ee"/><text x="285" y="124">-1.2</text>
        <rect x="296" y="112" width="22" height="16" fill="#f6f4ee"/><text x="307" y="124">-0.6</text>
        <rect x="318" y="112" width="22" height="16" fill="#f6f4ee"/><text x="329" y="124">-0.5</text>
        <rect x="340" y="112" width="22" height="16" fill="#bfcbf6"/><text x="351" y="124">1.9</text>
        <rect x="362" y="112" width="22" height="16" fill="#6a84d8"/><text x="373" y="124" fill="#ffffff">2.4</text>
        <rect x="384" y="112" width="22" height="16" fill="#6a84d8"/><text x="395" y="124" fill="#ffffff">2.2</text>
        <rect x="406" y="112" width="22" height="16" fill="#d9ddf2"/><text x="417" y="124">1.4</text>
        <rect x="428" y="112" width="22" height="16" fill="#eef2ff"/><text x="439" y="124">0.3</text>
        <rect x="450" y="112" width="22" height="16" fill="#eef2ff"/><text x="461" y="124">0.0</text>
      </g>
      <!-- Row T -->
      <text x="48" y="146" fill="#2d7a3e" font-weight="700">T</text>
      <g>
        <rect x="54" y="134" width="22" height="16" fill="#eef2ff"/><text x="65" y="146">0.0</text>
        <rect x="76" y="134" width="22" height="16" fill="#eef2ff"/><text x="87" y="146">0.0</text>
        <rect x="98" y="134" width="22" height="16" fill="#eef2ff"/><text x="109" y="146">0.5</text>
        <rect x="120" y="134" width="22" height="16" fill="#f6f4ee"/><text x="131" y="146">-1.2</text>
        <rect x="142" y="134" width="22" height="16" fill="#d9ddf2"/><text x="153" y="146">0.8</text>
        <rect x="164" y="134" width="22" height="16" fill="#f6f4ee"/><text x="175" y="146">-0.9</text>
        <rect x="186" y="134" width="22" height="16" fill="#f6f4ee"/><text x="197" y="146">-0.8</text>
        <rect x="208" y="134" width="22" height="16" fill="#f6f4ee"/><text x="219" y="146">-0.6</text>
        <rect x="230" y="134" width="22" height="16" fill="#f6f4ee"/><text x="241" y="146">-0.3</text>
        <rect x="252" y="134" width="22" height="16" fill="#f6f4ee"/><text x="263" y="146">-1.2</text>
        <rect x="274" y="134" width="22" height="16" fill="#f6f4ee"/><text x="285" y="146">-0.5</text>
        <rect x="296" y="134" width="22" height="16" fill="#d9ddf2"/><text x="307" y="146">1.6</text>
        <rect x="318" y="134" width="22" height="16" fill="#f6f4ee"/><text x="329" y="146">-0.2</text>
        <rect x="340" y="134" width="22" height="16" fill="#f6f4ee"/><text x="351" y="146">-0.3</text>
        <rect x="362" y="134" width="22" height="16" fill="#f6f4ee"/><text x="373" y="146">-0.4</text>
        <rect x="384" y="134" width="22" height="16" fill="#f6f4ee"/><text x="395" y="146">-0.5</text>
        <rect x="406" y="134" width="22" height="16" fill="#eef2ff"/><text x="417" y="146">0.1</text>
        <rect x="428" y="134" width="22" height="16" fill="#eef2ff"/><text x="439" y="146">0.2</text>
        <rect x="450" y="134" width="22" height="16" fill="#eef2ff"/><text x="461" y="146">0.1</text>
      </g>
    </g>

    <!-- Heatmap legend -->
    <g transform="translate(30 175)">
      <text x="0" y="0" font-family="Inter, sans-serif" font-size="9" fill="#525252" font-weight="600">log-odds weight</text>
      <rect x="0" y="8" width="18" height="8" fill="#f6f4ee"/>
      <text x="22" y="16" font-family="JetBrains Mono, monospace" font-size="9" fill="#525252">&lt; 0</text>
      <rect x="65" y="8" width="18" height="8" fill="#eef2ff"/>
      <text x="87" y="16" font-family="JetBrains Mono, monospace" font-size="9" fill="#525252">≈ 0</text>
      <rect x="130" y="8" width="18" height="8" fill="#d9ddf2"/>
      <text x="152" y="16" font-family="JetBrains Mono, monospace" font-size="9" fill="#525252">+1</text>
      <rect x="190" y="8" width="18" height="8" fill="#bfcbf6"/>
      <text x="212" y="16" font-family="JetBrains Mono, monospace" font-size="9" fill="#525252">+2</text>
      <rect x="250" y="8" width="18" height="8" fill="#6a84d8"/>
      <text x="272" y="16" font-family="JetBrains Mono, monospace" font-size="9" fill="#525252">&gt; +2</text>
    </g>

    <!-- Formula -->
    <g transform="translate(30 220)">
      <text x="0" y="0" font-family="Source Serif 4, serif" font-size="12" font-style="italic" fill="#0a0a0a">w<tspan font-size="10">b,i</tspan> = log₂( freq<tspan font-size="10">b,i</tspan> / bg<tspan font-size="10">b</tspan> )</text>
      <text x="0" y="22" font-family="Inter, sans-serif" font-size="9" fill="#525252">positive → more common than background · negative → depleted</text>
    </g>

    <!-- Score formula -->
    <g transform="translate(30 265)">
      <text x="0" y="0" font-family="Source Serif 4, serif" font-size="13" font-style="italic" fill="#0a0a0a">score(s) = Σᵢ w<tspan font-size="10">sᵢ,i</tspan></text>
      <text x="0" y="22" font-family="Inter, sans-serif" font-size="9" fill="#525252">sum the weights at the base actually present in each position</text>
    </g>

    <!-- Core highlight annotation -->
    <rect x="120" y="66" width="66" height="82" fill="none" stroke="#b45309" stroke-width="1.5" stroke-dasharray="3 2"/>
    <text x="153" y="60" text-anchor="middle" font-family="JetBrains Mono, monospace" font-size="8" fill="#b45309" font-weight="600">core</text>
  </g>

  <!-- Arrow between panels -->
  <g transform="translate(525 200)">
    <line x1="0" y1="0" x2="28" y2="0" stroke="#1e3a8a" stroke-width="2" marker-end="url(#arr-c)"/>
    <text x="14" y="-10" text-anchor="middle" font-family="Inter, sans-serif" font-size="9" fill="#525252">render as</text>
    <text x="14" y="20" text-anchor="middle" font-family="Inter, sans-serif" font-size="9" fill="#525252" font-style="italic">logo</text>
  </g>

  <!-- ── RIGHT: sequence logo ── -->
  <g transform="translate(570 60)">
    <rect x="0" y="0" width="480" height="320" rx="6" fill="#ffffff" stroke="#c4c1b6"/>
    <text x="240" y="22" text-anchor="middle" font-family="Inter, sans-serif" font-size="12" font-weight="600" fill="#0a0a0a">Sequence logo · same motif, IC heights</text>

    <!-- Baseline -->
    <line x1="30" y1="230" x2="470" y2="230" stroke="#525252" stroke-width="1"/>
    <!-- Y-axis -->
    <line x1="30" y1="60" x2="30" y2="230" stroke="#525252" stroke-width="0.8"/>
    <g font-family="JetBrains Mono, monospace" font-size="8" fill="#525252" text-anchor="end">
      <text x="26" y="234">0</text>
      <text x="26" y="170">1</text>
      <text x="26" y="105">2</text>
      <text x="26" y="62">2 bits</text>
    </g>
    <text x="14" y="145" text-anchor="middle" font-family="Inter, sans-serif" font-size="10" fill="#525252" transform="rotate(-90 14 145)">information</text>

    <!-- Columns (19 positions, width 22 each, starting x=40) -->
    <!-- Tall core "CCCTC CTAGTGG" from position 4..15 -->
    <!-- per-position IC (bits): 0.1, 0.1, 0.7, 1.8, 0.9, 1.7, 1.9, 1.2, 1.6, 1.8, 1.5, 1.0, 1.1, 1.3, 1.7, 1.6, 0.7, 0.2, 0.1 -->

    <!-- Column 1: IC 0.1 -->
    <g font-family="Inter, sans-serif" font-weight="700" text-anchor="middle">
      <text x="51" y="228" font-size="8" fill="#525252" opacity="0.5">N</text>
    </g>
    <!-- Column 2: IC 0.1 -->
    <g font-family="Inter, sans-serif" font-weight="700" text-anchor="middle">
      <text x="73" y="228" font-size="8" fill="#525252" opacity="0.5">N</text>
    </g>
    <!-- Column 3: IC 0.7 - tall C/T -->
    <g text-anchor="middle">
      <text x="95" y="228" font-family="Inter, sans-serif" font-weight="700" font-size="30" fill="#1e3a8a">C</text>
    </g>
    <!-- Column 4: IC 1.8 - very tall C -->
    <g text-anchor="middle">
      <text x="117" y="228" font-family="Inter, sans-serif" font-weight="700" font-size="60" fill="#1e3a8a">C</text>
    </g>
    <!-- Column 5: IC 0.9 - medium C/T -->
    <g text-anchor="middle">
      <text x="139" y="228" font-family="Inter, sans-serif" font-weight="700" font-size="32" fill="#1e3a8a">C</text>
    </g>
    <!-- Column 6: IC 1.7 - tall C -->
    <g text-anchor="middle">
      <text x="161" y="228" font-family="Inter, sans-serif" font-weight="700" font-size="58" fill="#1e3a8a">C</text>
    </g>
    <!-- Column 7: IC 1.9 - tallest C -->
    <g text-anchor="middle">
      <text x="183" y="228" font-family="Inter, sans-serif" font-weight="700" font-size="62" fill="#1e3a8a">C</text>
    </g>
    <!-- Column 8: IC 1.2 - tall C -->
    <g text-anchor="middle">
      <text x="205" y="228" font-family="Inter, sans-serif" font-weight="700" font-size="44" fill="#1e3a8a">C</text>
    </g>
    <!-- Column 9: IC 1.6 - tall G -->
    <g text-anchor="middle">
      <text x="227" y="228" font-family="Inter, sans-serif" font-weight="700" font-size="52" fill="#b45309">G</text>
    </g>
    <!-- Column 10: IC 1.8 - tall C -->
    <g text-anchor="middle">
      <text x="249" y="228" font-family="Inter, sans-serif" font-weight="700" font-size="60" fill="#1e3a8a">C</text>
    </g>
    <!-- Column 11: IC 1.5 - tall C -->
    <g text-anchor="middle">
      <text x="271" y="228" font-family="Inter, sans-serif" font-weight="700" font-size="52" fill="#1e3a8a">C</text>
    </g>
    <!-- Column 12: IC 1.0 - medium T -->
    <g text-anchor="middle">
      <text x="293" y="228" font-family="Inter, sans-serif" font-weight="700" font-size="38" fill="#2d7a3e">T</text>
    </g>
    <!-- Column 13: IC 1.1 - medium A -->
    <g text-anchor="middle">
      <text x="315" y="228" font-family="Inter, sans-serif" font-weight="700" font-size="40" fill="#c4342c">A</text>
    </g>
    <!-- Column 14: IC 1.3 - tall G -->
    <g text-anchor="middle">
      <text x="337" y="228" font-family="Inter, sans-serif" font-weight="700" font-size="44" fill="#b45309">G</text>
    </g>
    <!-- Column 15: IC 1.7 - tall G -->
    <g text-anchor="middle">
      <text x="359" y="228" font-family="Inter, sans-serif" font-weight="700" font-size="58" fill="#b45309">G</text>
    </g>
    <!-- Column 16: IC 1.6 - tall G -->
    <g text-anchor="middle">
      <text x="381" y="228" font-family="Inter, sans-serif" font-weight="700" font-size="54" fill="#b45309">G</text>
    </g>
    <!-- Column 17: IC 0.7 - medium G -->
    <g text-anchor="middle">
      <text x="403" y="228" font-family="Inter, sans-serif" font-weight="700" font-size="28" fill="#b45309">G</text>
    </g>
    <!-- Column 18: IC 0.2 - small N -->
    <g text-anchor="middle">
      <text x="425" y="228" font-family="Inter, sans-serif" font-weight="700" font-size="12" fill="#525252" opacity="0.6">N</text>
    </g>
    <!-- Column 19: IC 0.1 -->
    <g text-anchor="middle">
      <text x="447" y="228" font-family="Inter, sans-serif" font-weight="700" font-size="8" fill="#525252" opacity="0.5">N</text>
    </g>

    <!-- Axis position label -->
    <text x="250" y="258" text-anchor="middle" font-family="Inter, sans-serif" font-size="10" fill="#525252">position</text>

    <!-- Bottom caption -->
    <text x="240" y="295" text-anchor="middle" font-family="Inter, sans-serif" font-size="9" fill="#525252" font-style="italic">letter height = information content at that position</text>
    <text x="240" y="310" text-anchor="middle" font-family="Inter, sans-serif" font-size="9" fill="#525252" font-style="italic">max 2 bits (fully conserved) · 0 bits (uniform)</text>
  </g>
</svg>
