<svg xmlns="http://www.w3.org/2000/svg" viewBox="0 0 1080 460" role="img" aria-labelledby="t d">
  <title id="t">ATAC footprint at a TF motif</title>
  <desc id="d">Central panel: a curve showing Tn5 cut density on the y-axis vs position relative to motif centre on the x-axis from minus 200 to plus 200 bp. Elevated flanking shoulders around 2× baseline and a prominent 20 bp-wide dip at the motif centre dropping to about 0.3× baseline. Labelled 'aggregated over 5,000 CTCF motif instances'. Side panel: 5 small stacked sub-plots showing noisy individual-instance cut-count traces, each looking essentially random with no clear dip visible. An arrow between them labelled 'sum over N sites → SNR × √N'.</desc>

  <defs>
    <marker id="arr-cobalt" markerWidth="10" markerHeight="10" refX="9" refY="5" orient="auto">
      <path d="M 0 0 L 10 5 L 0 10 z" fill="#1e3a8a"/>
    </marker>
  </defs>

  <text x="540" y="24" text-anchor="middle" font-family="Inter, sans-serif" font-size="11" font-weight="600" fill="#1e3a8a" letter-spacing="0.12em">ATAC FOOTPRINT · A COVERAGE TROUGH EMERGING FROM AVERAGING</text>

  <!-- ── LEFT: 5 individual noisy traces ── -->
  <g>
    <rect x="30" y="50" width="280" height="360" rx="6" fill="#ffffff" stroke="#c4c1b6"/>
    <text x="170" y="72" text-anchor="middle" font-family="Inter, sans-serif" font-size="12" font-weight="600" fill="#0a0a0a">individual motif instances</text>
    <text x="170" y="86" text-anchor="middle" font-family="Inter, sans-serif" font-size="9" fill="#525252" font-style="italic">too noisy to see a footprint in any single site</text>

    <!-- 5 small stacked panels -->
    <g>
      <!-- Instance 1 -->
      <line x1="50" y1="135" x2="290" y2="135" stroke="#c4c1b6" stroke-width="0.5"/>
      <path d="M 50 130 L 60 133 L 75 127 L 90 131 L 110 126 L 130 134 L 150 128 L 170 131 L 190 125 L 210 133 L 230 127 L 250 131 L 270 128 L 290 132"
            fill="none" stroke="#8a8a85" stroke-width="0.8"/>
      <text x="40" y="130" text-anchor="end" font-family="JetBrains Mono, monospace" font-size="8" fill="#8a8a85">#1</text>

      <!-- Instance 2 -->
      <line x1="50" y1="185" x2="290" y2="185" stroke="#c4c1b6" stroke-width="0.5"/>
      <path d="M 50 181 L 65 178 L 80 184 L 100 177 L 120 183 L 140 178 L 160 181 L 180 176 L 200 183 L 220 179 L 240 182 L 260 178 L 280 181 L 290 180"
            fill="none" stroke="#8a8a85" stroke-width="0.8"/>
      <text x="40" y="180" text-anchor="end" font-family="JetBrains Mono, monospace" font-size="8" fill="#8a8a85">#2</text>

      <!-- Instance 3 -->
      <line x1="50" y1="235" x2="290" y2="235" stroke="#c4c1b6" stroke-width="0.5"/>
      <path d="M 50 232 L 62 226 L 78 233 L 95 229 L 115 233 L 135 227 L 155 234 L 175 230 L 195 232 L 215 226 L 235 233 L 255 228 L 275 231 L 290 233"
            fill="none" stroke="#8a8a85" stroke-width="0.8"/>
      <text x="40" y="230" text-anchor="end" font-family="JetBrains Mono, monospace" font-size="8" fill="#8a8a85">#3</text>

      <!-- Instance 4 -->
      <line x1="50" y1="285" x2="290" y2="285" stroke="#c4c1b6" stroke-width="0.5"/>
      <path d="M 50 280 L 68 283 L 85 277 L 105 282 L 125 276 L 145 283 L 165 278 L 185 282 L 205 277 L 225 281 L 245 278 L 265 282 L 285 280"
            fill="none" stroke="#8a8a85" stroke-width="0.8"/>
      <text x="40" y="280" text-anchor="end" font-family="JetBrains Mono, monospace" font-size="8" fill="#8a8a85">#4</text>

      <!-- Instance 5 -->
      <line x1="50" y1="335" x2="290" y2="335" stroke="#c4c1b6" stroke-width="0.5"/>
      <path d="M 50 333 L 67 328 L 84 334 L 102 330 L 122 334 L 142 328 L 162 333 L 182 329 L 202 331 L 222 335 L 242 329 L 262 332 L 282 330 L 290 332"
            fill="none" stroke="#8a8a85" stroke-width="0.8"/>
      <text x="40" y="330" text-anchor="end" font-family="JetBrains Mono, monospace" font-size="8" fill="#8a8a85">#5</text>
    </g>

    <text x="170" y="388" text-anchor="middle" font-family="JetBrains Mono, monospace" font-size="8" fill="#8a8a85">… 4,995 more instances …</text>
  </g>

  <!-- Arrow between left and right -->
  <g transform="translate(340 220)">
    <line x1="0" y1="0" x2="50" y2="0" stroke="#1e3a8a" stroke-width="2" marker-end="url(#arr-cobalt)"/>
    <text x="25" y="-14" text-anchor="middle" font-family="Inter, sans-serif" font-size="9" fill="#1e3a8a" font-weight="600">sum over</text>
    <text x="25" y="-2" text-anchor="middle" font-family="JetBrains Mono, monospace" font-size="9" fill="#1e3a8a" font-weight="700">N = 5,000</text>
    <text x="25" y="22" text-anchor="middle" font-family="Inter, sans-serif" font-size="9" fill="#1e3a8a" font-weight="600">SNR × √N</text>
  </g>

  <!-- ── RIGHT: aggregated footprint ── -->
  <g>
    <rect x="410" y="50" width="640" height="360" rx="6" fill="#ffffff" stroke="#c4c1b6"/>
    <text x="730" y="72" text-anchor="middle" font-family="Inter, sans-serif" font-size="12" font-weight="600" fill="#0a0a0a">aggregated over 5,000 CTCF motif instances</text>

    <!-- Plot area -->
    <rect x="440" y="100" width="580" height="250" fill="#f6f4ee" stroke="#c4c1b6" stroke-width="0.5"/>

    <!-- Axes -->
    <line x1="440" y1="350" x2="1020" y2="350" stroke="#525252" stroke-width="1"/>
    <line x1="440" y1="100" x2="440" y2="350" stroke="#525252" stroke-width="1"/>

    <!-- X-axis ticks -->
    <g stroke="#525252" stroke-width="0.8">
      <line x1="440" y1="350" x2="440" y2="356"/>
      <line x1="585" y1="350" x2="585" y2="356"/>
      <line x1="730" y1="350" x2="730" y2="356"/>
      <line x1="875" y1="350" x2="875" y2="356"/>
      <line x1="1020" y1="350" x2="1020" y2="356"/>
    </g>
    <g font-family="JetBrains Mono, monospace" font-size="9" fill="#525252" text-anchor="middle">
      <text x="440" y="368">-200</text>
      <text x="585" y="368">-100</text>
      <text x="730" y="368">0</text>
      <text x="875" y="368">+100</text>
      <text x="1020" y="368">+200</text>
    </g>
    <text x="730" y="386" text-anchor="middle" font-family="Inter, sans-serif" font-size="10" fill="#525252">position relative to motif centre (bp)</text>

    <!-- Y-axis ticks -->
    <g font-family="JetBrains Mono, monospace" font-size="9" fill="#525252" text-anchor="end">
      <text x="434" y="354">0</text>
      <text x="434" y="270">0.5×</text>
      <text x="434" y="190">1×</text>
      <text x="434" y="110">2×</text>
    </g>
    <text x="410" y="225" text-anchor="middle" font-family="Inter, sans-serif" font-size="10" fill="#525252" transform="rotate(-90 410 225)">Tn5 cut density (× baseline)</text>

    <!-- Baseline at 1× -->
    <line x1="440" y1="190" x2="1020" y2="190" stroke="#8a8a85" stroke-width="0.8" stroke-dasharray="4 3"/>
    <text x="1025" y="193" font-family="JetBrains Mono, monospace" font-size="8" fill="#8a8a85">baseline</text>

    <!-- Footprint curve: flanks elevated to 2×, dip at centre to 0.3× spanning ±10 bp, smooth transitions -->
    <!--
      x-coords: -200→440, 0→730, +200→1020; 1.45 px per bp roughly (580 px / 400 bp)
      Flank shoulders (x ~ ±30 to ±100 bp) at y ≈ 110 (2×).
      Dip centre (x 0) at y ≈ 260 (0.3×).
      Dip width: -10 to +10 bp → x 716 to 745
    -->

    <path d="M 440 190 Q 480 175, 520 150 Q 570 115, 620 110 Q 680 115, 700 120 Q 710 140, 716 200 Q 724 255, 730 260 Q 737 255, 744 200 Q 750 140, 760 120 Q 780 115, 840 110 Q 890 115, 940 150 Q 980 175, 1020 190"
          fill="none" stroke="#1e3a8a" stroke-width="2.5"/>

    <!-- Fill under the curve (above and below baseline) -->
    <path d="M 440 190 Q 480 175, 520 150 Q 570 115, 620 110 Q 680 115, 700 120 Q 710 140, 716 200 L 716 190 L 440 190 Z"
          fill="#eef2ff" fill-opacity="0.7"/>
    <path d="M 744 190 L 744 200 Q 750 140, 760 120 Q 780 115, 840 110 Q 890 115, 940 150 Q 980 175, 1020 190 L 1020 190 Z"
          fill="#eef2ff" fill-opacity="0.7"/>
    <!-- Dip shading -->
    <path d="M 716 190 Q 724 255, 730 260 Q 737 255, 744 200 L 744 190 L 716 190 Z"
          fill="#fef2f2" fill-opacity="0.7"/>

    <!-- Annotations -->
    <g>
      <!-- Flank shoulders -->
      <line x1="610" y1="75" x2="620" y2="110" stroke="#1e3a8a" stroke-width="0.8"/>
      <text x="610" y="70" text-anchor="end" font-family="Inter, sans-serif" font-size="10" fill="#1e3a8a" font-weight="600">flank shoulder</text>
      <text x="610" y="82" text-anchor="end" font-family="JetBrains Mono, monospace" font-size="9" fill="#525252">~2× baseline</text>

      <line x1="855" y1="75" x2="845" y2="110" stroke="#1e3a8a" stroke-width="0.8"/>
      <text x="860" y="70" font-family="Inter, sans-serif" font-size="10" fill="#1e3a8a" font-weight="600">flank shoulder</text>
      <text x="860" y="82" font-family="JetBrains Mono, monospace" font-size="9" fill="#525252">~2× baseline</text>

      <!-- Central dip -->
      <line x1="730" y1="300" x2="730" y2="275" stroke="#b91c1c" stroke-width="0.8"/>
      <text x="730" y="320" text-anchor="middle" font-family="Inter, sans-serif" font-size="11" fill="#b91c1c" font-weight="700">FOOTPRINT</text>
      <text x="730" y="333" text-anchor="middle" font-family="JetBrains Mono, monospace" font-size="9" fill="#525252">~20 bp wide · ~0.3× baseline</text>
    </g>

    <!-- SNR readout -->
    <g transform="translate(440 400)">
      <text x="0" y="0" font-family="Inter, sans-serif" font-size="10" fill="#525252">SNR = (flank − centre) / σ_centre ≈ <tspan font-weight="700" fill="#0a0a0a">14.3</tspan></text>
    </g>
  </g>

  <!-- Bottom caption -->
  <text x="540" y="440" text-anchor="middle" font-family="Inter, sans-serif" font-size="10" fill="#8a8a85" font-style="italic">Deep coverage + thousands of motif instances make the binding shadow visible. Single-site inference is hopeless; ensemble inference is trivial.</text>
</svg>
