<svg xmlns="http://www.w3.org/2000/svg" viewBox="0 0 1080 360" role="img" aria-labelledby="t d">
  <title id="t">CpG islands across a promoter</title>
  <desc id="d">A 10 kb region. Top: gene model with exons and introns. Middle: CpG density track with a clear peak at the promoter shaded as 'CpG island'. Bottom: per-CpG methylation status — dense open circles (unmethylated) inside the island, sparse filled circles (methylated) everywhere else. Annotations on the right explain 'island: unmethylated → active promoter' and 'bulk genome: methylated → structural/silenced'.</desc>

  <text x="540" y="24" text-anchor="middle" font-family="Inter, sans-serif" font-size="11" font-weight="600" fill="#1e3a8a" letter-spacing="0.12em">CpG ISLANDS · LOCALLY UNMETHYLATED AT PROMOTERS · METHYLATED EVERYWHERE ELSE</text>

  <!-- Coordinate axis -->
  <g>
    <line x1="80" y1="60" x2="960" y2="60" stroke="#525252" stroke-width="1"/>
    <g stroke="#525252" stroke-width="0.8">
      <line x1="80"  y1="60" x2="80"  y2="66"/>
      <line x1="256" y1="60" x2="256" y2="66"/>
      <line x1="432" y1="60" x2="432" y2="66"/>
      <line x1="608" y1="60" x2="608" y2="66"/>
      <line x1="784" y1="60" x2="784" y2="66"/>
      <line x1="960" y1="60" x2="960" y2="66"/>
    </g>
    <g font-family="JetBrains Mono, monospace" font-size="9" fill="#525252" text-anchor="middle">
      <text x="80"  y="80">0 kb</text>
      <text x="256" y="80">2</text>
      <text x="432" y="80">4</text>
      <text x="608" y="80">6</text>
      <text x="784" y="80">8</text>
      <text x="960" y="80">10 kb</text>
    </g>
  </g>

  <!-- CpG island shaded region (covers promoter) -->
  <rect x="300" y="100" width="200" height="230" fill="#eef2ff" stroke="#1e3a8a" stroke-width="1" stroke-dasharray="4 3" opacity="0.6"/>
  <text x="400" y="95" text-anchor="middle" font-family="JetBrains Mono, monospace" font-size="10" fill="#1e3a8a" font-weight="600">CpG island (0.5–2 kb)</text>

  <!-- Gene model -->
  <g transform="translate(0 110)">
    <text x="74" y="20" text-anchor="end" font-family="JetBrains Mono, monospace" font-size="9" fill="#525252">gene</text>
    <!-- Intron line -->
    <line x1="440" y1="20" x2="880" y2="20" stroke="#1e3a8a" stroke-width="1.5"/>
    <!-- Exons -->
    <rect x="440" y="10" width="70" height="20" fill="#eef2ff" stroke="#1e3a8a" stroke-width="1"/>
    <rect x="600" y="10" width="90" height="20" fill="#eef2ff" stroke="#1e3a8a" stroke-width="1"/>
    <rect x="780" y="10" width="100" height="20" fill="#eef2ff" stroke="#1e3a8a" stroke-width="1"/>
    <!-- TSS arrow -->
    <line x1="440" y1="10" x2="440" y2="-6" stroke="#b45309" stroke-width="1.5"/>
    <polygon points="437,-5 443,-5 440,-12" fill="#b45309"/>
    <text x="440" y="-14" text-anchor="middle" font-family="JetBrains Mono, monospace" font-size="9" fill="#b45309" font-weight="700">TSS</text>
    <text x="660" y="24" text-anchor="middle" font-family="JetBrains Mono, monospace" font-size="9" fill="#525252" font-style="italic">GENE_X</text>
  </g>

  <!-- CpG density track -->
  <g transform="translate(0 160)">
    <text x="74" y="20" text-anchor="end" font-family="JetBrains Mono, monospace" font-size="9" fill="#525252">CpG density</text>
    <line x1="80" y1="60" x2="960" y2="60" stroke="#c4c1b6" stroke-width="0.5"/>
    <!-- Density curve: low outside, high inside the island -->
    <path d="M 80 58 L 180 56 L 240 52 L 290 40 L 330 15 L 380 5 L 420 10 L 470 25 L 500 45 L 540 55 L 610 58 L 700 57 L 780 58 L 880 57 L 960 58 L 960 60 L 80 60 Z"
          fill="#1e3a8a" fill-opacity="0.55" stroke="#1e3a8a" stroke-width="1.2"/>
  </g>

  <!-- Per-CpG methylation status -->
  <g transform="translate(0 250)">
    <text x="74" y="20" text-anchor="end" font-family="JetBrains Mono, monospace" font-size="9" fill="#525252">methylation</text>
    <line x1="80" y1="40" x2="960" y2="40" stroke="#c4c1b6" stroke-width="0.5"/>

    <!-- Sparse methylated CpGs outside island (filled circles) -->
    <g fill="#0a0a0a">
      <circle cx="100" cy="40" r="4"/>
      <circle cx="135" cy="40" r="4"/>
      <circle cx="165" cy="40" r="4"/>
      <circle cx="210" cy="40" r="4"/>
      <circle cx="255" cy="40" r="4"/>
      <circle cx="290" cy="40" r="4"/>
      <!-- skip island region -->
      <circle cx="530" cy="40" r="4"/>
      <circle cx="560" cy="40" r="4"/>
      <circle cx="600" cy="40" r="4"/>
      <circle cx="640" cy="40" r="4"/>
      <circle cx="680" cy="40" r="4"/>
      <circle cx="720" cy="40" r="4"/>
      <circle cx="760" cy="40" r="4"/>
      <circle cx="800" cy="40" r="4"/>
      <circle cx="840" cy="40" r="4"/>
      <circle cx="885" cy="40" r="4"/>
      <circle cx="925" cy="40" r="4"/>
    </g>

    <!-- Dense unmethylated CpGs inside island (open circles) -->
    <g fill="none" stroke="#0a0a0a" stroke-width="1.5">
      <circle cx="310" cy="40" r="4"/>
      <circle cx="325" cy="40" r="4"/>
      <circle cx="340" cy="40" r="4"/>
      <circle cx="355" cy="40" r="4"/>
      <circle cx="370" cy="40" r="4"/>
      <circle cx="385" cy="40" r="4"/>
      <circle cx="400" cy="40" r="4"/>
      <circle cx="415" cy="40" r="4"/>
      <circle cx="430" cy="40" r="4"/>
      <circle cx="445" cy="40" r="4"/>
      <circle cx="460" cy="40" r="4"/>
      <circle cx="475" cy="40" r="4"/>
      <circle cx="490" cy="40" r="4"/>
    </g>

    <!-- Legend -->
    <g transform="translate(80 68)">
      <circle cx="5" cy="0" r="4" fill="#0a0a0a"/>
      <text x="14" y="4" font-family="Inter, sans-serif" font-size="9" fill="#0a0a0a">methylated</text>
      <circle cx="120" cy="0" r="4" fill="none" stroke="#0a0a0a" stroke-width="1.5"/>
      <text x="130" y="4" font-family="Inter, sans-serif" font-size="9" fill="#0a0a0a">unmethylated</text>
    </g>

    <!-- Annotations on the right -->
    <g transform="translate(770 68)">
      <text x="0" y="0" font-family="Inter, sans-serif" font-size="9" fill="#1e3a8a" font-weight="600">inside island:</text>
      <text x="0" y="12" font-family="Inter, sans-serif" font-size="9" fill="#525252">unmethylated → active</text>
    </g>
  </g>
</svg>
