<svg xmlns="http://www.w3.org/2000/svg" viewBox="0 0 1200 720" width="1200" height="720" font-family="Inter, sans-serif">
  <defs>
    <style>text { font-family: Inter, sans-serif; } .mono { font-family: 'JetBrains Mono', monospace; font-size: 10px; }</style>
    <marker id="arr3" viewBox="0 0 10 10" refX="9" refY="5" markerWidth="8" markerHeight="8" orient="auto">
      <path d="M 0 0 L 10 5 L 0 10 z" fill="#525252"/>
    </marker>
  </defs>
  <rect width="1200" height="720" fill="#fafaf9" rx="6"/>
  <text x="600" y="28" text-anchor="middle" font-size="14" font-weight="600" fill="#111827">Two-sample MR analysis flow — exposure GWAS + outcome GWAS to causal estimate</text>

  <!-- Main column -->
  <g transform="translate(280,60)">
    <g>
      <rect x="0" y="0" width="320" height="56" fill="#dbeafe" stroke="#1e3a8a" stroke-width="1.5" rx="6"/>
      <text x="20" y="22" font-size="12" font-weight="700" fill="#1e3a8a">1. Pick exposure-outcome pair</text>
      <text x="20" y="40" font-size="10" class="mono" fill="#374151">e.g., LDL → CAD; BMI → diabetes</text>
    </g>
    <line x1="160" y1="56" x2="160" y2="76" stroke="#525252" stroke-width="1.4" marker-end="url(#arr3)"/>
    <g transform="translate(0,76)">
      <rect x="0" y="0" width="320" height="56" fill="#dbeafe" stroke="#1e3a8a" stroke-width="1.5" rx="6"/>
      <text x="20" y="22" font-size="12" font-weight="700" fill="#1e3a8a">2. Pull GWAS summary stats</text>
      <text x="20" y="40" font-size="10" class="mono" fill="#374151">MR-Base · IEU OpenGWAS · GWAS Catalog</text>
    </g>
    <line x1="160" y1="132" x2="160" y2="152" stroke="#525252" stroke-width="1.4" marker-end="url(#arr3)"/>
    <g transform="translate(0,152)">
      <rect x="0" y="0" width="320" height="56" fill="#fef3c7" stroke="#b45309" stroke-width="1.5" rx="6"/>
      <text x="20" y="22" font-size="12" font-weight="700" fill="#b45309">3. Select instruments</text>
      <text x="20" y="40" font-size="10" class="mono" fill="#374151">p &lt; 5e-8 in exposure GWAS · LD-clump r² &lt; 0.001</text>
    </g>
    <line x1="160" y1="208" x2="160" y2="228" stroke="#525252" stroke-width="1.4" marker-end="url(#arr3)"/>
    <g transform="translate(0,228)">
      <rect x="0" y="0" width="320" height="56" fill="#fef3c7" stroke="#b45309" stroke-width="1.5" rx="6"/>
      <text x="20" y="22" font-size="12" font-weight="700" fill="#b45309">4. Harmonise effect alleles</text>
      <text x="20" y="40" font-size="10" class="mono" fill="#374151">align β_ZX and β_ZY to the same allele</text>
    </g>
    <line x1="160" y1="284" x2="160" y2="304" stroke="#525252" stroke-width="1.4" marker-end="url(#arr3)"/>
    <g transform="translate(0,304)">
      <rect x="0" y="0" width="320" height="56" fill="#dcfce7" stroke="#065f46" stroke-width="1.5" rx="6"/>
      <text x="20" y="22" font-size="12" font-weight="700" fill="#065f46">5. Per-SNP Wald ratios</text>
      <text x="20" y="40" font-size="10" class="mono" fill="#374151">β_ZY / β_ZX with delta-method SE</text>
    </g>
    <line x1="160" y1="360" x2="160" y2="380" stroke="#525252" stroke-width="1.4" marker-end="url(#arr3)"/>
    <g transform="translate(0,380)">
      <rect x="0" y="0" width="320" height="80" fill="#dcfce7" stroke="#065f46" stroke-width="1.5" rx="6"/>
      <text x="20" y="22" font-size="12" font-weight="700" fill="#065f46">6. Run 4 estimators</text>
      <text x="20" y="40" font-size="10" class="mono" fill="#374151">IVW · MR-Egger · weighted median · MR-PRESSO</text>
      <text x="20" y="58" font-size="9" fill="#525252">cross-validate; report convergence</text>
    </g>
    <line x1="160" y1="460" x2="160" y2="480" stroke="#525252" stroke-width="1.4" marker-end="url(#arr3)"/>
    <g transform="translate(0,480)">
      <rect x="0" y="0" width="320" height="56" fill="#ede9fe" stroke="#7c3aed" stroke-width="1.5" rx="6"/>
      <text x="20" y="22" font-size="12" font-weight="700" fill="#7c3aed">7. Steiger directionality</text>
      <text x="20" y="40" font-size="10" class="mono" fill="#374151">confirm X → Y, not Y → X</text>
    </g>
    <line x1="160" y1="536" x2="160" y2="556" stroke="#525252" stroke-width="1.4" marker-end="url(#arr3)"/>
    <g transform="translate(0,556)">
      <rect x="0" y="0" width="320" height="56" fill="#fff" stroke="#525252" stroke-width="2" rx="6"/>
      <text x="160" y="22" text-anchor="middle" font-size="13" font-weight="700" fill="#525252">8. Report causal effect (or flag)</text>
      <text x="160" y="40" text-anchor="middle" font-size="10" class="mono" fill="#374151">point estimate + 95% CI + sensitivity panel</text>
    </g>
  </g>

  <!-- Side: tools panel -->
  <g transform="translate(60,60)">
    <rect width="200" height="280" fill="#fff" stroke="#d6d3d1" rx="6"/>
    <text x="100" y="22" text-anchor="middle" font-size="12" font-weight="700" fill="#374151">Tools</text>
    <line x1="20" y1="32" x2="180" y2="32" stroke="#e7e5e4"/>
    <g transform="translate(20,52)" font-size="11" fill="#374151">
      <text x="0" y="0" font-weight="700">R</text>
      <text x="0" y="16" class="mono" fill="#525252">TwoSampleMR</text>
      <text x="0" y="30" class="mono" fill="#525252">MendelianRandomization</text>
      <text x="0" y="48" font-weight="700">Python</text>
      <text x="0" y="64" class="mono" fill="#525252">pyMR</text>
      <text x="0" y="78" class="mono" fill="#525252">causal-inference-tools</text>
      <text x="0" y="100" font-weight="700">Web</text>
      <text x="0" y="116" class="mono" fill="#525252">MR-Base mrbase.org</text>
      <text x="0" y="130" class="mono" fill="#525252">Open Targets</text>
      <text x="0" y="148" font-weight="700">Pleiotropy</text>
      <text x="0" y="164" class="mono" fill="#525252">MR-PRESSO</text>
      <text x="0" y="178" class="mono" fill="#525252">CAUSE (Bayesian)</text>
      <text x="0" y="200" font-weight="700">eQTL</text>
      <text x="0" y="216" class="mono" fill="#525252">GTEx, eQTLGen</text>
    </g>
  </g>

  <!-- Side: example -->
  <g transform="translate(660,60)">
    <rect width="500" height="540" fill="#fff" stroke="#d6d3d1" rx="6"/>
    <text x="250" y="22" text-anchor="middle" font-size="12" font-weight="700" fill="#374151">Worked example: LDL → CAD</text>
    <line x1="20" y1="32" x2="480" y2="32" stroke="#e7e5e4"/>

    <g transform="translate(40,52)" font-size="11" fill="#374151">
      <text x="0" y="0" font-weight="700">Step 1.</text>
      <text x="60" y="0" class="mono" fill="#525252">LDL (exposure) → CAD (outcome)</text>
      <text x="0" y="22" font-weight="700">Step 2.</text>
      <text x="60" y="22" class="mono" fill="#525252">GIANT consortium · CARDIoGRAM</text>
      <text x="0" y="44" font-weight="700">Step 3.</text>
      <text x="60" y="44" class="mono" fill="#525252">100 SNPs at p &lt; 5e-8 in lipid loci</text>
      <text x="0" y="66" font-weight="700">Step 4.</text>
      <text x="60" y="66" class="mono" fill="#525252">harmonise effect alleles</text>
      <text x="0" y="88" font-weight="700">Step 5.</text>
      <text x="60" y="88" class="mono" fill="#525252">100 Wald ratios (positive cluster)</text>
      <text x="0" y="110" font-weight="700">Step 6.</text>
      <text x="60" y="110" class="mono" fill="#525252">IVW = 0.55 (95% CI 0.45-0.65)</text>
      <text x="60" y="124" class="mono" fill="#525252">Egger slope ≈ 0.50, intercept ≈ 0</text>
      <text x="60" y="138" class="mono" fill="#525252">Weighted median = 0.52</text>
      <text x="60" y="152" class="mono" fill="#525252">MR-PRESSO: 3 outliers removed</text>
      <text x="0" y="174" font-weight="700">Step 7.</text>
      <text x="60" y="174" class="mono" fill="#525252">Steiger: X → Y for 92% of SNPs</text>
      <text x="0" y="200" font-weight="700" fill="#065f46">Step 8 — verdict:</text>
      <text x="60" y="218" font-size="14" font-weight="700" fill="#065f46" class="mono">β = 0.55, p &lt; 1e-30</text>
      <text x="60" y="236" font-size="10" font-style="italic" fill="#525252">→ strong causal evidence</text>
      <text x="60" y="252" font-size="10" font-style="italic" fill="#525252">→ supports PCSK9 inhibitor</text>
      <text x="60" y="268" font-size="10" font-style="italic" fill="#525252">drug development</text>
    </g>

    <g transform="translate(40,320)">
      <rect width="420" height="190" fill="#dcfce7" stroke="#065f46" rx="4"/>
      <text x="210" y="22" text-anchor="middle" font-size="11" font-weight="700" fill="#065f46">What the LDL → CAD MR taught us</text>
      <line x1="20" y1="32" x2="400" y2="32" stroke="#065f46" opacity="0.4"/>
      <g transform="translate(20,52)" font-size="10" fill="#374151">
        <text x="0" y="0">• Multiple sensitivity analyses converged → high confidence.</text>
        <text x="0" y="18">• Steiger confirmed direction; reverse causation excluded.</text>
        <text x="0" y="36">• Effect magnitude (~0.55 SD per SD LDL) → clinically meaningful.</text>
        <text x="0" y="54">• Pre-RCT MR matched the eventual RCT result almost exactly.</text>
        <text x="0" y="72">• The PCSK9 inhibitor evolocumab was approved 4 years after</text>
        <text x="0" y="86">  the seminal MR studies — saving ~$200M of risky trial spend.</text>
        <text x="0" y="106" font-style="italic" fill="#525252">This is the canonical "MR works" story.</text>
      </g>
    </g>
  </g>
</svg>
