<svg xmlns="http://www.w3.org/2000/svg" viewBox="0 0 1200 540" width="1200" height="540" font-family="Inter, sans-serif">
  <defs><style>text { font-family: Inter, sans-serif; } .mono { font-family: 'JetBrains Mono', monospace; font-size: 10px; }</style></defs>
  <rect width="1200" height="540" fill="#fafaf9" rx="6"/>
  <text x="600" y="28" text-anchor="middle" font-size="14" font-weight="600" fill="#111827">MR-Egger — non-zero intercept tests for systematic horizontal pleiotropy</text>

  <!-- IVW vs MR-Egger plots -->
  <!-- Left: IVW (forced through origin) -->
  <g transform="translate(60,80)">
    <rect width="500" height="380" fill="#fff" stroke="#1e3a8a" stroke-width="2" rx="6"/>
    <text x="250" y="24" text-anchor="middle" font-size="13" font-weight="700" fill="#1e3a8a">IVW (slope through origin)</text>
    <text x="250" y="40" text-anchor="middle" font-size="10" fill="#525252">assumes all SNPs valid IVs</text>
    <line x1="20" y1="52" x2="480" y2="52" stroke="#dbeafe"/>

    <g transform="translate(60,80)">
      <line x1="0" y1="240" x2="380" y2="240" stroke="#374151"/>
      <line x1="0" y1="0" x2="0" y2="240" stroke="#374151"/>
      <line x1="0" y1="120" x2="380" y2="120" stroke="#9ca3af" stroke-dasharray="3 3"/>

      <g class="mono" font-size="9" fill="#525252">
        <text x="0" y="256" text-anchor="middle">0</text>
        <text x="380" y="256" text-anchor="middle">+0.04</text>
        <text x="-6" y="124" text-anchor="end">0</text>
      </g>
      <text x="190" y="276" text-anchor="middle" font-size="10" fill="#525252">β_{Z → X}</text>
      <text x="-30" y="120" text-anchor="middle" font-size="10" fill="#525252" transform="rotate(-90 -30 120)">β_{Z → Y}</text>

      <!-- Forced through origin slope ≈ 0.6 -->
      <line x1="0" y1="120" x2="380" y2="0" stroke="#1e3a8a" stroke-width="2.5"/>

      <!-- Pleiotropic SNPs: shifted up by α -->
      <g fill="#dc2626">
        <circle cx="40" cy="80" r="5"/>
        <circle cx="80" cy="60" r="5"/>
        <circle cx="120" cy="50" r="5"/>
        <circle cx="160" cy="30" r="5"/>
        <circle cx="200" cy="20" r="5"/>
        <circle cx="240" cy="10" r="5"/>
        <circle cx="280" cy="20" r="5"/>
        <circle cx="320" cy="0" r="5"/>
        <circle cx="350" cy="20" r="5"/>
      </g>

      <text x="200" y="160" text-anchor="middle" font-size="10" font-weight="700" fill="#1e3a8a" class="mono">slope = 0.55 (BIASED)</text>

      <!-- annotation: SNPs lie above origin -->
      <text x="40" y="290" font-size="9" fill="#dc2626" font-style="italic">SNPs sit systematically above the line</text>
    </g>
  </g>

  <!-- Right: MR-Egger (fits intercept) -->
  <g transform="translate(620,80)">
    <rect width="500" height="380" fill="#fff" stroke="#7c3aed" stroke-width="2" rx="6"/>
    <text x="250" y="24" text-anchor="middle" font-size="13" font-weight="700" fill="#7c3aed">MR-Egger (intercept α)</text>
    <text x="250" y="40" text-anchor="middle" font-size="10" fill="#525252">α ≠ 0 → systematic pleiotropy</text>
    <line x1="20" y1="52" x2="480" y2="52" stroke="#ede9fe"/>

    <g transform="translate(60,80)">
      <line x1="0" y1="240" x2="380" y2="240" stroke="#374151"/>
      <line x1="0" y1="0" x2="0" y2="240" stroke="#374151"/>
      <line x1="0" y1="120" x2="380" y2="120" stroke="#9ca3af" stroke-dasharray="3 3"/>

      <g class="mono" font-size="9" fill="#525252">
        <text x="0" y="256" text-anchor="middle">0</text>
        <text x="380" y="256" text-anchor="middle">+0.04</text>
        <text x="-6" y="124" text-anchor="end">0</text>
      </g>
      <text x="190" y="276" text-anchor="middle" font-size="10" fill="#525252">β_{Z → X}</text>

      <!-- Egger fit with intercept α > 0 -->
      <line x1="0" y1="80" x2="380" y2="20" stroke="#7c3aed" stroke-width="2.5"/>

      <!-- Same SNPs -->
      <g fill="#dc2626">
        <circle cx="40" cy="80" r="5"/>
        <circle cx="80" cy="60" r="5"/>
        <circle cx="120" cy="50" r="5"/>
        <circle cx="160" cy="30" r="5"/>
        <circle cx="200" cy="20" r="5"/>
        <circle cx="240" cy="10" r="5"/>
        <circle cx="280" cy="20" r="5"/>
        <circle cx="320" cy="0" r="5"/>
        <circle cx="350" cy="20" r="5"/>
      </g>

      <!-- Intercept marker -->
      <circle cx="0" cy="80" r="6" fill="#dc2626" stroke="#fff" stroke-width="2"/>
      <text x="-50" y="80" text-anchor="middle" font-size="10" font-weight="700" fill="#dc2626" class="mono">α ≠ 0</text>
      <text x="-50" y="94" text-anchor="middle" font-size="9" fill="#dc2626">pleiotropy</text>

      <text x="200" y="60" text-anchor="middle" font-size="10" font-weight="700" fill="#7c3aed" class="mono">slope = 0.45 (CORRECTED)</text>
    </g>
  </g>

  <!-- Bottom banner -->
  <g transform="translate(60,490)">
    <rect width="1080" height="40" fill="#fef3c7" stroke="#b45309" rx="4"/>
    <text x="540" y="22" text-anchor="middle" font-size="11" font-weight="600" fill="#92400e">If α ≠ 0 significantly: trust the Egger slope, not IVW. If α ≈ 0 but slopes differ: investigate per-SNP outliers via MR-PRESSO.</text>
  </g>
</svg>
