<svg xmlns="http://www.w3.org/2000/svg" viewBox="0 0 1200 720" width="1200" height="720" font-family="Inter, sans-serif">
  <defs><style>text { font-family: Inter, sans-serif; } .mono { font-family: 'JetBrains Mono', monospace; font-size: 10px; }</style></defs>
  <rect width="1200" height="720" fill="#fafaf9" rx="6"/>
  <text x="600" y="28" text-anchor="middle" font-size="14" font-weight="600" fill="#111827">Cis-MR for PCSK9 — locus zoom + Wald scatter + PheWAS scan</text>

  <!-- Top: locus zoom -->
  <g transform="translate(60,70)">
    <rect width="1080" height="200" fill="#fff" stroke="#d6d3d1" rx="6"/>
    <text x="540" y="22" text-anchor="middle" font-size="12" font-weight="700" fill="#374151">Top — chr1 PCSK9 locus, ±100 kb of TSS</text>
    <line x1="40" y1="34" x2="1040" y2="34" stroke="#e7e5e4"/>

    <g transform="translate(60,60)">
      <!-- chromosome bar -->
      <line x1="0" y1="80" x2="960" y2="80" stroke="#525252" stroke-width="3"/>
      <text x="0" y="60" text-anchor="middle" font-size="10" class="mono" fill="#525252">−100 kb</text>
      <text x="960" y="60" text-anchor="middle" font-size="10" class="mono" fill="#525252">+100 kb</text>

      <!-- PCSK9 gene region -->
      <rect x="380" y="70" width="200" height="20" fill="#1e3a8a"/>
      <text x="480" y="84" text-anchor="middle" font-size="11" font-weight="700" fill="#fff" class="mono">PCSK9</text>
      <text x="480" y="106" text-anchor="middle" font-size="10" fill="#525252">~22 kb gene</text>

      <!-- TSS marker -->
      <line x1="380" y1="60" x2="380" y2="100" stroke="#dc2626" stroke-width="2"/>
      <text x="380" y="50" text-anchor="middle" font-size="9" font-weight="700" fill="#dc2626">TSS</text>

      <!-- cis-eQTL SNPs as ticks -->
      <g stroke="#b45309" stroke-width="2.5">
        <line x1="320" y1="58" x2="320" y2="100"/>
        <line x1="380" y1="58" x2="380" y2="100"/>
        <line x1="420" y1="58" x2="420" y2="100"/>
        <line x1="500" y1="58" x2="500" y2="100"/>
        <line x1="560" y1="58" x2="560" y2="100"/>
        <line x1="600" y1="58" x2="600" y2="100"/>
      </g>

      <!-- −log10 p-value below for eQTL -->
      <text x="0" y="140" font-size="10" font-weight="700" fill="#b45309">−log₁₀ p (eQTL)</text>
      <line x1="0" y1="120" x2="960" y2="120" stroke="#9ca3af"/>
      <g fill="#b45309">
        <circle cx="320" cy="105" r="3"/>
        <circle cx="380" cy="93" r="3"/>
        <circle cx="420" cy="100" r="3"/>
        <circle cx="500" cy="95" r="3"/>
        <circle cx="560" cy="98" r="3"/>
        <circle cx="600" cy="103" r="3"/>
      </g>

      <text x="700" y="50" font-size="11" font-weight="700" fill="#b45309" class="mono">6 cis-eQTL SNPs (GTEx liver)</text>
    </g>
  </g>

  <!-- Middle: per-SNP Wald scatter -->
  <g transform="translate(60,300)">
    <rect width="500" height="280" fill="#fff" stroke="#d6d3d1" rx="6"/>
    <text x="250" y="22" text-anchor="middle" font-size="12" font-weight="700" fill="#374151">Wald ratio scatter (cis-SNPs only)</text>

    <g transform="translate(40,50)">
      <line x1="0" y1="180" x2="380" y2="180" stroke="#374151"/>
      <line x1="0" y1="0" x2="0" y2="180" stroke="#374151"/>
      <line x1="0" y1="180" x2="380" y2="0" stroke="#1e3a8a" stroke-width="2.5" stroke-dasharray="6 4"/>
      <text x="280" y="80" font-size="11" font-weight="700" fill="#1e3a8a" class="mono">slope = −0.55</text>
      <text x="280" y="96" font-size="10" fill="#525252">causal effect of PCSK9 → CAD</text>

      <g class="mono" font-size="9" fill="#525252">
        <text x="0" y="196" text-anchor="middle">0</text>
        <text x="380" y="196" text-anchor="middle">+0.05</text>
        <text x="-6" y="184" text-anchor="end">0</text>
        <text x="-6" y="4" text-anchor="end">−0.03</text>
      </g>
      <text x="190" y="216" text-anchor="middle" font-size="10" fill="#525252">β_{Z → PCSK9 expr}</text>
      <text x="-30" y="90" text-anchor="middle" font-size="10" fill="#525252" transform="rotate(-90 -30 90)">β_{Z → CAD}</text>

      <!-- 6 cis-eQTL points -->
      <g fill="#dc2626">
        <circle cx="80" cy="150" r="6"/>
        <circle cx="140" cy="120" r="6"/>
        <circle cx="200" cy="90" r="6"/>
        <circle cx="240" cy="80" r="6"/>
        <circle cx="300" cy="50" r="6"/>
        <circle cx="340" cy="30" r="6"/>
      </g>
    </g>
  </g>

  <!-- Right: PheWAS scan -->
  <g transform="translate(580,300)">
    <rect width="560" height="280" fill="#fff" stroke="#d6d3d1" rx="6"/>
    <text x="280" y="22" text-anchor="middle" font-size="12" font-weight="700" fill="#374151">Side-effect PheWAS scan</text>
    <text x="280" y="38" text-anchor="middle" font-size="10" fill="#525252">cis-IVs against ~50 phenotype categories</text>

    <g transform="translate(40,60)">
      <line x1="0" y1="200" x2="480" y2="200" stroke="#374151"/>

      <!-- Phenotype bars -->
      <g>
        <!-- LDL: large negative effect, expected -->
        <rect x="0" y="60" width="14" height="140" fill="#dc2626"/>
        <text x="7" y="216" text-anchor="middle" font-size="9" fill="#525252" class="mono" transform="rotate(-45 7 216)">LDL</text>

        <rect x="20" y="80" width="14" height="120" fill="#dc2626"/>
        <text x="27" y="216" text-anchor="middle" font-size="9" fill="#525252" class="mono" transform="rotate(-45 27 216)">CAD</text>

        <rect x="40" y="180" width="14" height="20" fill="#9ca3af"/>
        <text x="47" y="216" text-anchor="middle" font-size="9" fill="#525252" class="mono" transform="rotate(-45 47 216)">stroke</text>

        <rect x="60" y="190" width="14" height="10" fill="#9ca3af"/>
        <text x="67" y="216" text-anchor="middle" font-size="9" fill="#525252" class="mono" transform="rotate(-45 67 216)">T2D</text>

        <rect x="80" y="195" width="14" height="5" fill="#9ca3af"/>
        <text x="87" y="216" text-anchor="middle" font-size="9" fill="#525252" class="mono" transform="rotate(-45 87 216)">CKD</text>

        <rect x="100" y="195" width="14" height="5" fill="#9ca3af"/>
        <text x="107" y="216" text-anchor="middle" font-size="9" fill="#525252" class="mono" transform="rotate(-45 107 216)">cancer</text>

        <rect x="120" y="195" width="14" height="5" fill="#9ca3af"/>
        <text x="127" y="216" text-anchor="middle" font-size="9" fill="#525252" class="mono" transform="rotate(-45 127 216)">infection</text>

        <rect x="140" y="195" width="14" height="5" fill="#9ca3af"/>
        <text x="147" y="216" text-anchor="middle" font-size="9" fill="#525252" class="mono" transform="rotate(-45 147 216)">depression</text>

        <rect x="160" y="195" width="14" height="5" fill="#9ca3af"/>
        <text x="167" y="216" text-anchor="middle" font-size="9" fill="#525252" class="mono" transform="rotate(-45 167 216)">cognitive</text>

        <rect x="180" y="195" width="14" height="5" fill="#9ca3af"/>
        <text x="187" y="216" text-anchor="middle" font-size="9" fill="#525252" class="mono" transform="rotate(-45 187 216)">liver</text>

        <rect x="200" y="195" width="14" height="5" fill="#9ca3af"/>
        <text x="207" y="216" text-anchor="middle" font-size="9" fill="#525252" class="mono" transform="rotate(-45 207 216)">renal</text>

        <rect x="220" y="195" width="14" height="5" fill="#9ca3af"/>
        <rect x="240" y="194" width="14" height="6" fill="#9ca3af"/>
        <rect x="260" y="195" width="14" height="5" fill="#9ca3af"/>
        <rect x="280" y="194" width="14" height="6" fill="#9ca3af"/>
        <rect x="300" y="195" width="14" height="5" fill="#9ca3af"/>
        <rect x="320" y="194" width="14" height="6" fill="#9ca3af"/>
        <rect x="340" y="195" width="14" height="5" fill="#9ca3af"/>
        <rect x="360" y="194" width="14" height="6" fill="#9ca3af"/>
        <rect x="380" y="195" width="14" height="5" fill="#9ca3af"/>
        <rect x="400" y="194" width="14" height="6" fill="#9ca3af"/>
        <rect x="420" y="195" width="14" height="5" fill="#9ca3af"/>
        <rect x="440" y="194" width="14" height="6" fill="#9ca3af"/>
        <rect x="460" y="195" width="14" height="5" fill="#9ca3af"/>
        <text x="375" y="216" font-size="9" fill="#525252" class="mono" transform="rotate(-45 375 216)">... 35 more, all null</text>
      </g>

      <text x="0" y="-6" font-size="10" font-weight="700" fill="#374151">Effect (|β|)</text>

      <!-- Reference threshold -->
      <line x1="0" y1="120" x2="480" y2="120" stroke="#dc2626" stroke-dasharray="3 3"/>
      <text x="480" y="118" text-anchor="end" font-size="9" fill="#dc2626">FDR q = 0.05</text>
    </g>
    <text x="280" y="276" text-anchor="middle" font-size="10" fill="#525252" font-style="italic">Only LDL and CAD pass — clean target with no major off-target signals</text>
  </g>

  <!-- Bottom banner -->
  <g transform="translate(60,610)">
    <rect width="1080" height="80" fill="#dcfce7" stroke="#065f46" rx="4"/>
    <text x="540" y="22" text-anchor="middle" font-size="12" font-weight="700" fill="#065f46">Cis-MR for PCSK9: clean LDL effect, expected CAD effect, no major off-targets</text>
    <text x="540" y="42" text-anchor="middle" font-size="10" fill="#374151">→ green-light for PCSK9-inhibitor drug development → evolocumab + alirocumab approved 2015 → ~$4B/year revenue.</text>
    <text x="540" y="60" text-anchor="middle" font-size="10" font-style="italic" fill="#525252">The textbook cis-MR-to-FDA pipeline; the model for modern target validation in pharma.</text>
  </g>
</svg>
