<svg xmlns="http://www.w3.org/2000/svg" viewBox="0 0 1200 660" role="img" aria-labelledby="t d">
  <title id="t">Iterative correction (ICE) of a Hi-C contact matrix</title>
  <desc id="d">A four-panel figure showing iterative matrix balancing on the same Hi-C window. Panel A is the raw contact matrix at 10 kb resolution showing two bright vertical bands and one dark band indicating bin-specific coverage bias, plus background TAD and compartment structure mostly hidden. Panel B is after one ICE iteration, with the bands still visible but less extreme. Panel C is after iteration 20, with the bands gone and triangular TAD blocks along the diagonal and a faint compartment checkerboard now visible. Panel D is a convergence plot showing the standard deviation of row sums decaying exponentially against iteration count from about 1.0 to near zero over twenty iterations.</desc>

  <rect x="0" y="0" width="1200" height="660" fill="#fafaf9"/>

  <!-- Header -->
  <g>
    <text x="60" y="40" font-family="Inter, sans-serif" font-size="13" font-weight="700" fill="#1e3a8a" letter-spacing="0.08em">ITERATIVE CORRECTION (ICE) — REMOVING BIN-SPECIFIC BIAS</text>
    <text x="60" y="58" font-family="Inter, sans-serif" font-size="11" font-style="italic" fill="#525252">Drive row and column sums toward a uniform target; banding bias dissolves; structure remains.</text>
  </g>

  <!-- Common: heatmap palette helper. Use rect grids. -->
  <!-- We'll build three 10x10 mini-matrices with chosen tints. -->

  <!-- Panel definitions -->
  <!-- Panel A: raw -->
  <g transform="translate(60, 90)">
    <text x="0" y="0" font-family="Inter, sans-serif" font-size="11" font-weight="700" fill="#1e3a8a" letter-spacing="0.08em">(A)  RAW</text>
    <text x="0" y="16" font-family="Inter, sans-serif" font-size="10" fill="#525252" font-style="italic">bin-specific bias dominates</text>

    <g transform="translate(0, 30)">
      <rect x="0" y="0" width="280" height="280" fill="#ffffff" stroke="#e5e3dc" stroke-width="1"/>

      <!-- Raw heatmap: 10x10 grid with bright columns/rows representing bias.
           Cell coords: cellsize 26, start at (10,10).
           Bias columns at index 3 (bright) and 7 (dark).
           Diagonal strong.
           We'll inline cells. -->

      <!-- Background: a generic distance-decay grid (lighter at off-diagonal). -->
      <!-- We render row-by-row. -->
      <g shape-rendering="crispEdges">
        <!-- Row 0 -->
        <rect x="10"  y="10"  width="26" height="26" fill="#1e3a8a" opacity="0.95"/>
        <rect x="36"  y="10"  width="26" height="26" fill="#1e3a8a" opacity="0.45"/>
        <rect x="62"  y="10"  width="26" height="26" fill="#1e3a8a" opacity="0.30"/>
        <rect x="88"  y="10"  width="26" height="26" fill="#1e3a8a" opacity="0.55"/>
        <rect x="114" y="10"  width="26" height="26" fill="#1e3a8a" opacity="0.10"/>
        <rect x="140" y="10"  width="26" height="26" fill="#1e3a8a" opacity="0.10"/>
        <rect x="166" y="10"  width="26" height="26" fill="#1e3a8a" opacity="0.10"/>
        <rect x="192" y="10"  width="26" height="26" fill="#1e3a8a" opacity="0.04"/>
        <rect x="218" y="10"  width="26" height="26" fill="#1e3a8a" opacity="0.08"/>
        <rect x="244" y="10"  width="26" height="26" fill="#1e3a8a" opacity="0.05"/>
        <!-- Row 1 -->
        <rect x="10"  y="36"  width="26" height="26" fill="#1e3a8a" opacity="0.45"/>
        <rect x="36"  y="36"  width="26" height="26" fill="#1e3a8a" opacity="0.95"/>
        <rect x="62"  y="36"  width="26" height="26" fill="#1e3a8a" opacity="0.50"/>
        <rect x="88"  y="36"  width="26" height="26" fill="#1e3a8a" opacity="0.65"/>
        <rect x="114" y="36"  width="26" height="26" fill="#1e3a8a" opacity="0.20"/>
        <rect x="140" y="36"  width="26" height="26" fill="#1e3a8a" opacity="0.12"/>
        <rect x="166" y="36"  width="26" height="26" fill="#1e3a8a" opacity="0.05"/>
        <rect x="192" y="36"  width="26" height="26" fill="#1e3a8a" opacity="0.05"/>
        <rect x="218" y="36"  width="26" height="26" fill="#1e3a8a" opacity="0.10"/>
        <rect x="244" y="36"  width="26" height="26" fill="#1e3a8a" opacity="0.08"/>
        <!-- Row 2 -->
        <rect x="10"  y="62"  width="26" height="26" fill="#1e3a8a" opacity="0.30"/>
        <rect x="36"  y="62"  width="26" height="26" fill="#1e3a8a" opacity="0.50"/>
        <rect x="62"  y="62"  width="26" height="26" fill="#1e3a8a" opacity="0.95"/>
        <rect x="88"  y="62"  width="26" height="26" fill="#1e3a8a" opacity="0.85"/>
        <rect x="114" y="62"  width="26" height="26" fill="#1e3a8a" opacity="0.20"/>
        <rect x="140" y="62"  width="26" height="26" fill="#1e3a8a" opacity="0.08"/>
        <rect x="166" y="62"  width="26" height="26" fill="#1e3a8a" opacity="0.04"/>
        <rect x="192" y="62"  width="26" height="26" fill="#1e3a8a" opacity="0.06"/>
        <rect x="218" y="62"  width="26" height="26" fill="#1e3a8a" opacity="0.04"/>
        <rect x="244" y="62"  width="26" height="26" fill="#1e3a8a" opacity="0.03"/>
        <!-- Row 3 - BRIGHT BIAS ROW -->
        <rect x="10"  y="88"  width="26" height="26" fill="#1e3a8a" opacity="0.55"/>
        <rect x="36"  y="88"  width="26" height="26" fill="#1e3a8a" opacity="0.65"/>
        <rect x="62"  y="88"  width="26" height="26" fill="#1e3a8a" opacity="0.85"/>
        <rect x="88"  y="88"  width="26" height="26" fill="#1e3a8a" opacity="0.98"/>
        <rect x="114" y="88"  width="26" height="26" fill="#1e3a8a" opacity="0.78"/>
        <rect x="140" y="88"  width="26" height="26" fill="#1e3a8a" opacity="0.70"/>
        <rect x="166" y="88"  width="26" height="26" fill="#1e3a8a" opacity="0.60"/>
        <rect x="192" y="88"  width="26" height="26" fill="#1e3a8a" opacity="0.55"/>
        <rect x="218" y="88"  width="26" height="26" fill="#1e3a8a" opacity="0.55"/>
        <rect x="244" y="88"  width="26" height="26" fill="#1e3a8a" opacity="0.50"/>
        <!-- Row 4 -->
        <rect x="10"  y="114" width="26" height="26" fill="#1e3a8a" opacity="0.10"/>
        <rect x="36"  y="114" width="26" height="26" fill="#1e3a8a" opacity="0.20"/>
        <rect x="62"  y="114" width="26" height="26" fill="#1e3a8a" opacity="0.20"/>
        <rect x="88"  y="114" width="26" height="26" fill="#1e3a8a" opacity="0.78"/>
        <rect x="114" y="114" width="26" height="26" fill="#1e3a8a" opacity="0.95"/>
        <rect x="140" y="114" width="26" height="26" fill="#1e3a8a" opacity="0.50"/>
        <rect x="166" y="114" width="26" height="26" fill="#1e3a8a" opacity="0.18"/>
        <rect x="192" y="114" width="26" height="26" fill="#1e3a8a" opacity="0.08"/>
        <rect x="218" y="114" width="26" height="26" fill="#1e3a8a" opacity="0.05"/>
        <rect x="244" y="114" width="26" height="26" fill="#1e3a8a" opacity="0.04"/>
        <!-- Row 5 -->
        <rect x="10"  y="140" width="26" height="26" fill="#1e3a8a" opacity="0.10"/>
        <rect x="36"  y="140" width="26" height="26" fill="#1e3a8a" opacity="0.12"/>
        <rect x="62"  y="140" width="26" height="26" fill="#1e3a8a" opacity="0.08"/>
        <rect x="88"  y="140" width="26" height="26" fill="#1e3a8a" opacity="0.70"/>
        <rect x="114" y="140" width="26" height="26" fill="#1e3a8a" opacity="0.50"/>
        <rect x="140" y="140" width="26" height="26" fill="#1e3a8a" opacity="0.95"/>
        <rect x="166" y="140" width="26" height="26" fill="#1e3a8a" opacity="0.65"/>
        <rect x="192" y="140" width="26" height="26" fill="#1e3a8a" opacity="0.18"/>
        <rect x="218" y="140" width="26" height="26" fill="#1e3a8a" opacity="0.10"/>
        <rect x="244" y="140" width="26" height="26" fill="#1e3a8a" opacity="0.04"/>
        <!-- Row 6 -->
        <rect x="10"  y="166" width="26" height="26" fill="#1e3a8a" opacity="0.10"/>
        <rect x="36"  y="166" width="26" height="26" fill="#1e3a8a" opacity="0.05"/>
        <rect x="62"  y="166" width="26" height="26" fill="#1e3a8a" opacity="0.04"/>
        <rect x="88"  y="166" width="26" height="26" fill="#1e3a8a" opacity="0.60"/>
        <rect x="114" y="166" width="26" height="26" fill="#1e3a8a" opacity="0.18"/>
        <rect x="140" y="166" width="26" height="26" fill="#1e3a8a" opacity="0.65"/>
        <rect x="166" y="166" width="26" height="26" fill="#1e3a8a" opacity="0.95"/>
        <rect x="192" y="166" width="26" height="26" fill="#1e3a8a" opacity="0.50"/>
        <rect x="218" y="166" width="26" height="26" fill="#1e3a8a" opacity="0.20"/>
        <rect x="244" y="166" width="26" height="26" fill="#1e3a8a" opacity="0.10"/>
        <!-- Row 7 - DARK BIAS ROW -->
        <rect x="10"  y="192" width="26" height="26" fill="#1e3a8a" opacity="0.04"/>
        <rect x="36"  y="192" width="26" height="26" fill="#1e3a8a" opacity="0.05"/>
        <rect x="62"  y="192" width="26" height="26" fill="#1e3a8a" opacity="0.06"/>
        <rect x="88"  y="192" width="26" height="26" fill="#1e3a8a" opacity="0.55"/>
        <rect x="114" y="192" width="26" height="26" fill="#1e3a8a" opacity="0.08"/>
        <rect x="140" y="192" width="26" height="26" fill="#1e3a8a" opacity="0.18"/>
        <rect x="166" y="192" width="26" height="26" fill="#1e3a8a" opacity="0.50"/>
        <rect x="192" y="192" width="26" height="26" fill="#1e3a8a" opacity="0.20"/>
        <rect x="218" y="192" width="26" height="26" fill="#1e3a8a" opacity="0.10"/>
        <rect x="244" y="192" width="26" height="26" fill="#1e3a8a" opacity="0.05"/>
        <!-- Row 8 -->
        <rect x="10"  y="218" width="26" height="26" fill="#1e3a8a" opacity="0.08"/>
        <rect x="36"  y="218" width="26" height="26" fill="#1e3a8a" opacity="0.10"/>
        <rect x="62"  y="218" width="26" height="26" fill="#1e3a8a" opacity="0.04"/>
        <rect x="88"  y="218" width="26" height="26" fill="#1e3a8a" opacity="0.55"/>
        <rect x="114" y="218" width="26" height="26" fill="#1e3a8a" opacity="0.05"/>
        <rect x="140" y="218" width="26" height="26" fill="#1e3a8a" opacity="0.10"/>
        <rect x="166" y="218" width="26" height="26" fill="#1e3a8a" opacity="0.20"/>
        <rect x="192" y="218" width="26" height="26" fill="#1e3a8a" opacity="0.10"/>
        <rect x="218" y="218" width="26" height="26" fill="#1e3a8a" opacity="0.85"/>
        <rect x="244" y="218" width="26" height="26" fill="#1e3a8a" opacity="0.50"/>
        <!-- Row 9 -->
        <rect x="10"  y="244" width="26" height="26" fill="#1e3a8a" opacity="0.05"/>
        <rect x="36"  y="244" width="26" height="26" fill="#1e3a8a" opacity="0.08"/>
        <rect x="62"  y="244" width="26" height="26" fill="#1e3a8a" opacity="0.03"/>
        <rect x="88"  y="244" width="26" height="26" fill="#1e3a8a" opacity="0.50"/>
        <rect x="114" y="244" width="26" height="26" fill="#1e3a8a" opacity="0.04"/>
        <rect x="140" y="244" width="26" height="26" fill="#1e3a8a" opacity="0.04"/>
        <rect x="166" y="244" width="26" height="26" fill="#1e3a8a" opacity="0.10"/>
        <rect x="192" y="244" width="26" height="26" fill="#1e3a8a" opacity="0.10"/>
        <rect x="218" y="244" width="26" height="26" fill="#1e3a8a" opacity="0.50"/>
        <rect x="244" y="244" width="26" height="26" fill="#1e3a8a" opacity="0.95"/>
      </g>

      <!-- bias annotations -->
      <text x="101" y="284" font-family="Inter, sans-serif" font-size="9" font-weight="700" fill="#b45309" text-anchor="middle">bright bin</text>
      <text x="205" y="284" font-family="Inter, sans-serif" font-size="9" font-weight="700" fill="#b45309" text-anchor="middle">dark bin</text>
      <line x1="101" y1="270" x2="101" y2="276" stroke="#b45309" stroke-width="1.5"/>
      <line x1="205" y1="270" x2="205" y2="276" stroke="#b45309" stroke-width="1.5"/>
    </g>
  </g>

  <!-- Panel B: after 1 iteration -->
  <g transform="translate(380, 90)">
    <text x="0" y="0" font-family="Inter, sans-serif" font-size="11" font-weight="700" fill="#1e3a8a" letter-spacing="0.08em">(B)  AFTER ITERATION 1</text>
    <text x="0" y="16" font-family="Inter, sans-serif" font-size="10" fill="#525252" font-style="italic">first pass tames the worst bands</text>

    <g transform="translate(0, 30)">
      <rect x="0" y="0" width="280" height="280" fill="#ffffff" stroke="#e5e3dc" stroke-width="1"/>

      <!-- Slightly toned-down version of panel A: bright row reduced, dark row lifted, others mostly unchanged -->
      <g shape-rendering="crispEdges">
        <!-- Row 0 -->
        <rect x="10"  y="10"  width="26" height="26" fill="#1e3a8a" opacity="0.92"/>
        <rect x="36"  y="10"  width="26" height="26" fill="#1e3a8a" opacity="0.55"/>
        <rect x="62"  y="10"  width="26" height="26" fill="#1e3a8a" opacity="0.35"/>
        <rect x="88"  y="10"  width="26" height="26" fill="#1e3a8a" opacity="0.45"/>
        <rect x="114" y="10"  width="26" height="26" fill="#1e3a8a" opacity="0.12"/>
        <rect x="140" y="10"  width="26" height="26" fill="#1e3a8a" opacity="0.10"/>
        <rect x="166" y="10"  width="26" height="26" fill="#1e3a8a" opacity="0.12"/>
        <rect x="192" y="10"  width="26" height="26" fill="#1e3a8a" opacity="0.05"/>
        <rect x="218" y="10"  width="26" height="26" fill="#1e3a8a" opacity="0.08"/>
        <rect x="244" y="10"  width="26" height="26" fill="#1e3a8a" opacity="0.06"/>
        <!-- Row 1 -->
        <rect x="10"  y="36"  width="26" height="26" fill="#1e3a8a" opacity="0.55"/>
        <rect x="36"  y="36"  width="26" height="26" fill="#1e3a8a" opacity="0.90"/>
        <rect x="62"  y="36"  width="26" height="26" fill="#1e3a8a" opacity="0.55"/>
        <rect x="88"  y="36"  width="26" height="26" fill="#1e3a8a" opacity="0.55"/>
        <rect x="114" y="36"  width="26" height="26" fill="#1e3a8a" opacity="0.22"/>
        <rect x="140" y="36"  width="26" height="26" fill="#1e3a8a" opacity="0.12"/>
        <rect x="166" y="36"  width="26" height="26" fill="#1e3a8a" opacity="0.10"/>
        <rect x="192" y="36"  width="26" height="26" fill="#1e3a8a" opacity="0.06"/>
        <rect x="218" y="36"  width="26" height="26" fill="#1e3a8a" opacity="0.10"/>
        <rect x="244" y="36"  width="26" height="26" fill="#1e3a8a" opacity="0.08"/>
        <!-- Row 2 -->
        <rect x="10"  y="62"  width="26" height="26" fill="#1e3a8a" opacity="0.35"/>
        <rect x="36"  y="62"  width="26" height="26" fill="#1e3a8a" opacity="0.55"/>
        <rect x="62"  y="62"  width="26" height="26" fill="#1e3a8a" opacity="0.92"/>
        <rect x="88"  y="62"  width="26" height="26" fill="#1e3a8a" opacity="0.70"/>
        <rect x="114" y="62"  width="26" height="26" fill="#1e3a8a" opacity="0.22"/>
        <rect x="140" y="62"  width="26" height="26" fill="#1e3a8a" opacity="0.10"/>
        <rect x="166" y="62"  width="26" height="26" fill="#1e3a8a" opacity="0.08"/>
        <rect x="192" y="62"  width="26" height="26" fill="#1e3a8a" opacity="0.06"/>
        <rect x="218" y="62"  width="26" height="26" fill="#1e3a8a" opacity="0.05"/>
        <rect x="244" y="62"  width="26" height="26" fill="#1e3a8a" opacity="0.04"/>
        <!-- Row 3 - bright less so -->
        <rect x="10"  y="88"  width="26" height="26" fill="#1e3a8a" opacity="0.45"/>
        <rect x="36"  y="88"  width="26" height="26" fill="#1e3a8a" opacity="0.55"/>
        <rect x="62"  y="88"  width="26" height="26" fill="#1e3a8a" opacity="0.70"/>
        <rect x="88"  y="88"  width="26" height="26" fill="#1e3a8a" opacity="0.92"/>
        <rect x="114" y="88"  width="26" height="26" fill="#1e3a8a" opacity="0.55"/>
        <rect x="140" y="88"  width="26" height="26" fill="#1e3a8a" opacity="0.40"/>
        <rect x="166" y="88"  width="26" height="26" fill="#1e3a8a" opacity="0.35"/>
        <rect x="192" y="88"  width="26" height="26" fill="#1e3a8a" opacity="0.30"/>
        <rect x="218" y="88"  width="26" height="26" fill="#1e3a8a" opacity="0.30"/>
        <rect x="244" y="88"  width="26" height="26" fill="#1e3a8a" opacity="0.25"/>
        <!-- Row 4 -->
        <rect x="10"  y="114" width="26" height="26" fill="#1e3a8a" opacity="0.12"/>
        <rect x="36"  y="114" width="26" height="26" fill="#1e3a8a" opacity="0.22"/>
        <rect x="62"  y="114" width="26" height="26" fill="#1e3a8a" opacity="0.22"/>
        <rect x="88"  y="114" width="26" height="26" fill="#1e3a8a" opacity="0.55"/>
        <rect x="114" y="114" width="26" height="26" fill="#1e3a8a" opacity="0.90"/>
        <rect x="140" y="114" width="26" height="26" fill="#1e3a8a" opacity="0.50"/>
        <rect x="166" y="114" width="26" height="26" fill="#1e3a8a" opacity="0.20"/>
        <rect x="192" y="114" width="26" height="26" fill="#1e3a8a" opacity="0.10"/>
        <rect x="218" y="114" width="26" height="26" fill="#1e3a8a" opacity="0.06"/>
        <rect x="244" y="114" width="26" height="26" fill="#1e3a8a" opacity="0.05"/>
        <!-- Row 5 -->
        <rect x="10"  y="140" width="26" height="26" fill="#1e3a8a" opacity="0.10"/>
        <rect x="36"  y="140" width="26" height="26" fill="#1e3a8a" opacity="0.12"/>
        <rect x="62"  y="140" width="26" height="26" fill="#1e3a8a" opacity="0.10"/>
        <rect x="88"  y="140" width="26" height="26" fill="#1e3a8a" opacity="0.40"/>
        <rect x="114" y="140" width="26" height="26" fill="#1e3a8a" opacity="0.50"/>
        <rect x="140" y="140" width="26" height="26" fill="#1e3a8a" opacity="0.90"/>
        <rect x="166" y="140" width="26" height="26" fill="#1e3a8a" opacity="0.55"/>
        <rect x="192" y="140" width="26" height="26" fill="#1e3a8a" opacity="0.20"/>
        <rect x="218" y="140" width="26" height="26" fill="#1e3a8a" opacity="0.10"/>
        <rect x="244" y="140" width="26" height="26" fill="#1e3a8a" opacity="0.05"/>
        <!-- Row 6 -->
        <rect x="10"  y="166" width="26" height="26" fill="#1e3a8a" opacity="0.12"/>
        <rect x="36"  y="166" width="26" height="26" fill="#1e3a8a" opacity="0.10"/>
        <rect x="62"  y="166" width="26" height="26" fill="#1e3a8a" opacity="0.08"/>
        <rect x="88"  y="166" width="26" height="26" fill="#1e3a8a" opacity="0.35"/>
        <rect x="114" y="166" width="26" height="26" fill="#1e3a8a" opacity="0.20"/>
        <rect x="140" y="166" width="26" height="26" fill="#1e3a8a" opacity="0.55"/>
        <rect x="166" y="166" width="26" height="26" fill="#1e3a8a" opacity="0.92"/>
        <rect x="192" y="166" width="26" height="26" fill="#1e3a8a" opacity="0.50"/>
        <rect x="218" y="166" width="26" height="26" fill="#1e3a8a" opacity="0.22"/>
        <rect x="244" y="166" width="26" height="26" fill="#1e3a8a" opacity="0.10"/>
        <!-- Row 7 - dark less so -->
        <rect x="10"  y="192" width="26" height="26" fill="#1e3a8a" opacity="0.05"/>
        <rect x="36"  y="192" width="26" height="26" fill="#1e3a8a" opacity="0.06"/>
        <rect x="62"  y="192" width="26" height="26" fill="#1e3a8a" opacity="0.06"/>
        <rect x="88"  y="192" width="26" height="26" fill="#1e3a8a" opacity="0.30"/>
        <rect x="114" y="192" width="26" height="26" fill="#1e3a8a" opacity="0.10"/>
        <rect x="140" y="192" width="26" height="26" fill="#1e3a8a" opacity="0.20"/>
        <rect x="166" y="192" width="26" height="26" fill="#1e3a8a" opacity="0.50"/>
        <rect x="192" y="192" width="26" height="26" fill="#1e3a8a" opacity="0.30"/>
        <rect x="218" y="192" width="26" height="26" fill="#1e3a8a" opacity="0.16"/>
        <rect x="244" y="192" width="26" height="26" fill="#1e3a8a" opacity="0.10"/>
        <!-- Row 8 -->
        <rect x="10"  y="218" width="26" height="26" fill="#1e3a8a" opacity="0.08"/>
        <rect x="36"  y="218" width="26" height="26" fill="#1e3a8a" opacity="0.10"/>
        <rect x="62"  y="218" width="26" height="26" fill="#1e3a8a" opacity="0.05"/>
        <rect x="88"  y="218" width="26" height="26" fill="#1e3a8a" opacity="0.30"/>
        <rect x="114" y="218" width="26" height="26" fill="#1e3a8a" opacity="0.06"/>
        <rect x="140" y="218" width="26" height="26" fill="#1e3a8a" opacity="0.10"/>
        <rect x="166" y="218" width="26" height="26" fill="#1e3a8a" opacity="0.22"/>
        <rect x="192" y="218" width="26" height="26" fill="#1e3a8a" opacity="0.16"/>
        <rect x="218" y="218" width="26" height="26" fill="#1e3a8a" opacity="0.82"/>
        <rect x="244" y="218" width="26" height="26" fill="#1e3a8a" opacity="0.50"/>
        <!-- Row 9 -->
        <rect x="10"  y="244" width="26" height="26" fill="#1e3a8a" opacity="0.06"/>
        <rect x="36"  y="244" width="26" height="26" fill="#1e3a8a" opacity="0.08"/>
        <rect x="62"  y="244" width="26" height="26" fill="#1e3a8a" opacity="0.04"/>
        <rect x="88"  y="244" width="26" height="26" fill="#1e3a8a" opacity="0.25"/>
        <rect x="114" y="244" width="26" height="26" fill="#1e3a8a" opacity="0.05"/>
        <rect x="140" y="244" width="26" height="26" fill="#1e3a8a" opacity="0.05"/>
        <rect x="166" y="244" width="26" height="26" fill="#1e3a8a" opacity="0.10"/>
        <rect x="192" y="244" width="26" height="26" fill="#1e3a8a" opacity="0.10"/>
        <rect x="218" y="244" width="26" height="26" fill="#1e3a8a" opacity="0.50"/>
        <rect x="244" y="244" width="26" height="26" fill="#1e3a8a" opacity="0.92"/>
      </g>
    </g>
  </g>

  <!-- Panel C: after 20 iterations -->
  <g transform="translate(700, 90)">
    <text x="0" y="0" font-family="Inter, sans-serif" font-size="11" font-weight="700" fill="#1e3a8a" letter-spacing="0.08em">(C)  AFTER ITERATION 20  ·  CONVERGED</text>
    <text x="0" y="16" font-family="Inter, sans-serif" font-size="10" fill="#525252" font-style="italic">banding gone; TAD blocks now visible on the diagonal</text>

    <g transform="translate(0, 30)">
      <rect x="0" y="0" width="440" height="280" fill="#ffffff" stroke="#e5e3dc" stroke-width="1"/>

      <!-- TAD structure: two diagonal blocks (bins 0-3, bins 4-7) plus bins 8-9 weak. -->
      <g shape-rendering="crispEdges">
        <!-- Diagonal: strong everywhere -->
        <!-- TAD-A occupies bins 0..3, TAD-B occupies bins 4..7, plus weaker cross-block contacts. -->
        <!-- We use a 10x10 grid with cells 30px so window is 300x300; centered with 70px right gutter unused. We'll use offset 10 and cellsize 30. -->
        <!-- Row 0 -->
        <rect x="10"  y="10"  width="30" height="30" fill="#1e3a8a" opacity="0.95"/>
        <rect x="40"  y="10"  width="30" height="30" fill="#1e3a8a" opacity="0.65"/>
        <rect x="70"  y="10"  width="30" height="30" fill="#1e3a8a" opacity="0.50"/>
        <rect x="100" y="10"  width="30" height="30" fill="#1e3a8a" opacity="0.40"/>
        <rect x="130" y="10"  width="30" height="30" fill="#1e3a8a" opacity="0.18"/>
        <rect x="160" y="10"  width="30" height="30" fill="#1e3a8a" opacity="0.12"/>
        <rect x="190" y="10"  width="30" height="30" fill="#1e3a8a" opacity="0.08"/>
        <rect x="220" y="10"  width="30" height="30" fill="#1e3a8a" opacity="0.06"/>
        <rect x="250" y="10"  width="30" height="30" fill="#1e3a8a" opacity="0.05"/>
        <rect x="280" y="10"  width="30" height="30" fill="#1e3a8a" opacity="0.04"/>
        <!-- Row 1 -->
        <rect x="10"  y="40"  width="30" height="30" fill="#1e3a8a" opacity="0.65"/>
        <rect x="40"  y="40"  width="30" height="30" fill="#1e3a8a" opacity="0.95"/>
        <rect x="70"  y="40"  width="30" height="30" fill="#1e3a8a" opacity="0.65"/>
        <rect x="100" y="40"  width="30" height="30" fill="#1e3a8a" opacity="0.50"/>
        <rect x="130" y="40"  width="30" height="30" fill="#1e3a8a" opacity="0.20"/>
        <rect x="160" y="40"  width="30" height="30" fill="#1e3a8a" opacity="0.12"/>
        <rect x="190" y="40"  width="30" height="30" fill="#1e3a8a" opacity="0.08"/>
        <rect x="220" y="40"  width="30" height="30" fill="#1e3a8a" opacity="0.06"/>
        <rect x="250" y="40"  width="30" height="30" fill="#1e3a8a" opacity="0.04"/>
        <rect x="280" y="40"  width="30" height="30" fill="#1e3a8a" opacity="0.04"/>
        <!-- Row 2 -->
        <rect x="10"  y="70"  width="30" height="30" fill="#1e3a8a" opacity="0.50"/>
        <rect x="40"  y="70"  width="30" height="30" fill="#1e3a8a" opacity="0.65"/>
        <rect x="70"  y="70"  width="30" height="30" fill="#1e3a8a" opacity="0.95"/>
        <rect x="100" y="70"  width="30" height="30" fill="#1e3a8a" opacity="0.65"/>
        <rect x="130" y="70"  width="30" height="30" fill="#1e3a8a" opacity="0.18"/>
        <rect x="160" y="70"  width="30" height="30" fill="#1e3a8a" opacity="0.10"/>
        <rect x="190" y="70"  width="30" height="30" fill="#1e3a8a" opacity="0.06"/>
        <rect x="220" y="70"  width="30" height="30" fill="#1e3a8a" opacity="0.05"/>
        <rect x="250" y="70"  width="30" height="30" fill="#1e3a8a" opacity="0.04"/>
        <rect x="280" y="70"  width="30" height="30" fill="#1e3a8a" opacity="0.03"/>
        <!-- Row 3 (TAD A last row) -->
        <rect x="10"  y="100" width="30" height="30" fill="#1e3a8a" opacity="0.40"/>
        <rect x="40"  y="100" width="30" height="30" fill="#1e3a8a" opacity="0.50"/>
        <rect x="70"  y="100" width="30" height="30" fill="#1e3a8a" opacity="0.65"/>
        <rect x="100" y="100" width="30" height="30" fill="#1e3a8a" opacity="0.95"/>
        <rect x="130" y="100" width="30" height="30" fill="#1e3a8a" opacity="0.20"/>
        <rect x="160" y="100" width="30" height="30" fill="#1e3a8a" opacity="0.10"/>
        <rect x="190" y="100" width="30" height="30" fill="#1e3a8a" opacity="0.06"/>
        <rect x="220" y="100" width="30" height="30" fill="#1e3a8a" opacity="0.05"/>
        <rect x="250" y="100" width="30" height="30" fill="#1e3a8a" opacity="0.04"/>
        <rect x="280" y="100" width="30" height="30" fill="#1e3a8a" opacity="0.04"/>
        <!-- Row 4 (TAD B start) -->
        <rect x="10"  y="130" width="30" height="30" fill="#1e3a8a" opacity="0.18"/>
        <rect x="40"  y="130" width="30" height="30" fill="#1e3a8a" opacity="0.20"/>
        <rect x="70"  y="130" width="30" height="30" fill="#1e3a8a" opacity="0.18"/>
        <rect x="100" y="130" width="30" height="30" fill="#1e3a8a" opacity="0.20"/>
        <rect x="130" y="130" width="30" height="30" fill="#1e3a8a" opacity="0.95"/>
        <rect x="160" y="130" width="30" height="30" fill="#1e3a8a" opacity="0.60"/>
        <rect x="190" y="130" width="30" height="30" fill="#1e3a8a" opacity="0.50"/>
        <rect x="220" y="130" width="30" height="30" fill="#1e3a8a" opacity="0.40"/>
        <rect x="250" y="130" width="30" height="30" fill="#1e3a8a" opacity="0.10"/>
        <rect x="280" y="130" width="30" height="30" fill="#1e3a8a" opacity="0.06"/>
        <!-- Row 5 -->
        <rect x="10"  y="160" width="30" height="30" fill="#1e3a8a" opacity="0.12"/>
        <rect x="40"  y="160" width="30" height="30" fill="#1e3a8a" opacity="0.12"/>
        <rect x="70"  y="160" width="30" height="30" fill="#1e3a8a" opacity="0.10"/>
        <rect x="100" y="160" width="30" height="30" fill="#1e3a8a" opacity="0.10"/>
        <rect x="130" y="160" width="30" height="30" fill="#1e3a8a" opacity="0.60"/>
        <rect x="160" y="160" width="30" height="30" fill="#1e3a8a" opacity="0.95"/>
        <rect x="190" y="160" width="30" height="30" fill="#1e3a8a" opacity="0.65"/>
        <rect x="220" y="160" width="30" height="30" fill="#1e3a8a" opacity="0.50"/>
        <rect x="250" y="160" width="30" height="30" fill="#1e3a8a" opacity="0.10"/>
        <rect x="280" y="160" width="30" height="30" fill="#1e3a8a" opacity="0.05"/>
        <!-- Row 6 -->
        <rect x="10"  y="190" width="30" height="30" fill="#1e3a8a" opacity="0.08"/>
        <rect x="40"  y="190" width="30" height="30" fill="#1e3a8a" opacity="0.08"/>
        <rect x="70"  y="190" width="30" height="30" fill="#1e3a8a" opacity="0.06"/>
        <rect x="100" y="190" width="30" height="30" fill="#1e3a8a" opacity="0.06"/>
        <rect x="130" y="190" width="30" height="30" fill="#1e3a8a" opacity="0.50"/>
        <rect x="160" y="190" width="30" height="30" fill="#1e3a8a" opacity="0.65"/>
        <rect x="190" y="190" width="30" height="30" fill="#1e3a8a" opacity="0.95"/>
        <rect x="220" y="190" width="30" height="30" fill="#1e3a8a" opacity="0.65"/>
        <rect x="250" y="190" width="30" height="30" fill="#1e3a8a" opacity="0.12"/>
        <rect x="280" y="190" width="30" height="30" fill="#1e3a8a" opacity="0.06"/>
        <!-- Row 7 (TAD B last row) -->
        <rect x="10"  y="220" width="30" height="30" fill="#1e3a8a" opacity="0.06"/>
        <rect x="40"  y="220" width="30" height="30" fill="#1e3a8a" opacity="0.06"/>
        <rect x="70"  y="220" width="30" height="30" fill="#1e3a8a" opacity="0.05"/>
        <rect x="100" y="220" width="30" height="30" fill="#1e3a8a" opacity="0.05"/>
        <rect x="130" y="220" width="30" height="30" fill="#1e3a8a" opacity="0.40"/>
        <rect x="160" y="220" width="30" height="30" fill="#1e3a8a" opacity="0.50"/>
        <rect x="190" y="220" width="30" height="30" fill="#1e3a8a" opacity="0.65"/>
        <rect x="220" y="220" width="30" height="30" fill="#1e3a8a" opacity="0.95"/>
        <rect x="250" y="220" width="30" height="30" fill="#1e3a8a" opacity="0.18"/>
        <rect x="280" y="220" width="30" height="30" fill="#1e3a8a" opacity="0.08"/>
        <!-- Row 8 (singleton) -->
        <rect x="10"  y="250" width="30" height="30" fill="#1e3a8a" opacity="0.05"/>
        <rect x="40"  y="250" width="30" height="30" fill="#1e3a8a" opacity="0.04"/>
        <rect x="70"  y="250" width="30" height="30" fill="#1e3a8a" opacity="0.04"/>
        <rect x="100" y="250" width="30" height="30" fill="#1e3a8a" opacity="0.04"/>
        <rect x="130" y="250" width="30" height="30" fill="#1e3a8a" opacity="0.10"/>
        <rect x="160" y="250" width="30" height="30" fill="#1e3a8a" opacity="0.10"/>
        <rect x="190" y="250" width="30" height="30" fill="#1e3a8a" opacity="0.12"/>
        <rect x="220" y="250" width="30" height="30" fill="#1e3a8a" opacity="0.18"/>
        <rect x="250" y="250" width="30" height="30" fill="#1e3a8a" opacity="0.92"/>
        <rect x="280" y="250" width="30" height="30" fill="#1e3a8a" opacity="0.65"/>
      </g>

      <!-- TAD overlay triangles -->
      <g stroke="#dc2626" stroke-width="1.5" fill="none">
        <path d="M 10 10 L 130 10 L 130 130 Z"/>
        <path d="M 130 130 L 250 130 L 250 250 Z"/>
      </g>
      <text x="70" y="6" font-family="Inter, sans-serif" font-size="9" font-weight="700" fill="#dc2626" text-anchor="middle">TAD-A</text>
      <text x="190" y="126" font-family="Inter, sans-serif" font-size="9" font-weight="700" fill="#dc2626" text-anchor="middle">TAD-B</text>
    </g>
  </g>

  <!-- Panel D: convergence plot -->
  <g transform="translate(60, 410)">
    <text x="0" y="0" font-family="Inter, sans-serif" font-size="11" font-weight="700" fill="#1e3a8a" letter-spacing="0.08em">(D)  CONVERGENCE OF ROW-SUM VARIANCE</text>
    <text x="0" y="16" font-family="Inter, sans-serif" font-size="10" fill="#525252" font-style="italic">σ(row sums) decays exponentially; "balanced" by iteration 20.</text>

    <g transform="translate(0, 36)">
      <rect x="0" y="0" width="1080" height="190" fill="#ffffff" stroke="#e5e3dc" stroke-width="1"/>

      <!-- axes -->
      <line x1="60" y1="150" x2="1040" y2="150" stroke="#374151" stroke-width="1"/>
      <line x1="60" y1="20" x2="60" y2="150" stroke="#374151" stroke-width="1"/>

      <!-- x ticks: iterations 0,5,10,15,20,25,30 -->
      <g font-family="JetBrains Mono, monospace" font-size="9" fill="#525252">
        <line x1="60"   y1="150" x2="60"   y2="154" stroke="#374151"/>
        <text x="60"   y="166" text-anchor="middle">0</text>
        <line x1="223"  y1="150" x2="223"  y2="154" stroke="#374151"/>
        <text x="223"  y="166" text-anchor="middle">5</text>
        <line x1="386"  y1="150" x2="386"  y2="154" stroke="#374151"/>
        <text x="386"  y="166" text-anchor="middle">10</text>
        <line x1="549"  y1="150" x2="549"  y2="154" stroke="#374151"/>
        <text x="549"  y="166" text-anchor="middle">15</text>
        <line x1="712"  y1="150" x2="712"  y2="154" stroke="#374151"/>
        <text x="712"  y="166" text-anchor="middle">20</text>
        <line x1="875"  y1="150" x2="875"  y2="154" stroke="#374151"/>
        <text x="875"  y="166" text-anchor="middle">25</text>
        <line x1="1040" y1="150" x2="1040" y2="154" stroke="#374151"/>
        <text x="1040" y="166" text-anchor="middle">30</text>
      </g>
      <text x="540" y="182" font-family="Inter, sans-serif" font-size="10" font-weight="600" fill="#525252" text-anchor="middle">iteration</text>

      <g font-family="JetBrains Mono, monospace" font-size="9" fill="#525252">
        <text x="50" y="148" text-anchor="end">0.0</text>
        <text x="50" y="111" text-anchor="end">0.3</text>
        <text x="50" y="80" text-anchor="end">0.6</text>
        <text x="50" y="48" text-anchor="end">0.9</text>
        <text x="50" y="22" text-anchor="end">σ</text>
      </g>

      <!-- exponential decay curve: y = 150 - 110*exp(-iter*0.25). x_iter = 60 + iter*32.6 -->
      <!-- compute points for iter 0..30 -->
      <path d="
        M 60 40
        L 92 48
        L 125 56
        L 158 65
        L 191 73
        L 223 81
        L 256 89
        L 289 96
        L 321 103
        L 354 109
        L 386 115
        L 419 121
        L 451 126
        L 484 131
        L 516 134
        L 549 138
        L 581 141
        L 614 143
        L 646 145
        L 679 146
        L 712 147
        L 745 148
        L 777 148
        L 810 149
        L 842 149
        L 875 149
        L 908 149
        L 940 149
        L 973 150
        L 1005 150
        L 1040 150
        "
        fill="none" stroke="#1e3a8a" stroke-width="2"/>

      <!-- mark threshold horizontal -->
      <line x1="60" y1="146" x2="1040" y2="146" stroke="#7c3aed" stroke-width="0.8" stroke-dasharray="3 2"/>
      <text x="1050" y="148" font-family="Inter, sans-serif" font-size="9" font-weight="600" fill="#7c3aed">tol</text>

      <!-- mark iter 1, 20 -->
      <circle cx="92" cy="48" r="3.5" fill="#dc2626"/>
      <text x="92" y="36" font-family="Inter, sans-serif" font-size="9" font-weight="600" fill="#dc2626" text-anchor="middle">iter 1</text>

      <circle cx="712" cy="147" r="3.5" fill="#065f46"/>
      <text x="712" y="135" font-family="Inter, sans-serif" font-size="9" font-weight="600" fill="#065f46" text-anchor="middle">iter 20</text>
    </g>
  </g>

  <!-- bottom interpretation -->
  <g transform="translate(60, 632)">
    <text x="0" y="0" font-family="Inter, sans-serif" font-size="10" fill="#0a0a0a">Each iteration: row-sum, rescale, repeat. Converges in 20 iterations; KR balancing (Knight–Ruiz, 2013) reaches the same fixed point in fewer steps via a Newton update.</text>
  </g>
</svg>
