<svg xmlns="http://www.w3.org/2000/svg" viewBox="0 0 1200 580" role="img" aria-labelledby="t d">
  <title id="t">Hi-C as covariance — full algebraic pipeline from balanced contacts to compartment labels</title>
  <desc id="d">A four-stage horizontal pipeline. Stage 1: balanced contact matrix C with a TAD-and-checkerboard pattern. Arrow labelled "divide by expected by distance" leads to Stage 2: the observed/expected matrix with the diagonal flat and the compartment checkerboard sharper. Arrow labelled "row-wise Pearson correlation" leads to Stage 3: the correlation matrix R with the bipartite block structure unambiguously visible. Arrow labelled "first eigenvector" leads to Stage 4: a 1D track of eigenvector signs along the chromosome with alternating positive (cobalt, A) and negative (amber, B) regions. Below each stage a one-line equation: C, OE = C / E(|i-j|), R = corr(OE), v_1 such that R v_1 = lambda_1 v_1.</desc>

  <rect x="0" y="0" width="1200" height="580" fill="#fafaf9"/>

  <!-- Header -->
  <g>
    <text x="60" y="40" font-family="Inter, sans-serif" font-size="13" font-weight="700" fill="#1e3a8a" letter-spacing="0.08em">HI-C AS COVARIANCE — FROM BALANCED CONTACTS TO COMPARTMENT LABELS</text>
    <text x="60" y="58" font-family="Inter, sans-serif" font-size="11" font-style="italic" fill="#525252">Four linear-algebra moves, none specific to genomics.</text>
  </g>

  <!-- Arrow marker -->
  <defs>
    <marker id="arrow-accent-ch10" viewBox="0 0 10 10" refX="9" refY="5"
            markerWidth="7" markerHeight="7" orient="auto-start-reverse">
      <path d="M 0 0 L 10 5 L 0 10 z" fill="#1e3a8a"/>
    </marker>
  </defs>

  <!-- ============ STAGE 1: balanced contact matrix C ============ -->
  <g transform="translate(40, 100)">
    <text x="110" y="0" font-family="Inter, sans-serif" font-size="10" font-weight="700" fill="#1e3a8a" letter-spacing="0.08em" text-anchor="middle">STAGE 1</text>
    <text x="110" y="16" font-family="Inter, sans-serif" font-size="10" font-weight="600" fill="#0a0a0a" text-anchor="middle">balanced contact matrix C</text>

    <g transform="translate(0, 30)">
      <rect x="0" y="0" width="220" height="220" fill="#ffffff" stroke="#e5e3dc" stroke-width="1"/>
      <g shape-rendering="crispEdges">
        <!-- 8x8 grid, cell 26, offset 6 -->
        <!-- Pattern: dominant diagonal + faint compartment plaid (1,3,5,7 vs 0,2,4,6).
             Approximate: cells where (i+j) is even get slight bump, otherwise muted.
             Plus diagonal strong. -->
        <!-- Row 0 -->
        <rect x="6"   y="6"   width="26" height="26" fill="#1e3a8a" opacity="0.95"/>
        <rect x="32"  y="6"   width="26" height="26" fill="#1e3a8a" opacity="0.35"/>
        <rect x="58"  y="6"   width="26" height="26" fill="#1e3a8a" opacity="0.55"/>
        <rect x="84"  y="6"   width="26" height="26" fill="#1e3a8a" opacity="0.22"/>
        <rect x="110" y="6"   width="26" height="26" fill="#1e3a8a" opacity="0.40"/>
        <rect x="136" y="6"   width="26" height="26" fill="#1e3a8a" opacity="0.18"/>
        <rect x="162" y="6"   width="26" height="26" fill="#1e3a8a" opacity="0.32"/>
        <rect x="188" y="6"   width="26" height="26" fill="#1e3a8a" opacity="0.12"/>
        <!-- Row 1 -->
        <rect x="6"   y="32"  width="26" height="26" fill="#1e3a8a" opacity="0.35"/>
        <rect x="32"  y="32"  width="26" height="26" fill="#1e3a8a" opacity="0.95"/>
        <rect x="58"  y="32"  width="26" height="26" fill="#1e3a8a" opacity="0.30"/>
        <rect x="84"  y="32"  width="26" height="26" fill="#1e3a8a" opacity="0.50"/>
        <rect x="110" y="32"  width="26" height="26" fill="#1e3a8a" opacity="0.18"/>
        <rect x="136" y="32"  width="26" height="26" fill="#1e3a8a" opacity="0.35"/>
        <rect x="162" y="32"  width="26" height="26" fill="#1e3a8a" opacity="0.14"/>
        <rect x="188" y="32"  width="26" height="26" fill="#1e3a8a" opacity="0.30"/>
        <!-- Row 2 -->
        <rect x="6"   y="58"  width="26" height="26" fill="#1e3a8a" opacity="0.55"/>
        <rect x="32"  y="58"  width="26" height="26" fill="#1e3a8a" opacity="0.30"/>
        <rect x="58"  y="58"  width="26" height="26" fill="#1e3a8a" opacity="0.95"/>
        <rect x="84"  y="58"  width="26" height="26" fill="#1e3a8a" opacity="0.30"/>
        <rect x="110" y="58"  width="26" height="26" fill="#1e3a8a" opacity="0.50"/>
        <rect x="136" y="58"  width="26" height="26" fill="#1e3a8a" opacity="0.18"/>
        <rect x="162" y="58"  width="26" height="26" fill="#1e3a8a" opacity="0.40"/>
        <rect x="188" y="58"  width="26" height="26" fill="#1e3a8a" opacity="0.18"/>
        <!-- Row 3 -->
        <rect x="6"   y="84"  width="26" height="26" fill="#1e3a8a" opacity="0.22"/>
        <rect x="32"  y="84"  width="26" height="26" fill="#1e3a8a" opacity="0.50"/>
        <rect x="58"  y="84"  width="26" height="26" fill="#1e3a8a" opacity="0.30"/>
        <rect x="84"  y="84"  width="26" height="26" fill="#1e3a8a" opacity="0.95"/>
        <rect x="110" y="84"  width="26" height="26" fill="#1e3a8a" opacity="0.30"/>
        <rect x="136" y="84"  width="26" height="26" fill="#1e3a8a" opacity="0.50"/>
        <rect x="162" y="84"  width="26" height="26" fill="#1e3a8a" opacity="0.20"/>
        <rect x="188" y="84"  width="26" height="26" fill="#1e3a8a" opacity="0.35"/>
        <!-- Row 4 -->
        <rect x="6"   y="110" width="26" height="26" fill="#1e3a8a" opacity="0.40"/>
        <rect x="32"  y="110" width="26" height="26" fill="#1e3a8a" opacity="0.18"/>
        <rect x="58"  y="110" width="26" height="26" fill="#1e3a8a" opacity="0.50"/>
        <rect x="84"  y="110" width="26" height="26" fill="#1e3a8a" opacity="0.30"/>
        <rect x="110" y="110" width="26" height="26" fill="#1e3a8a" opacity="0.95"/>
        <rect x="136" y="110" width="26" height="26" fill="#1e3a8a" opacity="0.30"/>
        <rect x="162" y="110" width="26" height="26" fill="#1e3a8a" opacity="0.55"/>
        <rect x="188" y="110" width="26" height="26" fill="#1e3a8a" opacity="0.18"/>
        <!-- Row 5 -->
        <rect x="6"   y="136" width="26" height="26" fill="#1e3a8a" opacity="0.18"/>
        <rect x="32"  y="136" width="26" height="26" fill="#1e3a8a" opacity="0.35"/>
        <rect x="58"  y="136" width="26" height="26" fill="#1e3a8a" opacity="0.18"/>
        <rect x="84"  y="136" width="26" height="26" fill="#1e3a8a" opacity="0.50"/>
        <rect x="110" y="136" width="26" height="26" fill="#1e3a8a" opacity="0.30"/>
        <rect x="136" y="136" width="26" height="26" fill="#1e3a8a" opacity="0.95"/>
        <rect x="162" y="136" width="26" height="26" fill="#1e3a8a" opacity="0.30"/>
        <rect x="188" y="136" width="26" height="26" fill="#1e3a8a" opacity="0.55"/>
        <!-- Row 6 -->
        <rect x="6"   y="162" width="26" height="26" fill="#1e3a8a" opacity="0.32"/>
        <rect x="32"  y="162" width="26" height="26" fill="#1e3a8a" opacity="0.14"/>
        <rect x="58"  y="162" width="26" height="26" fill="#1e3a8a" opacity="0.40"/>
        <rect x="84"  y="162" width="26" height="26" fill="#1e3a8a" opacity="0.20"/>
        <rect x="110" y="162" width="26" height="26" fill="#1e3a8a" opacity="0.55"/>
        <rect x="136" y="162" width="26" height="26" fill="#1e3a8a" opacity="0.30"/>
        <rect x="162" y="162" width="26" height="26" fill="#1e3a8a" opacity="0.95"/>
        <rect x="188" y="162" width="26" height="26" fill="#1e3a8a" opacity="0.30"/>
        <!-- Row 7 -->
        <rect x="6"   y="188" width="26" height="26" fill="#1e3a8a" opacity="0.12"/>
        <rect x="32"  y="188" width="26" height="26" fill="#1e3a8a" opacity="0.30"/>
        <rect x="58"  y="188" width="26" height="26" fill="#1e3a8a" opacity="0.18"/>
        <rect x="84"  y="188" width="26" height="26" fill="#1e3a8a" opacity="0.35"/>
        <rect x="110" y="188" width="26" height="26" fill="#1e3a8a" opacity="0.18"/>
        <rect x="136" y="188" width="26" height="26" fill="#1e3a8a" opacity="0.55"/>
        <rect x="162" y="188" width="26" height="26" fill="#1e3a8a" opacity="0.30"/>
        <rect x="188" y="188" width="26" height="26" fill="#1e3a8a" opacity="0.95"/>
      </g>
    </g>

    <!-- equation under -->
    <text x="110" y="278" font-family="JetBrains Mono, monospace" font-size="11" font-weight="600" fill="#0a0a0a" text-anchor="middle">C</text>
    <text x="110" y="296" font-family="Inter, sans-serif" font-size="9" font-style="italic" fill="#525252" text-anchor="middle">balanced; diagonal dominates</text>
  </g>

  <!-- arrow 1 -->
  <g>
    <line x1="270" y1="200" x2="320" y2="200" stroke="#1e3a8a" stroke-width="1.5" marker-end="url(#arrow-accent-ch10)"/>
    <text x="295" y="190" font-family="Inter, sans-serif" font-size="9" font-weight="600" fill="#1e3a8a" text-anchor="middle">÷ E(|i−j|)</text>
    <text x="295" y="215" font-family="Inter, sans-serif" font-size="8" font-style="italic" fill="#525252" text-anchor="middle">detrend</text>
  </g>

  <!-- ============ STAGE 2: OE matrix ============ -->
  <g transform="translate(330, 100)">
    <text x="110" y="0" font-family="Inter, sans-serif" font-size="10" font-weight="700" fill="#1e3a8a" letter-spacing="0.08em" text-anchor="middle">STAGE 2</text>
    <text x="110" y="16" font-family="Inter, sans-serif" font-size="10" font-weight="600" fill="#0a0a0a" text-anchor="middle">observed / expected</text>

    <g transform="translate(0, 30)">
      <rect x="0" y="0" width="220" height="220" fill="#ffffff" stroke="#e5e3dc" stroke-width="1"/>
      <g shape-rendering="crispEdges">
        <!-- OE matrix: diagonal flat; alternating-index bins have high OE for same-parity pairs.
             Even bins (0,2,4,6): strong contacts among themselves. Odd bins (1,3,5,7): strong contacts among themselves.
             Cross-parity: weak. -->
        <!-- Row 0 (even) -->
        <rect x="6"   y="6"   width="26" height="26" fill="#1e3a8a" opacity="0.55"/>
        <rect x="32"  y="6"   width="26" height="26" fill="#b45309" opacity="0.30"/>
        <rect x="58"  y="6"   width="26" height="26" fill="#1e3a8a" opacity="0.65"/>
        <rect x="84"  y="6"   width="26" height="26" fill="#b45309" opacity="0.25"/>
        <rect x="110" y="6"   width="26" height="26" fill="#1e3a8a" opacity="0.55"/>
        <rect x="136" y="6"   width="26" height="26" fill="#b45309" opacity="0.20"/>
        <rect x="162" y="6"   width="26" height="26" fill="#1e3a8a" opacity="0.50"/>
        <rect x="188" y="6"   width="26" height="26" fill="#b45309" opacity="0.20"/>
        <!-- Row 1 (odd) -->
        <rect x="6"   y="32"  width="26" height="26" fill="#b45309" opacity="0.30"/>
        <rect x="32"  y="32"  width="26" height="26" fill="#1e3a8a" opacity="0.55"/>
        <rect x="58"  y="32"  width="26" height="26" fill="#b45309" opacity="0.25"/>
        <rect x="84"  y="32"  width="26" height="26" fill="#1e3a8a" opacity="0.65"/>
        <rect x="110" y="32"  width="26" height="26" fill="#b45309" opacity="0.20"/>
        <rect x="136" y="32"  width="26" height="26" fill="#1e3a8a" opacity="0.55"/>
        <rect x="162" y="32"  width="26" height="26" fill="#b45309" opacity="0.18"/>
        <rect x="188" y="32"  width="26" height="26" fill="#1e3a8a" opacity="0.50"/>
        <!-- Row 2 -->
        <rect x="6"   y="58"  width="26" height="26" fill="#1e3a8a" opacity="0.65"/>
        <rect x="32"  y="58"  width="26" height="26" fill="#b45309" opacity="0.25"/>
        <rect x="58"  y="58"  width="26" height="26" fill="#1e3a8a" opacity="0.55"/>
        <rect x="84"  y="58"  width="26" height="26" fill="#b45309" opacity="0.30"/>
        <rect x="110" y="58"  width="26" height="26" fill="#1e3a8a" opacity="0.65"/>
        <rect x="136" y="58"  width="26" height="26" fill="#b45309" opacity="0.18"/>
        <rect x="162" y="58"  width="26" height="26" fill="#1e3a8a" opacity="0.55"/>
        <rect x="188" y="58"  width="26" height="26" fill="#b45309" opacity="0.20"/>
        <!-- Row 3 -->
        <rect x="6"   y="84"  width="26" height="26" fill="#b45309" opacity="0.25"/>
        <rect x="32"  y="84"  width="26" height="26" fill="#1e3a8a" opacity="0.65"/>
        <rect x="58"  y="84"  width="26" height="26" fill="#b45309" opacity="0.30"/>
        <rect x="84"  y="84"  width="26" height="26" fill="#1e3a8a" opacity="0.55"/>
        <rect x="110" y="84"  width="26" height="26" fill="#b45309" opacity="0.25"/>
        <rect x="136" y="84"  width="26" height="26" fill="#1e3a8a" opacity="0.65"/>
        <rect x="162" y="84"  width="26" height="26" fill="#b45309" opacity="0.20"/>
        <rect x="188" y="84"  width="26" height="26" fill="#1e3a8a" opacity="0.55"/>
        <!-- Row 4 -->
        <rect x="6"   y="110" width="26" height="26" fill="#1e3a8a" opacity="0.55"/>
        <rect x="32"  y="110" width="26" height="26" fill="#b45309" opacity="0.20"/>
        <rect x="58"  y="110" width="26" height="26" fill="#1e3a8a" opacity="0.65"/>
        <rect x="84"  y="110" width="26" height="26" fill="#b45309" opacity="0.25"/>
        <rect x="110" y="110" width="26" height="26" fill="#1e3a8a" opacity="0.55"/>
        <rect x="136" y="110" width="26" height="26" fill="#b45309" opacity="0.30"/>
        <rect x="162" y="110" width="26" height="26" fill="#1e3a8a" opacity="0.65"/>
        <rect x="188" y="110" width="26" height="26" fill="#b45309" opacity="0.18"/>
        <!-- Row 5 -->
        <rect x="6"   y="136" width="26" height="26" fill="#b45309" opacity="0.20"/>
        <rect x="32"  y="136" width="26" height="26" fill="#1e3a8a" opacity="0.55"/>
        <rect x="58"  y="136" width="26" height="26" fill="#b45309" opacity="0.18"/>
        <rect x="84"  y="136" width="26" height="26" fill="#1e3a8a" opacity="0.65"/>
        <rect x="110" y="136" width="26" height="26" fill="#b45309" opacity="0.30"/>
        <rect x="136" y="136" width="26" height="26" fill="#1e3a8a" opacity="0.55"/>
        <rect x="162" y="136" width="26" height="26" fill="#b45309" opacity="0.25"/>
        <rect x="188" y="136" width="26" height="26" fill="#1e3a8a" opacity="0.65"/>
        <!-- Row 6 -->
        <rect x="6"   y="162" width="26" height="26" fill="#1e3a8a" opacity="0.50"/>
        <rect x="32"  y="162" width="26" height="26" fill="#b45309" opacity="0.18"/>
        <rect x="58"  y="162" width="26" height="26" fill="#1e3a8a" opacity="0.55"/>
        <rect x="84"  y="162" width="26" height="26" fill="#b45309" opacity="0.20"/>
        <rect x="110" y="162" width="26" height="26" fill="#1e3a8a" opacity="0.65"/>
        <rect x="136" y="162" width="26" height="26" fill="#b45309" opacity="0.25"/>
        <rect x="162" y="162" width="26" height="26" fill="#1e3a8a" opacity="0.55"/>
        <rect x="188" y="162" width="26" height="26" fill="#b45309" opacity="0.30"/>
        <!-- Row 7 -->
        <rect x="6"   y="188" width="26" height="26" fill="#b45309" opacity="0.20"/>
        <rect x="32"  y="188" width="26" height="26" fill="#1e3a8a" opacity="0.50"/>
        <rect x="58"  y="188" width="26" height="26" fill="#b45309" opacity="0.20"/>
        <rect x="84"  y="188" width="26" height="26" fill="#1e3a8a" opacity="0.55"/>
        <rect x="110" y="188" width="26" height="26" fill="#b45309" opacity="0.18"/>
        <rect x="136" y="188" width="26" height="26" fill="#1e3a8a" opacity="0.65"/>
        <rect x="162" y="188" width="26" height="26" fill="#b45309" opacity="0.30"/>
        <rect x="188" y="188" width="26" height="26" fill="#1e3a8a" opacity="0.55"/>
      </g>
    </g>

    <text x="110" y="278" font-family="JetBrains Mono, monospace" font-size="11" font-weight="600" fill="#0a0a0a" text-anchor="middle">OE[i,j] = C[i,j] / E(|i−j|)</text>
    <text x="110" y="296" font-family="Inter, sans-serif" font-size="9" font-style="italic" fill="#525252" text-anchor="middle">checkerboard surfaces</text>
  </g>

  <!-- arrow 2 -->
  <g>
    <line x1="560" y1="200" x2="610" y2="200" stroke="#1e3a8a" stroke-width="1.5" marker-end="url(#arrow-accent-ch10)"/>
    <text x="585" y="190" font-family="Inter, sans-serif" font-size="9" font-weight="600" fill="#1e3a8a" text-anchor="middle">corr(·)</text>
    <text x="585" y="215" font-family="Inter, sans-serif" font-size="8" font-style="italic" fill="#525252" text-anchor="middle">row-wise</text>
  </g>

  <!-- ============ STAGE 3: correlation matrix R ============ -->
  <g transform="translate(620, 100)">
    <text x="110" y="0" font-family="Inter, sans-serif" font-size="10" font-weight="700" fill="#1e3a8a" letter-spacing="0.08em" text-anchor="middle">STAGE 3</text>
    <text x="110" y="16" font-family="Inter, sans-serif" font-size="10" font-weight="600" fill="#0a0a0a" text-anchor="middle">correlation matrix R</text>

    <g transform="translate(0, 30)">
      <rect x="0" y="0" width="220" height="220" fill="#ffffff" stroke="#e5e3dc" stroke-width="1"/>
      <g shape-rendering="crispEdges">
        <!-- Pure bipartite block: even-even and odd-odd positive (cobalt strong),
             even-odd negative (amber strong). Sharper than OE. -->
        <!-- Row 0 -->
        <rect x="6"   y="6"   width="26" height="26" fill="#1e3a8a" opacity="0.95"/>
        <rect x="32"  y="6"   width="26" height="26" fill="#b45309" opacity="0.85"/>
        <rect x="58"  y="6"   width="26" height="26" fill="#1e3a8a" opacity="0.85"/>
        <rect x="84"  y="6"   width="26" height="26" fill="#b45309" opacity="0.85"/>
        <rect x="110" y="6"   width="26" height="26" fill="#1e3a8a" opacity="0.80"/>
        <rect x="136" y="6"   width="26" height="26" fill="#b45309" opacity="0.80"/>
        <rect x="162" y="6"   width="26" height="26" fill="#1e3a8a" opacity="0.75"/>
        <rect x="188" y="6"   width="26" height="26" fill="#b45309" opacity="0.75"/>
        <!-- Row 1 -->
        <rect x="6"   y="32"  width="26" height="26" fill="#b45309" opacity="0.85"/>
        <rect x="32"  y="32"  width="26" height="26" fill="#1e3a8a" opacity="0.95"/>
        <rect x="58"  y="32"  width="26" height="26" fill="#b45309" opacity="0.85"/>
        <rect x="84"  y="32"  width="26" height="26" fill="#1e3a8a" opacity="0.85"/>
        <rect x="110" y="32"  width="26" height="26" fill="#b45309" opacity="0.80"/>
        <rect x="136" y="32"  width="26" height="26" fill="#1e3a8a" opacity="0.80"/>
        <rect x="162" y="32"  width="26" height="26" fill="#b45309" opacity="0.75"/>
        <rect x="188" y="32"  width="26" height="26" fill="#1e3a8a" opacity="0.75"/>
        <!-- Row 2 -->
        <rect x="6"   y="58"  width="26" height="26" fill="#1e3a8a" opacity="0.85"/>
        <rect x="32"  y="58"  width="26" height="26" fill="#b45309" opacity="0.85"/>
        <rect x="58"  y="58"  width="26" height="26" fill="#1e3a8a" opacity="0.95"/>
        <rect x="84"  y="58"  width="26" height="26" fill="#b45309" opacity="0.85"/>
        <rect x="110" y="58"  width="26" height="26" fill="#1e3a8a" opacity="0.85"/>
        <rect x="136" y="58"  width="26" height="26" fill="#b45309" opacity="0.80"/>
        <rect x="162" y="58"  width="26" height="26" fill="#1e3a8a" opacity="0.80"/>
        <rect x="188" y="58"  width="26" height="26" fill="#b45309" opacity="0.75"/>
        <!-- Row 3 -->
        <rect x="6"   y="84"  width="26" height="26" fill="#b45309" opacity="0.85"/>
        <rect x="32"  y="84"  width="26" height="26" fill="#1e3a8a" opacity="0.85"/>
        <rect x="58"  y="84"  width="26" height="26" fill="#b45309" opacity="0.85"/>
        <rect x="84"  y="84"  width="26" height="26" fill="#1e3a8a" opacity="0.95"/>
        <rect x="110" y="84"  width="26" height="26" fill="#b45309" opacity="0.85"/>
        <rect x="136" y="84"  width="26" height="26" fill="#1e3a8a" opacity="0.85"/>
        <rect x="162" y="84"  width="26" height="26" fill="#b45309" opacity="0.80"/>
        <rect x="188" y="84"  width="26" height="26" fill="#1e3a8a" opacity="0.80"/>
        <!-- Row 4 -->
        <rect x="6"   y="110" width="26" height="26" fill="#1e3a8a" opacity="0.80"/>
        <rect x="32"  y="110" width="26" height="26" fill="#b45309" opacity="0.80"/>
        <rect x="58"  y="110" width="26" height="26" fill="#1e3a8a" opacity="0.85"/>
        <rect x="84"  y="110" width="26" height="26" fill="#b45309" opacity="0.85"/>
        <rect x="110" y="110" width="26" height="26" fill="#1e3a8a" opacity="0.95"/>
        <rect x="136" y="110" width="26" height="26" fill="#b45309" opacity="0.85"/>
        <rect x="162" y="110" width="26" height="26" fill="#1e3a8a" opacity="0.85"/>
        <rect x="188" y="110" width="26" height="26" fill="#b45309" opacity="0.80"/>
        <!-- Row 5 -->
        <rect x="6"   y="136" width="26" height="26" fill="#b45309" opacity="0.80"/>
        <rect x="32"  y="136" width="26" height="26" fill="#1e3a8a" opacity="0.80"/>
        <rect x="58"  y="136" width="26" height="26" fill="#b45309" opacity="0.80"/>
        <rect x="84"  y="136" width="26" height="26" fill="#1e3a8a" opacity="0.85"/>
        <rect x="110" y="136" width="26" height="26" fill="#b45309" opacity="0.85"/>
        <rect x="136" y="136" width="26" height="26" fill="#1e3a8a" opacity="0.95"/>
        <rect x="162" y="136" width="26" height="26" fill="#b45309" opacity="0.85"/>
        <rect x="188" y="136" width="26" height="26" fill="#1e3a8a" opacity="0.85"/>
        <!-- Row 6 -->
        <rect x="6"   y="162" width="26" height="26" fill="#1e3a8a" opacity="0.75"/>
        <rect x="32"  y="162" width="26" height="26" fill="#b45309" opacity="0.75"/>
        <rect x="58"  y="162" width="26" height="26" fill="#1e3a8a" opacity="0.80"/>
        <rect x="84"  y="162" width="26" height="26" fill="#b45309" opacity="0.80"/>
        <rect x="110" y="162" width="26" height="26" fill="#1e3a8a" opacity="0.85"/>
        <rect x="136" y="162" width="26" height="26" fill="#b45309" opacity="0.85"/>
        <rect x="162" y="162" width="26" height="26" fill="#1e3a8a" opacity="0.95"/>
        <rect x="188" y="162" width="26" height="26" fill="#b45309" opacity="0.85"/>
        <!-- Row 7 -->
        <rect x="6"   y="188" width="26" height="26" fill="#b45309" opacity="0.75"/>
        <rect x="32"  y="188" width="26" height="26" fill="#1e3a8a" opacity="0.75"/>
        <rect x="58"  y="188" width="26" height="26" fill="#b45309" opacity="0.75"/>
        <rect x="84"  y="188" width="26" height="26" fill="#1e3a8a" opacity="0.80"/>
        <rect x="110" y="188" width="26" height="26" fill="#b45309" opacity="0.80"/>
        <rect x="136" y="188" width="26" height="26" fill="#1e3a8a" opacity="0.85"/>
        <rect x="162" y="188" width="26" height="26" fill="#b45309" opacity="0.85"/>
        <rect x="188" y="188" width="26" height="26" fill="#1e3a8a" opacity="0.95"/>
      </g>
    </g>

    <text x="110" y="278" font-family="JetBrains Mono, monospace" font-size="11" font-weight="600" fill="#0a0a0a" text-anchor="middle">R = corr(OE)</text>
    <text x="110" y="296" font-family="Inter, sans-serif" font-size="9" font-style="italic" fill="#525252" text-anchor="middle">bipartite block structure</text>
  </g>

  <!-- arrow 3 -->
  <g>
    <line x1="850" y1="200" x2="900" y2="200" stroke="#1e3a8a" stroke-width="1.5" marker-end="url(#arrow-accent-ch10)"/>
    <text x="875" y="190" font-family="Inter, sans-serif" font-size="9" font-weight="600" fill="#1e3a8a" text-anchor="middle">eig(·)</text>
    <text x="875" y="215" font-family="Inter, sans-serif" font-size="8" font-style="italic" fill="#525252" text-anchor="middle">top-1</text>
  </g>

  <!-- ============ STAGE 4: 1D eigenvector track ============ -->
  <g transform="translate(910, 100)">
    <text x="120" y="0" font-family="Inter, sans-serif" font-size="10" font-weight="700" fill="#1e3a8a" letter-spacing="0.08em" text-anchor="middle">STAGE 4</text>
    <text x="120" y="16" font-family="Inter, sans-serif" font-size="10" font-weight="600" fill="#0a0a0a" text-anchor="middle">first eigenvector v₁</text>

    <g transform="translate(0, 30)">
      <rect x="0" y="0" width="240" height="220" fill="#ffffff" stroke="#e5e3dc" stroke-width="1"/>

      <!-- axes -->
      <line x1="20" y1="110" x2="220" y2="110" stroke="#374151" stroke-width="1"/>
      <line x1="20" y1="20" x2="20" y2="200" stroke="#374151" stroke-width="1"/>

      <!-- bins 0..7 along x; bars vertically -->
      <!-- Even bins (0,2,4,6): positive bars (cobalt); odd bins (1,3,5,7): negative bars (amber) -->
      <g>
        <rect x="30"  y="38"  width="20" height="72" fill="#1e3a8a" opacity="0.85"/>
        <rect x="55"  y="110" width="20" height="60" fill="#b45309" opacity="0.85"/>
        <rect x="80"  y="34"  width="20" height="76" fill="#1e3a8a" opacity="0.85"/>
        <rect x="105" y="110" width="20" height="64" fill="#b45309" opacity="0.85"/>
        <rect x="130" y="46"  width="20" height="64" fill="#1e3a8a" opacity="0.85"/>
        <rect x="155" y="110" width="20" height="60" fill="#b45309" opacity="0.85"/>
        <rect x="180" y="50"  width="20" height="60" fill="#1e3a8a" opacity="0.85"/>
        <rect x="205" y="110" width="20" height="56" fill="#b45309" opacity="0.85"/>
      </g>

      <!-- axis labels -->
      <g font-family="JetBrains Mono, monospace" font-size="8" fill="#525252">
        <text x="40" y="194" text-anchor="middle">0</text>
        <text x="65" y="194" text-anchor="middle">1</text>
        <text x="90" y="194" text-anchor="middle">2</text>
        <text x="115" y="194" text-anchor="middle">3</text>
        <text x="140" y="194" text-anchor="middle">4</text>
        <text x="165" y="194" text-anchor="middle">5</text>
        <text x="190" y="194" text-anchor="middle">6</text>
        <text x="215" y="194" text-anchor="middle">7</text>
      </g>
      <text x="120" y="210" font-family="Inter, sans-serif" font-size="9" font-weight="600" fill="#525252" text-anchor="middle">bin index</text>

      <g font-family="JetBrains Mono, monospace" font-size="8" fill="#525252">
        <text x="14" y="40"  text-anchor="end">+</text>
        <text x="14" y="113" text-anchor="end">0</text>
        <text x="14" y="174" text-anchor="end">−</text>
      </g>

      <!-- legend -->
      <g transform="translate(126, 22)">
        <rect x="0" y="0" width="10" height="10" fill="#1e3a8a" opacity="0.85"/>
        <text x="14" y="9" font-family="Inter, sans-serif" font-size="9" font-weight="600" fill="#1e3a8a">A compartment</text>
        <rect x="0" y="14" width="10" height="10" fill="#b45309" opacity="0.85"/>
        <text x="14" y="23" font-family="Inter, sans-serif" font-size="9" font-weight="600" fill="#b45309">B compartment</text>
      </g>
    </g>

    <text x="120" y="278" font-family="JetBrains Mono, monospace" font-size="11" font-weight="600" fill="#0a0a0a" text-anchor="middle">R v₁ = λ₁ v₁</text>
    <text x="120" y="296" font-family="Inter, sans-serif" font-size="9" font-style="italic" fill="#525252" text-anchor="middle">sign labels each bin</text>
  </g>

  <!-- bottom interpretation -->
  <g transform="translate(60, 460)">
    <rect x="0" y="0" width="1080" height="92" rx="4" fill="#f4f3ee" stroke="#e5e3dc" stroke-width="1"/>
    <text x="20" y="22" font-family="Inter, sans-serif" font-size="10" font-weight="700" fill="#1e3a8a" letter-spacing="0.08em">READING THE PIPELINE</text>

    <g font-family="Inter, sans-serif" font-size="10" fill="#0a0a0a">
      <text x="20" y="46">Each stage is one operator from any linear-algebra course: a matrix divide, a Pearson correlation, an eigendecomposition. None has biology-specific subtlety.</text>
      <text x="20" y="64">The genomics-specific choices are upstream (which bins go in, how E(|i−j|) is estimated) and downstream (which sign convention assigns A vs B).</text>
      <text x="20" y="82" font-style="italic" fill="#525252">Same math as eigenfaces, sensor-array beamforming, and inertia-tensor principal axes.</text>
    </g>
  </g>
</svg>
