<svg xmlns="http://www.w3.org/2000/svg" viewBox="0 0 1200 580" role="img" aria-labelledby="t d">
  <title id="t">3D reconstruction from Hi-C as classical multidimensional scaling</title>
  <desc id="d">A three-stage pipeline. Stage 1: a contact matrix C with values shown as a small heatmap. Stage 2: a distance matrix D obtained via d = C raised to a negative power, shown as the same matrix but inverted in tint. Stage 3: a polymer trajectory in 2D-projected 3D space, showing eight numbered bins as connected nodes with arc-like shape, A-compartment bins coloured cobalt and B-compartment bins coloured amber. Arrows between stages annotated with the MDS operations: contact-to-distance transform, double centring, then top-three eigenvectors. A side box lists the closed-form equation B equals minus half H D-squared H, X equals U-k Lambda-k to the one-half.</desc>

  <rect x="0" y="0" width="1200" height="580" fill="#fafaf9"/>

  <!-- Header -->
  <g>
    <text x="60" y="40" font-family="Inter, sans-serif" font-size="13" font-weight="700" fill="#1e3a8a" letter-spacing="0.08em">HI-C TO 3D — CLASSICAL MULTIDIMENSIONAL SCALING</text>
    <text x="60" y="58" font-family="Inter, sans-serif" font-size="11" font-style="italic" fill="#525252">From a pairwise-similarity matrix to per-bin nuclear coordinates via standard MDS.</text>
  </g>

  <!-- Arrow marker -->
  <defs>
    <marker id="arrow-accent-ch10b" viewBox="0 0 10 10" refX="9" refY="5"
            markerWidth="7" markerHeight="7" orient="auto-start-reverse">
      <path d="M 0 0 L 10 5 L 0 10 z" fill="#1e3a8a"/>
    </marker>
  </defs>

  <!-- ============ STAGE 1: contact matrix ============ -->
  <g transform="translate(60, 100)">
    <text x="140" y="0" font-family="Inter, sans-serif" font-size="10" font-weight="700" fill="#1e3a8a" letter-spacing="0.08em" text-anchor="middle">STAGE 1</text>
    <text x="140" y="16" font-family="Inter, sans-serif" font-size="10" font-weight="600" fill="#0a0a0a" text-anchor="middle">contact matrix C</text>

    <g transform="translate(0, 30)">
      <rect x="0" y="0" width="280" height="280" fill="#ffffff" stroke="#e5e3dc" stroke-width="1"/>

      <!-- 8x8 grid, cell 32, offset 12 -->
      <!-- We design a contact pattern where bins 0..3 form A compartment (high contact among themselves),
           bins 4..7 form B compartment. Use cobalt opacity scale. -->
      <g shape-rendering="crispEdges">
        <!-- Row 0 -->
        <rect x="12"  y="12"  width="32" height="32" fill="#1e3a8a" opacity="0.95"/>
        <rect x="44"  y="12"  width="32" height="32" fill="#1e3a8a" opacity="0.80"/>
        <rect x="76"  y="12"  width="32" height="32" fill="#1e3a8a" opacity="0.65"/>
        <rect x="108" y="12"  width="32" height="32" fill="#1e3a8a" opacity="0.55"/>
        <rect x="140" y="12"  width="32" height="32" fill="#1e3a8a" opacity="0.20"/>
        <rect x="172" y="12"  width="32" height="32" fill="#1e3a8a" opacity="0.15"/>
        <rect x="204" y="12"  width="32" height="32" fill="#1e3a8a" opacity="0.10"/>
        <rect x="236" y="12"  width="32" height="32" fill="#1e3a8a" opacity="0.08"/>
        <!-- Row 1 -->
        <rect x="12"  y="44"  width="32" height="32" fill="#1e3a8a" opacity="0.80"/>
        <rect x="44"  y="44"  width="32" height="32" fill="#1e3a8a" opacity="0.95"/>
        <rect x="76"  y="44"  width="32" height="32" fill="#1e3a8a" opacity="0.78"/>
        <rect x="108" y="44"  width="32" height="32" fill="#1e3a8a" opacity="0.65"/>
        <rect x="140" y="44"  width="32" height="32" fill="#1e3a8a" opacity="0.18"/>
        <rect x="172" y="44"  width="32" height="32" fill="#1e3a8a" opacity="0.14"/>
        <rect x="204" y="44"  width="32" height="32" fill="#1e3a8a" opacity="0.10"/>
        <rect x="236" y="44"  width="32" height="32" fill="#1e3a8a" opacity="0.08"/>
        <!-- Row 2 -->
        <rect x="12"  y="76"  width="32" height="32" fill="#1e3a8a" opacity="0.65"/>
        <rect x="44"  y="76"  width="32" height="32" fill="#1e3a8a" opacity="0.78"/>
        <rect x="76"  y="76"  width="32" height="32" fill="#1e3a8a" opacity="0.95"/>
        <rect x="108" y="76"  width="32" height="32" fill="#1e3a8a" opacity="0.80"/>
        <rect x="140" y="76"  width="32" height="32" fill="#1e3a8a" opacity="0.20"/>
        <rect x="172" y="76"  width="32" height="32" fill="#1e3a8a" opacity="0.16"/>
        <rect x="204" y="76"  width="32" height="32" fill="#1e3a8a" opacity="0.12"/>
        <rect x="236" y="76"  width="32" height="32" fill="#1e3a8a" opacity="0.08"/>
        <!-- Row 3 -->
        <rect x="12"  y="108" width="32" height="32" fill="#1e3a8a" opacity="0.55"/>
        <rect x="44"  y="108" width="32" height="32" fill="#1e3a8a" opacity="0.65"/>
        <rect x="76"  y="108" width="32" height="32" fill="#1e3a8a" opacity="0.80"/>
        <rect x="108" y="108" width="32" height="32" fill="#1e3a8a" opacity="0.95"/>
        <rect x="140" y="108" width="32" height="32" fill="#1e3a8a" opacity="0.22"/>
        <rect x="172" y="108" width="32" height="32" fill="#1e3a8a" opacity="0.18"/>
        <rect x="204" y="108" width="32" height="32" fill="#1e3a8a" opacity="0.14"/>
        <rect x="236" y="108" width="32" height="32" fill="#1e3a8a" opacity="0.10"/>
        <!-- Row 4 (B) -->
        <rect x="12"  y="140" width="32" height="32" fill="#1e3a8a" opacity="0.20"/>
        <rect x="44"  y="140" width="32" height="32" fill="#1e3a8a" opacity="0.18"/>
        <rect x="76"  y="140" width="32" height="32" fill="#1e3a8a" opacity="0.20"/>
        <rect x="108" y="140" width="32" height="32" fill="#1e3a8a" opacity="0.22"/>
        <rect x="140" y="140" width="32" height="32" fill="#1e3a8a" opacity="0.95"/>
        <rect x="172" y="140" width="32" height="32" fill="#1e3a8a" opacity="0.78"/>
        <rect x="204" y="140" width="32" height="32" fill="#1e3a8a" opacity="0.65"/>
        <rect x="236" y="140" width="32" height="32" fill="#1e3a8a" opacity="0.55"/>
        <!-- Row 5 -->
        <rect x="12"  y="172" width="32" height="32" fill="#1e3a8a" opacity="0.15"/>
        <rect x="44"  y="172" width="32" height="32" fill="#1e3a8a" opacity="0.14"/>
        <rect x="76"  y="172" width="32" height="32" fill="#1e3a8a" opacity="0.16"/>
        <rect x="108" y="172" width="32" height="32" fill="#1e3a8a" opacity="0.18"/>
        <rect x="140" y="172" width="32" height="32" fill="#1e3a8a" opacity="0.78"/>
        <rect x="172" y="172" width="32" height="32" fill="#1e3a8a" opacity="0.95"/>
        <rect x="204" y="172" width="32" height="32" fill="#1e3a8a" opacity="0.78"/>
        <rect x="236" y="172" width="32" height="32" fill="#1e3a8a" opacity="0.62"/>
        <!-- Row 6 -->
        <rect x="12"  y="204" width="32" height="32" fill="#1e3a8a" opacity="0.10"/>
        <rect x="44"  y="204" width="32" height="32" fill="#1e3a8a" opacity="0.10"/>
        <rect x="76"  y="204" width="32" height="32" fill="#1e3a8a" opacity="0.12"/>
        <rect x="108" y="204" width="32" height="32" fill="#1e3a8a" opacity="0.14"/>
        <rect x="140" y="204" width="32" height="32" fill="#1e3a8a" opacity="0.65"/>
        <rect x="172" y="204" width="32" height="32" fill="#1e3a8a" opacity="0.78"/>
        <rect x="204" y="204" width="32" height="32" fill="#1e3a8a" opacity="0.95"/>
        <rect x="236" y="204" width="32" height="32" fill="#1e3a8a" opacity="0.78"/>
        <!-- Row 7 -->
        <rect x="12"  y="236" width="32" height="32" fill="#1e3a8a" opacity="0.08"/>
        <rect x="44"  y="236" width="32" height="32" fill="#1e3a8a" opacity="0.08"/>
        <rect x="76"  y="236" width="32" height="32" fill="#1e3a8a" opacity="0.08"/>
        <rect x="108" y="236" width="32" height="32" fill="#1e3a8a" opacity="0.10"/>
        <rect x="140" y="236" width="32" height="32" fill="#1e3a8a" opacity="0.55"/>
        <rect x="172" y="236" width="32" height="32" fill="#1e3a8a" opacity="0.62"/>
        <rect x="204" y="236" width="32" height="32" fill="#1e3a8a" opacity="0.78"/>
        <rect x="236" y="236" width="32" height="32" fill="#1e3a8a" opacity="0.95"/>
      </g>

      <!-- block outlines for clarity -->
      <g stroke="#0a0a0a" stroke-width="1" fill="none">
        <rect x="12" y="12" width="128" height="128"/>
        <rect x="140" y="140" width="128" height="128"/>
      </g>
    </g>

    <text x="140" y="320" font-family="JetBrains Mono, monospace" font-size="11" font-weight="600" fill="#0a0a0a" text-anchor="middle">C[i, j]</text>
    <text x="140" y="338" font-family="Inter, sans-serif" font-size="9" font-style="italic" fill="#525252" text-anchor="middle">high = close in 3D</text>
  </g>

  <!-- arrow 1 -->
  <g>
    <line x1="350" y1="240" x2="410" y2="240" stroke="#1e3a8a" stroke-width="1.5" marker-end="url(#arrow-accent-ch10b)"/>
    <text x="380" y="226" font-family="JetBrains Mono, monospace" font-size="10" font-weight="600" fill="#1e3a8a" text-anchor="middle">d = C⁻ᵅ</text>
    <text x="380" y="256" font-family="Inter, sans-serif" font-size="9" font-style="italic" fill="#525252" text-anchor="middle">monotone</text>
  </g>

  <!-- ============ STAGE 2: distance matrix ============ -->
  <g transform="translate(420, 100)">
    <text x="140" y="0" font-family="Inter, sans-serif" font-size="10" font-weight="700" fill="#1e3a8a" letter-spacing="0.08em" text-anchor="middle">STAGE 2</text>
    <text x="140" y="16" font-family="Inter, sans-serif" font-size="10" font-weight="600" fill="#0a0a0a" text-anchor="middle">distance matrix D</text>

    <g transform="translate(0, 30)">
      <rect x="0" y="0" width="280" height="280" fill="#ffffff" stroke="#e5e3dc" stroke-width="1"/>

      <!-- Distance matrix: inverse of C in tint. Use amber. -->
      <g shape-rendering="crispEdges">
        <!-- Row 0 - low distance within A block, high between blocks. We use amber opacity as a "distance" colour. -->
        <rect x="12"  y="12"  width="32" height="32" fill="#b45309" opacity="0.10"/>
        <rect x="44"  y="12"  width="32" height="32" fill="#b45309" opacity="0.22"/>
        <rect x="76"  y="12"  width="32" height="32" fill="#b45309" opacity="0.35"/>
        <rect x="108" y="12"  width="32" height="32" fill="#b45309" opacity="0.42"/>
        <rect x="140" y="12"  width="32" height="32" fill="#b45309" opacity="0.85"/>
        <rect x="172" y="12"  width="32" height="32" fill="#b45309" opacity="0.90"/>
        <rect x="204" y="12"  width="32" height="32" fill="#b45309" opacity="0.92"/>
        <rect x="236" y="12"  width="32" height="32" fill="#b45309" opacity="0.95"/>
        <!-- Row 1 -->
        <rect x="12"  y="44"  width="32" height="32" fill="#b45309" opacity="0.22"/>
        <rect x="44"  y="44"  width="32" height="32" fill="#b45309" opacity="0.10"/>
        <rect x="76"  y="44"  width="32" height="32" fill="#b45309" opacity="0.22"/>
        <rect x="108" y="44"  width="32" height="32" fill="#b45309" opacity="0.35"/>
        <rect x="140" y="44"  width="32" height="32" fill="#b45309" opacity="0.85"/>
        <rect x="172" y="44"  width="32" height="32" fill="#b45309" opacity="0.88"/>
        <rect x="204" y="44"  width="32" height="32" fill="#b45309" opacity="0.92"/>
        <rect x="236" y="44"  width="32" height="32" fill="#b45309" opacity="0.95"/>
        <!-- Row 2 -->
        <rect x="12"  y="76"  width="32" height="32" fill="#b45309" opacity="0.35"/>
        <rect x="44"  y="76"  width="32" height="32" fill="#b45309" opacity="0.22"/>
        <rect x="76"  y="76"  width="32" height="32" fill="#b45309" opacity="0.10"/>
        <rect x="108" y="76"  width="32" height="32" fill="#b45309" opacity="0.22"/>
        <rect x="140" y="76"  width="32" height="32" fill="#b45309" opacity="0.85"/>
        <rect x="172" y="76"  width="32" height="32" fill="#b45309" opacity="0.88"/>
        <rect x="204" y="76"  width="32" height="32" fill="#b45309" opacity="0.92"/>
        <rect x="236" y="76"  width="32" height="32" fill="#b45309" opacity="0.95"/>
        <!-- Row 3 -->
        <rect x="12"  y="108" width="32" height="32" fill="#b45309" opacity="0.42"/>
        <rect x="44"  y="108" width="32" height="32" fill="#b45309" opacity="0.35"/>
        <rect x="76"  y="108" width="32" height="32" fill="#b45309" opacity="0.22"/>
        <rect x="108" y="108" width="32" height="32" fill="#b45309" opacity="0.10"/>
        <rect x="140" y="108" width="32" height="32" fill="#b45309" opacity="0.82"/>
        <rect x="172" y="108" width="32" height="32" fill="#b45309" opacity="0.85"/>
        <rect x="204" y="108" width="32" height="32" fill="#b45309" opacity="0.88"/>
        <rect x="236" y="108" width="32" height="32" fill="#b45309" opacity="0.92"/>
        <!-- Row 4 -->
        <rect x="12"  y="140" width="32" height="32" fill="#b45309" opacity="0.85"/>
        <rect x="44"  y="140" width="32" height="32" fill="#b45309" opacity="0.85"/>
        <rect x="76"  y="140" width="32" height="32" fill="#b45309" opacity="0.85"/>
        <rect x="108" y="140" width="32" height="32" fill="#b45309" opacity="0.82"/>
        <rect x="140" y="140" width="32" height="32" fill="#b45309" opacity="0.10"/>
        <rect x="172" y="140" width="32" height="32" fill="#b45309" opacity="0.22"/>
        <rect x="204" y="140" width="32" height="32" fill="#b45309" opacity="0.35"/>
        <rect x="236" y="140" width="32" height="32" fill="#b45309" opacity="0.45"/>
        <!-- Row 5 -->
        <rect x="12"  y="172" width="32" height="32" fill="#b45309" opacity="0.90"/>
        <rect x="44"  y="172" width="32" height="32" fill="#b45309" opacity="0.88"/>
        <rect x="76"  y="172" width="32" height="32" fill="#b45309" opacity="0.88"/>
        <rect x="108" y="172" width="32" height="32" fill="#b45309" opacity="0.85"/>
        <rect x="140" y="172" width="32" height="32" fill="#b45309" opacity="0.22"/>
        <rect x="172" y="172" width="32" height="32" fill="#b45309" opacity="0.10"/>
        <rect x="204" y="172" width="32" height="32" fill="#b45309" opacity="0.22"/>
        <rect x="236" y="172" width="32" height="32" fill="#b45309" opacity="0.35"/>
        <!-- Row 6 -->
        <rect x="12"  y="204" width="32" height="32" fill="#b45309" opacity="0.92"/>
        <rect x="44"  y="204" width="32" height="32" fill="#b45309" opacity="0.92"/>
        <rect x="76"  y="204" width="32" height="32" fill="#b45309" opacity="0.92"/>
        <rect x="108" y="204" width="32" height="32" fill="#b45309" opacity="0.88"/>
        <rect x="140" y="204" width="32" height="32" fill="#b45309" opacity="0.35"/>
        <rect x="172" y="204" width="32" height="32" fill="#b45309" opacity="0.22"/>
        <rect x="204" y="204" width="32" height="32" fill="#b45309" opacity="0.10"/>
        <rect x="236" y="204" width="32" height="32" fill="#b45309" opacity="0.22"/>
        <!-- Row 7 -->
        <rect x="12"  y="236" width="32" height="32" fill="#b45309" opacity="0.95"/>
        <rect x="44"  y="236" width="32" height="32" fill="#b45309" opacity="0.95"/>
        <rect x="76"  y="236" width="32" height="32" fill="#b45309" opacity="0.95"/>
        <rect x="108" y="236" width="32" height="32" fill="#b45309" opacity="0.92"/>
        <rect x="140" y="236" width="32" height="32" fill="#b45309" opacity="0.45"/>
        <rect x="172" y="236" width="32" height="32" fill="#b45309" opacity="0.35"/>
        <rect x="204" y="236" width="32" height="32" fill="#b45309" opacity="0.22"/>
        <rect x="236" y="236" width="32" height="32" fill="#b45309" opacity="0.10"/>
      </g>

      <!-- block outlines -->
      <g stroke="#0a0a0a" stroke-width="1" fill="none">
        <rect x="12" y="12" width="128" height="128"/>
        <rect x="140" y="140" width="128" height="128"/>
      </g>
    </g>

    <text x="140" y="320" font-family="JetBrains Mono, monospace" font-size="11" font-weight="600" fill="#0a0a0a" text-anchor="middle">D[i, j] = d(i, j)</text>
    <text x="140" y="338" font-family="Inter, sans-serif" font-size="9" font-style="italic" fill="#525252" text-anchor="middle">low = close · high = far</text>
  </g>

  <!-- arrow 2 -->
  <g>
    <line x1="710" y1="240" x2="770" y2="240" stroke="#1e3a8a" stroke-width="1.5" marker-end="url(#arrow-accent-ch10b)"/>
    <text x="740" y="222" font-family="Inter, sans-serif" font-size="9" font-weight="600" fill="#1e3a8a" text-anchor="middle">double-centre</text>
    <text x="740" y="234" font-family="Inter, sans-serif" font-size="9" font-weight="600" fill="#1e3a8a" text-anchor="middle">eigendecompose</text>
    <text x="740" y="252" font-family="Inter, sans-serif" font-size="9" font-style="italic" fill="#525252" text-anchor="middle">top-3</text>
  </g>

  <!-- ============ STAGE 3: 3D polymer trajectory ============ -->
  <g transform="translate(780, 100)">
    <text x="170" y="0" font-family="Inter, sans-serif" font-size="10" font-weight="700" fill="#1e3a8a" letter-spacing="0.08em" text-anchor="middle">STAGE 3</text>
    <text x="170" y="16" font-family="Inter, sans-serif" font-size="10" font-weight="600" fill="#0a0a0a" text-anchor="middle">3D polymer trajectory</text>

    <g transform="translate(0, 30)">
      <rect x="0" y="0" width="340" height="280" fill="#ffffff" stroke="#e5e3dc" stroke-width="1"/>

      <!-- A faint guide cube outline to suggest 3D -->
      <g stroke="#c4c1b6" stroke-width="0.6" stroke-dasharray="3 3" fill="none">
        <rect x="40" y="40" width="260" height="200"/>
        <line x1="40" y1="40" x2="80" y2="20"/>
        <line x1="300" y1="40" x2="340" y2="20"/>
        <line x1="40" y1="240" x2="80" y2="220"/>
        <line x1="300" y1="240" x2="340" y2="220"/>
        <line x1="80" y1="20" x2="340" y2="20"/>
        <line x1="340" y1="20" x2="340" y2="220"/>
        <line x1="340" y1="220" x2="80" y2="220"/>
        <line x1="80" y1="220" x2="80" y2="20"/>
      </g>
      <text x="55" y="35" font-family="Inter, sans-serif" font-size="8" fill="#8a8a85">nucleus</text>

      <!-- Polymer trajectory with 8 nodes -->
      <!-- A compartment cluster (bins 0..3): coloured cobalt; B (4..7): amber -->
      <!-- Define 8 (x, y) positions; bins 0..3 in upper-left cluster, bins 4..7 in lower-right cluster -->
      <!-- Bin 0: (95, 95), Bin 1: (130, 75), Bin 2: (170, 95), Bin 3: (155, 130) -->
      <!-- Bin 4: (220, 175), Bin 5: (255, 155), Bin 6: (275, 195), Bin 7: (245, 215) -->

      <!-- polymer backbone: connect 0-1-2-3-4-5-6-7 in sequence -->
      <g stroke="#374151" stroke-width="2" fill="none" stroke-linecap="round" stroke-linejoin="round">
        <path d="M 95 95 L 130 75 L 170 95 L 155 130 L 220 175 L 255 155 L 275 195 L 245 215"/>
      </g>

      <!-- node markers -->
      <g>
        <!-- A compartment -->
        <circle cx="95"  cy="95"  r="10" fill="#1e3a8a" opacity="0.85" stroke="#0a0a0a" stroke-width="0.8"/>
        <text x="95"  y="98" font-family="Inter, sans-serif" font-size="9" font-weight="700" fill="#fafaf9" text-anchor="middle">0</text>
        <circle cx="130" cy="75"  r="10" fill="#1e3a8a" opacity="0.85" stroke="#0a0a0a" stroke-width="0.8"/>
        <text x="130" y="78" font-family="Inter, sans-serif" font-size="9" font-weight="700" fill="#fafaf9" text-anchor="middle">1</text>
        <circle cx="170" cy="95"  r="10" fill="#1e3a8a" opacity="0.85" stroke="#0a0a0a" stroke-width="0.8"/>
        <text x="170" y="98" font-family="Inter, sans-serif" font-size="9" font-weight="700" fill="#fafaf9" text-anchor="middle">2</text>
        <circle cx="155" cy="130" r="10" fill="#1e3a8a" opacity="0.85" stroke="#0a0a0a" stroke-width="0.8"/>
        <text x="155" y="133" font-family="Inter, sans-serif" font-size="9" font-weight="700" fill="#fafaf9" text-anchor="middle">3</text>

        <!-- B compartment -->
        <circle cx="220" cy="175" r="10" fill="#b45309" opacity="0.85" stroke="#0a0a0a" stroke-width="0.8"/>
        <text x="220" y="178" font-family="Inter, sans-serif" font-size="9" font-weight="700" fill="#fafaf9" text-anchor="middle">4</text>
        <circle cx="255" cy="155" r="10" fill="#b45309" opacity="0.85" stroke="#0a0a0a" stroke-width="0.8"/>
        <text x="255" y="158" font-family="Inter, sans-serif" font-size="9" font-weight="700" fill="#fafaf9" text-anchor="middle">5</text>
        <circle cx="275" cy="195" r="10" fill="#b45309" opacity="0.85" stroke="#0a0a0a" stroke-width="0.8"/>
        <text x="275" y="198" font-family="Inter, sans-serif" font-size="9" font-weight="700" fill="#fafaf9" text-anchor="middle">6</text>
        <circle cx="245" cy="215" r="10" fill="#b45309" opacity="0.85" stroke="#0a0a0a" stroke-width="0.8"/>
        <text x="245" y="218" font-family="Inter, sans-serif" font-size="9" font-weight="700" fill="#fafaf9" text-anchor="middle">7</text>
      </g>

      <!-- cluster annotations -->
      <text x="130" y="60" font-family="Inter, sans-serif" font-size="9" font-weight="700" fill="#1e3a8a" text-anchor="middle">A compartment</text>
      <text x="245" y="248" font-family="Inter, sans-serif" font-size="9" font-weight="700" fill="#b45309" text-anchor="middle">B compartment</text>

      <!-- axis hints -->
      <g font-family="Inter, sans-serif" font-size="8" fill="#8a8a85">
        <text x="305" y="265">x</text>
        <text x="20"  y="125">y</text>
        <text x="320" y="35">z</text>
      </g>
    </g>

    <text x="170" y="320" font-family="JetBrains Mono, monospace" font-size="11" font-weight="600" fill="#0a0a0a" text-anchor="middle">X = U₃ Λ₃^(1/2)</text>
    <text x="170" y="338" font-family="Inter, sans-serif" font-size="9" font-style="italic" fill="#525252" text-anchor="middle">3 coordinates per bin</text>
  </g>

  <!-- bottom: full math box -->
  <g transform="translate(60, 460)">
    <rect x="0" y="0" width="1080" height="96" rx="4" fill="#f4f3ee" stroke="#e5e3dc" stroke-width="1"/>
    <text x="20" y="22" font-family="Inter, sans-serif" font-size="10" font-weight="700" fill="#1e3a8a" letter-spacing="0.08em">CLASSICAL MDS — CLOSED-FORM RECIPE</text>

    <g font-family="JetBrains Mono, monospace" font-size="10" fill="#0a0a0a">
      <text x="20" y="46">D²[i,j] = d(i,j)²       (squared-distance matrix)</text>
      <text x="20" y="62">B = −½ · H · D² · H     where H = I − (1/N) · 𝟏 𝟏ᵀ      (double-centring)</text>
      <text x="20" y="78">B = U Λ Uᵀ              (eigendecomposition)</text>
      <text x="20" y="94" font-family="Inter, sans-serif" font-style="italic" fill="#525252">Coordinates: stack the top-3 eigenvectors, scale by √(top-3 eigenvalues). The same routine recovers sensor positions from pairwise ranges and node embeddings from graph distances.</text>
    </g>
  </g>
</svg>
