<svg xmlns="http://www.w3.org/2000/svg" viewBox="0 0 900 480" role="img" aria-labelledby="t d">
  <title id="t">The three SV detection signals</title>
  <desc id="d">A reference region with a 3 kb deletion marked between two breakpoints. Three signal tracks below show the caller evidence: discordant read pairs clustering at the breakpoints, split reads mapping half-left and half-right, and a read-depth curve dropping to zero inside the deletion.</desc>

  <!-- Kicker -->
  <text x="450" y="30" text-anchor="middle" font-family="Inter, sans-serif" font-size="11" font-weight="600" fill="#1e3a8a" letter-spacing="0.12em">SV CALLING · THREE INDEPENDENT SIGNAL CHANNELS</text>

  <!-- Reference bar with deletion -->
  <g>
    <rect x="50" y="56" width="800" height="24" fill="#f4f3ee" stroke="#525252" stroke-width="1.5" rx="2"/>
    <!-- Deleted region: striped overlay between x=350 and x=510 -->
    <pattern id="stripes" patternUnits="userSpaceOnUse" width="8" height="8" patternTransform="rotate(45)">
      <line x1="0" y1="0" x2="0" y2="8" stroke="#c4c1b6" stroke-width="3"/>
    </pattern>
    <rect x="350" y="56" width="160" height="24" fill="url(#stripes)" stroke="#b45309" stroke-width="1"/>
    <text x="430" y="45" text-anchor="middle" font-family="Inter, sans-serif" font-size="10" font-weight="600" fill="#b45309">3 kb deletion</text>
    <!-- Breakpoint markers -->
    <g stroke="#b45309" stroke-width="1" stroke-dasharray="3 2">
      <line x1="350" y1="40" x2="350" y2="90"/>
      <line x1="510" y1="40" x2="510" y2="90"/>
    </g>
    <text x="350" y="100" text-anchor="middle" font-family="JetBrains Mono, monospace" font-size="9" fill="#b45309">break L</text>
    <text x="510" y="100" text-anchor="middle" font-family="JetBrains Mono, monospace" font-size="9" fill="#b45309">break R</text>
  </g>

  <!-- Divider -->
  <line x1="50" y1="115" x2="850" y2="115" stroke="#e5e3dc" stroke-width="1"/>

  <!-- Track 1: Discordant read pairs -->
  <g transform="translate(0 130)">
    <text x="50" y="0" font-family="Inter, sans-serif" font-size="11" font-weight="600" fill="#1e3a8a" letter-spacing="0.1em">1 · DISCORDANT READ PAIRS</text>
    <text x="50" y="14" font-family="Inter, sans-serif" font-size="10" fill="#525252">read pairs mapping with insert size far larger than expected</text>

    <!-- Reference thin line for this track -->
    <line x1="50" y1="70" x2="850" y2="70" stroke="#c4c1b6" stroke-width="1"/>

    <!-- 5 discordant pair arcs -->
    <g stroke="#1e3a8a" stroke-width="1.2" fill="none">
      <path d="M 310 70 Q 430 30 540 70"/>
      <path d="M 320 70 Q 430 24 530 70"/>
      <path d="M 300 70 Q 430 40 550 70"/>
      <path d="M 330 70 Q 430 34 520 70"/>
      <path d="M 315 70 Q 430 28 535 70"/>
    </g>
    <!-- Read tick marks at arc endpoints -->
    <g fill="#1e3a8a">
      <rect x="297" y="68" width="8" height="4"/>
      <rect x="307" y="68" width="8" height="4"/>
      <rect x="317" y="68" width="8" height="4"/>
      <rect x="327" y="68" width="8" height="4"/>
      <rect x="517" y="68" width="8" height="4"/>
      <rect x="527" y="68" width="8" height="4"/>
      <rect x="537" y="68" width="8" height="4"/>
      <rect x="547" y="68" width="8" height="4"/>
    </g>
    <text x="430" y="22" text-anchor="middle" font-family="Inter, sans-serif" font-size="10" fill="#1e3a8a" font-weight="600">observed insert ≈ 3.4 kb · expected 400 bp → discordant</text>

    <text x="660" y="80" font-family="Inter, sans-serif" font-size="10" fill="#15803d" font-weight="500">✓ deletion cluster detected</text>
  </g>

  <!-- Divider -->
  <line x1="50" y1="225" x2="850" y2="225" stroke="#e5e3dc" stroke-width="1"/>

  <!-- Track 2: Split reads -->
  <g transform="translate(0 240)">
    <text x="50" y="0" font-family="Inter, sans-serif" font-size="11" font-weight="600" fill="#1e3a8a" letter-spacing="0.1em">2 · SPLIT READS</text>
    <text x="50" y="14" font-family="Inter, sans-serif" font-size="10" fill="#525252">single reads half-mapping to left, half-mapping to right — single-base-resolution breakpoint</text>

    <!-- Reference thin line -->
    <line x1="50" y1="55" x2="850" y2="55" stroke="#c4c1b6" stroke-width="1"/>

    <!-- 3 split reads: each shown as left half and right half -->
    <g>
      <!-- Read 1 -->
      <rect x="300" y="48" width="50" height="6" fill="#1e3a8a"/>
      <rect x="510" y="48" width="50" height="6" fill="#1e3a8a"/>
      <line x1="350" y1="51" x2="510" y2="51" stroke="#b91c1c" stroke-width="1" stroke-dasharray="2 2"/>

      <!-- Read 2 -->
      <rect x="290" y="64" width="60" height="6" fill="#1e3a8a"/>
      <rect x="510" y="64" width="40" height="6" fill="#1e3a8a"/>
      <line x1="350" y1="67" x2="510" y2="67" stroke="#b91c1c" stroke-width="1" stroke-dasharray="2 2"/>

      <!-- Read 3 -->
      <rect x="310" y="80" width="40" height="6" fill="#1e3a8a"/>
      <rect x="510" y="80" width="60" height="6" fill="#1e3a8a"/>
      <line x1="350" y1="83" x2="510" y2="83" stroke="#b91c1c" stroke-width="1" stroke-dasharray="2 2"/>
    </g>

    <text x="430" y="110" text-anchor="middle" font-family="Inter, sans-serif" font-size="10" fill="#b91c1c">visible break at the breakpoint → pinpoint accuracy</text>

    <text x="660" y="90" font-family="Inter, sans-serif" font-size="10" fill="#15803d" font-weight="500">✓ breakpoint localised</text>
  </g>

  <!-- Divider -->
  <line x1="50" y1="360" x2="850" y2="360" stroke="#e5e3dc" stroke-width="1"/>

  <!-- Track 3: Read depth -->
  <g transform="translate(0 375)">
    <text x="50" y="0" font-family="Inter, sans-serif" font-size="11" font-weight="600" fill="#1e3a8a" letter-spacing="0.1em">3 · READ DEPTH</text>
    <text x="50" y="14" font-family="Inter, sans-serif" font-size="10" fill="#525252">per-position coverage drops to zero inside the deleted region (homozygous) or halves (heterozygous)</text>

    <!-- Y axis -->
    <line x1="50" y1="24" x2="50" y2="86" stroke="#c4c1b6" stroke-width="1"/>
    <g font-family="JetBrains Mono, monospace" font-size="9" fill="#8a8a85" text-anchor="end">
      <text x="46" y="28">30×</text>
      <text x="46" y="88">0</text>
    </g>
    <!-- Depth curve with a dip -->
    <g fill="#f4f3ee" stroke="#0a0a0a" stroke-width="1.3">
      <path d="M 50 38 L 350 38 L 350 86 L 510 86 L 510 38 L 850 38 L 850 86 L 50 86 Z"/>
    </g>
    <text x="430" y="76" text-anchor="middle" font-family="Inter, sans-serif" font-size="10" fill="#525252">coverage = 0</text>
    <text x="200" y="34" text-anchor="middle" font-family="Inter, sans-serif" font-size="9" fill="#525252">flat 30× outside the deletion</text>
    <text x="700" y="34" text-anchor="middle" font-family="Inter, sans-serif" font-size="9" fill="#525252">flat 30× outside the deletion</text>

    <text x="660" y="90" font-family="Inter, sans-serif" font-size="10" fill="#15803d" font-weight="500">✓ homozygous deletion confirmed</text>
  </g>
</svg>
