<svg xmlns="http://www.w3.org/2000/svg" viewBox="0 0 1200 720" width="1200" height="720" font-family="Inter, sans-serif">
  <defs>
    <style>text { font-family: Inter, sans-serif; } .mono { font-family: 'JetBrains Mono', monospace; font-size: 10px; }</style>
    <marker id="arr4" viewBox="0 0 10 10" refX="9" refY="5" markerWidth="7" markerHeight="7" orient="auto">
      <path d="M 0 0 L 10 5 L 0 10 z" fill="#525252"/>
    </marker>
  </defs>
  <rect width="1200" height="720" fill="#fafaf9" rx="6"/>
  <text x="600" y="28" text-anchor="middle" font-size="14" font-weight="600" fill="#111827">GENSCAN HMM architecture (left-to-right reading frame)</text>

  <!-- Plus-strand row -->
  <g transform="translate(60,80)">
    <text x="0" y="0" font-size="12" font-weight="700" fill="#374151">Forward strand state graph</text>

    <!-- Intergenic -->
    <g>
      <rect x="0" y="40" width="120" height="60" fill="#f5f5f4" stroke="#525252" stroke-width="1.5" rx="6"/>
      <text x="60" y="62" text-anchor="middle" font-size="11" font-weight="700" fill="#525252">Intergenic</text>
      <text x="60" y="80" text-anchor="middle" font-size="9" class="mono" fill="#525252">geom(L)</text>
    </g>

    <!-- 5' UTR + promoter -->
    <g transform="translate(170,40)">
      <rect x="0" y="0" width="120" height="60" fill="#dbeafe" stroke="#1e3a8a" stroke-width="1.5" rx="6"/>
      <text x="60" y="22" text-anchor="middle" font-size="11" font-weight="700" fill="#1e3a8a">Promoter</text>
      <text x="60" y="36" text-anchor="middle" font-size="11" font-weight="700" fill="#1e3a8a">+ 5'-UTR</text>
      <text x="60" y="52" text-anchor="middle" font-size="9" class="mono" fill="#525252">geom(L)</text>
    </g>

    <!-- Initial exon -->
    <g transform="translate(340,40)">
      <rect x="0" y="0" width="120" height="60" fill="#dcfce7" stroke="#065f46" stroke-width="1.5" rx="6"/>
      <text x="60" y="22" text-anchor="middle" font-size="11" font-weight="700" fill="#065f46">Initial exon</text>
      <text x="60" y="36" text-anchor="middle" font-size="9" fill="#374151">(starts ATG)</text>
      <text x="60" y="52" text-anchor="middle" font-size="9" class="mono" fill="#525252">gamma(L)</text>
    </g>

    <!-- Internal exon (3 phases) + intron -->
    <g transform="translate(520,0)">
      <rect x="0" y="40" width="120" height="60" fill="#dcfce7" stroke="#065f46" stroke-width="1.5" rx="6"/>
      <text x="60" y="62" text-anchor="middle" font-size="11" font-weight="700" fill="#065f46">Internal exon</text>
      <text x="60" y="80" text-anchor="middle" font-size="9" class="mono" fill="#525252">gamma(L)</text>
      <text x="60" y="20" text-anchor="middle" font-size="9" fill="#525252" class="mono">(loops via intron)</text>
    </g>

    <!-- Intron-phase 0/1/2 -->
    <g transform="translate(520,150)">
      <rect x="0" y="0" width="120" height="60" fill="#fef3c7" stroke="#b45309" stroke-width="1.5" rx="6"/>
      <text x="60" y="22" text-anchor="middle" font-size="11" font-weight="700" fill="#b45309">Intron φ₀</text>
      <text x="60" y="40" text-anchor="middle" font-size="9" fill="#525252" class="mono">geom(L), donor GT, acceptor AG</text>
      <text x="60" y="54" text-anchor="middle" font-size="9" fill="#525252" class="mono"></text>
    </g>
    <g transform="translate(520,230)">
      <rect x="0" y="0" width="120" height="60" fill="#fef3c7" stroke="#b45309" stroke-width="1.5" rx="6"/>
      <text x="60" y="22" text-anchor="middle" font-size="11" font-weight="700" fill="#b45309">Intron φ₁</text>
      <text x="60" y="40" text-anchor="middle" font-size="9" fill="#525252">codon split 1 ‖ 2</text>
    </g>
    <g transform="translate(520,310)">
      <rect x="0" y="0" width="120" height="60" fill="#fef3c7" stroke="#b45309" stroke-width="1.5" rx="6"/>
      <text x="60" y="22" text-anchor="middle" font-size="11" font-weight="700" fill="#b45309">Intron φ₂</text>
      <text x="60" y="40" text-anchor="middle" font-size="9" fill="#525252">codon split 2 ‖ 1</text>
    </g>

    <!-- Final exon -->
    <g transform="translate(700,40)">
      <rect x="0" y="0" width="120" height="60" fill="#dcfce7" stroke="#065f46" stroke-width="1.5" rx="6"/>
      <text x="60" y="22" text-anchor="middle" font-size="11" font-weight="700" fill="#065f46">Final exon</text>
      <text x="60" y="36" text-anchor="middle" font-size="9" fill="#374151">(ends TAA/TAG/TGA)</text>
      <text x="60" y="52" text-anchor="middle" font-size="9" class="mono" fill="#525252">gamma(L)</text>
    </g>

    <!-- 3' UTR -->
    <g transform="translate(870,40)">
      <rect x="0" y="0" width="120" height="60" fill="#dbeafe" stroke="#1e3a8a" stroke-width="1.5" rx="6"/>
      <text x="60" y="22" text-anchor="middle" font-size="11" font-weight="700" fill="#1e3a8a">3'-UTR</text>
      <text x="60" y="36" text-anchor="middle" font-size="9" fill="#374151">+ polyA signal</text>
      <text x="60" y="52" text-anchor="middle" font-size="9" class="mono" fill="#525252">geom(L)</text>
    </g>

    <!-- Single-exon gene (parallel branch) -->
    <g transform="translate(340,150)">
      <rect x="0" y="0" width="280" height="60" fill="#dcfce7" stroke="#065f46" stroke-width="1.5" stroke-dasharray="4 3" rx="6"/>
      <text x="140" y="22" text-anchor="middle" font-size="11" font-weight="700" fill="#065f46">Single-exon gene</text>
      <text x="140" y="40" text-anchor="middle" font-size="9" fill="#374151">(no introns, e.g. histone genes)</text>
      <text x="140" y="54" text-anchor="middle" font-size="9" class="mono" fill="#525252">gamma(L)</text>
    </g>

    <!-- Forward arrows -->
    <g stroke="#525252" stroke-width="1.5" fill="none" marker-end="url(#arr4)">
      <line x1="120" y1="70" x2="168" y2="70"/>
      <line x1="290" y1="70" x2="338" y2="70"/>
      <line x1="460" y1="70" x2="518" y2="70"/>
      <line x1="640" y1="70" x2="698" y2="70"/>
      <line x1="820" y1="70" x2="868" y2="70"/>
      <line x1="990" y1="70" x2="1060" y2="70" stroke-dasharray="2 2"/>
    </g>

    <!-- Loop intron back to internal exon -->
    <g stroke="#b45309" stroke-width="1.4" fill="none" marker-end="url(#arr4)">
      <path d="M 580 100 Q 540 130 580 150"/>
      <path d="M 540 180 Q 500 130 580 100"/>
    </g>
    <text x="490" y="135" font-size="10" fill="#b45309" font-style="italic">splice loop</text>

    <!-- Single-exon path: from initial side -->
    <g stroke="#065f46" stroke-width="1.4" fill="none" stroke-dasharray="3 2" marker-end="url(#arr4)">
      <path d="M 230 100 Q 280 130 340 165"/>
      <path d="M 620 165 Q 680 130 700 100"/>
    </g>
  </g>

  <!-- Reverse-strand row (simplified) -->
  <g transform="translate(60,460)">
    <text x="0" y="0" font-size="12" font-weight="700" fill="#374151">Reverse strand (mirror; same architecture, reverse complement emissions)</text>
    <g stroke="#9ca3af" stroke-dasharray="2 2" fill="#fff">
      <rect x="0" y="20" width="990" height="40" rx="4"/>
    </g>
    <text x="495" y="46" text-anchor="middle" font-size="11" fill="#525252">[ same state classes ]   ←   [ reverse direction ]</text>
  </g>

  <!-- Bottom: viterbi annotation example -->
  <g transform="translate(60,560)">
    <text x="0" y="0" font-size="12" font-weight="700" fill="#1e3a8a">Viterbi output: example 5 kb segmentation</text>
    <!-- Track -->
    <g transform="translate(0,16)">
      <rect x="0" y="0" width="120" height="20" fill="#f5f5f4" stroke="#525252"/>
      <rect x="120" y="0" width="40" height="20" fill="#dbeafe" stroke="#1e3a8a"/>
      <rect x="160" y="0" width="80" height="20" fill="#dcfce7" stroke="#065f46"/>
      <rect x="240" y="0" width="160" height="20" fill="#fef3c7" stroke="#b45309"/>
      <rect x="400" y="0" width="120" height="20" fill="#dcfce7" stroke="#065f46"/>
      <rect x="520" y="0" width="100" height="20" fill="#fef3c7" stroke="#b45309"/>
      <rect x="620" y="0" width="80" height="20" fill="#dcfce7" stroke="#065f46"/>
      <rect x="700" y="0" width="60" height="20" fill="#dbeafe" stroke="#1e3a8a"/>
      <rect x="760" y="0" width="240" height="20" fill="#f5f5f4" stroke="#525252"/>
      <text x="60" y="14" text-anchor="middle" font-size="9" fill="#525252" class="mono">intergenic</text>
      <text x="140" y="14" text-anchor="middle" font-size="9" fill="#1e3a8a" class="mono">5'UTR</text>
      <text x="200" y="14" text-anchor="middle" font-size="9" fill="#065f46" class="mono">exon 1</text>
      <text x="320" y="14" text-anchor="middle" font-size="9" fill="#b45309" class="mono">intron 1</text>
      <text x="460" y="14" text-anchor="middle" font-size="9" fill="#065f46" class="mono">exon 2</text>
      <text x="570" y="14" text-anchor="middle" font-size="9" fill="#b45309" class="mono">intron 2</text>
      <text x="660" y="14" text-anchor="middle" font-size="9" fill="#065f46" class="mono">exon 3</text>
      <text x="730" y="14" text-anchor="middle" font-size="9" fill="#1e3a8a" class="mono">3'UTR</text>
      <text x="880" y="14" text-anchor="middle" font-size="9" fill="#525252" class="mono">intergenic</text>
    </g>
    <g transform="translate(0,46)" font-size="9" class="mono" fill="#525252">
      <text x="0" y="10">0 kb</text>
      <text x="500" y="10" text-anchor="middle">2.5 kb</text>
      <text x="1000" y="10" text-anchor="end">5 kb</text>
    </g>
  </g>

  <!-- Banner -->
  <g transform="translate(60,650)">
    <rect width="990" height="50" fill="#fef3c7" stroke="#b45309" rx="4"/>
    <text x="495" y="22" text-anchor="middle" font-size="11" font-weight="600" fill="#92400e">Viterbi on this HMM segments a 100 Mb chromosome into a list of genes in minutes</text>
    <text x="495" y="40" text-anchor="middle" font-size="10" fill="#374151">Length distributions encode prior knowledge about exon/intron sizes; emissions encode codon usage and splice-site consensus.</text>
  </g>
</svg>
