<svg xmlns="http://www.w3.org/2000/svg" viewBox="0 0 1200 720" width="1200" height="720" font-family="Inter, sans-serif">
  <defs><style>text { font-family: Inter, sans-serif; } .mono { font-family: 'JetBrains Mono', monospace; font-size: 10px; }</style></defs>
  <rect width="1200" height="720" fill="#fafaf9" rx="6"/>
  <text x="600" y="28" text-anchor="middle" font-size="14" font-weight="600" fill="#111827">ChromHMM 15-state model — emission probabilities and genome-wide proportions</text>

  <!-- Heat map -->
  <g transform="translate(220,80)">
    <text x="270" y="-12" text-anchor="middle" font-size="12" font-weight="700" fill="#374151">Emission matrix b_i(mark) — P(mark | state)</text>
    <!-- Column headers (histone marks) -->
    <g class="mono" font-size="9" fill="#525252" font-weight="600">
      <text x="30" y="-2" text-anchor="middle">H3K4me3</text>
      <text x="90" y="-2" text-anchor="middle">H3K4me1</text>
      <text x="150" y="-2" text-anchor="middle">H3K27ac</text>
      <text x="210" y="-2" text-anchor="middle">H3K36me3</text>
      <text x="270" y="-2" text-anchor="middle">H3K27me3</text>
      <text x="330" y="-2" text-anchor="middle">H3K9me3</text>
      <text x="390" y="-2" text-anchor="middle">H3K9ac</text>
      <text x="450" y="-2" text-anchor="middle">H4K20me1</text>
      <text x="510" y="-2" text-anchor="middle">CTCF</text>
    </g>

    <!-- 15 rows × 9 columns -->
    <!-- Each cell: 60w × 28h. Colour: red gradient on emission probability -->
    <!-- Row helper: I'll embed all values here -->
    <!-- Active promoter: high K4me3, K27ac, K9ac -->
    <g transform="translate(0,0)">
      <text x="-8" y="20" text-anchor="end" font-size="10" font-weight="600" fill="#dc2626">Active promoter</text>
      <rect x="0" y="0" width="60" height="28" fill="#dc2626" opacity="0.95"/>
      <rect x="60" y="0" width="60" height="28" fill="#dc2626" opacity="0.4"/>
      <rect x="120" y="0" width="60" height="28" fill="#dc2626" opacity="0.85"/>
      <rect x="180" y="0" width="60" height="28" fill="#dc2626" opacity="0.1"/>
      <rect x="240" y="0" width="60" height="28" fill="#dc2626" opacity="0.05"/>
      <rect x="300" y="0" width="60" height="28" fill="#dc2626" opacity="0.05"/>
      <rect x="360" y="0" width="60" height="28" fill="#dc2626" opacity="0.85"/>
      <rect x="420" y="0" width="60" height="28" fill="#dc2626" opacity="0.15"/>
      <rect x="480" y="0" width="60" height="28" fill="#dc2626" opacity="0.05"/>
    </g>
    <g transform="translate(0,32)">
      <text x="-8" y="20" text-anchor="end" font-size="10" font-weight="600" fill="#dc2626">Weak promoter</text>
      <rect x="0" y="0" width="60" height="28" fill="#dc2626" opacity="0.6"/>
      <rect x="60" y="0" width="60" height="28" fill="#dc2626" opacity="0.4"/>
      <rect x="120" y="0" width="60" height="28" fill="#dc2626" opacity="0.45"/>
      <rect x="180" y="0" width="60" height="28" fill="#dc2626" opacity="0.05"/>
      <rect x="240" y="0" width="60" height="28" fill="#dc2626" opacity="0.05"/>
      <rect x="300" y="0" width="60" height="28" fill="#dc2626" opacity="0.05"/>
      <rect x="360" y="0" width="60" height="28" fill="#dc2626" opacity="0.45"/>
      <rect x="420" y="0" width="60" height="28" fill="#dc2626" opacity="0.10"/>
      <rect x="480" y="0" width="60" height="28" fill="#dc2626" opacity="0.05"/>
    </g>
    <g transform="translate(0,64)">
      <text x="-8" y="20" text-anchor="end" font-size="10" font-weight="600" fill="#b45309">Strong enhancer</text>
      <rect x="0" y="0" width="60" height="28" fill="#b45309" opacity="0.15"/>
      <rect x="60" y="0" width="60" height="28" fill="#b45309" opacity="0.85"/>
      <rect x="120" y="0" width="60" height="28" fill="#b45309" opacity="0.95"/>
      <rect x="180" y="0" width="60" height="28" fill="#b45309" opacity="0.05"/>
      <rect x="240" y="0" width="60" height="28" fill="#b45309" opacity="0.05"/>
      <rect x="300" y="0" width="60" height="28" fill="#b45309" opacity="0.05"/>
      <rect x="360" y="0" width="60" height="28" fill="#b45309" opacity="0.4"/>
      <rect x="420" y="0" width="60" height="28" fill="#b45309" opacity="0.15"/>
      <rect x="480" y="0" width="60" height="28" fill="#b45309" opacity="0.05"/>
    </g>
    <g transform="translate(0,96)">
      <text x="-8" y="20" text-anchor="end" font-size="10" font-weight="600" fill="#b45309">Active enhancer</text>
      <rect x="0" y="0" width="60" height="28" fill="#b45309" opacity="0.10"/>
      <rect x="60" y="0" width="60" height="28" fill="#b45309" opacity="0.65"/>
      <rect x="120" y="0" width="60" height="28" fill="#b45309" opacity="0.65"/>
      <rect x="180" y="0" width="60" height="28" fill="#b45309" opacity="0.05"/>
      <rect x="240" y="0" width="60" height="28" fill="#b45309" opacity="0.05"/>
      <rect x="300" y="0" width="60" height="28" fill="#b45309" opacity="0.05"/>
      <rect x="360" y="0" width="60" height="28" fill="#b45309" opacity="0.30"/>
      <rect x="420" y="0" width="60" height="28" fill="#b45309" opacity="0.10"/>
      <rect x="480" y="0" width="60" height="28" fill="#b45309" opacity="0.05"/>
    </g>
    <g transform="translate(0,128)">
      <text x="-8" y="20" text-anchor="end" font-size="10" font-weight="600" fill="#b45309">Weak enhancer</text>
      <rect x="0" y="0" width="60" height="28" fill="#b45309" opacity="0.05"/>
      <rect x="60" y="0" width="60" height="28" fill="#b45309" opacity="0.40"/>
      <rect x="120" y="0" width="60" height="28" fill="#b45309" opacity="0.20"/>
      <rect x="180" y="0" width="60" height="28" fill="#b45309" opacity="0.05"/>
      <rect x="240" y="0" width="60" height="28" fill="#b45309" opacity="0.05"/>
      <rect x="300" y="0" width="60" height="28" fill="#b45309" opacity="0.05"/>
      <rect x="360" y="0" width="60" height="28" fill="#b45309" opacity="0.10"/>
      <rect x="420" y="0" width="60" height="28" fill="#b45309" opacity="0.05"/>
      <rect x="480" y="0" width="60" height="28" fill="#b45309" opacity="0.05"/>
    </g>
    <g transform="translate(0,160)">
      <text x="-8" y="20" text-anchor="end" font-size="10" font-weight="600" fill="#525252">Insulator (CTCF)</text>
      <rect x="0" y="0" width="60" height="28" fill="#525252" opacity="0.10"/>
      <rect x="60" y="0" width="60" height="28" fill="#525252" opacity="0.20"/>
      <rect x="120" y="0" width="60" height="28" fill="#525252" opacity="0.20"/>
      <rect x="180" y="0" width="60" height="28" fill="#525252" opacity="0.05"/>
      <rect x="240" y="0" width="60" height="28" fill="#525252" opacity="0.05"/>
      <rect x="300" y="0" width="60" height="28" fill="#525252" opacity="0.05"/>
      <rect x="360" y="0" width="60" height="28" fill="#525252" opacity="0.10"/>
      <rect x="420" y="0" width="60" height="28" fill="#525252" opacity="0.05"/>
      <rect x="480" y="0" width="60" height="28" fill="#525252" opacity="0.95"/>
    </g>
    <g transform="translate(0,192)">
      <text x="-8" y="20" text-anchor="end" font-size="10" font-weight="600" fill="#065f46">Strong transcription</text>
      <rect x="0" y="0" width="60" height="28" fill="#065f46" opacity="0.05"/>
      <rect x="60" y="0" width="60" height="28" fill="#065f46" opacity="0.10"/>
      <rect x="120" y="0" width="60" height="28" fill="#065f46" opacity="0.05"/>
      <rect x="180" y="0" width="60" height="28" fill="#065f46" opacity="0.95"/>
      <rect x="240" y="0" width="60" height="28" fill="#065f46" opacity="0.05"/>
      <rect x="300" y="0" width="60" height="28" fill="#065f46" opacity="0.05"/>
      <rect x="360" y="0" width="60" height="28" fill="#065f46" opacity="0.05"/>
      <rect x="420" y="0" width="60" height="28" fill="#065f46" opacity="0.40"/>
      <rect x="480" y="0" width="60" height="28" fill="#065f46" opacity="0.05"/>
    </g>
    <g transform="translate(0,224)">
      <text x="-8" y="20" text-anchor="end" font-size="10" font-weight="600" fill="#065f46">Weak transcription</text>
      <rect x="0" y="0" width="60" height="28" fill="#065f46" opacity="0.05"/>
      <rect x="60" y="0" width="60" height="28" fill="#065f46" opacity="0.10"/>
      <rect x="120" y="0" width="60" height="28" fill="#065f46" opacity="0.05"/>
      <rect x="180" y="0" width="60" height="28" fill="#065f46" opacity="0.50"/>
      <rect x="240" y="0" width="60" height="28" fill="#065f46" opacity="0.05"/>
      <rect x="300" y="0" width="60" height="28" fill="#065f46" opacity="0.05"/>
      <rect x="360" y="0" width="60" height="28" fill="#065f46" opacity="0.05"/>
      <rect x="420" y="0" width="60" height="28" fill="#065f46" opacity="0.20"/>
      <rect x="480" y="0" width="60" height="28" fill="#065f46" opacity="0.05"/>
    </g>
    <g transform="translate(0,256)">
      <text x="-8" y="20" text-anchor="end" font-size="10" font-weight="600" fill="#065f46">Transcribed 3' end</text>
      <rect x="0" y="0" width="60" height="28" fill="#065f46" opacity="0.05"/>
      <rect x="60" y="0" width="60" height="28" fill="#065f46" opacity="0.05"/>
      <rect x="120" y="0" width="60" height="28" fill="#065f46" opacity="0.05"/>
      <rect x="180" y="0" width="60" height="28" fill="#065f46" opacity="0.85"/>
      <rect x="240" y="0" width="60" height="28" fill="#065f46" opacity="0.05"/>
      <rect x="300" y="0" width="60" height="28" fill="#065f46" opacity="0.05"/>
      <rect x="360" y="0" width="60" height="28" fill="#065f46" opacity="0.05"/>
      <rect x="420" y="0" width="60" height="28" fill="#065f46" opacity="0.50"/>
      <rect x="480" y="0" width="60" height="28" fill="#065f46" opacity="0.05"/>
    </g>
    <g transform="translate(0,288)">
      <text x="-8" y="20" text-anchor="end" font-size="10" font-weight="600" fill="#7c3aed">Polycomb repressed</text>
      <rect x="0" y="0" width="60" height="28" fill="#7c3aed" opacity="0.05"/>
      <rect x="60" y="0" width="60" height="28" fill="#7c3aed" opacity="0.05"/>
      <rect x="120" y="0" width="60" height="28" fill="#7c3aed" opacity="0.05"/>
      <rect x="180" y="0" width="60" height="28" fill="#7c3aed" opacity="0.05"/>
      <rect x="240" y="0" width="60" height="28" fill="#7c3aed" opacity="0.95"/>
      <rect x="300" y="0" width="60" height="28" fill="#7c3aed" opacity="0.10"/>
      <rect x="360" y="0" width="60" height="28" fill="#7c3aed" opacity="0.05"/>
      <rect x="420" y="0" width="60" height="28" fill="#7c3aed" opacity="0.05"/>
      <rect x="480" y="0" width="60" height="28" fill="#7c3aed" opacity="0.05"/>
    </g>
    <g transform="translate(0,320)">
      <text x="-8" y="20" text-anchor="end" font-size="10" font-weight="600" fill="#7c3aed">Bivalent (poised)</text>
      <rect x="0" y="0" width="60" height="28" fill="#7c3aed" opacity="0.45"/>
      <rect x="60" y="0" width="60" height="28" fill="#7c3aed" opacity="0.10"/>
      <rect x="120" y="0" width="60" height="28" fill="#7c3aed" opacity="0.20"/>
      <rect x="180" y="0" width="60" height="28" fill="#7c3aed" opacity="0.05"/>
      <rect x="240" y="0" width="60" height="28" fill="#7c3aed" opacity="0.55"/>
      <rect x="300" y="0" width="60" height="28" fill="#7c3aed" opacity="0.05"/>
      <rect x="360" y="0" width="60" height="28" fill="#7c3aed" opacity="0.20"/>
      <rect x="420" y="0" width="60" height="28" fill="#7c3aed" opacity="0.05"/>
      <rect x="480" y="0" width="60" height="28" fill="#7c3aed" opacity="0.05"/>
    </g>
    <g transform="translate(0,352)">
      <text x="-8" y="20" text-anchor="end" font-size="10" font-weight="600" fill="#000">Heterochromatin</text>
      <rect x="0" y="0" width="60" height="28" fill="#000" opacity="0.05"/>
      <rect x="60" y="0" width="60" height="28" fill="#000" opacity="0.05"/>
      <rect x="120" y="0" width="60" height="28" fill="#000" opacity="0.05"/>
      <rect x="180" y="0" width="60" height="28" fill="#000" opacity="0.05"/>
      <rect x="240" y="0" width="60" height="28" fill="#000" opacity="0.10"/>
      <rect x="300" y="0" width="60" height="28" fill="#000" opacity="0.95"/>
      <rect x="360" y="0" width="60" height="28" fill="#000" opacity="0.05"/>
      <rect x="420" y="0" width="60" height="28" fill="#000" opacity="0.05"/>
      <rect x="480" y="0" width="60" height="28" fill="#000" opacity="0.05"/>
    </g>
    <g transform="translate(0,384)">
      <text x="-8" y="20" text-anchor="end" font-size="10" font-weight="600" fill="#525252">ZNF / repeats</text>
      <rect x="0" y="0" width="60" height="28" fill="#525252" opacity="0.05"/>
      <rect x="60" y="0" width="60" height="28" fill="#525252" opacity="0.10"/>
      <rect x="120" y="0" width="60" height="28" fill="#525252" opacity="0.05"/>
      <rect x="180" y="0" width="60" height="28" fill="#525252" opacity="0.30"/>
      <rect x="240" y="0" width="60" height="28" fill="#525252" opacity="0.05"/>
      <rect x="300" y="0" width="60" height="28" fill="#525252" opacity="0.65"/>
      <rect x="360" y="0" width="60" height="28" fill="#525252" opacity="0.05"/>
      <rect x="420" y="0" width="60" height="28" fill="#525252" opacity="0.20"/>
      <rect x="480" y="0" width="60" height="28" fill="#525252" opacity="0.05"/>
    </g>
    <g transform="translate(0,416)">
      <text x="-8" y="20" text-anchor="end" font-size="10" font-weight="600" fill="#525252">Quiescent / low</text>
      <rect x="0" y="0" width="60" height="28" fill="#525252" opacity="0.02"/>
      <rect x="60" y="0" width="60" height="28" fill="#525252" opacity="0.02"/>
      <rect x="120" y="0" width="60" height="28" fill="#525252" opacity="0.02"/>
      <rect x="180" y="0" width="60" height="28" fill="#525252" opacity="0.02"/>
      <rect x="240" y="0" width="60" height="28" fill="#525252" opacity="0.02"/>
      <rect x="300" y="0" width="60" height="28" fill="#525252" opacity="0.05"/>
      <rect x="360" y="0" width="60" height="28" fill="#525252" opacity="0.02"/>
      <rect x="420" y="0" width="60" height="28" fill="#525252" opacity="0.02"/>
      <rect x="480" y="0" width="60" height="28" fill="#525252" opacity="0.02"/>
    </g>
    <g transform="translate(0,448)">
      <text x="-8" y="20" text-anchor="end" font-size="10" font-weight="600" fill="#525252">No-signal</text>
      <rect x="0" y="0" width="60" height="28" fill="#fff" stroke="#d6d3d1"/>
      <rect x="60" y="0" width="60" height="28" fill="#fff" stroke="#d6d3d1"/>
      <rect x="120" y="0" width="60" height="28" fill="#fff" stroke="#d6d3d1"/>
      <rect x="180" y="0" width="60" height="28" fill="#fff" stroke="#d6d3d1"/>
      <rect x="240" y="0" width="60" height="28" fill="#fff" stroke="#d6d3d1"/>
      <rect x="300" y="0" width="60" height="28" fill="#fff" stroke="#d6d3d1"/>
      <rect x="360" y="0" width="60" height="28" fill="#fff" stroke="#d6d3d1"/>
      <rect x="420" y="0" width="60" height="28" fill="#fff" stroke="#d6d3d1"/>
      <rect x="480" y="0" width="60" height="28" fill="#fff" stroke="#d6d3d1"/>
    </g>
  </g>

  <!-- Side: state proportions -->
  <g transform="translate(820,80)">
    <text x="100" y="-12" text-anchor="middle" font-size="12" font-weight="700" fill="#374151">% genome</text>
    <!-- Bars of length proportional to coverage -->
    <g transform="translate(0,0)">
      <rect x="0" y="6" width="48" height="16" fill="#dc2626"/>
      <text x="56" y="20" font-size="10" class="mono" fill="#374151">2.4%</text>
    </g>
    <g transform="translate(0,32)">
      <rect x="0" y="6" width="36" height="16" fill="#dc2626" opacity="0.6"/>
      <text x="56" y="20" font-size="10" class="mono" fill="#374151">1.8%</text>
    </g>
    <g transform="translate(0,64)">
      <rect x="0" y="6" width="56" height="16" fill="#b45309"/>
      <text x="64" y="20" font-size="10" class="mono" fill="#374151">2.8%</text>
    </g>
    <g transform="translate(0,96)">
      <rect x="0" y="6" width="32" height="16" fill="#b45309" opacity="0.7"/>
      <text x="56" y="20" font-size="10" class="mono" fill="#374151">1.6%</text>
    </g>
    <g transform="translate(0,128)">
      <rect x="0" y="6" width="44" height="16" fill="#b45309" opacity="0.5"/>
      <text x="56" y="20" font-size="10" class="mono" fill="#374151">2.2%</text>
    </g>
    <g transform="translate(0,160)">
      <rect x="0" y="6" width="20" height="16" fill="#525252"/>
      <text x="56" y="20" font-size="10" class="mono" fill="#374151">1.0%</text>
    </g>
    <g transform="translate(0,192)">
      <rect x="0" y="6" width="120" height="16" fill="#065f46"/>
      <text x="128" y="20" font-size="10" class="mono" fill="#374151">5.9%</text>
    </g>
    <g transform="translate(0,224)">
      <rect x="0" y="6" width="220" height="16" fill="#065f46" opacity="0.7"/>
      <text x="228" y="20" font-size="10" class="mono" fill="#374151">11.0%</text>
    </g>
    <g transform="translate(0,256)">
      <rect x="0" y="6" width="40" height="16" fill="#065f46" opacity="0.5"/>
      <text x="56" y="20" font-size="10" class="mono" fill="#374151">2.0%</text>
    </g>
    <g transform="translate(0,288)">
      <rect x="0" y="6" width="180" height="16" fill="#7c3aed"/>
      <text x="188" y="20" font-size="10" class="mono" fill="#374151">9.0%</text>
    </g>
    <g transform="translate(0,320)">
      <rect x="0" y="6" width="14" height="16" fill="#7c3aed" opacity="0.5"/>
      <text x="56" y="20" font-size="10" class="mono" fill="#374151">0.7%</text>
    </g>
    <g transform="translate(0,352)">
      <rect x="0" y="6" width="320" height="16" fill="#000"/>
      <text x="328" y="20" font-size="10" class="mono" fill="#374151">16.0%</text>
    </g>
    <g transform="translate(0,384)">
      <rect x="0" y="6" width="32" height="16" fill="#525252"/>
      <text x="56" y="20" font-size="10" class="mono" fill="#374151">1.6%</text>
    </g>
    <g transform="translate(0,416)">
      <rect x="0" y="6" width="320" height="16" fill="#525252" opacity="0.4"/>
      <text x="328" y="20" font-size="10" class="mono" fill="#374151">40.0%</text>
    </g>
    <g transform="translate(0,448)">
      <rect x="0" y="6" width="40" height="16" fill="#9ca3af"/>
      <text x="56" y="20" font-size="10" class="mono" fill="#374151">2.0%</text>
    </g>
  </g>

  <!-- Banner -->
  <g transform="translate(120,640)">
    <rect width="960" height="60" fill="#fef3c7" stroke="#b45309" rx="4"/>
    <text x="480" y="22" text-anchor="middle" font-size="11" font-weight="600" fill="#92400e">Each chromatin state is defined by its mark-co-occurrence pattern; ChromHMM finds them by Baum-Welch</text>
    <text x="480" y="40" text-anchor="middle" font-size="10" fill="#374151">Quiescent + heterochromatin together cover ~56% of the genome; functional regulatory states cover &lt; 10%; the rest is transcribed gene bodies.</text>
  </g>
</svg>
