<svg xmlns="http://www.w3.org/2000/svg" viewBox="0 0 1200 640" width="1200" height="640" font-family="Inter, sans-serif">
  <defs><style>text { font-family: Inter, sans-serif; } .mono { font-family: 'JetBrains Mono', monospace; font-size: 10px; }</style></defs>
  <rect width="1200" height="640" fill="#fafaf9" rx="6"/>
  <text x="600" y="28" text-anchor="middle" font-size="14" font-weight="600" fill="#111827">Driver vs passenger mutations + clonal evolution tree</text>

  <!-- Top half: driver/passenger strip -->
  <g transform="translate(60,72)">
    <text x="0" y="0" font-size="11" font-weight="600" fill="#525252">SOMATIC MUTATIONS in a typical late-stage tumour (~10,000 SNVs)</text>

    <!-- Strip background -->
    <rect x="0" y="14" width="1080" height="46" fill="#fff" stroke="#a8a29e" rx="3"/>

    <!-- Passenger ticks - 200 grey ticks across the strip -->
    <g stroke="#9ca3af" stroke-width="0.7">
      <!-- Generate ticks at irregular x positions. Using uniform grid with jitter via positions list. -->
      <!-- Pseudo-random positions (deterministic placement) -->
      <!-- Using scripted xs: x = 4..1076 step 5.4; we'll just write many ticks. -->
    </g>

    <!-- Generated as repeated lines -->
    <g stroke="#9ca3af" stroke-width="0.7">
      <line x1="6"   y1="20" x2="6"   y2="54"/>
      <line x1="13"  y1="20" x2="13"  y2="54"/>
      <line x1="22"  y1="20" x2="22"  y2="54"/>
      <line x1="31"  y1="20" x2="31"  y2="54"/>
      <line x1="38"  y1="20" x2="38"  y2="54"/>
      <line x1="46"  y1="20" x2="46"  y2="54"/>
      <line x1="56"  y1="20" x2="56"  y2="54"/>
      <line x1="64"  y1="20" x2="64"  y2="54"/>
      <line x1="73"  y1="20" x2="73"  y2="54"/>
      <line x1="83"  y1="20" x2="83"  y2="54"/>
      <line x1="91"  y1="20" x2="91"  y2="54"/>
      <line x1="100" y1="20" x2="100" y2="54"/>
      <line x1="109" y1="20" x2="109" y2="54"/>
      <line x1="118" y1="20" x2="118" y2="54"/>
      <line x1="127" y1="20" x2="127" y2="54"/>
      <line x1="135" y1="20" x2="135" y2="54"/>
      <line x1="143" y1="20" x2="143" y2="54"/>
      <line x1="152" y1="20" x2="152" y2="54"/>
      <line x1="160" y1="20" x2="160" y2="54"/>
      <line x1="170" y1="20" x2="170" y2="54"/>
      <line x1="180" y1="20" x2="180" y2="54"/>
      <line x1="189" y1="20" x2="189" y2="54"/>
      <line x1="198" y1="20" x2="198" y2="54"/>
      <line x1="207" y1="20" x2="207" y2="54"/>
      <line x1="218" y1="20" x2="218" y2="54"/>
      <line x1="226" y1="20" x2="226" y2="54"/>
      <line x1="234" y1="20" x2="234" y2="54"/>
      <line x1="244" y1="20" x2="244" y2="54"/>
      <line x1="252" y1="20" x2="252" y2="54"/>
      <line x1="262" y1="20" x2="262" y2="54"/>
      <line x1="271" y1="20" x2="271" y2="54"/>
      <line x1="280" y1="20" x2="280" y2="54"/>
      <line x1="289" y1="20" x2="289" y2="54"/>
      <line x1="298" y1="20" x2="298" y2="54"/>
      <line x1="307" y1="20" x2="307" y2="54"/>
      <line x1="316" y1="20" x2="316" y2="54"/>
      <line x1="325" y1="20" x2="325" y2="54"/>
      <line x1="335" y1="20" x2="335" y2="54"/>
      <line x1="344" y1="20" x2="344" y2="54"/>
      <line x1="353" y1="20" x2="353" y2="54"/>
      <line x1="361" y1="20" x2="361" y2="54"/>
      <line x1="371" y1="20" x2="371" y2="54"/>
      <line x1="382" y1="20" x2="382" y2="54"/>
      <line x1="391" y1="20" x2="391" y2="54"/>
      <line x1="400" y1="20" x2="400" y2="54"/>
      <line x1="410" y1="20" x2="410" y2="54"/>
      <line x1="419" y1="20" x2="419" y2="54"/>
      <line x1="428" y1="20" x2="428" y2="54"/>
      <line x1="438" y1="20" x2="438" y2="54"/>
      <line x1="447" y1="20" x2="447" y2="54"/>
      <line x1="456" y1="20" x2="456" y2="54"/>
      <line x1="464" y1="20" x2="464" y2="54"/>
      <line x1="475" y1="20" x2="475" y2="54"/>
      <line x1="485" y1="20" x2="485" y2="54"/>
      <line x1="495" y1="20" x2="495" y2="54"/>
      <line x1="503" y1="20" x2="503" y2="54"/>
      <line x1="514" y1="20" x2="514" y2="54"/>
      <line x1="522" y1="20" x2="522" y2="54"/>
      <line x1="532" y1="20" x2="532" y2="54"/>
      <line x1="541" y1="20" x2="541" y2="54"/>
      <line x1="550" y1="20" x2="550" y2="54"/>
      <line x1="558" y1="20" x2="558" y2="54"/>
      <line x1="568" y1="20" x2="568" y2="54"/>
      <line x1="577" y1="20" x2="577" y2="54"/>
      <line x1="586" y1="20" x2="586" y2="54"/>
      <line x1="596" y1="20" x2="596" y2="54"/>
      <line x1="606" y1="20" x2="606" y2="54"/>
      <line x1="615" y1="20" x2="615" y2="54"/>
      <line x1="624" y1="20" x2="624" y2="54"/>
      <line x1="634" y1="20" x2="634" y2="54"/>
      <line x1="643" y1="20" x2="643" y2="54"/>
      <line x1="652" y1="20" x2="652" y2="54"/>
      <line x1="661" y1="20" x2="661" y2="54"/>
      <line x1="671" y1="20" x2="671" y2="54"/>
      <line x1="681" y1="20" x2="681" y2="54"/>
      <line x1="690" y1="20" x2="690" y2="54"/>
      <line x1="699" y1="20" x2="699" y2="54"/>
      <line x1="708" y1="20" x2="708" y2="54"/>
      <line x1="718" y1="20" x2="718" y2="54"/>
      <line x1="728" y1="20" x2="728" y2="54"/>
      <line x1="737" y1="20" x2="737" y2="54"/>
      <line x1="746" y1="20" x2="746" y2="54"/>
      <line x1="755" y1="20" x2="755" y2="54"/>
      <line x1="764" y1="20" x2="764" y2="54"/>
      <line x1="773" y1="20" x2="773" y2="54"/>
      <line x1="784" y1="20" x2="784" y2="54"/>
      <line x1="793" y1="20" x2="793" y2="54"/>
      <line x1="803" y1="20" x2="803" y2="54"/>
      <line x1="813" y1="20" x2="813" y2="54"/>
      <line x1="823" y1="20" x2="823" y2="54"/>
      <line x1="832" y1="20" x2="832" y2="54"/>
      <line x1="841" y1="20" x2="841" y2="54"/>
      <line x1="851" y1="20" x2="851" y2="54"/>
      <line x1="861" y1="20" x2="861" y2="54"/>
      <line x1="870" y1="20" x2="870" y2="54"/>
      <line x1="880" y1="20" x2="880" y2="54"/>
      <line x1="890" y1="20" x2="890" y2="54"/>
      <line x1="899" y1="20" x2="899" y2="54"/>
      <line x1="908" y1="20" x2="908" y2="54"/>
      <line x1="918" y1="20" x2="918" y2="54"/>
      <line x1="927" y1="20" x2="927" y2="54"/>
      <line x1="937" y1="20" x2="937" y2="54"/>
      <line x1="947" y1="20" x2="947" y2="54"/>
      <line x1="957" y1="20" x2="957" y2="54"/>
      <line x1="966" y1="20" x2="966" y2="54"/>
      <line x1="975" y1="20" x2="975" y2="54"/>
      <line x1="985" y1="20" x2="985" y2="54"/>
      <line x1="994" y1="20" x2="994" y2="54"/>
      <line x1="1003" y1="20" x2="1003" y2="54"/>
      <line x1="1012" y1="20" x2="1012" y2="54"/>
      <line x1="1022" y1="20" x2="1022" y2="54"/>
      <line x1="1031" y1="20" x2="1031" y2="54"/>
      <line x1="1040" y1="20" x2="1040" y2="54"/>
      <line x1="1050" y1="20" x2="1050" y2="54"/>
      <line x1="1060" y1="20" x2="1060" y2="54"/>
      <line x1="1070" y1="20" x2="1070" y2="54"/>
    </g>

    <!-- Driver ticks (red, thicker) labelled -->
    <g stroke="#c4342c" stroke-width="2.5">
      <line x1="80"  y1="16" x2="80"  y2="58"/>
      <line x1="200" y1="16" x2="200" y2="58"/>
      <line x1="340" y1="16" x2="340" y2="58"/>
      <line x1="430" y1="16" x2="430" y2="58"/>
      <line x1="540" y1="16" x2="540" y2="58"/>
      <line x1="660" y1="16" x2="660" y2="58"/>
      <line x1="760" y1="16" x2="760" y2="58"/>
      <line x1="850" y1="16" x2="850" y2="58"/>
      <line x1="940" y1="16" x2="940" y2="58"/>
      <line x1="1020" y1="16" x2="1020" y2="58"/>
    </g>

    <!-- Driver labels -->
    <g font-size="9" font-weight="600" fill="#7f1d1d" class="mono">
      <text x="80"   y="78" text-anchor="middle">TP53</text>
      <text x="200"  y="78" text-anchor="middle">KRAS</text>
      <text x="340"  y="78" text-anchor="middle">EGFR</text>
      <text x="430"  y="78" text-anchor="middle">PIK3CA</text>
      <text x="540"  y="78" text-anchor="middle">BRAF</text>
      <text x="660"  y="78" text-anchor="middle">RB1</text>
      <text x="760"  y="78" text-anchor="middle">CDKN2A</text>
      <text x="850"  y="78" text-anchor="middle">SMAD4</text>
      <text x="940"  y="78" text-anchor="middle">APC</text>
      <text x="1020" y="78" text-anchor="middle">PTEN</text>
    </g>

    <text x="540" y="100" text-anchor="middle" font-size="11" fill="#525252">~10 drivers (red) drive selection · ~10,000 passengers (grey) are evolutionary byproducts</text>

    <!-- Legend -->
    <g transform="translate(0,114)" font-size="10">
      <rect width="14" height="10" fill="#9ca3af"/>
      <text x="20" y="9" fill="#374151">Passenger mutation (neutral)</text>
      <line x1="200" y1="0" x2="200" y2="10" stroke="#c4342c" stroke-width="2.5"/>
      <text x="208" y="9" fill="#374151">Driver mutation (positively selected; therapeutic target)</text>
    </g>
  </g>

  <!-- Bottom half: clonal evolution tree -->
  <g transform="translate(60,260)">
    <text x="0" y="0" font-size="11" font-weight="600" fill="#525252">CLONAL EVOLUTION TREE — same tumour, multiple subclones</text>

    <!-- Tree -->
    <g transform="translate(40,30)">
      <!-- Trunk node (MRCA) -->
      <circle cx="200" cy="30" r="20" fill="#7f1d1d"/>
      <text x="200" y="34" text-anchor="middle" font-size="11" font-weight="700" fill="#fff">MRCA</text>

      <!-- Trunk mutations annotation -->
      <g transform="translate(40,8)">
        <rect width="120" height="48" fill="#fee2e2" stroke="#c4342c" rx="3"/>
        <text x="60" y="14" text-anchor="middle" font-size="9" font-weight="600" fill="#7f1d1d">TRUNK · CCF 100%</text>
        <text x="60" y="28" text-anchor="middle" class="mono" fill="#525252">TP53 R175H</text>
        <text x="60" y="40" text-anchor="middle" class="mono" fill="#525252">CDKN2A loss</text>
      </g>

      <!-- Trunk-to-clone1 line -->
      <line x1="200" y1="50" x2="120" y2="170" stroke="#7f1d1d" stroke-width="2"/>
      <line x1="200" y1="50" x2="280" y2="170" stroke="#7f1d1d" stroke-width="2"/>

      <!-- Clone 1 -->
      <circle cx="120" cy="190" r="18" fill="#b45309"/>
      <text x="120" y="194" text-anchor="middle" font-size="10" font-weight="700" fill="#fff">C1</text>
      <g transform="translate(170,170)">
        <rect width="160" height="48" fill="#fef3c7" stroke="#b45309" rx="3"/>
        <text x="80" y="14" text-anchor="middle" font-size="9" font-weight="600" fill="#92400e">DOMINANT · CCF 60%</text>
        <text x="80" y="28" text-anchor="middle" class="mono" fill="#525252">+ KRAS G12V</text>
        <text x="80" y="40" text-anchor="middle" class="mono" fill="#525252">subclonal driver</text>
      </g>

      <!-- Clone 2 -->
      <circle cx="380" cy="190" r="18" fill="#7c3aed"/>
      <text x="380" y="194" text-anchor="middle" font-size="10" font-weight="700" fill="#fff">C2</text>
      <g transform="translate(420,170)">
        <rect width="160" height="48" fill="#ede9fe" stroke="#7c3aed" rx="3"/>
        <text x="80" y="14" text-anchor="middle" font-size="9" font-weight="600" fill="#5b21b6">RESISTANCE · CCF 25%</text>
        <text x="80" y="28" text-anchor="middle" class="mono" fill="#525252">+ EGFR T790M</text>
        <text x="80" y="40" text-anchor="middle" class="mono" fill="#525252">grows under therapy</text>
      </g>

      <!-- VAF distribution panel -->
      <g transform="translate(640,30)">
        <text x="0" y="0" font-size="10" font-weight="600" fill="#525252">VAF distribution from bulk sequencing</text>
        <rect width="380" height="180" fill="#fff" stroke="#a8a29e" rx="3"/>

        <!-- VAF axis -->
        <line x1="40" y1="160" x2="360" y2="160" stroke="#374151"/>
        <g font-size="9" fill="#6b7280" class="mono">
          <text x="40" y="174" text-anchor="middle">0</text>
          <text x="120" y="174" text-anchor="middle">0.10</text>
          <text x="200" y="174" text-anchor="middle">0.20</text>
          <text x="280" y="174" text-anchor="middle">0.30</text>
          <text x="360" y="174" text-anchor="middle">VAF</text>
        </g>

        <!-- Three peaks: trunk at 0.30 (60% pure tumour), C1 at 0.18, C2 at 0.075 -->
        <g fill="#7f1d1d" fill-opacity="0.6">
          <path d="M 280 160 Q 260 80 240 160 Z"/>
        </g>
        <g fill="#b45309" fill-opacity="0.6">
          <path d="M 175 160 Q 155 100 135 160 Z"/>
        </g>
        <g fill="#7c3aed" fill-opacity="0.6">
          <path d="M 100 160 Q 80 130 60 160 Z"/>
        </g>

        <text x="260" y="78" text-anchor="middle" font-size="9" fill="#7f1d1d" font-weight="600">trunk</text>
        <text x="155" y="98" text-anchor="middle" font-size="9" fill="#92400e" font-weight="600">C1 sub.</text>
        <text x="80"  y="128" text-anchor="middle" font-size="9" fill="#5b21b6" font-weight="600">C2 sub.</text>

        <text x="190" y="60" text-anchor="middle" font-size="9" fill="#525252">three modes → three subclones</text>
      </g>
    </g>

    <!-- Sidebar annotations -->
    <g transform="translate(60,300)">
      <rect width="1080" height="48" fill="#fef3c7" stroke="#b45309" rx="4"/>
      <text x="14" y="20" font-size="11" font-weight="600" fill="#92400e">Trunk drivers (CCF = 100%)</text>
      <text x="14" y="36" font-size="10" fill="#374151">are present in every cell — best targeted-therapy candidates.</text>
      <text x="540" y="20" font-size="11" font-weight="600" fill="#5b21b6">Branch drivers (CCF &lt; 100%)</text>
      <text x="540" y="36" font-size="10" fill="#374151">define subclones; under selection pressure they expand and produce treatment-resistant recurrence.</text>
    </g>
  </g>
</svg>
