<svg xmlns="http://www.w3.org/2000/svg" viewBox="0 0 1200 720" width="1200" height="720" font-family="Inter, sans-serif">
  <defs><style>text { font-family: Inter, sans-serif; } .mono { font-family: 'JetBrains Mono', monospace; font-size: 10px; }</style></defs>
  <rect width="1200" height="720" fill="#fafaf9" rx="6"/>
  <text x="600" y="28" text-anchor="middle" font-size="14" font-weight="600" fill="#111827">COSMIC mutational signatures — six canonical SBS patterns</text>

  <!-- Each signature is rendered as a 96-bar histogram (16 bars per substitution × 6 substitutions).
       For visual brevity I'll render bars at lower density (96 thin bars) with substitution-coloured backgrounds.
       Layout: 3x2 grid of panels.
       Panel size: 560×210; positions (40,60) (620,60) (40,290) (620,290) (40,520) (620,520).
       Substitution colours: C>A cobalt #1e40af, C>G amber #b45309, C>T red #c4342c, T>A grey #525252, T>C teal #0d7377, T>G violet #7c3aed.
       96 bars in 6 groups of 16. Bar width 5.5; gap 0.4; group gap 6 -->

  <!-- Helper text labels (drawn per-panel, not duplicated globally) -->

  <!-- Panel renderer: For each panel write the bars given an array of 96 heights normalised to maxH=120 -->
  <!-- I'll hard-code the heights per signature, deterministically -->

  <!-- Panel 1 — SBS1 (clock-like, peaks at C>T at NCG, especially TCG, CCG, ACG, GCG) -->
  <g transform="translate(40,60)">
    <rect width="560" height="210" fill="#fff" stroke="#374151" rx="3"/>
    <text x="14" y="20" font-size="12" font-weight="700" fill="#374151">SBS1</text>
    <text x="60" y="20" font-size="10" fill="#525252">spontaneous 5mC deamination · clock-like, present in every tumour</text>

    <!-- Substitution headers -->
    <g transform="translate(20,30)">
      <g><rect width="84" height="14" fill="#1e40af"/><text x="42" y="11" text-anchor="middle" font-size="9" fill="#fff" font-weight="600">C&gt;A</text></g>
      <g transform="translate(90,0)"><rect width="84" height="14" fill="#b45309"/><text x="42" y="11" text-anchor="middle" font-size="9" fill="#fff" font-weight="600">C&gt;G</text></g>
      <g transform="translate(180,0)"><rect width="84" height="14" fill="#c4342c"/><text x="42" y="11" text-anchor="middle" font-size="9" fill="#fff" font-weight="600">C&gt;T</text></g>
      <g transform="translate(270,0)"><rect width="84" height="14" fill="#525252"/><text x="42" y="11" text-anchor="middle" font-size="9" fill="#fff" font-weight="600">T&gt;A</text></g>
      <g transform="translate(360,0)"><rect width="84" height="14" fill="#0d7377"/><text x="42" y="11" text-anchor="middle" font-size="9" fill="#fff" font-weight="600">T&gt;C</text></g>
      <g transform="translate(450,0)"><rect width="84" height="14" fill="#7c3aed"/><text x="42" y="11" text-anchor="middle" font-size="9" fill="#fff" font-weight="600">T&gt;G</text></g>
    </g>

    <!-- Baseline -->
    <line x1="20" y1="180" x2="552" y2="180" stroke="#a8a29e"/>

    <!-- Bars: 96 bars; widths ~5.4 each; total width 96*5.4 = 518; gap groups every 16 bars
         Render programmatically through 96 hand-set bar heights matching SBS1 (low except heavy in C>T panel CpG positions). -->
    <g transform="translate(20,180)">
      <!-- C>A: 16 bars low height ~5-10 -->
      <g fill="#1e40af">
        <rect x="0" y="-7" width="4.5" height="7"/><rect x="5.5" y="-6" width="4.5" height="6"/>
        <rect x="11" y="-7" width="4.5" height="7"/><rect x="16.5" y="-5" width="4.5" height="5"/>
        <rect x="22" y="-8" width="4.5" height="8"/><rect x="27.5" y="-6" width="4.5" height="6"/>
        <rect x="33" y="-7" width="4.5" height="7"/><rect x="38.5" y="-5" width="4.5" height="5"/>
        <rect x="44" y="-6" width="4.5" height="6"/><rect x="49.5" y="-7" width="4.5" height="7"/>
        <rect x="55" y="-5" width="4.5" height="5"/><rect x="60.5" y="-6" width="4.5" height="6"/>
        <rect x="66" y="-8" width="4.5" height="8"/><rect x="71.5" y="-5" width="4.5" height="5"/>
        <rect x="77" y="-7" width="4.5" height="7"/><rect x="82.5" y="-6" width="4.5" height="6"/>
      </g>
      <!-- C>G: 16 low -->
      <g fill="#b45309" transform="translate(90,0)">
        <rect x="0" y="-6" width="4.5" height="6"/><rect x="5.5" y="-5" width="4.5" height="5"/>
        <rect x="11" y="-7" width="4.5" height="7"/><rect x="16.5" y="-4" width="4.5" height="4"/>
        <rect x="22" y="-6" width="4.5" height="6"/><rect x="27.5" y="-5" width="4.5" height="5"/>
        <rect x="33" y="-7" width="4.5" height="7"/><rect x="38.5" y="-4" width="4.5" height="4"/>
        <rect x="44" y="-6" width="4.5" height="6"/><rect x="49.5" y="-5" width="4.5" height="5"/>
        <rect x="55" y="-7" width="4.5" height="7"/><rect x="60.5" y="-4" width="4.5" height="4"/>
        <rect x="66" y="-6" width="4.5" height="6"/><rect x="71.5" y="-5" width="4.5" height="5"/>
        <rect x="77" y="-7" width="4.5" height="7"/><rect x="82.5" y="-4" width="4.5" height="4"/>
      </g>
      <!-- C>T: peaks at NCG (positions 2,6,10,14 in each row pattern); index of NCG = 1,5,9,13 within each 16; using ACG(2) CCG(6) GCG(10) TCG(14) — set those to 130 -->
      <g fill="#c4342c" transform="translate(180,0)">
        <rect x="0" y="-10" width="4.5" height="10"/><rect x="5.5" y="-12" width="4.5" height="12"/>
        <rect x="11" y="-130" width="4.5" height="130"/><rect x="16.5" y="-12" width="4.5" height="12"/>
        <rect x="22" y="-15" width="4.5" height="15"/><rect x="27.5" y="-12" width="4.5" height="12"/>
        <rect x="33" y="-110" width="4.5" height="110"/><rect x="38.5" y="-14" width="4.5" height="14"/>
        <rect x="44" y="-12" width="4.5" height="12"/><rect x="49.5" y="-15" width="4.5" height="15"/>
        <rect x="55" y="-90" width="4.5" height="90"/><rect x="60.5" y="-13" width="4.5" height="13"/>
        <rect x="66" y="-12" width="4.5" height="12"/><rect x="71.5" y="-14" width="4.5" height="14"/>
        <rect x="77" y="-115" width="4.5" height="115"/><rect x="82.5" y="-12" width="4.5" height="12"/>
      </g>
      <!-- T>A: 16 low -->
      <g fill="#525252" transform="translate(270,0)">
        <rect x="0" y="-5" width="4.5" height="5"/><rect x="5.5" y="-4" width="4.5" height="4"/>
        <rect x="11" y="-5" width="4.5" height="5"/><rect x="16.5" y="-4" width="4.5" height="4"/>
        <rect x="22" y="-5" width="4.5" height="5"/><rect x="27.5" y="-4" width="4.5" height="4"/>
        <rect x="33" y="-5" width="4.5" height="5"/><rect x="38.5" y="-4" width="4.5" height="4"/>
        <rect x="44" y="-5" width="4.5" height="5"/><rect x="49.5" y="-4" width="4.5" height="4"/>
        <rect x="55" y="-5" width="4.5" height="5"/><rect x="60.5" y="-4" width="4.5" height="4"/>
        <rect x="66" y="-5" width="4.5" height="5"/><rect x="71.5" y="-4" width="4.5" height="4"/>
        <rect x="77" y="-5" width="4.5" height="5"/><rect x="82.5" y="-4" width="4.5" height="4"/>
      </g>
      <!-- T>C: 16 low -->
      <g fill="#0d7377" transform="translate(360,0)">
        <rect x="0" y="-6" width="4.5" height="6"/><rect x="5.5" y="-5" width="4.5" height="5"/>
        <rect x="11" y="-6" width="4.5" height="6"/><rect x="16.5" y="-5" width="4.5" height="5"/>
        <rect x="22" y="-6" width="4.5" height="6"/><rect x="27.5" y="-5" width="4.5" height="5"/>
        <rect x="33" y="-6" width="4.5" height="6"/><rect x="38.5" y="-5" width="4.5" height="5"/>
        <rect x="44" y="-6" width="4.5" height="6"/><rect x="49.5" y="-5" width="4.5" height="5"/>
        <rect x="55" y="-6" width="4.5" height="6"/><rect x="60.5" y="-5" width="4.5" height="5"/>
        <rect x="66" y="-6" width="4.5" height="6"/><rect x="71.5" y="-5" width="4.5" height="5"/>
        <rect x="77" y="-6" width="4.5" height="6"/><rect x="82.5" y="-5" width="4.5" height="5"/>
      </g>
      <!-- T>G: 16 low -->
      <g fill="#7c3aed" transform="translate(450,0)">
        <rect x="0" y="-5" width="4.5" height="5"/><rect x="5.5" y="-4" width="4.5" height="4"/>
        <rect x="11" y="-5" width="4.5" height="5"/><rect x="16.5" y="-4" width="4.5" height="4"/>
        <rect x="22" y="-5" width="4.5" height="5"/><rect x="27.5" y="-4" width="4.5" height="4"/>
        <rect x="33" y="-5" width="4.5" height="5"/><rect x="38.5" y="-4" width="4.5" height="4"/>
        <rect x="44" y="-5" width="4.5" height="5"/><rect x="49.5" y="-4" width="4.5" height="4"/>
        <rect x="55" y="-5" width="4.5" height="5"/><rect x="60.5" y="-4" width="4.5" height="4"/>
        <rect x="66" y="-5" width="4.5" height="5"/><rect x="71.5" y="-4" width="4.5" height="4"/>
        <rect x="77" y="-5" width="4.5" height="5"/><rect x="82.5" y="-4" width="4.5" height="4"/>
      </g>
    </g>

    <text x="14" y="200" font-size="9" fill="#525252" class="mono">trinucleotide context (96 bins) — peaks at NCG (5mC deamination)</text>
  </g>

  <!-- Panel 2 — SBS4 — tobacco — C>A peaks specifically -->
  <g transform="translate(620,60)">
    <rect width="560" height="210" fill="#fff" stroke="#374151" rx="3"/>
    <text x="14" y="20" font-size="12" font-weight="700" fill="#374151">SBS4</text>
    <text x="60" y="20" font-size="10" fill="#525252">tobacco smoking · C&gt;A transversions in lung adenocarcinoma</text>

    <g transform="translate(20,30)">
      <g><rect width="84" height="14" fill="#1e40af"/><text x="42" y="11" text-anchor="middle" font-size="9" fill="#fff" font-weight="600">C&gt;A</text></g>
      <g transform="translate(90,0)"><rect width="84" height="14" fill="#b45309"/><text x="42" y="11" text-anchor="middle" font-size="9" fill="#fff" font-weight="600">C&gt;G</text></g>
      <g transform="translate(180,0)"><rect width="84" height="14" fill="#c4342c"/><text x="42" y="11" text-anchor="middle" font-size="9" fill="#fff" font-weight="600">C&gt;T</text></g>
      <g transform="translate(270,0)"><rect width="84" height="14" fill="#525252"/><text x="42" y="11" text-anchor="middle" font-size="9" fill="#fff" font-weight="600">T&gt;A</text></g>
      <g transform="translate(360,0)"><rect width="84" height="14" fill="#0d7377"/><text x="42" y="11" text-anchor="middle" font-size="9" fill="#fff" font-weight="600">T&gt;C</text></g>
      <g transform="translate(450,0)"><rect width="84" height="14" fill="#7c3aed"/><text x="42" y="11" text-anchor="middle" font-size="9" fill="#fff" font-weight="600">T&gt;G</text></g>
    </g>

    <line x1="20" y1="180" x2="552" y2="180" stroke="#a8a29e"/>

    <g transform="translate(20,180)">
      <!-- C>A: high peaks across (esp. CCN, GCN) -->
      <g fill="#1e40af">
        <rect x="0" y="-50" width="4.5" height="50"/><rect x="5.5" y="-65" width="4.5" height="65"/>
        <rect x="11" y="-30" width="4.5" height="30"/><rect x="16.5" y="-78" width="4.5" height="78"/>
        <rect x="22" y="-90" width="4.5" height="90"/><rect x="27.5" y="-100" width="4.5" height="100"/>
        <rect x="33" y="-44" width="4.5" height="44"/><rect x="38.5" y="-110" width="4.5" height="110"/>
        <rect x="44" y="-70" width="4.5" height="70"/><rect x="49.5" y="-85" width="4.5" height="85"/>
        <rect x="55" y="-40" width="4.5" height="40"/><rect x="60.5" y="-92" width="4.5" height="92"/>
        <rect x="66" y="-55" width="4.5" height="55"/><rect x="71.5" y="-70" width="4.5" height="70"/>
        <rect x="77" y="-30" width="4.5" height="30"/><rect x="82.5" y="-72" width="4.5" height="72"/>
      </g>
      <g fill="#b45309" transform="translate(90,0)">
        <rect x="0" y="-10" width="4.5" height="10"/><rect x="5.5" y="-12" width="4.5" height="12"/>
        <rect x="11" y="-8" width="4.5" height="8"/><rect x="16.5" y="-15" width="4.5" height="15"/>
        <rect x="22" y="-13" width="4.5" height="13"/><rect x="27.5" y="-10" width="4.5" height="10"/>
        <rect x="33" y="-12" width="4.5" height="12"/><rect x="38.5" y="-15" width="4.5" height="15"/>
        <rect x="44" y="-10" width="4.5" height="10"/><rect x="49.5" y="-12" width="4.5" height="12"/>
        <rect x="55" y="-8" width="4.5" height="8"/><rect x="60.5" y="-13" width="4.5" height="13"/>
        <rect x="66" y="-10" width="4.5" height="10"/><rect x="71.5" y="-12" width="4.5" height="12"/>
        <rect x="77" y="-8" width="4.5" height="8"/><rect x="82.5" y="-15" width="4.5" height="15"/>
      </g>
      <g fill="#c4342c" transform="translate(180,0)">
        <rect x="0" y="-12" width="4.5" height="12"/><rect x="5.5" y="-15" width="4.5" height="15"/>
        <rect x="11" y="-25" width="4.5" height="25"/><rect x="16.5" y="-13" width="4.5" height="13"/>
        <rect x="22" y="-15" width="4.5" height="15"/><rect x="27.5" y="-18" width="4.5" height="18"/>
        <rect x="33" y="-22" width="4.5" height="22"/><rect x="38.5" y="-12" width="4.5" height="12"/>
        <rect x="44" y="-14" width="4.5" height="14"/><rect x="49.5" y="-16" width="4.5" height="16"/>
        <rect x="55" y="-20" width="4.5" height="20"/><rect x="60.5" y="-12" width="4.5" height="12"/>
        <rect x="66" y="-15" width="4.5" height="15"/><rect x="71.5" y="-18" width="4.5" height="18"/>
        <rect x="77" y="-25" width="4.5" height="25"/><rect x="82.5" y="-12" width="4.5" height="12"/>
      </g>
      <g fill="#525252" transform="translate(270,0)">
        <rect x="0" y="-10" width="4.5" height="10"/><rect x="5.5" y="-12" width="4.5" height="12"/>
        <rect x="11" y="-15" width="4.5" height="15"/><rect x="16.5" y="-10" width="4.5" height="10"/>
        <rect x="22" y="-12" width="4.5" height="12"/><rect x="27.5" y="-15" width="4.5" height="15"/>
        <rect x="33" y="-10" width="4.5" height="10"/><rect x="38.5" y="-12" width="4.5" height="12"/>
        <rect x="44" y="-15" width="4.5" height="15"/><rect x="49.5" y="-10" width="4.5" height="10"/>
        <rect x="55" y="-12" width="4.5" height="12"/><rect x="60.5" y="-15" width="4.5" height="15"/>
        <rect x="66" y="-10" width="4.5" height="10"/><rect x="71.5" y="-12" width="4.5" height="12"/>
        <rect x="77" y="-15" width="4.5" height="15"/><rect x="82.5" y="-10" width="4.5" height="10"/>
      </g>
      <g fill="#0d7377" transform="translate(360,0)">
        <rect x="0" y="-15" width="4.5" height="15"/><rect x="5.5" y="-18" width="4.5" height="18"/>
        <rect x="11" y="-12" width="4.5" height="12"/><rect x="16.5" y="-20" width="4.5" height="20"/>
        <rect x="22" y="-15" width="4.5" height="15"/><rect x="27.5" y="-20" width="4.5" height="20"/>
        <rect x="33" y="-12" width="4.5" height="12"/><rect x="38.5" y="-22" width="4.5" height="22"/>
        <rect x="44" y="-18" width="4.5" height="18"/><rect x="49.5" y="-15" width="4.5" height="15"/>
        <rect x="55" y="-20" width="4.5" height="20"/><rect x="60.5" y="-15" width="4.5" height="15"/>
        <rect x="66" y="-18" width="4.5" height="18"/><rect x="71.5" y="-15" width="4.5" height="15"/>
        <rect x="77" y="-12" width="4.5" height="12"/><rect x="82.5" y="-20" width="4.5" height="20"/>
      </g>
      <g fill="#7c3aed" transform="translate(450,0)">
        <rect x="0" y="-8" width="4.5" height="8"/><rect x="5.5" y="-10" width="4.5" height="10"/>
        <rect x="11" y="-12" width="4.5" height="12"/><rect x="16.5" y="-8" width="4.5" height="8"/>
        <rect x="22" y="-10" width="4.5" height="10"/><rect x="27.5" y="-12" width="4.5" height="12"/>
        <rect x="33" y="-8" width="4.5" height="8"/><rect x="38.5" y="-10" width="4.5" height="10"/>
        <rect x="44" y="-12" width="4.5" height="12"/><rect x="49.5" y="-8" width="4.5" height="8"/>
        <rect x="55" y="-10" width="4.5" height="10"/><rect x="60.5" y="-12" width="4.5" height="12"/>
        <rect x="66" y="-8" width="4.5" height="8"/><rect x="71.5" y="-10" width="4.5" height="10"/>
        <rect x="77" y="-12" width="4.5" height="12"/><rect x="82.5" y="-8" width="4.5" height="8"/>
      </g>
    </g>

    <text x="14" y="200" font-size="9" fill="#525252" class="mono">benzo[a]pyrene-like adducts → C&gt;A bias</text>
  </g>

  <!-- Panel 3 — SBS7a — UV C>T at TC and CC dimers (positions involving CC/TC contexts) -->
  <g transform="translate(40,290)">
    <rect width="560" height="210" fill="#fff" stroke="#374151" rx="3"/>
    <text x="14" y="20" font-size="12" font-weight="700" fill="#374151">SBS7a</text>
    <text x="64" y="20" font-size="10" fill="#525252">UV exposure · C&gt;T at CC/TC pyrimidine dimers (skin cancer)</text>

    <g transform="translate(20,30)">
      <g><rect width="84" height="14" fill="#1e40af"/><text x="42" y="11" text-anchor="middle" font-size="9" fill="#fff" font-weight="600">C&gt;A</text></g>
      <g transform="translate(90,0)"><rect width="84" height="14" fill="#b45309"/><text x="42" y="11" text-anchor="middle" font-size="9" fill="#fff" font-weight="600">C&gt;G</text></g>
      <g transform="translate(180,0)"><rect width="84" height="14" fill="#c4342c"/><text x="42" y="11" text-anchor="middle" font-size="9" fill="#fff" font-weight="600">C&gt;T</text></g>
      <g transform="translate(270,0)"><rect width="84" height="14" fill="#525252"/><text x="42" y="11" text-anchor="middle" font-size="9" fill="#fff" font-weight="600">T&gt;A</text></g>
      <g transform="translate(360,0)"><rect width="84" height="14" fill="#0d7377"/><text x="42" y="11" text-anchor="middle" font-size="9" fill="#fff" font-weight="600">T&gt;C</text></g>
      <g transform="translate(450,0)"><rect width="84" height="14" fill="#7c3aed"/><text x="42" y="11" text-anchor="middle" font-size="9" fill="#fff" font-weight="600">T&gt;G</text></g>
    </g>

    <line x1="20" y1="180" x2="552" y2="180" stroke="#a8a29e"/>

    <g transform="translate(20,180)">
      <g fill="#1e40af">
        <rect x="0" y="-5" width="4.5" height="5"/><rect x="5.5" y="-6" width="4.5" height="6"/>
        <rect x="11" y="-7" width="4.5" height="7"/><rect x="16.5" y="-5" width="4.5" height="5"/>
        <rect x="22" y="-6" width="4.5" height="6"/><rect x="27.5" y="-7" width="4.5" height="7"/>
        <rect x="33" y="-5" width="4.5" height="5"/><rect x="38.5" y="-6" width="4.5" height="6"/>
        <rect x="44" y="-7" width="4.5" height="7"/><rect x="49.5" y="-5" width="4.5" height="5"/>
        <rect x="55" y="-6" width="4.5" height="6"/><rect x="60.5" y="-7" width="4.5" height="7"/>
        <rect x="66" y="-5" width="4.5" height="5"/><rect x="71.5" y="-6" width="4.5" height="6"/>
        <rect x="77" y="-7" width="4.5" height="7"/><rect x="82.5" y="-5" width="4.5" height="5"/>
      </g>
      <g fill="#b45309" transform="translate(90,0)">
        <rect x="0" y="-5" width="4.5" height="5"/><rect x="5.5" y="-6" width="4.5" height="6"/>
        <rect x="11" y="-7" width="4.5" height="7"/><rect x="16.5" y="-5" width="4.5" height="5"/>
        <rect x="22" y="-6" width="4.5" height="6"/><rect x="27.5" y="-7" width="4.5" height="7"/>
        <rect x="33" y="-5" width="4.5" height="5"/><rect x="38.5" y="-6" width="4.5" height="6"/>
        <rect x="44" y="-7" width="4.5" height="7"/><rect x="49.5" y="-5" width="4.5" height="5"/>
        <rect x="55" y="-6" width="4.5" height="6"/><rect x="60.5" y="-7" width="4.5" height="7"/>
        <rect x="66" y="-5" width="4.5" height="5"/><rect x="71.5" y="-6" width="4.5" height="6"/>
        <rect x="77" y="-7" width="4.5" height="7"/><rect x="82.5" y="-5" width="4.5" height="5"/>
      </g>
      <!-- C>T big peaks especially at CC and TC contexts (positions corresponding to those trinucleotides). Index map for first letter being C or T at 5'.
           Order: A_A,A_C,A_G,A_T,C_A,C_C,C_G,C_T,G_A,G_C,G_G,G_T,T_A,T_C,T_G,T_T (5' base × 3' base).
           So 'CC' (CXC where 5'=C, 3'=C): index 5; 'TC' (TXC): index 13. Mark these high.
           But really it's about the 5' base pyrimidine: peaks at CCN and TCN where mutation is C>T. -->
      <g fill="#c4342c" transform="translate(180,0)">
        <rect x="0" y="-15" width="4.5" height="15"/><rect x="5.5" y="-12" width="4.5" height="12"/>
        <rect x="11" y="-18" width="4.5" height="18"/><rect x="16.5" y="-15" width="4.5" height="15"/>
        <rect x="22" y="-100" width="4.5" height="100"/><rect x="27.5" y="-130" width="4.5" height="130"/>
        <rect x="33" y="-105" width="4.5" height="105"/><rect x="38.5" y="-90" width="4.5" height="90"/>
        <rect x="44" y="-15" width="4.5" height="15"/><rect x="49.5" y="-18" width="4.5" height="18"/>
        <rect x="55" y="-22" width="4.5" height="22"/><rect x="60.5" y="-15" width="4.5" height="15"/>
        <rect x="66" y="-95" width="4.5" height="95"/><rect x="71.5" y="-115" width="4.5" height="115"/>
        <rect x="77" y="-100" width="4.5" height="100"/><rect x="82.5" y="-80" width="4.5" height="80"/>
      </g>
      <g fill="#525252" transform="translate(270,0)">
        <rect x="0" y="-7" width="4.5" height="7"/><rect x="5.5" y="-5" width="4.5" height="5"/>
        <rect x="11" y="-8" width="4.5" height="8"/><rect x="16.5" y="-6" width="4.5" height="6"/>
        <rect x="22" y="-7" width="4.5" height="7"/><rect x="27.5" y="-9" width="4.5" height="9"/>
        <rect x="33" y="-6" width="4.5" height="6"/><rect x="38.5" y="-8" width="4.5" height="8"/>
        <rect x="44" y="-7" width="4.5" height="7"/><rect x="49.5" y="-5" width="4.5" height="5"/>
        <rect x="55" y="-8" width="4.5" height="8"/><rect x="60.5" y="-6" width="4.5" height="6"/>
        <rect x="66" y="-7" width="4.5" height="7"/><rect x="71.5" y="-9" width="4.5" height="9"/>
        <rect x="77" y="-6" width="4.5" height="6"/><rect x="82.5" y="-8" width="4.5" height="8"/>
      </g>
      <g fill="#0d7377" transform="translate(360,0)">
        <rect x="0" y="-12" width="4.5" height="12"/><rect x="5.5" y="-10" width="4.5" height="10"/>
        <rect x="11" y="-14" width="4.5" height="14"/><rect x="16.5" y="-10" width="4.5" height="10"/>
        <rect x="22" y="-15" width="4.5" height="15"/><rect x="27.5" y="-12" width="4.5" height="12"/>
        <rect x="33" y="-13" width="4.5" height="13"/><rect x="38.5" y="-15" width="4.5" height="15"/>
        <rect x="44" y="-12" width="4.5" height="12"/><rect x="49.5" y="-10" width="4.5" height="10"/>
        <rect x="55" y="-14" width="4.5" height="14"/><rect x="60.5" y="-10" width="4.5" height="10"/>
        <rect x="66" y="-15" width="4.5" height="15"/><rect x="71.5" y="-12" width="4.5" height="12"/>
        <rect x="77" y="-13" width="4.5" height="13"/><rect x="82.5" y="-10" width="4.5" height="10"/>
      </g>
      <g fill="#7c3aed" transform="translate(450,0)">
        <rect x="0" y="-6" width="4.5" height="6"/><rect x="5.5" y="-5" width="4.5" height="5"/>
        <rect x="11" y="-7" width="4.5" height="7"/><rect x="16.5" y="-5" width="4.5" height="5"/>
        <rect x="22" y="-6" width="4.5" height="6"/><rect x="27.5" y="-7" width="4.5" height="7"/>
        <rect x="33" y="-5" width="4.5" height="5"/><rect x="38.5" y="-6" width="4.5" height="6"/>
        <rect x="44" y="-7" width="4.5" height="7"/><rect x="49.5" y="-5" width="4.5" height="5"/>
        <rect x="55" y="-6" width="4.5" height="6"/><rect x="60.5" y="-7" width="4.5" height="7"/>
        <rect x="66" y="-5" width="4.5" height="5"/><rect x="71.5" y="-6" width="4.5" height="6"/>
        <rect x="77" y="-7" width="4.5" height="7"/><rect x="82.5" y="-5" width="4.5" height="5"/>
      </g>
    </g>

    <text x="14" y="200" font-size="9" fill="#525252" class="mono">CPD photoproducts at TpC and CpC dimers</text>
  </g>

  <!-- Panel 4 — SBS3 — HRD diffuse / flat -->
  <g transform="translate(620,290)">
    <rect width="560" height="210" fill="#fff" stroke="#374151" rx="3"/>
    <text x="14" y="20" font-size="12" font-weight="700" fill="#374151">SBS3</text>
    <text x="60" y="20" font-size="10" fill="#525252">HRD / BRCA-deficient · diffuse · enables PARP-inhibitor therapy</text>

    <g transform="translate(20,30)">
      <g><rect width="84" height="14" fill="#1e40af"/><text x="42" y="11" text-anchor="middle" font-size="9" fill="#fff" font-weight="600">C&gt;A</text></g>
      <g transform="translate(90,0)"><rect width="84" height="14" fill="#b45309"/><text x="42" y="11" text-anchor="middle" font-size="9" fill="#fff" font-weight="600">C&gt;G</text></g>
      <g transform="translate(180,0)"><rect width="84" height="14" fill="#c4342c"/><text x="42" y="11" text-anchor="middle" font-size="9" fill="#fff" font-weight="600">C&gt;T</text></g>
      <g transform="translate(270,0)"><rect width="84" height="14" fill="#525252"/><text x="42" y="11" text-anchor="middle" font-size="9" fill="#fff" font-weight="600">T&gt;A</text></g>
      <g transform="translate(360,0)"><rect width="84" height="14" fill="#0d7377"/><text x="42" y="11" text-anchor="middle" font-size="9" fill="#fff" font-weight="600">T&gt;C</text></g>
      <g transform="translate(450,0)"><rect width="84" height="14" fill="#7c3aed"/><text x="42" y="11" text-anchor="middle" font-size="9" fill="#fff" font-weight="600">T&gt;G</text></g>
    </g>

    <line x1="20" y1="180" x2="552" y2="180" stroke="#a8a29e"/>

    <!-- Diffuse: ~25 across all bins -->
    <g transform="translate(20,180)">
      <g fill="#1e40af">
        <rect x="0" y="-22" width="4.5" height="22"/><rect x="5.5" y="-25" width="4.5" height="25"/>
        <rect x="11" y="-23" width="4.5" height="23"/><rect x="16.5" y="-26" width="4.5" height="26"/>
        <rect x="22" y="-24" width="4.5" height="24"/><rect x="27.5" y="-22" width="4.5" height="22"/>
        <rect x="33" y="-25" width="4.5" height="25"/><rect x="38.5" y="-23" width="4.5" height="23"/>
        <rect x="44" y="-22" width="4.5" height="22"/><rect x="49.5" y="-25" width="4.5" height="25"/>
        <rect x="55" y="-23" width="4.5" height="23"/><rect x="60.5" y="-26" width="4.5" height="26"/>
        <rect x="66" y="-24" width="4.5" height="24"/><rect x="71.5" y="-22" width="4.5" height="22"/>
        <rect x="77" y="-25" width="4.5" height="25"/><rect x="82.5" y="-23" width="4.5" height="23"/>
      </g>
      <g fill="#b45309" transform="translate(90,0)">
        <rect x="0" y="-22" width="4.5" height="22"/><rect x="5.5" y="-25" width="4.5" height="25"/>
        <rect x="11" y="-23" width="4.5" height="23"/><rect x="16.5" y="-26" width="4.5" height="26"/>
        <rect x="22" y="-24" width="4.5" height="24"/><rect x="27.5" y="-22" width="4.5" height="22"/>
        <rect x="33" y="-25" width="4.5" height="25"/><rect x="38.5" y="-23" width="4.5" height="23"/>
        <rect x="44" y="-22" width="4.5" height="22"/><rect x="49.5" y="-25" width="4.5" height="25"/>
        <rect x="55" y="-23" width="4.5" height="23"/><rect x="60.5" y="-26" width="4.5" height="26"/>
        <rect x="66" y="-24" width="4.5" height="24"/><rect x="71.5" y="-22" width="4.5" height="22"/>
        <rect x="77" y="-25" width="4.5" height="25"/><rect x="82.5" y="-23" width="4.5" height="23"/>
      </g>
      <g fill="#c4342c" transform="translate(180,0)">
        <rect x="0" y="-30" width="4.5" height="30"/><rect x="5.5" y="-32" width="4.5" height="32"/>
        <rect x="11" y="-30" width="4.5" height="30"/><rect x="16.5" y="-31" width="4.5" height="31"/>
        <rect x="22" y="-30" width="4.5" height="30"/><rect x="27.5" y="-33" width="4.5" height="33"/>
        <rect x="33" y="-31" width="4.5" height="31"/><rect x="38.5" y="-30" width="4.5" height="30"/>
        <rect x="44" y="-32" width="4.5" height="32"/><rect x="49.5" y="-30" width="4.5" height="30"/>
        <rect x="55" y="-31" width="4.5" height="31"/><rect x="60.5" y="-33" width="4.5" height="33"/>
        <rect x="66" y="-30" width="4.5" height="30"/><rect x="71.5" y="-32" width="4.5" height="32"/>
        <rect x="77" y="-30" width="4.5" height="30"/><rect x="82.5" y="-31" width="4.5" height="31"/>
      </g>
      <g fill="#525252" transform="translate(270,0)">
        <rect x="0" y="-20" width="4.5" height="20"/><rect x="5.5" y="-22" width="4.5" height="22"/>
        <rect x="11" y="-21" width="4.5" height="21"/><rect x="16.5" y="-23" width="4.5" height="23"/>
        <rect x="22" y="-20" width="4.5" height="20"/><rect x="27.5" y="-22" width="4.5" height="22"/>
        <rect x="33" y="-21" width="4.5" height="21"/><rect x="38.5" y="-23" width="4.5" height="23"/>
        <rect x="44" y="-20" width="4.5" height="20"/><rect x="49.5" y="-22" width="4.5" height="22"/>
        <rect x="55" y="-21" width="4.5" height="21"/><rect x="60.5" y="-23" width="4.5" height="23"/>
        <rect x="66" y="-20" width="4.5" height="20"/><rect x="71.5" y="-22" width="4.5" height="22"/>
        <rect x="77" y="-21" width="4.5" height="21"/><rect x="82.5" y="-23" width="4.5" height="23"/>
      </g>
      <g fill="#0d7377" transform="translate(360,0)">
        <rect x="0" y="-25" width="4.5" height="25"/><rect x="5.5" y="-27" width="4.5" height="27"/>
        <rect x="11" y="-26" width="4.5" height="26"/><rect x="16.5" y="-28" width="4.5" height="28"/>
        <rect x="22" y="-25" width="4.5" height="25"/><rect x="27.5" y="-27" width="4.5" height="27"/>
        <rect x="33" y="-26" width="4.5" height="26"/><rect x="38.5" y="-28" width="4.5" height="28"/>
        <rect x="44" y="-25" width="4.5" height="25"/><rect x="49.5" y="-27" width="4.5" height="27"/>
        <rect x="55" y="-26" width="4.5" height="26"/><rect x="60.5" y="-28" width="4.5" height="28"/>
        <rect x="66" y="-25" width="4.5" height="25"/><rect x="71.5" y="-27" width="4.5" height="27"/>
        <rect x="77" y="-26" width="4.5" height="26"/><rect x="82.5" y="-28" width="4.5" height="28"/>
      </g>
      <g fill="#7c3aed" transform="translate(450,0)">
        <rect x="0" y="-22" width="4.5" height="22"/><rect x="5.5" y="-24" width="4.5" height="24"/>
        <rect x="11" y="-23" width="4.5" height="23"/><rect x="16.5" y="-25" width="4.5" height="25"/>
        <rect x="22" y="-22" width="4.5" height="22"/><rect x="27.5" y="-24" width="4.5" height="24"/>
        <rect x="33" y="-23" width="4.5" height="23"/><rect x="38.5" y="-25" width="4.5" height="25"/>
        <rect x="44" y="-22" width="4.5" height="22"/><rect x="49.5" y="-24" width="4.5" height="24"/>
        <rect x="55" y="-23" width="4.5" height="23"/><rect x="60.5" y="-25" width="4.5" height="25"/>
        <rect x="66" y="-22" width="4.5" height="22"/><rect x="71.5" y="-24" width="4.5" height="24"/>
        <rect x="77" y="-23" width="4.5" height="23"/><rect x="82.5" y="-25" width="4.5" height="25"/>
      </g>
    </g>

    <text x="14" y="200" font-size="9" fill="#525252" class="mono">flat distribution = failed homologous-recombination repair</text>
  </g>

  <!-- Panel 5 — SBS13 — APOBEC C>G/C>T at TCW -->
  <g transform="translate(40,520)">
    <rect width="560" height="180" fill="#fff" stroke="#374151" rx="3"/>
    <text x="14" y="20" font-size="12" font-weight="700" fill="#374151">SBS13</text>
    <text x="64" y="20" font-size="10" fill="#525252">APOBEC deamination · C&gt;G at TCW (breast / bladder)</text>

    <g transform="translate(20,30)">
      <g><rect width="84" height="14" fill="#1e40af"/><text x="42" y="11" text-anchor="middle" font-size="9" fill="#fff" font-weight="600">C&gt;A</text></g>
      <g transform="translate(90,0)"><rect width="84" height="14" fill="#b45309"/><text x="42" y="11" text-anchor="middle" font-size="9" fill="#fff" font-weight="600">C&gt;G</text></g>
      <g transform="translate(180,0)"><rect width="84" height="14" fill="#c4342c"/><text x="42" y="11" text-anchor="middle" font-size="9" fill="#fff" font-weight="600">C&gt;T</text></g>
      <g transform="translate(270,0)"><rect width="84" height="14" fill="#525252"/><text x="42" y="11" text-anchor="middle" font-size="9" fill="#fff" font-weight="600">T&gt;A</text></g>
      <g transform="translate(360,0)"><rect width="84" height="14" fill="#0d7377"/><text x="42" y="11" text-anchor="middle" font-size="9" fill="#fff" font-weight="600">T&gt;C</text></g>
      <g transform="translate(450,0)"><rect width="84" height="14" fill="#7c3aed"/><text x="42" y="11" text-anchor="middle" font-size="9" fill="#fff" font-weight="600">T&gt;G</text></g>
    </g>

    <line x1="20" y1="160" x2="552" y2="160" stroke="#a8a29e"/>

    <g transform="translate(20,160)">
      <g fill="#1e40af">
        <rect x="0" y="-5" width="4.5" height="5"/><rect x="5.5" y="-6" width="4.5" height="6"/>
        <rect x="11" y="-7" width="4.5" height="7"/><rect x="16.5" y="-5" width="4.5" height="5"/>
        <rect x="22" y="-6" width="4.5" height="6"/><rect x="27.5" y="-7" width="4.5" height="7"/>
        <rect x="33" y="-5" width="4.5" height="5"/><rect x="38.5" y="-6" width="4.5" height="6"/>
        <rect x="44" y="-7" width="4.5" height="7"/><rect x="49.5" y="-5" width="4.5" height="5"/>
        <rect x="55" y="-6" width="4.5" height="6"/><rect x="60.5" y="-7" width="4.5" height="7"/>
        <rect x="66" y="-5" width="4.5" height="5"/><rect x="71.5" y="-6" width="4.5" height="6"/>
        <rect x="77" y="-7" width="4.5" height="7"/><rect x="82.5" y="-5" width="4.5" height="5"/>
      </g>
      <!-- C>G big peaks at TCW (positions: TCA=12, TCT=15) -->
      <g fill="#b45309" transform="translate(90,0)">
        <rect x="0" y="-8" width="4.5" height="8"/><rect x="5.5" y="-10" width="4.5" height="10"/>
        <rect x="11" y="-12" width="4.5" height="12"/><rect x="16.5" y="-8" width="4.5" height="8"/>
        <rect x="22" y="-10" width="4.5" height="10"/><rect x="27.5" y="-12" width="4.5" height="12"/>
        <rect x="33" y="-8" width="4.5" height="8"/><rect x="38.5" y="-10" width="4.5" height="10"/>
        <rect x="44" y="-12" width="4.5" height="12"/><rect x="49.5" y="-8" width="4.5" height="8"/>
        <rect x="55" y="-10" width="4.5" height="10"/><rect x="60.5" y="-12" width="4.5" height="12"/>
        <rect x="66" y="-110" width="4.5" height="110"/><rect x="71.5" y="-15" width="4.5" height="15"/>
        <rect x="77" y="-15" width="4.5" height="15"/><rect x="82.5" y="-115" width="4.5" height="115"/>
      </g>
      <!-- C>T peaks at TCW too -->
      <g fill="#c4342c" transform="translate(180,0)">
        <rect x="0" y="-10" width="4.5" height="10"/><rect x="5.5" y="-12" width="4.5" height="12"/>
        <rect x="11" y="-15" width="4.5" height="15"/><rect x="16.5" y="-10" width="4.5" height="10"/>
        <rect x="22" y="-12" width="4.5" height="12"/><rect x="27.5" y="-15" width="4.5" height="15"/>
        <rect x="33" y="-10" width="4.5" height="10"/><rect x="38.5" y="-12" width="4.5" height="12"/>
        <rect x="44" y="-15" width="4.5" height="15"/><rect x="49.5" y="-10" width="4.5" height="10"/>
        <rect x="55" y="-12" width="4.5" height="12"/><rect x="60.5" y="-15" width="4.5" height="15"/>
        <rect x="66" y="-80" width="4.5" height="80"/><rect x="71.5" y="-15" width="4.5" height="15"/>
        <rect x="77" y="-15" width="4.5" height="15"/><rect x="82.5" y="-85" width="4.5" height="85"/>
      </g>
      <g fill="#525252" transform="translate(270,0)">
        <rect x="0" y="-5" width="4.5" height="5"/><rect x="5.5" y="-6" width="4.5" height="6"/>
        <rect x="11" y="-7" width="4.5" height="7"/><rect x="16.5" y="-5" width="4.5" height="5"/>
        <rect x="22" y="-6" width="4.5" height="6"/><rect x="27.5" y="-7" width="4.5" height="7"/>
        <rect x="33" y="-5" width="4.5" height="5"/><rect x="38.5" y="-6" width="4.5" height="6"/>
        <rect x="44" y="-7" width="4.5" height="7"/><rect x="49.5" y="-5" width="4.5" height="5"/>
        <rect x="55" y="-6" width="4.5" height="6"/><rect x="60.5" y="-7" width="4.5" height="7"/>
        <rect x="66" y="-5" width="4.5" height="5"/><rect x="71.5" y="-6" width="4.5" height="6"/>
        <rect x="77" y="-7" width="4.5" height="7"/><rect x="82.5" y="-5" width="4.5" height="5"/>
      </g>
      <g fill="#0d7377" transform="translate(360,0)">
        <rect x="0" y="-6" width="4.5" height="6"/><rect x="5.5" y="-7" width="4.5" height="7"/>
        <rect x="11" y="-8" width="4.5" height="8"/><rect x="16.5" y="-6" width="4.5" height="6"/>
        <rect x="22" y="-7" width="4.5" height="7"/><rect x="27.5" y="-8" width="4.5" height="8"/>
        <rect x="33" y="-6" width="4.5" height="6"/><rect x="38.5" y="-7" width="4.5" height="7"/>
        <rect x="44" y="-8" width="4.5" height="8"/><rect x="49.5" y="-6" width="4.5" height="6"/>
        <rect x="55" y="-7" width="4.5" height="7"/><rect x="60.5" y="-8" width="4.5" height="8"/>
        <rect x="66" y="-6" width="4.5" height="6"/><rect x="71.5" y="-7" width="4.5" height="7"/>
        <rect x="77" y="-8" width="4.5" height="8"/><rect x="82.5" y="-6" width="4.5" height="6"/>
      </g>
      <g fill="#7c3aed" transform="translate(450,0)">
        <rect x="0" y="-5" width="4.5" height="5"/><rect x="5.5" y="-6" width="4.5" height="6"/>
        <rect x="11" y="-7" width="4.5" height="7"/><rect x="16.5" y="-5" width="4.5" height="5"/>
        <rect x="22" y="-6" width="4.5" height="6"/><rect x="27.5" y="-7" width="4.5" height="7"/>
        <rect x="33" y="-5" width="4.5" height="5"/><rect x="38.5" y="-6" width="4.5" height="6"/>
        <rect x="44" y="-7" width="4.5" height="7"/><rect x="49.5" y="-5" width="4.5" height="5"/>
        <rect x="55" y="-6" width="4.5" height="6"/><rect x="60.5" y="-7" width="4.5" height="7"/>
        <rect x="66" y="-5" width="4.5" height="5"/><rect x="71.5" y="-6" width="4.5" height="6"/>
        <rect x="77" y="-7" width="4.5" height="7"/><rect x="82.5" y="-5" width="4.5" height="5"/>
      </g>
    </g>
  </g>

  <!-- Panel 6 — SBS6 — MMR-deficiency: C>T peaks scattered + indel-prone -->
  <g transform="translate(620,520)">
    <rect width="560" height="180" fill="#fff" stroke="#374151" rx="3"/>
    <text x="14" y="20" font-size="12" font-weight="700" fill="#374151">SBS6</text>
    <text x="60" y="20" font-size="10" fill="#525252">MMR deficiency · MSI-H signature · pembrolizumab indication</text>

    <g transform="translate(20,30)">
      <g><rect width="84" height="14" fill="#1e40af"/><text x="42" y="11" text-anchor="middle" font-size="9" fill="#fff" font-weight="600">C&gt;A</text></g>
      <g transform="translate(90,0)"><rect width="84" height="14" fill="#b45309"/><text x="42" y="11" text-anchor="middle" font-size="9" fill="#fff" font-weight="600">C&gt;G</text></g>
      <g transform="translate(180,0)"><rect width="84" height="14" fill="#c4342c"/><text x="42" y="11" text-anchor="middle" font-size="9" fill="#fff" font-weight="600">C&gt;T</text></g>
      <g transform="translate(270,0)"><rect width="84" height="14" fill="#525252"/><text x="42" y="11" text-anchor="middle" font-size="9" fill="#fff" font-weight="600">T&gt;A</text></g>
      <g transform="translate(360,0)"><rect width="84" height="14" fill="#0d7377"/><text x="42" y="11" text-anchor="middle" font-size="9" fill="#fff" font-weight="600">T&gt;C</text></g>
      <g transform="translate(450,0)"><rect width="84" height="14" fill="#7c3aed"/><text x="42" y="11" text-anchor="middle" font-size="9" fill="#fff" font-weight="600">T&gt;G</text></g>
    </g>

    <line x1="20" y1="160" x2="552" y2="160" stroke="#a8a29e"/>

    <g transform="translate(20,160)">
      <g fill="#1e40af">
        <rect x="0" y="-15" width="4.5" height="15"/><rect x="5.5" y="-12" width="4.5" height="12"/>
        <rect x="11" y="-18" width="4.5" height="18"/><rect x="16.5" y="-15" width="4.5" height="15"/>
        <rect x="22" y="-12" width="4.5" height="12"/><rect x="27.5" y="-18" width="4.5" height="18"/>
        <rect x="33" y="-15" width="4.5" height="15"/><rect x="38.5" y="-12" width="4.5" height="12"/>
        <rect x="44" y="-18" width="4.5" height="18"/><rect x="49.5" y="-15" width="4.5" height="15"/>
        <rect x="55" y="-12" width="4.5" height="12"/><rect x="60.5" y="-18" width="4.5" height="18"/>
        <rect x="66" y="-15" width="4.5" height="15"/><rect x="71.5" y="-12" width="4.5" height="12"/>
        <rect x="77" y="-18" width="4.5" height="18"/><rect x="82.5" y="-15" width="4.5" height="15"/>
      </g>
      <g fill="#b45309" transform="translate(90,0)">
        <rect x="0" y="-12" width="4.5" height="12"/><rect x="5.5" y="-10" width="4.5" height="10"/>
        <rect x="11" y="-15" width="4.5" height="15"/><rect x="16.5" y="-12" width="4.5" height="12"/>
        <rect x="22" y="-10" width="4.5" height="10"/><rect x="27.5" y="-15" width="4.5" height="15"/>
        <rect x="33" y="-12" width="4.5" height="12"/><rect x="38.5" y="-10" width="4.5" height="10"/>
        <rect x="44" y="-15" width="4.5" height="15"/><rect x="49.5" y="-12" width="4.5" height="12"/>
        <rect x="55" y="-10" width="4.5" height="10"/><rect x="60.5" y="-15" width="4.5" height="15"/>
        <rect x="66" y="-12" width="4.5" height="12"/><rect x="71.5" y="-10" width="4.5" height="10"/>
        <rect x="77" y="-15" width="4.5" height="15"/><rect x="82.5" y="-12" width="4.5" height="12"/>
      </g>
      <!-- C>T diffuse with peaks at NCN scattered (mostly tall) -->
      <g fill="#c4342c" transform="translate(180,0)">
        <rect x="0" y="-50" width="4.5" height="50"/><rect x="5.5" y="-65" width="4.5" height="65"/>
        <rect x="11" y="-80" width="4.5" height="80"/><rect x="16.5" y="-55" width="4.5" height="55"/>
        <rect x="22" y="-70" width="4.5" height="70"/><rect x="27.5" y="-90" width="4.5" height="90"/>
        <rect x="33" y="-50" width="4.5" height="50"/><rect x="38.5" y="-60" width="4.5" height="60"/>
        <rect x="44" y="-75" width="4.5" height="75"/><rect x="49.5" y="-50" width="4.5" height="50"/>
        <rect x="55" y="-65" width="4.5" height="65"/><rect x="60.5" y="-90" width="4.5" height="90"/>
        <rect x="66" y="-55" width="4.5" height="55"/><rect x="71.5" y="-65" width="4.5" height="65"/>
        <rect x="77" y="-80" width="4.5" height="80"/><rect x="82.5" y="-50" width="4.5" height="50"/>
      </g>
      <g fill="#525252" transform="translate(270,0)">
        <rect x="0" y="-12" width="4.5" height="12"/><rect x="5.5" y="-10" width="4.5" height="10"/>
        <rect x="11" y="-15" width="4.5" height="15"/><rect x="16.5" y="-12" width="4.5" height="12"/>
        <rect x="22" y="-10" width="4.5" height="10"/><rect x="27.5" y="-15" width="4.5" height="15"/>
        <rect x="33" y="-12" width="4.5" height="12"/><rect x="38.5" y="-10" width="4.5" height="10"/>
        <rect x="44" y="-15" width="4.5" height="15"/><rect x="49.5" y="-12" width="4.5" height="12"/>
        <rect x="55" y="-10" width="4.5" height="10"/><rect x="60.5" y="-15" width="4.5" height="15"/>
        <rect x="66" y="-12" width="4.5" height="12"/><rect x="71.5" y="-10" width="4.5" height="10"/>
        <rect x="77" y="-15" width="4.5" height="15"/><rect x="82.5" y="-12" width="4.5" height="12"/>
      </g>
      <g fill="#0d7377" transform="translate(360,0)">
        <rect x="0" y="-22" width="4.5" height="22"/><rect x="5.5" y="-25" width="4.5" height="25"/>
        <rect x="11" y="-23" width="4.5" height="23"/><rect x="16.5" y="-26" width="4.5" height="26"/>
        <rect x="22" y="-22" width="4.5" height="22"/><rect x="27.5" y="-25" width="4.5" height="25"/>
        <rect x="33" y="-23" width="4.5" height="23"/><rect x="38.5" y="-26" width="4.5" height="26"/>
        <rect x="44" y="-22" width="4.5" height="22"/><rect x="49.5" y="-25" width="4.5" height="25"/>
        <rect x="55" y="-23" width="4.5" height="23"/><rect x="60.5" y="-26" width="4.5" height="26"/>
        <rect x="66" y="-22" width="4.5" height="22"/><rect x="71.5" y="-25" width="4.5" height="25"/>
        <rect x="77" y="-23" width="4.5" height="23"/><rect x="82.5" y="-26" width="4.5" height="26"/>
      </g>
      <g fill="#7c3aed" transform="translate(450,0)">
        <rect x="0" y="-12" width="4.5" height="12"/><rect x="5.5" y="-10" width="4.5" height="10"/>
        <rect x="11" y="-15" width="4.5" height="15"/><rect x="16.5" y="-12" width="4.5" height="12"/>
        <rect x="22" y="-10" width="4.5" height="10"/><rect x="27.5" y="-15" width="4.5" height="15"/>
        <rect x="33" y="-12" width="4.5" height="12"/><rect x="38.5" y="-10" width="4.5" height="10"/>
        <rect x="44" y="-15" width="4.5" height="15"/><rect x="49.5" y="-12" width="4.5" height="12"/>
        <rect x="55" y="-10" width="4.5" height="10"/><rect x="60.5" y="-15" width="4.5" height="15"/>
        <rect x="66" y="-12" width="4.5" height="12"/><rect x="71.5" y="-10" width="4.5" height="10"/>
        <rect x="77" y="-15" width="4.5" height="15"/><rect x="82.5" y="-12" width="4.5" height="12"/>
      </g>
    </g>
  </g>
</svg>
