<svg xmlns="http://www.w3.org/2000/svg" viewBox="0 0 1200 480" width="1200" height="480" font-family="Inter, sans-serif">
  <defs><style>text { font-family: Inter, sans-serif; } .mono { font-family: 'JetBrains Mono', monospace; font-size: 11px; }</style></defs>
  <rect width="1200" height="480" fill="#fafaf9" rx="6"/>
  <text x="600" y="28" text-anchor="middle" font-size="14" font-weight="600" fill="#111827">PAM vs BLOSUM — pick by expected homology distance</text>

  <!-- Horizontal axis -->
  <g transform="translate(80,400)">
    <line x1="0" y1="0" x2="1040" y2="0" stroke="#374151" stroke-width="1.5"/>
    <g font-size="10" fill="#6b7280" class="mono">
      <text x="0"    y="20" text-anchor="middle">100%</text>
      <text x="115"  y="20" text-anchor="middle">90%</text>
      <text x="231"  y="20" text-anchor="middle">80%</text>
      <text x="346"  y="20" text-anchor="middle">70%</text>
      <text x="462"  y="20" text-anchor="middle">60%</text>
      <text x="577"  y="20" text-anchor="middle">50%</text>
      <text x="693"  y="20" text-anchor="middle">40%</text>
      <text x="808"  y="20" text-anchor="middle">30%</text>
      <text x="924"  y="20" text-anchor="middle">20%</text>
      <text x="1040" y="20" text-anchor="middle">10%</text>
    </g>
    <text x="520" y="44" text-anchor="middle" font-size="11" fill="#525252">expected percent identity of homologs</text>
  </g>

  <!-- Tick marks -->
  <g stroke="#a8a29e">
    <line x1="80"   y1="395" x2="80"   y2="405"/>
    <line x1="195"  y1="395" x2="195"  y2="405"/>
    <line x1="311"  y1="395" x2="311"  y2="405"/>
    <line x1="426"  y1="395" x2="426"  y2="405"/>
    <line x1="542"  y1="395" x2="542"  y2="405"/>
    <line x1="657"  y1="395" x2="657"  y2="405"/>
    <line x1="773"  y1="395" x2="773"  y2="405"/>
    <line x1="888"  y1="395" x2="888"  y2="405"/>
    <line x1="1004" y1="395" x2="1004" y2="405"/>
    <line x1="1120" y1="395" x2="1120" y2="405"/>
  </g>

  <!-- Bars per matrix. Each bar spans the % range it's appropriate for. -->
  <!-- PAM30: 100% to 70%; PAM70: 90% to 60%; PAM250: 50% to 20% -->
  <!-- BLOSUM90: 100% to 70%; BLOSUM80: 90% to 65%; BLOSUM62: 70% to 30% (default); BLOSUM45: 50% to 15% -->

  <!-- PAM30 -->
  <g transform="translate(80,80)">
    <rect x="0" y="0" width="346" height="30" fill="#fde68a" stroke="#b45309" rx="3"/>
    <text x="14" y="20" font-size="12" font-weight="700" fill="#92400e" class="mono">PAM30</text>
    <text x="160" y="20" font-size="10" fill="#525252">100%–70%, very close homologs</text>
  </g>

  <!-- PAM70 -->
  <g transform="translate(80,120)">
    <rect x="58" y="0" width="463" height="30" fill="#fde68a" stroke="#b45309" rx="3"/>
    <text x="72" y="20" font-size="12" font-weight="700" fill="#92400e" class="mono">PAM70</text>
    <text x="280" y="20" font-size="10" fill="#525252">95%–55%, close-to-medium</text>
  </g>

  <!-- PAM250 (legacy default) -->
  <g transform="translate(80,160)">
    <rect x="463" y="0" width="577" height="30" fill="#fef3c7" stroke="#b45309" rx="3"/>
    <text x="477" y="20" font-size="12" font-weight="700" fill="#92400e" class="mono">PAM250</text>
    <text x="730" y="20" font-size="10" fill="#525252">50%–10%, distantly-related (legacy default)</text>
  </g>

  <!-- BLOSUM90 -->
  <g transform="translate(80,210)">
    <rect x="0" y="0" width="346" height="30" fill="#bfdbfe" stroke="#1e3a8a" rx="3"/>
    <text x="14" y="20" font-size="12" font-weight="700" fill="#1e3a8a" class="mono">BLOSUM90</text>
    <text x="180" y="20" font-size="10" fill="#525252">close homologs</text>
  </g>

  <!-- BLOSUM80 -->
  <g transform="translate(80,250)">
    <rect x="58" y="0" width="404" height="30" fill="#bfdbfe" stroke="#1e3a8a" rx="3"/>
    <text x="72" y="20" font-size="12" font-weight="700" fill="#1e3a8a" class="mono">BLOSUM80</text>
    <text x="280" y="20" font-size="10" fill="#525252">moderately close</text>
  </g>

  <!-- BLOSUM62 (default) -->
  <g transform="translate(80,290)">
    <rect x="231" y="0" width="635" height="30" fill="#3b82f6" stroke="#1e3a8a" rx="3"/>
    <text x="245" y="20" font-size="12" font-weight="700" fill="#fff" class="mono">BLOSUM62</text>
    <text x="546" y="20" font-size="10" fill="#fff">default — typical search range, 80%–25%</text>
  </g>

  <!-- BLOSUM45 -->
  <g transform="translate(80,330)">
    <rect x="462" y="0" width="578" height="30" fill="#bfdbfe" stroke="#1e3a8a" rx="3"/>
    <text x="476" y="20" font-size="12" font-weight="700" fill="#1e3a8a" class="mono">BLOSUM45</text>
    <text x="730" y="20" font-size="10" fill="#525252">distant homologs (50%–15%)</text>
  </g>

  <!-- Legend lowered y=440→462 so its glyph row at y≈443-453 no
       longer overlaps the X-axis caption "expected percent identity
       of homologs" at y=435-445. -->
  <g transform="translate(80,462)">
    <rect width="14" height="14" fill="#fde68a" stroke="#b45309"/>
    <text x="22" y="11" font-size="10" fill="#525252">PAM (extrapolated from close)</text>
    <rect x="220" width="14" height="14" fill="#bfdbfe" stroke="#1e3a8a"/>
    <text x="242" y="11" font-size="10" fill="#525252">BLOSUM (observed in distant blocks)</text>
    <rect x="500" width="14" height="14" fill="#3b82f6" stroke="#1e3a8a"/>
    <text x="522" y="11" font-size="10" fill="#525252">BLOSUM62 — universal default</text>
  </g>

  <!-- Annotation -->
  <text x="600" y="60" text-anchor="middle" font-size="11" fill="#525252">BLOSUM62 is the de-facto default; PAM250 is the legacy classical equivalent for distant searches.</text>
</svg>
