<svg xmlns="http://www.w3.org/2000/svg" viewBox="0 0 900 440" role="img" aria-labelledby="t d">
  <title id="t">Single-cell vs bulk — what the average hides</title>
  <desc id="d">A tissue composed of four distinct cell types is shown as a cluster of coloured circles. Bulk RNA-seq is shown producing a single averaged expression bar chart; single-cell RNA-seq is shown producing a cells-by-genes heatmap that reveals per-cell-type expression patterns invisible to the bulk average.</desc>

  <defs>
    <marker id="arr-01" viewBox="0 0 10 10" refX="9" refY="5" markerWidth="6" markerHeight="6" orient="auto">
      <path d="M 0 0 L 10 5 L 0 10 z" fill="#525252"/>
    </marker>
  </defs>

  <text x="450" y="28" text-anchor="middle" font-family="Inter, sans-serif" font-size="11" font-weight="600" fill="#1e3a8a" letter-spacing="0.12em">BULK HIDES COMPOSITION · SINGLE-CELL REVEALS IT</text>

  <!-- Band 1: Tissue with 4 cell types -->
  <text x="40" y="60" font-family="Inter, sans-serif" font-size="10" font-weight="600" fill="#525252" letter-spacing="0.08em">TISSUE · 4 CELL TYPES</text>

  <g>
    <rect x="40" y="72" width="240" height="100" rx="8" fill="#f4f3ee" stroke="#c4c1b6" stroke-width="1"/>
    <!-- Cell type A: red (45%) -->
    <g fill="#c4342c">
      <circle cx="60" cy="90" r="6"/><circle cx="80" cy="100" r="6"/><circle cx="100" cy="95" r="6"/>
      <circle cx="70" cy="115" r="6"/><circle cx="95" cy="125" r="6"/><circle cx="55" cy="130" r="6"/>
      <circle cx="115" cy="145" r="6"/><circle cx="75" cy="150" r="6"/><circle cx="105" cy="160" r="6"/>
      <circle cx="85" cy="80" r="6"/><circle cx="90" cy="162" r="6"/><circle cx="58" cy="155" r="6"/>
    </g>
    <!-- Cell type B: teal (30%) -->
    <g fill="#0d7377">
      <circle cx="140" cy="90" r="6"/><circle cx="160" cy="105" r="6"/><circle cx="180" cy="100" r="6"/>
      <circle cx="150" cy="120" r="6"/><circle cx="170" cy="130" r="6"/><circle cx="130" cy="115" r="6"/>
      <circle cx="155" cy="150" r="6"/><circle cx="175" cy="145" r="6"/>
    </g>
    <!-- Cell type C: amber (22%) -->
    <g fill="#b45309">
      <circle cx="210" cy="90" r="6"/><circle cx="230" cy="105" r="6"/>
      <circle cx="200" cy="125" r="6"/><circle cx="220" cy="135" r="6"/><circle cx="240" cy="120" r="6"/>
      <circle cx="215" cy="155" r="6"/>
    </g>
    <!-- Cell type D: violet rare (3%) -->
    <g fill="#7c3aed">
      <circle cx="260" cy="110" r="6"/>
    </g>
  </g>

  <!-- Legend -->
  <g transform="translate(40 195)">
    <g font-family="Inter, sans-serif" font-size="10" fill="#0a0a0a">
      <circle cx="5" cy="0" r="4" fill="#c4342c"/>
      <text x="14" y="4">type A · 45%</text>
      <circle cx="100" cy="0" r="4" fill="#0d7377"/>
      <text x="109" y="4">type B · 30%</text>
      <circle cx="195" cy="0" r="4" fill="#b45309"/>
      <text x="204" y="4">type C · 22%</text>
      <circle cx="290" cy="0" r="4" fill="#7c3aed"/>
      <text x="299" y="4">type D · 3% (rare)</text>
    </g>
  </g>

  <!-- Arrows: tissue → bulk (top) and tissue → single-cell (bottom) -->
  <line x1="290" y1="100" x2="340" y2="100" stroke="#525252" stroke-width="1.5" marker-end="url(#arr-01)"/>
  <text x="315" y="95" text-anchor="middle" font-family="Inter, sans-serif" font-size="9" fill="#525252" font-style="italic">bulk</text>

  <line x1="290" y1="145" x2="340" y2="270" stroke="#525252" stroke-width="1.5" marker-end="url(#arr-01)"/>
  <text x="303" y="220" font-family="Inter, sans-serif" font-size="9" fill="#525252" font-style="italic">single-cell</text>

  <!-- TOP RIGHT: Bulk result -->
  <g transform="translate(350 70)">
    <text x="0" y="0" font-family="Inter, sans-serif" font-size="10" font-weight="600" fill="#525252" letter-spacing="0.08em">BULK RNA-SEQ — ONE VALUE PER GENE</text>
    <rect x="0" y="10" width="520" height="100" rx="4" fill="#ebeae3" stroke="#c4c1b6"/>

    <!-- Bar chart of 5 genes averaged -->
    <g transform="translate(20 25)">
      <line x1="0" y1="75" x2="460" y2="75" stroke="#c4c1b6" stroke-width="1"/>
      <g fill="#525252">
        <rect x="20" y="35" width="60" height="40"/>
        <rect x="110" y="20" width="60" height="55"/>
        <rect x="200" y="45" width="60" height="30"/>
        <rect x="290" y="30" width="60" height="45"/>
        <rect x="380" y="50" width="60" height="25"/>
      </g>
      <g font-family="JetBrains Mono, monospace" font-size="9" fill="#8a8a85" text-anchor="middle">
        <text x="50" y="90">gene 1</text>
        <text x="140" y="90">gene 2</text>
        <text x="230" y="90">gene 3</text>
        <text x="320" y="90">gene 4</text>
        <text x="410" y="90">gene 5</text>
      </g>
    </g>
  </g>

  <!-- BOTTOM RIGHT: Single-cell heatmap -->
  <g transform="translate(350 265)">
    <text x="0" y="0" font-family="Inter, sans-serif" font-size="10" font-weight="600" fill="#525252" letter-spacing="0.08em">SINGLE-CELL RNA-SEQ — ONE VALUE PER CELL PER GENE</text>
    <rect x="0" y="10" width="520" height="160" rx="4" fill="#f4f3ee" stroke="#c4c1b6"/>

    <!-- Cell-type colour bar (rows) -->
    <g>
      <rect x="10" y="20" width="8" height="24" fill="#c4342c"/>
      <rect x="10" y="46" width="8" height="24" fill="#c4342c"/>
      <rect x="10" y="72" width="8" height="24" fill="#0d7377"/>
      <rect x="10" y="98" width="8" height="24" fill="#0d7377"/>
      <rect x="10" y="124" width="8" height="24" fill="#b45309"/>
      <rect x="10" y="150" width="8" height="12" fill="#7c3aed"/>
    </g>

    <!-- Heatmap cells: rows = 6 cell-type representatives, cols = 5 genes. Distinct expression patterns per type. -->
    <g>
      <!-- Row A1 (type A, red) -->
      <rect x="30" y="20" width="95" height="24" fill="#1e3a8a" opacity="0.8"/>
      <rect x="130" y="20" width="95" height="24" fill="#eef2ff"/>
      <rect x="230" y="20" width="95" height="24" fill="#eef2ff"/>
      <rect x="330" y="20" width="95" height="24" fill="#1e3a8a" opacity="0.6"/>
      <rect x="430" y="20" width="80" height="24" fill="#eef2ff"/>
      <!-- Row A2 (type A) -->
      <rect x="30" y="46" width="95" height="24" fill="#1e3a8a" opacity="0.7"/>
      <rect x="130" y="46" width="95" height="24" fill="#eef2ff"/>
      <rect x="230" y="46" width="95" height="24" fill="#eef2ff"/>
      <rect x="330" y="46" width="95" height="24" fill="#1e3a8a" opacity="0.5"/>
      <rect x="430" y="46" width="80" height="24" fill="#eef2ff"/>
      <!-- Row B1 (type B, teal) -->
      <rect x="30" y="72" width="95" height="24" fill="#eef2ff"/>
      <rect x="130" y="72" width="95" height="24" fill="#1e3a8a" opacity="0.9"/>
      <rect x="230" y="72" width="95" height="24" fill="#eef2ff"/>
      <rect x="330" y="72" width="95" height="24" fill="#eef2ff"/>
      <rect x="430" y="72" width="80" height="24" fill="#1e3a8a" opacity="0.7"/>
      <!-- Row B2 (type B) -->
      <rect x="30" y="98" width="95" height="24" fill="#eef2ff"/>
      <rect x="130" y="98" width="95" height="24" fill="#1e3a8a" opacity="0.8"/>
      <rect x="230" y="98" width="95" height="24" fill="#eef2ff"/>
      <rect x="330" y="98" width="95" height="24" fill="#eef2ff"/>
      <rect x="430" y="98" width="80" height="24" fill="#1e3a8a" opacity="0.8"/>
      <!-- Row C (type C, amber) -->
      <rect x="30" y="124" width="95" height="24" fill="#eef2ff"/>
      <rect x="130" y="124" width="95" height="24" fill="#eef2ff"/>
      <rect x="230" y="124" width="95" height="24" fill="#1e3a8a" opacity="0.85"/>
      <rect x="330" y="124" width="95" height="24" fill="#eef2ff"/>
      <rect x="430" y="124" width="80" height="24" fill="#eef2ff"/>
      <!-- Row D (rare, violet) -->
      <rect x="30" y="150" width="95" height="12" fill="#eef2ff"/>
      <rect x="130" y="150" width="95" height="12" fill="#eef2ff"/>
      <rect x="230" y="150" width="95" height="12" fill="#eef2ff"/>
      <rect x="330" y="150" width="95" height="12" fill="#eef2ff"/>
      <rect x="430" y="150" width="80" height="12" fill="#1e3a8a" opacity="0.95"/>
    </g>

    <!-- Gene labels (column headers) -->
    <g font-family="JetBrains Mono, monospace" font-size="8" fill="#8a8a85" text-anchor="middle">
      <text x="77" y="18">gene 1</text>
      <text x="177" y="18">gene 2</text>
      <text x="277" y="18">gene 3</text>
      <text x="377" y="18">gene 4</text>
      <text x="470" y="18">gene 5</text>
    </g>

    <!-- Annotation pointer to rare cell's unique expression -->
    <path d="M 490 156 L 516 156" stroke="#7c3aed" stroke-width="1"/>
    <text x="522" y="159" font-family="Inter, sans-serif" font-size="9" fill="#7c3aed" font-weight="600">rare cell's</text>
    <text x="522" y="170" font-family="Inter, sans-serif" font-size="9" fill="#7c3aed" font-weight="600">unique gene</text>
  </g>

  <!-- Caption at the very bottom -->
  <text x="450" y="425" text-anchor="middle" font-family="Inter, sans-serif" font-size="10" fill="#8a8a85" font-style="italic">The rare cell and its unique expression are invisible in the bulk average — one value per gene collapses everything.</text>
</svg>
