<svg xmlns="http://www.w3.org/2000/svg" viewBox="0 0 1080 440" width="1080" height="440" font-family="Inter, sans-serif">
  <defs>
    <style>
      text { font-family: Inter, sans-serif; }
      .mono { font-family: 'JetBrains Mono', monospace; font-size: 11px; }
      .math { font-family: 'Source Serif 4', serif; font-style: italic; }
    </style>
  </defs>

  <rect width="1080" height="440" fill="#fafaf9" rx="6"/>

  <!-- Title -->
  <text x="540" y="26" text-anchor="middle" font-size="14" font-weight="600" fill="#111827">PRS Portability Across Ancestries</text>
  <text x="540" y="42" text-anchor="middle" font-size="11" fill="#6b7280">PRS trained on UK-Biobank-style European GWAS — applied across ancestries</text>

  <!-- Divider -->
  <line x1="560" y1="55" x2="560" y2="400" stroke="#e5e7eb" stroke-width="1.5"/>

  <!-- ─── LEFT PANEL: Violin plots ─── -->
  <text x="270" y="65" text-anchor="middle" font-size="12" font-weight="600" fill="#374151">PRS Distribution per Ancestry</text>

  <!-- EUR violin -->
  <text x="120" y="98" text-anchor="middle" font-size="11" fill="#2563eb" font-weight="600">EUR</text>
  <text x="120" y="113" text-anchor="middle" font-size="9" fill="#6b7280">(training)</text>
  <!-- Violin shape: symmetric, widest at centre -->
  <path d="M 120 340 C 100 330 80 290 80 230 C 80 170 100 130 120 120 C 140 130 160 170 160 230 C 160 290 140 330 120 340 Z"
    fill="#bfdbfe" stroke="#2563eb" stroke-width="1.5" opacity="0.7"/>
  <!-- Median line -->
  <line x1="82" y1="230" x2="158" y2="230" stroke="#2563eb" stroke-width="2"/>
  <!-- IQR box -->
  <rect x="105" y="200" width="30" height="60" fill="#2563eb" opacity="0.3" rx="2"/>

  <!-- EAS violin -->
  <text x="270" y="98" text-anchor="middle" font-size="11" fill="#b45309" font-weight="600">EAS</text>
  <!-- Slightly narrower -->
  <path d="M 270 340 C 252 330 236 295 236 235 C 236 175 252 135 270 125 C 288 135 304 175 304 235 C 304 295 288 330 270 340 Z"
    fill="#fde68a" stroke="#b45309" stroke-width="1.5" opacity="0.7"/>
  <line x1="238" y1="235" x2="302" y2="235" stroke="#b45309" stroke-width="2"/>
  <rect x="255" y="205" width="30" height="60" fill="#b45309" opacity="0.3" rx="2"/>

  <!-- AFR violin -->
  <text x="420" y="98" text-anchor="middle" font-size="11" fill="#c4342c" font-weight="600">AFR</text>
  <!-- Narrower still -->
  <path d="M 420 340 C 404 332 390 298 390 238 C 390 178 404 140 420 130 C 436 140 450 178 450 238 C 450 298 436 332 420 340 Z"
    fill="#fecaca" stroke="#c4342c" stroke-width="1.5" opacity="0.7"/>
  <line x1="392" y1="238" x2="448" y2="238" stroke="#c4342c" stroke-width="2"/>
  <rect x="405" y="208" width="30" height="60" fill="#c4342c" opacity="0.3" rx="2"/>

  <!-- X axis label -->
  <text x="270" y="365" text-anchor="middle" font-size="11" fill="#374151" class="math">PRS value (standardised)</text>
  <line x1="75" y1="350" x2="465" y2="350" stroke="#374151" stroke-width="1"/>
  <text x="270" y="344" text-anchor="middle" font-size="9" fill="#9ca3af">← lower  |  0  |  higher →</text>

  <!-- R² annotations above each violin. Moved from y=355-375 (where
       the yellow box at x=235-305 overlapped the X-axis label
       "PRS value (standardised)" centred at x=270 in the same y row)
       up to y=68-88, between the section title at y=65 and the
       ancestry labels at y=98. -->
  <rect x="85" y="68" width="70" height="20" rx="3" fill="#dbeafe"/>
  <text x="120" y="82" text-anchor="middle" font-size="10" fill="#1d4ed8" font-weight="600">R² = 0.12</text>

  <rect x="235" y="68" width="70" height="20" rx="3" fill="#fef3c7"/>
  <text x="270" y="82" text-anchor="middle" font-size="10" fill="#b45309" font-weight="600">R² = 0.05</text>

  <rect x="385" y="68" width="70" height="20" rx="3" fill="#fef2f2"/>
  <text x="420" y="82" text-anchor="middle" font-size="10" fill="#c4342c" font-weight="600">R² = 0.03</text>

  <text x="270" y="395" text-anchor="middle" font-size="9" fill="#6b7280">PRS distribution similar; predictive power drops</text>

  <!-- ─── RIGHT PANEL: Bar chart ─── -->
  <text x="820" y="65" text-anchor="middle" font-size="12" font-weight="600" fill="#374151">R² of PRS vs Phenotype per Ancestry</text>

  <!-- Bar chart axes -->
  <line x1="600" y1="330" x2="1050" y2="330" stroke="#374151" stroke-width="1.5"/>
  <line x1="600" y1="100" x2="600" y2="335" stroke="#374151" stroke-width="1.5"/>

  <!-- Y axis ticks and labels -->
  <g font-size="9" fill="#6b7280">
    <line x1="594" y1="330" x2="600" y2="330" stroke="#374151"/>
    <text x="590" y="333" text-anchor="end">0</text>
    <line x1="594" y1="265" x2="600" y2="265" stroke="#374151"/>
    <text x="590" y="268" text-anchor="end">0.04</text>
    <line x1="594" y1="200" x2="600" y2="200" stroke="#374151"/>
    <text x="590" y="203" text-anchor="end">0.08</text>
    <line x1="594" y1="135" x2="600" y2="135" stroke="#374151"/>
    <text x="590" y="138" text-anchor="end">0.12</text>
    <line x1="594" y1="100" x2="600" y2="100" stroke="#374151"/>
    <text x="590" y="103" text-anchor="end">0.14</text>
  </g>

  <!-- Y axis grid -->
  <line x1="600" y1="265" x2="1050" y2="265" stroke="#f3f4f6" stroke-width="1"/>
  <line x1="600" y1="200" x2="1050" y2="200" stroke="#f3f4f6" stroke-width="1"/>
  <line x1="600" y1="135" x2="1050" y2="135" stroke="#f3f4f6" stroke-width="1"/>

  <!-- Y axis label -->
  <text x="555" y="215" text-anchor="middle" font-size="11" fill="#374151" transform="rotate(-90 555 215)">R² (PRS vs phenotype)</text>

  <!-- Scale: R²=0 → y=330; R²=0.14 → y=100; range=0.14 per 230px; 1 unit = 1642px -->
  <!-- EUR bar: R²=0.12 → height = 0.12*1642 = 197px; bar from y=330-197=133 to y=330 -->
  <rect x="640" y="133" width="80" height="197" fill="#2563eb" rx="3"/>
  <text x="680" y="120" text-anchor="middle" class="mono" font-size="12" fill="#1d4ed8">0.12</text>
  <text x="680" y="350" text-anchor="middle" font-size="11" fill="#2563eb" font-weight="600">EUR</text>
  <text x="680" y="363" text-anchor="middle" font-size="9" fill="#6b7280">training</text>

  <!-- EAS bar: R²=0.05 → height = 0.05*1642 = 82px; y=248 to 330 -->
  <rect x="780" y="248" width="80" height="82" fill="#b45309" rx="3"/>
  <text x="820" y="235" text-anchor="middle" class="mono" font-size="12" fill="#b45309">0.05</text>
  <text x="820" y="350" text-anchor="middle" font-size="11" fill="#b45309" font-weight="600">EAS</text>
  <text x="820" y="363" text-anchor="middle" font-size="9" fill="#6b7280">test</text>

  <!-- AFR bar: R²=0.03 → height = 0.03*1642 = 49px; y=281 to 330 -->
  <rect x="920" y="281" width="80" height="49" fill="#c4342c" rx="3"/>
  <text x="960" y="268" text-anchor="middle" class="mono" font-size="12" fill="#c4342c">0.03</text>
  <text x="960" y="350" text-anchor="middle" font-size="11" fill="#c4342c" font-weight="600">AFR</text>
  <text x="960" y="363" text-anchor="middle" font-size="9" fill="#6b7280">test</text>

  <!-- Baseline dashed -->
  <line x1="600" y1="330" x2="1050" y2="330" stroke="#374151" stroke-width="1" stroke-dasharray="4,3" opacity="0.5"/>

  <!-- Drop annotations -->
  <line x1="680" y1="133" x2="820" y2="248" stroke="#374151" stroke-width="1" stroke-dasharray="3,3" opacity="0.5"/>
  <line x1="680" y1="133" x2="960" y2="281" stroke="#374151" stroke-width="1" stroke-dasharray="3,3" opacity="0.5"/>

  <text x="750" y="180" text-anchor="middle" font-size="9" fill="#374151">−58%</text>
  <text x="820" y="200" text-anchor="middle" font-size="9" fill="#374151">−75%</text>

  <!-- Bottom caption -->
  <rect x="0" y="400" width="1080" height="40" fill="#f3f4f6"/>
  <rect x="0" y="400" width="1080" height="3" fill="#2563eb"/>
  <text x="540" y="418" text-anchor="middle" font-size="11" fill="#374151">PRS loses 4× (EAS) to 4× (AFR) predictive power. Dominant cause: different LD patterns in training vs test population. Remedy: train on diverse GWAS cohorts.</text>
</svg>
