<svg xmlns="http://www.w3.org/2000/svg" viewBox="0 0 1200 640" role="img" aria-labelledby="t d">
  <title id="t">Nested ladder of nucleotide substitution models</title>
  <desc id="d">A six-step ladder of nucleotide substitution models, from Jukes-Cantor at the bottom to GTR plus gamma plus invariant sites at the top. Each step adds parameters. Each panel shows the 4-by-4 rate matrix as a small grid with cells coloured by relative magnitude, and lists the free parameter count and the empirical use case. A footer table summarises the AIC ranking on a typical phylogenetic dataset.</desc>

  <rect x="0" y="0" width="1200" height="640" fill="#fafaf9"/>

  <!-- Header -->
  <text x="60" y="40" font-family="Inter, Helvetica Neue, sans-serif" font-size="13" font-weight="700" fill="#1e3a8a" letter-spacing="0.08em">NUCLEOTIDE SUBSTITUTION MODELS — A NESTED LADDER</text>
  <text x="60" y="60" font-family="Inter, Helvetica Neue, sans-serif" font-size="11" font-style="italic" fill="#525252">Each step adds free parameters. The AIC / BIC penalty trades fit against complexity; ModelFinder auto-picks the best for your data.</text>

  <!-- Ladder layout: 5 panels in a row, plus the +G+I addendum -->

  <!-- Each panel: rate matrix as 4x4 grid; parameters; equilibrium freq -->
  <!-- Cell base colors: base-a #c4342c, t #0d7377, g #b45309, c #2d7a3e -->

  <!-- PANEL 1: JC69 -->
  <g transform="translate(60, 100)">
    <text x="0" y="0" font-family="Inter, sans-serif" font-size="11" font-weight="700" fill="#1e3a8a" letter-spacing="0.06em">JC69 — JUKES &amp; CANTOR, 1969</text>
    <text x="0" y="16" font-family="Inter, sans-serif" font-size="10" fill="#525252">Equal rates, equal base frequencies.</text>

    <!-- 4x4 rate matrix -->
    <g transform="translate(0, 36)" font-family="JetBrains Mono, monospace" font-size="10">
      <!-- Column headers -->
      <text x="50" y="-4" text-anchor="middle" fill="#c4342c">A</text>
      <text x="80" y="-4" text-anchor="middle" fill="#0d7377">T</text>
      <text x="110" y="-4" text-anchor="middle" fill="#b45309">G</text>
      <text x="140" y="-4" text-anchor="middle" fill="#2d7a3e">C</text>
      <!-- Row headers -->
      <text x="22" y="20" text-anchor="end" fill="#c4342c">A</text>
      <text x="22" y="40" text-anchor="end" fill="#0d7377">T</text>
      <text x="22" y="60" text-anchor="end" fill="#b45309">G</text>
      <text x="22" y="80" text-anchor="end" fill="#2d7a3e">C</text>
      <!-- Cells -->
      <g>
        <rect x="35" y="6" width="30" height="20" fill="#ebeae3" stroke="#c4c1b6" stroke-width="0.5"/>
        <rect x="65" y="6" width="30" height="20" fill="#eef2ff" stroke="#c4c1b6" stroke-width="0.5"/>
        <rect x="95" y="6" width="30" height="20" fill="#eef2ff" stroke="#c4c1b6" stroke-width="0.5"/>
        <rect x="125" y="6" width="30" height="20" fill="#eef2ff" stroke="#c4c1b6" stroke-width="0.5"/>

        <rect x="35" y="26" width="30" height="20" fill="#eef2ff" stroke="#c4c1b6" stroke-width="0.5"/>
        <rect x="65" y="26" width="30" height="20" fill="#ebeae3" stroke="#c4c1b6" stroke-width="0.5"/>
        <rect x="95" y="26" width="30" height="20" fill="#eef2ff" stroke="#c4c1b6" stroke-width="0.5"/>
        <rect x="125" y="26" width="30" height="20" fill="#eef2ff" stroke="#c4c1b6" stroke-width="0.5"/>

        <rect x="35" y="46" width="30" height="20" fill="#eef2ff" stroke="#c4c1b6" stroke-width="0.5"/>
        <rect x="65" y="46" width="30" height="20" fill="#eef2ff" stroke="#c4c1b6" stroke-width="0.5"/>
        <rect x="95" y="46" width="30" height="20" fill="#ebeae3" stroke="#c4c1b6" stroke-width="0.5"/>
        <rect x="125" y="46" width="30" height="20" fill="#eef2ff" stroke="#c4c1b6" stroke-width="0.5"/>

        <rect x="35" y="66" width="30" height="20" fill="#eef2ff" stroke="#c4c1b6" stroke-width="0.5"/>
        <rect x="65" y="66" width="30" height="20" fill="#eef2ff" stroke="#c4c1b6" stroke-width="0.5"/>
        <rect x="95" y="66" width="30" height="20" fill="#eef2ff" stroke="#c4c1b6" stroke-width="0.5"/>
        <rect x="125" y="66" width="30" height="20" fill="#ebeae3" stroke="#c4c1b6" stroke-width="0.5"/>
      </g>
      <!-- Cell labels: all off-diagonals = α -->
      <text x="50" y="20" text-anchor="middle" fill="#374151">−</text>
      <text x="80" y="20" text-anchor="middle" fill="#1e3a8a">α</text>
      <text x="110" y="20" text-anchor="middle" fill="#1e3a8a">α</text>
      <text x="140" y="20" text-anchor="middle" fill="#1e3a8a">α</text>
      <text x="50" y="40" text-anchor="middle" fill="#1e3a8a">α</text>
      <text x="80" y="40" text-anchor="middle" fill="#374151">−</text>
      <text x="110" y="40" text-anchor="middle" fill="#1e3a8a">α</text>
      <text x="140" y="40" text-anchor="middle" fill="#1e3a8a">α</text>
      <text x="50" y="60" text-anchor="middle" fill="#1e3a8a">α</text>
      <text x="80" y="60" text-anchor="middle" fill="#1e3a8a">α</text>
      <text x="110" y="60" text-anchor="middle" fill="#374151">−</text>
      <text x="140" y="60" text-anchor="middle" fill="#1e3a8a">α</text>
      <text x="50" y="80" text-anchor="middle" fill="#1e3a8a">α</text>
      <text x="80" y="80" text-anchor="middle" fill="#1e3a8a">α</text>
      <text x="110" y="80" text-anchor="middle" fill="#1e3a8a">α</text>
      <text x="140" y="80" text-anchor="middle" fill="#374151">−</text>
    </g>

    <g transform="translate(0, 140)" font-family="Inter, sans-serif" font-size="9.5" fill="#374151">
      <text x="0" y="0" font-weight="600">free params: 1</text>
      <text x="0" y="14">π = (¼, ¼, ¼, ¼)</text>
      <text x="0" y="28" font-style="italic" fill="#525252">teaching, distance correction</text>
    </g>
  </g>

  <!-- PANEL 2: K80 -->
  <g transform="translate(260, 100)">
    <text x="0" y="0" font-family="Inter, sans-serif" font-size="11" font-weight="700" fill="#1e3a8a" letter-spacing="0.06em">K80 — KIMURA, 1980</text>
    <text x="0" y="16" font-family="Inter, sans-serif" font-size="10" fill="#525252">Transitions vs transversions, equal frequencies.</text>

    <g transform="translate(0, 36)" font-family="JetBrains Mono, monospace" font-size="10">
      <text x="50" y="-4" text-anchor="middle" fill="#c4342c">A</text>
      <text x="80" y="-4" text-anchor="middle" fill="#0d7377">T</text>
      <text x="110" y="-4" text-anchor="middle" fill="#b45309">G</text>
      <text x="140" y="-4" text-anchor="middle" fill="#2d7a3e">C</text>
      <text x="22" y="20" text-anchor="end" fill="#c4342c">A</text>
      <text x="22" y="40" text-anchor="end" fill="#0d7377">T</text>
      <text x="22" y="60" text-anchor="end" fill="#b45309">G</text>
      <text x="22" y="80" text-anchor="end" fill="#2d7a3e">C</text>

      <g>
        <rect x="35" y="6" width="30" height="20" fill="#ebeae3" stroke="#c4c1b6" stroke-width="0.5"/>
        <rect x="65" y="6" width="30" height="20" fill="#eef2ff" stroke="#c4c1b6" stroke-width="0.5"/>
        <rect x="95" y="6" width="30" height="20" fill="#dbe7f9" stroke="#c4c1b6" stroke-width="0.5"/>
        <rect x="125" y="6" width="30" height="20" fill="#eef2ff" stroke="#c4c1b6" stroke-width="0.5"/>

        <rect x="35" y="26" width="30" height="20" fill="#eef2ff" stroke="#c4c1b6" stroke-width="0.5"/>
        <rect x="65" y="26" width="30" height="20" fill="#ebeae3" stroke="#c4c1b6" stroke-width="0.5"/>
        <rect x="95" y="26" width="30" height="20" fill="#eef2ff" stroke="#c4c1b6" stroke-width="0.5"/>
        <rect x="125" y="26" width="30" height="20" fill="#dbe7f9" stroke="#c4c1b6" stroke-width="0.5"/>

        <rect x="35" y="46" width="30" height="20" fill="#dbe7f9" stroke="#c4c1b6" stroke-width="0.5"/>
        <rect x="65" y="46" width="30" height="20" fill="#eef2ff" stroke="#c4c1b6" stroke-width="0.5"/>
        <rect x="95" y="46" width="30" height="20" fill="#ebeae3" stroke="#c4c1b6" stroke-width="0.5"/>
        <rect x="125" y="46" width="30" height="20" fill="#eef2ff" stroke="#c4c1b6" stroke-width="0.5"/>

        <rect x="35" y="66" width="30" height="20" fill="#eef2ff" stroke="#c4c1b6" stroke-width="0.5"/>
        <rect x="65" y="66" width="30" height="20" fill="#dbe7f9" stroke="#c4c1b6" stroke-width="0.5"/>
        <rect x="95" y="66" width="30" height="20" fill="#eef2ff" stroke="#c4c1b6" stroke-width="0.5"/>
        <rect x="125" y="66" width="30" height="20" fill="#ebeae3" stroke="#c4c1b6" stroke-width="0.5"/>
      </g>
      <text x="50" y="20" text-anchor="middle" fill="#374151">−</text>
      <text x="80" y="20" text-anchor="middle" fill="#1e3a8a">β</text>
      <text x="110" y="20" text-anchor="middle" fill="#1e3a8a">α</text>
      <text x="140" y="20" text-anchor="middle" fill="#1e3a8a">β</text>
      <text x="50" y="40" text-anchor="middle" fill="#1e3a8a">β</text>
      <text x="80" y="40" text-anchor="middle" fill="#374151">−</text>
      <text x="110" y="40" text-anchor="middle" fill="#1e3a8a">β</text>
      <text x="140" y="40" text-anchor="middle" fill="#1e3a8a">α</text>
      <text x="50" y="60" text-anchor="middle" fill="#1e3a8a">α</text>
      <text x="80" y="60" text-anchor="middle" fill="#1e3a8a">β</text>
      <text x="110" y="60" text-anchor="middle" fill="#374151">−</text>
      <text x="140" y="60" text-anchor="middle" fill="#1e3a8a">β</text>
      <text x="50" y="80" text-anchor="middle" fill="#1e3a8a">β</text>
      <text x="80" y="80" text-anchor="middle" fill="#1e3a8a">α</text>
      <text x="110" y="80" text-anchor="middle" fill="#1e3a8a">β</text>
      <text x="140" y="80" text-anchor="middle" fill="#374151">−</text>
    </g>

    <g transform="translate(0, 140)" font-family="Inter, sans-serif" font-size="9.5" fill="#374151">
      <text x="0" y="0" font-weight="600">free params: 2</text>
      <text x="0" y="14">α (ts) ≠ β (tv); π uniform</text>
      <text x="0" y="28" font-style="italic" fill="#525252">small datasets</text>
    </g>
  </g>

  <!-- PANEL 3: F81 -->
  <g transform="translate(460, 100)">
    <text x="0" y="0" font-family="Inter, sans-serif" font-size="11" font-weight="700" fill="#1e3a8a" letter-spacing="0.06em">F81 — FELSENSTEIN, 1981</text>
    <text x="0" y="16" font-family="Inter, sans-serif" font-size="10" fill="#525252">Unequal base frequencies, equal rates.</text>

    <g transform="translate(0, 36)" font-family="JetBrains Mono, monospace" font-size="10">
      <text x="50" y="-4" text-anchor="middle" fill="#c4342c">A</text>
      <text x="80" y="-4" text-anchor="middle" fill="#0d7377">T</text>
      <text x="110" y="-4" text-anchor="middle" fill="#b45309">G</text>
      <text x="140" y="-4" text-anchor="middle" fill="#2d7a3e">C</text>
      <text x="22" y="20" text-anchor="end" fill="#c4342c">A</text>
      <text x="22" y="40" text-anchor="end" fill="#0d7377">T</text>
      <text x="22" y="60" text-anchor="end" fill="#b45309">G</text>
      <text x="22" y="80" text-anchor="end" fill="#2d7a3e">C</text>

      <g>
        <rect x="35" y="6" width="30" height="20" fill="#ebeae3" stroke="#c4c1b6" stroke-width="0.5"/>
        <rect x="65" y="6" width="30" height="20" fill="#eef2ff" stroke="#c4c1b6" stroke-width="0.5"/>
        <rect x="95" y="6" width="30" height="20" fill="#eef2ff" stroke="#c4c1b6" stroke-width="0.5"/>
        <rect x="125" y="6" width="30" height="20" fill="#eef2ff" stroke="#c4c1b6" stroke-width="0.5"/>

        <rect x="35" y="26" width="30" height="20" fill="#eef2ff" stroke="#c4c1b6" stroke-width="0.5"/>
        <rect x="65" y="26" width="30" height="20" fill="#ebeae3" stroke="#c4c1b6" stroke-width="0.5"/>
        <rect x="95" y="26" width="30" height="20" fill="#eef2ff" stroke="#c4c1b6" stroke-width="0.5"/>
        <rect x="125" y="26" width="30" height="20" fill="#eef2ff" stroke="#c4c1b6" stroke-width="0.5"/>

        <rect x="35" y="46" width="30" height="20" fill="#eef2ff" stroke="#c4c1b6" stroke-width="0.5"/>
        <rect x="65" y="46" width="30" height="20" fill="#eef2ff" stroke="#c4c1b6" stroke-width="0.5"/>
        <rect x="95" y="46" width="30" height="20" fill="#ebeae3" stroke="#c4c1b6" stroke-width="0.5"/>
        <rect x="125" y="46" width="30" height="20" fill="#eef2ff" stroke="#c4c1b6" stroke-width="0.5"/>

        <rect x="35" y="66" width="30" height="20" fill="#eef2ff" stroke="#c4c1b6" stroke-width="0.5"/>
        <rect x="65" y="66" width="30" height="20" fill="#eef2ff" stroke="#c4c1b6" stroke-width="0.5"/>
        <rect x="95" y="66" width="30" height="20" fill="#eef2ff" stroke="#c4c1b6" stroke-width="0.5"/>
        <rect x="125" y="66" width="30" height="20" fill="#ebeae3" stroke="#c4c1b6" stroke-width="0.5"/>
      </g>
      <text x="50" y="20" text-anchor="middle" fill="#374151">−</text>
      <text x="80" y="20" text-anchor="middle" fill="#1e3a8a">π_T</text>
      <text x="110" y="20" text-anchor="middle" fill="#1e3a8a">π_G</text>
      <text x="140" y="20" text-anchor="middle" fill="#1e3a8a">π_C</text>
      <text x="50" y="40" text-anchor="middle" fill="#1e3a8a">π_A</text>
      <text x="80" y="40" text-anchor="middle" fill="#374151">−</text>
      <text x="110" y="40" text-anchor="middle" fill="#1e3a8a">π_G</text>
      <text x="140" y="40" text-anchor="middle" fill="#1e3a8a">π_C</text>
      <text x="50" y="60" text-anchor="middle" fill="#1e3a8a">π_A</text>
      <text x="80" y="60" text-anchor="middle" fill="#1e3a8a">π_T</text>
      <text x="110" y="60" text-anchor="middle" fill="#374151">−</text>
      <text x="140" y="60" text-anchor="middle" fill="#1e3a8a">π_C</text>
      <text x="50" y="80" text-anchor="middle" fill="#1e3a8a">π_A</text>
      <text x="80" y="80" text-anchor="middle" fill="#1e3a8a">π_T</text>
      <text x="110" y="80" text-anchor="middle" fill="#1e3a8a">π_G</text>
      <text x="140" y="80" text-anchor="middle" fill="#374151">−</text>
    </g>

    <g transform="translate(0, 140)" font-family="Inter, sans-serif" font-size="9.5" fill="#374151">
      <text x="0" y="0" font-weight="600">free params: 3</text>
      <text x="0" y="14">π_A, π_T, π_G, π_C  (sum = 1)</text>
      <text x="0" y="28" font-style="italic" fill="#525252">biased-composition data</text>
    </g>
  </g>

  <!-- PANEL 4: HKY85 -->
  <g transform="translate(660, 100)">
    <text x="0" y="0" font-family="Inter, sans-serif" font-size="11" font-weight="700" fill="#1e3a8a" letter-spacing="0.06em">HKY85 — HASEGAWA et al., 1985</text>
    <text x="0" y="16" font-family="Inter, sans-serif" font-size="10" fill="#525252">Ts ≠ Tv, unequal base frequencies.</text>

    <g transform="translate(0, 36)" font-family="JetBrains Mono, monospace" font-size="10">
      <text x="50" y="-4" text-anchor="middle" fill="#c4342c">A</text>
      <text x="80" y="-4" text-anchor="middle" fill="#0d7377">T</text>
      <text x="110" y="-4" text-anchor="middle" fill="#b45309">G</text>
      <text x="140" y="-4" text-anchor="middle" fill="#2d7a3e">C</text>
      <text x="22" y="20" text-anchor="end" fill="#c4342c">A</text>
      <text x="22" y="40" text-anchor="end" fill="#0d7377">T</text>
      <text x="22" y="60" text-anchor="end" fill="#b45309">G</text>
      <text x="22" y="80" text-anchor="end" fill="#2d7a3e">C</text>

      <g>
        <rect x="35" y="6" width="30" height="20" fill="#ebeae3" stroke="#c4c1b6" stroke-width="0.5"/>
        <rect x="65" y="6" width="30" height="20" fill="#eef2ff" stroke="#c4c1b6" stroke-width="0.5"/>
        <rect x="95" y="6" width="30" height="20" fill="#dbe7f9" stroke="#c4c1b6" stroke-width="0.5"/>
        <rect x="125" y="6" width="30" height="20" fill="#eef2ff" stroke="#c4c1b6" stroke-width="0.5"/>

        <rect x="35" y="26" width="30" height="20" fill="#eef2ff" stroke="#c4c1b6" stroke-width="0.5"/>
        <rect x="65" y="26" width="30" height="20" fill="#ebeae3" stroke="#c4c1b6" stroke-width="0.5"/>
        <rect x="95" y="26" width="30" height="20" fill="#eef2ff" stroke="#c4c1b6" stroke-width="0.5"/>
        <rect x="125" y="26" width="30" height="20" fill="#dbe7f9" stroke="#c4c1b6" stroke-width="0.5"/>

        <rect x="35" y="46" width="30" height="20" fill="#dbe7f9" stroke="#c4c1b6" stroke-width="0.5"/>
        <rect x="65" y="46" width="30" height="20" fill="#eef2ff" stroke="#c4c1b6" stroke-width="0.5"/>
        <rect x="95" y="46" width="30" height="20" fill="#ebeae3" stroke="#c4c1b6" stroke-width="0.5"/>
        <rect x="125" y="46" width="30" height="20" fill="#eef2ff" stroke="#c4c1b6" stroke-width="0.5"/>

        <rect x="35" y="66" width="30" height="20" fill="#eef2ff" stroke="#c4c1b6" stroke-width="0.5"/>
        <rect x="65" y="66" width="30" height="20" fill="#dbe7f9" stroke="#c4c1b6" stroke-width="0.5"/>
        <rect x="95" y="66" width="30" height="20" fill="#eef2ff" stroke="#c4c1b6" stroke-width="0.5"/>
        <rect x="125" y="66" width="30" height="20" fill="#ebeae3" stroke="#c4c1b6" stroke-width="0.5"/>
      </g>
      <text x="50" y="20" text-anchor="middle" fill="#374151">−</text>
      <text x="80" y="20" text-anchor="middle" fill="#1e3a8a" font-size="8">βπ_T</text>
      <text x="110" y="20" text-anchor="middle" fill="#1e3a8a" font-size="8">απ_G</text>
      <text x="140" y="20" text-anchor="middle" fill="#1e3a8a" font-size="8">βπ_C</text>
      <text x="50" y="40" text-anchor="middle" fill="#1e3a8a" font-size="8">βπ_A</text>
      <text x="80" y="40" text-anchor="middle" fill="#374151">−</text>
      <text x="110" y="40" text-anchor="middle" fill="#1e3a8a" font-size="8">βπ_G</text>
      <text x="140" y="40" text-anchor="middle" fill="#1e3a8a" font-size="8">απ_C</text>
      <text x="50" y="60" text-anchor="middle" fill="#1e3a8a" font-size="8">απ_A</text>
      <text x="80" y="60" text-anchor="middle" fill="#1e3a8a" font-size="8">βπ_T</text>
      <text x="110" y="60" text-anchor="middle" fill="#374151">−</text>
      <text x="140" y="60" text-anchor="middle" fill="#1e3a8a" font-size="8">βπ_C</text>
      <text x="50" y="80" text-anchor="middle" fill="#1e3a8a" font-size="8">βπ_A</text>
      <text x="80" y="80" text-anchor="middle" fill="#1e3a8a" font-size="8">απ_T</text>
      <text x="110" y="80" text-anchor="middle" fill="#1e3a8a" font-size="8">βπ_G</text>
      <text x="140" y="80" text-anchor="middle" fill="#374151">−</text>
    </g>

    <g transform="translate(0, 140)" font-family="Inter, sans-serif" font-size="9.5" fill="#374151">
      <text x="0" y="0" font-weight="600">free params: 4</text>
      <text x="0" y="14">α, β, three π</text>
      <text x="0" y="28" font-style="italic" fill="#525252">good compromise</text>
    </g>
  </g>

  <!-- PANEL 5: GTR -->
  <g transform="translate(870, 100)">
    <text x="0" y="0" font-family="Inter, sans-serif" font-size="11" font-weight="700" fill="#1e3a8a" letter-spacing="0.06em">GTR — GENERAL TIME-REVERSIBLE</text>
    <text x="0" y="16" font-family="Inter, sans-serif" font-size="10" fill="#525252">All six off-diagonals free under detailed balance.</text>

    <g transform="translate(0, 36)" font-family="JetBrains Mono, monospace" font-size="10">
      <text x="50" y="-4" text-anchor="middle" fill="#c4342c">A</text>
      <text x="80" y="-4" text-anchor="middle" fill="#0d7377">T</text>
      <text x="110" y="-4" text-anchor="middle" fill="#b45309">G</text>
      <text x="140" y="-4" text-anchor="middle" fill="#2d7a3e">C</text>
      <text x="22" y="20" text-anchor="end" fill="#c4342c">A</text>
      <text x="22" y="40" text-anchor="end" fill="#0d7377">T</text>
      <text x="22" y="60" text-anchor="end" fill="#b45309">G</text>
      <text x="22" y="80" text-anchor="end" fill="#2d7a3e">C</text>

      <g>
        <rect x="35" y="6" width="30" height="20" fill="#ebeae3" stroke="#c4c1b6" stroke-width="0.5"/>
        <rect x="65" y="6" width="30" height="20" fill="#eef2ff" stroke="#c4c1b6" stroke-width="0.5"/>
        <rect x="95" y="6" width="30" height="20" fill="#c0d4ee" stroke="#c4c1b6" stroke-width="0.5"/>
        <rect x="125" y="6" width="30" height="20" fill="#eef2ff" stroke="#c4c1b6" stroke-width="0.5"/>

        <rect x="35" y="26" width="30" height="20" fill="#eef2ff" stroke="#c4c1b6" stroke-width="0.5"/>
        <rect x="65" y="26" width="30" height="20" fill="#ebeae3" stroke="#c4c1b6" stroke-width="0.5"/>
        <rect x="95" y="26" width="30" height="20" fill="#dbe7f9" stroke="#c4c1b6" stroke-width="0.5"/>
        <rect x="125" y="26" width="30" height="20" fill="#c0d4ee" stroke="#c4c1b6" stroke-width="0.5"/>

        <rect x="35" y="46" width="30" height="20" fill="#c0d4ee" stroke="#c4c1b6" stroke-width="0.5"/>
        <rect x="65" y="46" width="30" height="20" fill="#dbe7f9" stroke="#c4c1b6" stroke-width="0.5"/>
        <rect x="95" y="46" width="30" height="20" fill="#ebeae3" stroke="#c4c1b6" stroke-width="0.5"/>
        <rect x="125" y="46" width="30" height="20" fill="#eef2ff" stroke="#c4c1b6" stroke-width="0.5"/>

        <rect x="35" y="66" width="30" height="20" fill="#eef2ff" stroke="#c4c1b6" stroke-width="0.5"/>
        <rect x="65" y="66" width="30" height="20" fill="#c0d4ee" stroke="#c4c1b6" stroke-width="0.5"/>
        <rect x="95" y="66" width="30" height="20" fill="#eef2ff" stroke="#c4c1b6" stroke-width="0.5"/>
        <rect x="125" y="66" width="30" height="20" fill="#ebeae3" stroke="#c4c1b6" stroke-width="0.5"/>
      </g>
      <text x="50" y="20" text-anchor="middle" fill="#374151">−</text>
      <text x="80" y="20" text-anchor="middle" fill="#1e3a8a" font-size="8">aπ_T</text>
      <text x="110" y="20" text-anchor="middle" fill="#1e3a8a" font-size="8">bπ_G</text>
      <text x="140" y="20" text-anchor="middle" fill="#1e3a8a" font-size="8">cπ_C</text>
      <text x="50" y="40" text-anchor="middle" fill="#1e3a8a" font-size="8">aπ_A</text>
      <text x="80" y="40" text-anchor="middle" fill="#374151">−</text>
      <text x="110" y="40" text-anchor="middle" fill="#1e3a8a" font-size="8">dπ_G</text>
      <text x="140" y="40" text-anchor="middle" fill="#1e3a8a" font-size="8">eπ_C</text>
      <text x="50" y="60" text-anchor="middle" fill="#1e3a8a" font-size="8">bπ_A</text>
      <text x="80" y="60" text-anchor="middle" fill="#1e3a8a" font-size="8">dπ_T</text>
      <text x="110" y="60" text-anchor="middle" fill="#374151">−</text>
      <text x="140" y="60" text-anchor="middle" fill="#1e3a8a" font-size="8">fπ_C</text>
      <text x="50" y="80" text-anchor="middle" fill="#1e3a8a" font-size="8">cπ_A</text>
      <text x="80" y="80" text-anchor="middle" fill="#1e3a8a" font-size="8">eπ_T</text>
      <text x="110" y="80" text-anchor="middle" fill="#1e3a8a" font-size="8">fπ_G</text>
      <text x="140" y="80" text-anchor="middle" fill="#374151">−</text>
    </g>

    <g transform="translate(0, 140)" font-family="Inter, sans-serif" font-size="9.5" fill="#374151">
      <text x="0" y="0" font-weight="600">free params: 8</text>
      <text x="0" y="14">six rates a..f, three π</text>
      <text x="0" y="28" font-style="italic" fill="#525252">modern default for nt data</text>
    </g>
  </g>

  <!-- Nesting / arrows -->
  <g transform="translate(60, 290)">
    <text x="0" y="0" font-family="Inter, sans-serif" font-size="11" font-weight="700" fill="#1e3a8a" letter-spacing="0.06em">NESTING</text>
    <text x="0" y="16" font-family="Inter, sans-serif" font-size="10" fill="#525252">Each model to the right contains every model to its left as a special case (equal-parameter restriction).</text>

    <!-- arrow chain -->
    <defs>
      <marker id="arrow-cobalt" viewBox="0 0 10 10" refX="9" refY="5"
              markerWidth="7" markerHeight="7" orient="auto-start-reverse">
        <path d="M 0 0 L 10 5 L 0 10 z" fill="#1e3a8a"/>
      </marker>
    </defs>
    <g stroke="#1e3a8a" stroke-width="1.5" fill="none">
      <line x1="50" y1="40" x2="190" y2="40" marker-end="url(#arrow-cobalt)"/>
      <line x1="250" y1="40" x2="390" y2="40" marker-end="url(#arrow-cobalt)"/>
      <line x1="450" y1="40" x2="590" y2="40" marker-end="url(#arrow-cobalt)"/>
      <line x1="650" y1="40" x2="790" y2="40" marker-end="url(#arrow-cobalt)"/>
      <line x1="850" y1="40" x2="990" y2="40" marker-end="url(#arrow-cobalt)"/>
    </g>

    <g font-family="Inter, sans-serif" font-size="10" fill="#374151" font-weight="500">
      <text x="20" y="44">JC69</text>
      <text x="120" y="32" text-anchor="middle" font-size="9" fill="#525252">+ ts/tv split</text>
      <text x="220" y="44">K80</text>
      <text x="320" y="32" text-anchor="middle" font-size="9" fill="#525252">drop α≠β</text>
      <text x="420" y="44">F81</text>
      <text x="520" y="32" text-anchor="middle" font-size="9" fill="#525252">+ ts/tv split</text>
      <text x="620" y="44">HKY85</text>
      <text x="720" y="32" text-anchor="middle" font-size="9" fill="#525252">+ free rates</text>
      <text x="820" y="44">GTR</text>
      <text x="920" y="32" text-anchor="middle" font-size="9" fill="#525252">+ rate variation</text>
      <text x="1020" y="44">GTR+G+I</text>
    </g>
  </g>

  <!-- +G+I addendum -->
  <g transform="translate(60, 380)">
    <text x="0" y="0" font-family="Inter, sans-serif" font-size="11" font-weight="700" fill="#1e3a8a" letter-spacing="0.06em">+G — GAMMA SITE-RATE HETEROGENEITY</text>
    <text x="0" y="16" font-family="Inter, sans-serif" font-size="10" fill="#525252">Per-site rate ~ Gamma(α, α); usually discretised into 4 categories. Small α = strong heterogeneity.</text>

    <!-- Gamma plot -->
    <g transform="translate(0, 30)">
      <rect x="0" y="0" width="280" height="120" fill="#fafaf9" stroke="#c4c1b6" stroke-width="0.5"/>
      <line x1="0" y1="120" x2="280" y2="120" stroke="#374151" stroke-width="1"/>
      <line x1="0" y1="0" x2="0" y2="120" stroke="#374151" stroke-width="1"/>
      <!-- α=0.5 curve: peaky low -->
      <path d="M 0 0 Q 30 100 60 105 T 120 115 T 280 119"
            fill="none" stroke="#dc2626" stroke-width="2"/>
      <!-- α=1 -->
      <path d="M 0 50 Q 50 80 100 95 T 200 113 T 280 118"
            fill="none" stroke="#b45309" stroke-width="2"/>
      <!-- α=5 (near-uniform) -->
      <path d="M 0 110 Q 50 80 100 70 T 200 90 T 280 110"
            fill="none" stroke="#065f46" stroke-width="2"/>
      <text x="284" y="6" font-family="Inter, sans-serif" font-size="9" fill="#dc2626">α=0.5</text>
      <text x="284" y="60" font-family="Inter, sans-serif" font-size="9" fill="#b45309">α=1</text>
      <text x="284" y="100" font-family="Inter, sans-serif" font-size="9" fill="#065f46">α=5</text>
      <text x="140" y="138" font-family="Inter, sans-serif" font-size="9" fill="#525252" text-anchor="middle">per-site rate</text>
    </g>
  </g>

  <g transform="translate(420, 380)">
    <text x="0" y="0" font-family="Inter, sans-serif" font-size="11" font-weight="700" fill="#1e3a8a" letter-spacing="0.06em">+I — INVARIANT SITES</text>
    <text x="0" y="16" font-family="Inter, sans-serif" font-size="10" fill="#525252">A fraction p_inv of positions are frozen by selection (rate = 0). Captures conserved active sites and rRNA stems.</text>

    <g transform="translate(0, 30)" font-family="JetBrains Mono, monospace" font-size="11">
      <!-- visualise 20 sites as boxes; 6 frozen -->
      <g>
        <rect x="0"  y="0" width="22" height="22" fill="#ebeae3" stroke="#c4c1b6" stroke-width="0.5"/><text x="11" y="16" text-anchor="middle" fill="#374151">A</text>
        <rect x="24" y="0" width="22" height="22" fill="#ebeae3" stroke="#c4c1b6" stroke-width="0.5"/><text x="35" y="16" text-anchor="middle" fill="#374151">G</text>
        <rect x="48" y="0" width="22" height="22" fill="#1e3a8a" opacity="0.18" stroke="#1e3a8a" stroke-width="1"/><text x="59" y="16" text-anchor="middle" fill="#1e3a8a" font-weight="700">H</text>
        <rect x="72" y="0" width="22" height="22" fill="#ebeae3" stroke="#c4c1b6" stroke-width="0.5"/><text x="83" y="16" text-anchor="middle" fill="#374151">T</text>
        <rect x="96" y="0" width="22" height="22" fill="#ebeae3" stroke="#c4c1b6" stroke-width="0.5"/><text x="107" y="16" text-anchor="middle" fill="#374151">G</text>
        <rect x="120" y="0" width="22" height="22" fill="#1e3a8a" opacity="0.18" stroke="#1e3a8a" stroke-width="1"/><text x="131" y="16" text-anchor="middle" fill="#1e3a8a" font-weight="700">H</text>
        <rect x="144" y="0" width="22" height="22" fill="#ebeae3" stroke="#c4c1b6" stroke-width="0.5"/><text x="155" y="16" text-anchor="middle" fill="#374151">C</text>
        <rect x="168" y="0" width="22" height="22" fill="#ebeae3" stroke="#c4c1b6" stroke-width="0.5"/><text x="179" y="16" text-anchor="middle" fill="#374151">T</text>
        <rect x="192" y="0" width="22" height="22" fill="#1e3a8a" opacity="0.18" stroke="#1e3a8a" stroke-width="1"/><text x="203" y="16" text-anchor="middle" fill="#1e3a8a" font-weight="700">H</text>
        <rect x="216" y="0" width="22" height="22" fill="#ebeae3" stroke="#c4c1b6" stroke-width="0.5"/><text x="227" y="16" text-anchor="middle" fill="#374151">A</text>
        <rect x="240" y="0" width="22" height="22" fill="#ebeae3" stroke="#c4c1b6" stroke-width="0.5"/><text x="251" y="16" text-anchor="middle" fill="#374151">G</text>
        <rect x="264" y="0" width="22" height="22" fill="#1e3a8a" opacity="0.18" stroke="#1e3a8a" stroke-width="1"/><text x="275" y="16" text-anchor="middle" fill="#1e3a8a" font-weight="700">H</text>
      </g>
      <g font-family="Inter, sans-serif" font-size="9" fill="#525252">
        <text x="0" y="40">unconstrained — rate &gt; 0</text>
        <text x="0" y="54" fill="#1e3a8a">invariant (H) — rate = 0</text>
      </g>
    </g>
  </g>

  <!-- AIC ranking table -->
  <g transform="translate(770, 380)">
    <text x="0" y="0" font-family="Inter, sans-serif" font-size="11" font-weight="700" fill="#1e3a8a" letter-spacing="0.06em">TYPICAL MODELFINDER RANKING</text>
    <text x="0" y="16" font-family="Inter, sans-serif" font-size="10" fill="#525252">Vertebrate cytochrome-b, 50 species, 1140 sites. AIC, lower is better.</text>

    <rect x="0" y="30" width="370" height="160" fill="#f4f3ee" stroke="#c4c1b6" stroke-width="0.5"/>
    <g font-family="Inter, sans-serif" font-size="10" fill="#374151">
      <text x="14" y="50" font-weight="700">model</text>
      <text x="200" y="50" font-weight="700">parameters</text>
      <text x="320" y="50" font-weight="700">ΔAIC</text>
      <line x1="14" y1="58" x2="356" y2="58" stroke="#e5e3dc" stroke-width="0.5"/>

      <text x="14" y="74">GTR+G+I</text>
      <text x="200" y="74" font-family="JetBrains Mono, monospace">10</text>
      <text x="320" y="74" font-family="JetBrains Mono, monospace" fill="#065f46" font-weight="700">0.0</text>

      <text x="14" y="92">GTR+G</text>
      <text x="200" y="92" font-family="JetBrains Mono, monospace">9</text>
      <text x="320" y="92" font-family="JetBrains Mono, monospace">+1.4</text>

      <text x="14" y="110">HKY+G+I</text>
      <text x="200" y="110" font-family="JetBrains Mono, monospace">6</text>
      <text x="320" y="110" font-family="JetBrains Mono, monospace">+18</text>

      <text x="14" y="128">K80+G</text>
      <text x="200" y="128" font-family="JetBrains Mono, monospace">3</text>
      <text x="320" y="128" font-family="JetBrains Mono, monospace">+94</text>

      <text x="14" y="146">F81</text>
      <text x="200" y="146" font-family="JetBrains Mono, monospace">3</text>
      <text x="320" y="146" font-family="JetBrains Mono, monospace">+312</text>

      <text x="14" y="164">JC69</text>
      <text x="200" y="164" font-family="JetBrains Mono, monospace">1</text>
      <text x="320" y="164" font-family="JetBrains Mono, monospace" fill="#dc2626">+428</text>

      <text x="14" y="184" font-style="italic" font-size="9" fill="#525252">representative values; real ΔAIC depends on the data.</text>
    </g>
  </g>

  <text x="60" y="624" font-family="Inter, sans-serif" font-size="9" font-style="italic" fill="#8a8a85">Detailed-balance constraint reduces 12 directed off-diagonals to 6 symmetric rates; equilibrium frequencies sum to 1 (3 free parameters).</text>
</svg>
