<svg xmlns="http://www.w3.org/2000/svg" viewBox="0 0 1200 600" width="1200" height="600" font-family="Inter, sans-serif">
  <defs><style>text { font-family: Inter, sans-serif; } .mono { font-family: 'JetBrains Mono', monospace; font-size: 10px; }</style></defs>
  <rect width="1200" height="600" fill="#fafaf9" rx="6"/>
  <text x="600" y="28" text-anchor="middle" font-size="14" font-weight="600" fill="#111827">Molecular clock dating: branch lengths × calibration → absolute dates</text>

  <!-- Time axis at bottom -->
  <g transform="translate(120,440)">
    <line x1="0" y1="0" x2="900" y2="0" stroke="#374151" stroke-width="1.5"/>
    <g font-size="10" fill="#525252" class="mono">
      <text x="0" y="20" text-anchor="middle">100</text>
      <text x="180" y="20" text-anchor="middle">80</text>
      <text x="360" y="20" text-anchor="middle">60</text>
      <text x="540" y="20" text-anchor="middle">40</text>
      <text x="720" y="20" text-anchor="middle">20</text>
      <text x="900" y="20" text-anchor="middle">0</text>
    </g>
    <text x="450" y="40" text-anchor="middle" font-size="11" fill="#525252">Million years ago</text>
    <!-- Tick marks -->
    <g stroke="#9ca3af">
      <line x1="0" y1="-4" x2="0" y2="4"/>
      <line x1="180" y1="-4" x2="180" y2="4"/>
      <line x1="360" y1="-4" x2="360" y2="4"/>
      <line x1="540" y1="-4" x2="540" y2="4"/>
      <line x1="720" y1="-4" x2="720" y2="4"/>
      <line x1="900" y1="-4" x2="900" y2="4"/>
    </g>
  </g>

  <!-- Tree drawn left-to-right with x = time -->
  <!-- Root at x=0 (100 Mya), tips at x=900 (present) -->
  <!-- Internal nodes: dog-(rest) at 90 Mya x=90, mouse-rat-(human-chimp) at 75 Mya x=225, human-chimp at 6 Mya x=846 -->
  <!-- Wait, mouse-rat split is at 25 Mya x=675, human-chimp at 6 Mya x=846 -->

  <g transform="translate(120,80)" stroke="#1e3a8a" stroke-width="2" fill="none">
    <!-- Backbone -->
    <line x1="0" y1="180" x2="90" y2="180"/>
    <line x1="90" y1="60" x2="90" y2="300"/>
    <!-- Dog branch -->
    <line x1="90" y1="60" x2="900" y2="60"/>
    <!-- Rest backbone -->
    <line x1="90" y1="300" x2="225" y2="300"/>
    <line x1="225" y1="200" x2="225" y2="320"/>
    <!-- mouse/rat clade -->
    <line x1="225" y1="320" x2="675" y2="320"/>
    <line x1="675" y1="280" x2="675" y2="360"/>
    <line x1="675" y1="280" x2="900" y2="280"/>
    <line x1="675" y1="360" x2="900" y2="360"/>
    <!-- human/chimp clade -->
    <line x1="225" y1="200" x2="846" y2="200"/>
    <line x1="846" y1="160" x2="846" y2="240"/>
    <line x1="846" y1="160" x2="900" y2="160"/>
    <line x1="846" y1="240" x2="900" y2="240"/>
  </g>

  <!-- Tip labels -->
  <g transform="translate(120,80)" font-size="11" fill="#374151" font-weight="600">
    <text x="908" y="64">Dog</text>
    <text x="908" y="164">Human</text>
    <text x="908" y="244">Chimpanzee</text>
    <text x="908" y="284">Mouse</text>
    <text x="908" y="364">Rat</text>
  </g>

  <!-- Internal node circles -->
  <g transform="translate(120,80)">
    <circle cx="90" cy="180" r="5" fill="#1e3a8a"/>
    <circle cx="225" cy="260" r="5" fill="#1e3a8a"/>
    <circle cx="675" cy="320" r="5" fill="#1e3a8a"/>
    <circle cx="846" cy="200" r="6" fill="#b45309" stroke="#7c2d12" stroke-width="1.5"/>
  </g>

  <!-- Calibration callout for chimp-human at 6 Mya — moved above tree (was below at
       y≈455-495 abs, where the green wrap-up banner at y=480-560 hid it). -->
  <g transform="translate(120,80)">
    <line x1="846" y1="200" x2="846" y2="45" stroke="#b45309" stroke-width="1" stroke-dasharray="4 3"/>
    <g transform="translate(740,5)">
      <rect width="220" height="40" fill="#fef3c7" stroke="#b45309" rx="3"/>
      <text x="110" y="16" text-anchor="middle" font-size="10" font-weight="600" fill="#92400e">Calibration: chimp-human = 6 Mya</text>
      <text x="110" y="30" text-anchor="middle" font-size="9" fill="#374151" class="mono">fixed from Sahelanthropus fossil</text>
    </g>
  </g>

  <!-- 95% credible interval bars on internal nodes -->
  <g transform="translate(120,80)" stroke="#7c3aed" stroke-width="2.5" stroke-linecap="round" opacity="0.7">
    <line x1="60" y1="184" x2="120" y2="184"/>
    <line x1="195" y1="264" x2="255" y2="264"/>
    <line x1="650" y1="324" x2="700" y2="324"/>
  </g>
  <g transform="translate(120,80)" font-size="9" fill="#7c3aed" class="mono">
    <text x="90" y="172" text-anchor="middle">95-105 Mya</text>
    <text x="225" y="252" text-anchor="middle">82-92 Mya</text>
    <text x="675" y="312" text-anchor="middle">23-28 Mya</text>
  </g>
  <g transform="translate(120,80)" font-size="9" fill="#374151" class="mono">
    <text x="846" y="192" text-anchor="middle">6 Mya (fixed)</text>
  </g>

  <!-- Bottom banner -->
  <g transform="translate(120,480)">
    <rect width="900" height="80" fill="#dcfce7" stroke="#065f46" rx="4"/>
    <text x="450" y="22" text-anchor="middle" font-size="12" font-weight="600" fill="#065f46">Relaxed clock + fossil calibration → absolute dates with credible intervals</text>
    <text x="450" y="42" text-anchor="middle" font-size="10" fill="#374151">Strict clock assumes constant rate. Relaxed clock allows lineage-specific rate variation (autocorrelated or uncorrelated). Calibration anchor turns relative time into absolute time.</text>
    <text x="450" y="62" text-anchor="middle" font-size="10" fill="#374151" class="mono">Software: BEAST 2, MrBayes, MCMCtree (PAML).</text>
  </g>
</svg>
