<svg xmlns="http://www.w3.org/2000/svg" viewBox="0 0 1200 700" width="1200" height="700" font-family="Inter, sans-serif">
  <defs><style>text { font-family: Inter, sans-serif; } .mono { font-family: 'JetBrains Mono', monospace; font-size: 10px; }</style></defs>
  <rect width="1200" height="700" fill="#fafaf9" rx="6"/>
  <text x="600" y="28" text-anchor="middle" font-size="14" font-weight="600" fill="#111827">Synteny dot plot — human chr17 × mouse chr11</text>

  <!-- Top inset: full chromosome scale -->
  <g transform="translate(60,60)">
    <text x="0" y="0" font-size="11" font-weight="600" fill="#525252">Inset: whole-chromosome view</text>
    <rect x="0" y="10" width="200" height="100" fill="#fff" stroke="#d6d3d1"/>
    <line x1="0" y1="60" x2="200" y2="60" stroke="#e7e5e4"/>
    <line x1="100" y1="10" x2="100" y2="110" stroke="#e7e5e4"/>
    <!-- Diagonal stripe -->
    <line x1="10" y1="100" x2="190" y2="20" stroke="#1e3a8a" stroke-width="2.5" opacity="0.6"/>
    <line x1="60" y1="80" x2="140" y2="50" stroke="#1e3a8a" stroke-width="2.5" opacity="0.6"/>
    <text x="100" y="125" text-anchor="middle" font-size="9" fill="#525252" class="mono">human chr17</text>
    <text x="-50" y="60" font-size="9" fill="#525252" class="mono" transform="rotate(-90 -50 60)">mouse chr11</text>
  </g>

  <!-- Main plot -->
  <g transform="translate(140,140)">
    <rect width="700" height="500" fill="#fff" stroke="#d6d3d1" stroke-width="1.5"/>
    <!-- Grid -->
    <g stroke="#e7e5e4" stroke-width="0.5">
      <line x1="0" y1="100" x2="700" y2="100"/>
      <line x1="0" y1="200" x2="700" y2="200"/>
      <line x1="0" y1="300" x2="700" y2="300"/>
      <line x1="0" y1="400" x2="700" y2="400"/>
      <line x1="100" y1="0" x2="100" y2="500"/>
      <line x1="200" y1="0" x2="200" y2="500"/>
      <line x1="300" y1="0" x2="300" y2="500"/>
      <line x1="400" y1="0" x2="400" y2="500"/>
      <line x1="500" y1="0" x2="500" y2="500"/>
      <line x1="600" y1="0" x2="600" y2="500"/>
    </g>

    <!-- X-axis (human chr17, 0-80 Mb) -->
    <g class="mono" font-size="10" fill="#525252">
      <text x="0"   y="520" text-anchor="middle">0</text>
      <text x="100" y="520" text-anchor="middle">10</text>
      <text x="200" y="520" text-anchor="middle">20</text>
      <text x="300" y="520" text-anchor="middle">30</text>
      <text x="400" y="520" text-anchor="middle">40</text>
      <text x="500" y="520" text-anchor="middle">50</text>
      <text x="600" y="520" text-anchor="middle">60</text>
      <text x="700" y="520" text-anchor="middle">70 Mb</text>
    </g>
    <text x="350" y="544" text-anchor="middle" font-size="11" fill="#374151">human chromosome 17 (Mb)</text>

    <!-- Y-axis (mouse chr11, 0-120 Mb), inverted -->
    <g class="mono" font-size="10" fill="#525252">
      <text x="-10" y="0" text-anchor="end">120</text>
      <text x="-10" y="80" text-anchor="end">100</text>
      <text x="-10" y="166" text-anchor="end">80</text>
      <text x="-10" y="250" text-anchor="end">60</text>
      <text x="-10" y="334" text-anchor="end">40</text>
      <text x="-10" y="416" text-anchor="end">20</text>
      <text x="-10" y="500" text-anchor="end">0</text>
    </g>
    <text x="-60" y="250" text-anchor="middle" font-size="11" fill="#374151" transform="rotate(-90 -60 250)">mouse chromosome 11 (Mb)</text>

    <!-- Conserved synteny blocks: dotted diagonals -->
    <!-- Block 1: 5-15 Mb human / 90-100 Mb mouse -->
    <g fill="#1e3a8a">
      <circle cx="50" cy="375" r="2"/><circle cx="60" cy="365" r="2"/><circle cx="70" cy="355" r="2"/>
      <circle cx="80" cy="345" r="2"/><circle cx="90" cy="335" r="2"/><circle cx="100" cy="325" r="2"/>
      <circle cx="110" cy="315" r="2"/><circle cx="120" cy="305" r="2"/><circle cx="130" cy="295" r="2"/>
      <circle cx="140" cy="285" r="2"/><circle cx="150" cy="275" r="2"/>
    </g>
    <!-- Block 2: 18-28 Mb human / 70-80 Mb mouse (HOXB cluster) -->
    <g fill="#0d7377">
      <circle cx="180" cy="208" r="2.5"/><circle cx="190" cy="200" r="2.5"/><circle cx="200" cy="195" r="2.5"/>
      <circle cx="210" cy="190" r="2.5"/><circle cx="220" cy="184" r="2.5"/><circle cx="230" cy="178" r="2.5"/>
      <circle cx="240" cy="172" r="2.5"/><circle cx="250" cy="168" r="2.5"/><circle cx="260" cy="162" r="2.5"/>
      <circle cx="270" cy="156" r="2.5"/><circle cx="280" cy="150" r="2.5"/>
    </g>
    <!-- Block 3: 30-45 Mb human / 50-65 Mb mouse -->
    <g fill="#1e3a8a">
      <circle cx="300" cy="320" r="2"/><circle cx="310" cy="310" r="2"/><circle cx="320" cy="300" r="2"/>
      <circle cx="330" cy="290" r="2"/><circle cx="340" cy="280" r="2"/><circle cx="350" cy="270" r="2"/>
      <circle cx="360" cy="260" r="2"/><circle cx="370" cy="250" r="2"/><circle cx="380" cy="240" r="2"/>
      <circle cx="390" cy="230" r="2"/><circle cx="400" cy="220" r="2"/><circle cx="410" cy="210" r="2"/>
      <circle cx="420" cy="200" r="2"/><circle cx="430" cy="190" r="2"/><circle cx="440" cy="180" r="2"/>
      <circle cx="450" cy="170" r="2"/>
    </g>
    <!-- Block 4: 50-58 Mb human / 30-38 Mb mouse (TP53 region) -->
    <g fill="#b45309">
      <circle cx="500" cy="376" r="2.5"/><circle cx="510" cy="368" r="2.5"/><circle cx="520" cy="360" r="2.5"/>
      <circle cx="530" cy="352" r="2.5"/><circle cx="540" cy="344" r="2.5"/><circle cx="550" cy="336" r="2.5"/>
      <circle cx="560" cy="328" r="2.5"/><circle cx="570" cy="320" r="2.5"/>
    </g>
    <!-- Block 5: 60-70 Mb human / 10-20 Mb mouse (CDKN1B / inverted) — y increases
         with x, giving the anti-diagonal that signals reverse orientation in a
         dot plot. (Was forward-diagonal before, mismatching the legend.) -->
    <g fill="#7c3aed">
      <circle cx="600" cy="380" r="2"/><circle cx="610" cy="390" r="2"/><circle cx="620" cy="400" r="2"/>
      <circle cx="630" cy="410" r="2"/><circle cx="640" cy="420" r="2"/><circle cx="650" cy="428" r="2"/>
      <circle cx="660" cy="436" r="2"/><circle cx="670" cy="444" r="2"/><circle cx="680" cy="452" r="2"/>
    </g>
    <!-- Off-diagonal noise: rearrangements -->
    <g fill="#9ca3af" fill-opacity="0.5">
      <circle cx="70" cy="120" r="1.5"/>
      <circle cx="160" cy="430" r="1.5"/>
      <circle cx="220" cy="450" r="1.5"/>
      <circle cx="380" cy="100" r="1.5"/>
      <circle cx="450" cy="420" r="1.5"/>
      <circle cx="520" cy="120" r="1.5"/>
      <circle cx="580" cy="280" r="1.5"/>
      <circle cx="120" cy="80" r="1.5"/>
      <circle cx="640" cy="60" r="1.5"/>
    </g>

    <!-- Annotations -->
    <g transform="translate(190,160)">
      <line x1="0" y1="40" x2="40" y2="0" stroke="#0d7377" stroke-dasharray="3 2"/>
      <text x="-20" y="-4" font-size="10" font-weight="600" fill="#0d7377" class="mono">HOXB cluster</text>
    </g>
    <g transform="translate(540,330)">
      <text x="20" y="-12" font-size="10" font-weight="600" fill="#b45309" class="mono">TP53 region</text>
    </g>
    <g transform="translate(640,400)">
      <text x="-12" y="-20" font-size="10" font-weight="600" fill="#7c3aed" class="mono">CDKN1B (inverted)</text>
    </g>
  </g>

  <!-- Side legend -->
  <g transform="translate(880,140)">
    <rect width="280" height="180" fill="#fff" stroke="#d6d3d1" rx="4"/>
    <text x="140" y="22" text-anchor="middle" font-size="11" font-weight="700" fill="#374151">Synteny block legend</text>
    <g transform="translate(20,40)" font-size="10" fill="#525252">
      <circle cx="6" cy="0" r="3" fill="#1e3a8a"/>
      <text x="18" y="4">collinear (forward orientation)</text>
      <circle cx="6" cy="22" r="3" fill="#7c3aed"/>
      <text x="18" y="26">inverted (reverse orientation)</text>
      <circle cx="6" cy="44" r="3" fill="#0d7377"/>
      <text x="18" y="48">notable: HOXB cluster (gene order)</text>
      <circle cx="6" cy="66" r="3" fill="#b45309"/>
      <text x="18" y="70">notable: TP53 (tumor-suppressor region)</text>
      <circle cx="6" cy="88" r="2" fill="#9ca3af"/>
      <text x="18" y="92">isolated paralog/spurious hit</text>
    </g>
    <text x="20" y="158" font-size="10" fill="#374151">Diagonal stripes are conserved synteny.</text>
    <text x="20" y="172" font-size="10" fill="#374151">Inversions and translocations break it.</text>
  </g>

  <!-- Bottom banner -->
  <g transform="translate(60,660)">
    <rect width="1080" height="34" fill="#dcfce7" stroke="#065f46" rx="4"/>
    <text x="540" y="22" text-anchor="middle" font-size="11" fill="#065f46">Conserved gene order across ~80 Myr is unusual — purifying selection is acting on the chromosome architecture, not just on individual genes.</text>
  </g>
</svg>
